<svg version="1.1" id="レイヤー_1" xmlns="http://www.w3.org/2000/svg" xmlns:xlink="http://www.w3.org/1999/xlink" x="0px"
	 y="0px" viewBox="0 0 31.7 26.4" style="enable-background:new 0 0 31.7 26.4;" xml:space="preserve">
<style type="text/css">
	.st0{fill:#FF953A;}
</style>
<path class="st0" d="M29,1.7c-1.7,0.3-3.3,0.9-4.7,1.8c-1.9,1.1-5.2,5.8-7.8,9.8C12.8,7.9,5.9-0.1,4.4,0C2.2,0.2,0,3.3,0,5.7v0.7
	C0.4,8.5,7.4,17.1,11.9,22c-0.1,0.3-0.1,0.5-0.1,0.8c0.2,2.2,2.7,3.8,4.8,3.6c0.5-0.1,0.9-0.3,1.3-0.5c2.6-1.5,13.7-19.6,13.7-22.3
	C31.7,1.9,29.9,1.6,29,1.7z"/>
</svg>
