<svg version="1.1" id="レイヤー_1" xmlns="http://www.w3.org/2000/svg" xmlns:xlink="http://www.w3.org/1999/xlink" x="0px"
	 y="0px" viewBox="0 0 199.6 212.1" style="enable-background:new 0 0 199.6 212.1;" xml:space="preserve">
<style type="text/css">
	.st0{fill:#E8B368;}
</style>
<g transform="translate(-15.988 -15.887)">
	<path class="st0" d="M168.5,226.5l-1.8-3.1l0.6,0l-0.8-0.9c-0.5-0.5-0.9-1.1-1.2-1.8l0.4-0.2c-1.1-1.9-1.7-2.2-2.5-2.2
		c-0.3,0-0.6,0.1-1.4-1.1l0,0l0,0l0.8-0.5l1.4,0.9l0.2-0.6c0.3-1.1-0.5-2.4-1.2-3.5c-0.3-0.5-0.6-1-0.8-1.5l-1-4l0,4.1
		c0,0.1,0,0.1,0,0.2c-0.1,0-0.2,0.1-0.3,0.1c0,0,0,0-0.1,0.1l-0.5-1.9c0.2,0.1,0.4,0,0.6-0.1c0.4-0.3,0.1-0.8,0-1.2l-0.1-0.1
		c-2.4-2.9-4.1-4.7-6.6-5.9l-2.7-1.3l0,0c-0.1,0-0.1-0.1-0.2-0.1l-0.7-0.3c0,0,0,0,0-0.1l0.6-0.4c-0.2-0.4-0.5-0.8-0.8-1.2
		c-0.3-0.5-0.6-0.9-0.9-1.4l0.4-0.2c-0.1-0.2-0.2-0.4-0.3-0.6l-0.4,0.3c-0.2-0.3-0.3-0.6-0.4-0.9l0.4-0.2l-0.4-0.5
		c-0.2-0.3-0.5-0.5-0.8-0.7c-0.4-0.3-0.7-0.6-1-0.9l-0.1-0.1l-0.2,0c-0.2,0-0.5,0-0.7,0c0.2-0.2,0.3-0.5,0.2-0.7
		c0-0.7-0.7-1.4-2.1-2.3l-0.4-0.2l-0.8-1.2l-0.3-0.1l-0.3,0.5l-0.2-0.1l0.1,0.2l-0.2,0.3l0,0l0.6,0.4l0.6,1l-0.1,0
		c-0.1,0-0.2,0.1-0.4,0.2c-0.1-0.4-0.5-0.8-0.9-1.3c-0.2-0.2-0.4-0.4-0.6-0.7l-0.1-0.1l-0.1,0c-0.8-0.3-1.5-0.8-2.1-1.4
		c-0.5-0.6-1.2-1-1.9-1.3l0.2-0.2l-0.1-0.3l-0.1-0.2c-0.7-0.6-1.3-1-1.9-0.4c-0.9-0.3-1.7-0.9-2.2-1.7c-0.4-0.6-0.9-1.1-1.5-1.4
		l-0.1-0.1l-0.1,0c-1.4-0.2-3.7-1.4-5.7-2.5c-0.5-0.3-1-0.6-1.5-0.8c0-0.1,0-0.3,0-0.4c0,0,0-0.1,0-0.1l0.1-0.6l-0.6,0
		c-0.8,0.1-1.5,0.1-2.3-0.1c-0.3-0.1-0.8-0.2-1.5-0.3l-1.8-0.3l1,0.9c-0.5-0.1-1-0.3-1.3-0.7l-0.6,0.4c-0.2,0-0.3-0.1-0.4-0.1l-1-4
		l-0.3,3c-0.1,0-0.3,0-0.4-0.1l0.2-0.4c-0.3-0.2-0.6-0.4-0.9-0.5l-0.5,0.8c-0.1,0-0.3,0-0.4,0.1l-1.9-1l-0.9-1l0.3,0.7l-1.1-0.5
		l0-0.5c1.1,0.4,1.6,0.2,2.1-0.3c0.2-0.2,0.3-0.3,0.8-0.1l0.4-0.9c-0.3-0.2-0.5-0.3-0.8-0.5c-0.5-0.5-1.1-0.8-1.8-0.9
		c-0.6-0.2-1.2-0.3-1.7-0.5l-2.6-0.8c-0.4-0.2-1-0.3-1.4-0.1c-0.1,0-0.2,0.1-0.7,0l-1.5-0.4l-0.1-0.1c0.2-0.2,0.5-0.4,0.8-0.4
		l2.3-0.4l-2.3-0.5c-1.6-0.6-3.1-1.3-4.5-2.3c-0.9-0.6-1.9-1.2-2.8-1.7l-0.5-0.3l-0.1,0.2c-0.2-0.2-0.4-0.3-0.6-0.5l-0.1-0.1l-1,0.1
		l0-0.1h-1.9l0.8-0.6l-2.5-0.8c0,0,0,0,0,0c0.1-0.3,0-0.5-0.2-0.7l-0.1-0.1l-0.2,0c-0.3-0.1-0.5-0.2-0.8-0.3l0.2-0.1l-0.6-0.5
		c-1.5-1.2-3.1-2.1-4.9-2.7l-0.2-0.1l-0.2,0.1c-0.4,0.2-0.8,0.4-1.2,0.5l-0.7-0.4c0-0.1,0-0.1,0-0.2l0-0.1c0.1,0,0.1,0,0.2,0
		l1.8-0.2l-2.1-1l0.2-0.2l-0.6-0.4c-0.3-0.2-0.7-0.3-1-0.5c-0.5-0.1-1-0.4-1.4-0.8L78,155h-0.3c-0.5,0-1.1-0.1-1.6-0.3
		c-0.2-0.1-0.3-0.3-0.5-0.5l1.8-0.6l-2.6,0l-0.1-0.1l-0.1,0.1l-0.4,0c0,0,0,0,0,0c0-0.1,0-0.1,0-0.2c-0.3-0.6-0.7-1-1.3-1.2l-0.4,0
		l-0.1,0.2c-0.1-0.1-0.1-0.2-0.2-0.3l0,0l-1.9-3.4l-0.1-0.1c-1.1-0.7-2.1-1.5-3.1-2.3c-0.7-0.6-1.5-1.3-2.5-1.9l-0.3-0.6
		c-0.8-1.5-2.2-2.5-3.9-2.9l-0.3-0.4l0,0.3c-0.4-0.1-0.8-0.1-1.2-0.3l-1.8-2.6l1.4,1.1l-2.6-3.4c-1.2-1.6-2.1-2.4-3.5-2.7
		c-1-0.7-1-0.9-0.9-1c0.1-0.3,0.1-0.7,0-1.1l0.8,0.2l-1.3-1.3c-0.4-0.4-0.8-0.8-1.1-1.2l-1-1.1l0,1l-1.2-0.9
		c-0.3-0.2-0.8-0.5-1.2-0.2c-0.4,0.3-0.2,0.7-0.2,1c0,0.1,0,0.2,0.1,0.3c0-0.2,0.1-0.3,0.3-0.3l0.1,0.8l-0.3-0.2l0,0
		c0,0-0.2-0.2-0.5-0.5c0,0,0.1-0.1,0.1-0.1c0.2-0.3,0.1-0.8-0.1-1.4l2.4,0.5l-2.4-2.4l0.1,0.1l-0.1-0.1l1.6,0.8l-2.1-2.2l-0.1-0.1
		c-0.4-0.5-0.7-0.9-1.2-0.7l-0.4,0.2l0,0c-0.1,0-0.3,0-0.4-0.1c-0.4-0.1-0.7-0.1-1.8-1.1l-0.8-0.8l1.1,0.7l-0.1-0.2
		c0.7,0.4,1.5,0.7,1.9,0.4l1.8-1.1L44,121l0,0c0.1-0.1,0.4-0.4,0.1-0.9l-0.1-0.2l-0.3-0.1c-0.2-0.1-0.3-0.2-0.5-0.3
		c-0.3-0.3-0.7-0.5-1.1-0.6l-0.2-0.2c0,0,0.1,0,0.1,0l1.7-0.1l-1.5-0.8c-0.4-0.2-0.9-0.3-1.4-0.3c-0.1-0.8-0.1-1.5-0.1-2.3
		c0-0.5-0.1-1.1-0.3-1.6l0.4,0.5l-0.5-2.2c0.1-0.1,0.1-0.1,0.2-0.2l0.2-0.2l-0.1-0.2c-0.2-0.7-0.3-1.4-0.2-2.1c0-0.4,0.1-0.7,0-1.1
		l-0.2-0.9l-0.6,0.5c-0.1-0.5-0.2-1.1-0.2-1.7c0-0.6-0.1-1.3-0.3-1.9l-0.2-0.8l0.5-0.3l-0.1-0.1c-0.1-0.3-0.2-0.6-0.2-1
		c0-0.5-0.2-1-0.4-1.4c-0.1-1-0.1-2,0-3c0-0.3,0-0.7,0-1c0,0,0.1-0.1,0.1-0.1l0.2-0.2l-0.1-0.3c0-0.1-0.1-0.2-0.1-0.2
		c0.2-3.1,0.6-6.1,1.2-9.1c0.7-3.1,1.7-6.1,2.9-9l0,0c0.2-0.4,0.4-0.8,0.6-1.2l-0.5-0.2l0.9-2.2l-1,0.3h0c0.1-0.2,0.2-0.2,0.3-0.2
		c0.4,0,0.8-0.1,1.5-0.8l0.1-0.1c0.2-0.3,0.3-0.7,0.5-1l0.9-1.2c0.1-0.2,0.2-0.4,0.2-0.6c0.7-1.1,1.4-2.1,2.2-3.2l0.8,1l-0.5-1.3
		c1.1-1.4,2.4-2.8,3.7-4.1c0.3-0.4,0.5-0.8,0.3-1.1s-0.6-0.4-0.9-0.4H52v0l0.4-1l1.3,0l0,0l0.1-0.1l1,0l0.2-0.7l0.4-0.2
		c0.2,0.2,0.5,0.3,0.9,0.3c0.5,0,1.1-0.3,1.5-0.6l0.5-0.4L57.7,58l0.3-0.1l0,0c0.5-0.2,0.9-0.4,1.3-0.6l-0.4-0.9L57.6,57
		c-0.4,0.1-0.7,0.3-1,0.4l-0.8,0.3l0.2,0.2c-0.1,0.1-0.3,0.1-0.4,0.2c-0.2-0.1-0.3-0.2-0.5-0.3l-0.5-0.1l-0.3,1.1l-1.6,0.9l0.2-0.4
		l-1.5,1.2c-0.8,0.7-1.8,1.6-2.6,2.3l-0.1,0.1c-0.4,0.4-0.8,1-1.1,1.5c-0.1,0-0.2,0.1-0.3,0.2L47,64.7l-0.1,0.6c0,0.2,0,0.4-0.1,0.5
		L46,65.3c-0.1,0.2-0.3,0.4-0.4,0.6l0,0c-0.3,0.4-0.6,0.9-0.9,1.3c-1.9,2.8-3.7,5.4-4.5,9.1l-0.3,1.5l-0.1,0c-0.1,0-0.3,0.1-0.3,0.1
		l-0.4-0.3l-0.3,0.4c-0.6,0.9-0.8,2.1-0.5,3.1c0.2,0.6,0.2,1.2,0.1,1.7c-0.2-0.1-0.3-0.1-0.5-0.1c-0.3,0.1-0.5,0.4-0.6,1h-0.1
		c0,0.6-0.2,1.2-0.6,1.7c-0.3,0.3-0.4,0.7-0.4,1.2l-0.5-0.1l0.1,0.8c0.1,0.8,0.1,1.5,0,2.3c0,0.5-0.1,1-0.1,1.5l-0.4-0.3l0.2,1.2
		c0.2,0.9,0.2,1.8,0.2,2.8l0,0.3c0,0.1,0,0.3,0,0.4l-0.4-0.9l-0.4,1.4c-0.2,0.7-0.1,1.4,0.2,2l0,0l-0.6,0.1c0,0.1,0,0.2,0.1,0.3
		l-0.7-1.3l0.6,3.1c0,0.2,0.1,0.4,0.1,0.6c-0.2,0-0.4,0-0.5,0.1l-0.1,0c0-0.1-0.1-0.1-0.1-0.2l-0.7-0.9l0,0.2l-0.1-0.1
		c-0.3-0.5-0.7-1-1.1-1.3l-1-0.7l0.2,1.2c0.1,0.7,0.4,1.3,0.9,1.7c0.5,0.4,0.7,1,0.8,1.6c0,0.1,0,0.3,0,0.4c-0.2-0.1-0.4-0.1-0.5,0
		c-0.2,0.1-0.4,0.3-0.5,0.5l0,0c-0.1-0.1-0.2-0.2-0.2-0.2c0.1-0.3,0.1-0.7,0-1c0-0.1,0-0.2,0-0.4c0,0.1-0.1,0.2-0.2,0.2
		c-0.1,0-0.2,0.1-0.3,0l0,0l0.6-0.8l-0.9-0.8c0-0.4,0-0.8-0.1-1.3c-0.1-0.4-0.1-0.8,0-1.1l0.3-0.2l-0.1-0.3
		c-0.1-0.3-0.3-0.6-0.6-0.8l0.1-0.2c0.3-1,0.2-2-0.2-3l-0.1-0.3c0.1-0.1,0.2-0.3,0.2-0.5l0.4,0.7l0.2-1.6c0.1-0.6,0.1-1.3,0-1.9
		c0-0.6-0.1-1.1-0.3-1.6c-0.3-0.9-0.5-1.9-0.7-2.9c0.3-1.4,0.7-2.8,1.1-4.2c0.2-0.6,0.4-1.2,0.5-1.7l0.6-0.7
		c-0.1,0.3,0.1,0.6,0.4,0.8c0.4,0.2,0.8-0.2,1-0.4l0.4-0.4l-0.4-0.3c-0.2-0.2-0.1-0.8,0.4-2c0.6-0.9,1-1.9,1.3-2.9c0,0,0,0,0.1,0
		c0.3,0.1,0.5,0,0.7-0.3l0.1-0.2L36,72.8c0.1-0.1,0.2-0.2,0.3-0.3l0.3,0.1l0.2-0.3c1.2-1.6,2.2-3.3,2.8-5.2l-0.9-0.4l0,0l0.6,0
		c0.3,0,0.6-0.1,0.8-0.3l0.2,0.2l0.5-0.2l0.1-0.2c0.5-1.1,1.3-2.1,2.3-2.8c0.3-0.3,0.6-0.5,0.9-0.7c0.8-0.7,1.4-1.1,1.5-1.6
		c0.8-1.5,1.7-2.9,2.8-4.2c0.9-0.4,1.7-0.9,2.5-1.5l0.7-0.4l0.6-0.4l-0.1,0.3l1.2-0.7c0.5-0.3,1.2-0.6,1.9-1c0.6-0.4,1.3-0.7,2-1
		l0.6,0.3l0.2-0.1c0.5-0.3,1.2-0.6,1.9-1c0.6-0.2,1.2-0.5,1.9-0.7c0,0.1,0.1,0.2,0.2,0.3L62,51.8l0.7-1c0,0,0.1,0,0.1,0l0.3-0.1
		l0.1-0.6l0.1-0.2l0,0l0,0l0.2-0.1c1.9-0.8,4.7-1.8,6.9-2.5l1.2-0.4c0.3,0.1,0.6,0.1,1,0.1c0.4,0,0.8,0,1.3-0.1
		c0.8-0.2,1.6-0.2,2.4-0.1l0,0.6c0.8,0.1,1.6,0.1,2.3,0.1c0.5,0,1.1,0,1.6,0c0.7,0,1.3,0,2,0l1.6,0l0.7,0.7l0.1,0
		c1.1,0.4,1.6,0.5,2,0.2c0.2-0.2,0.3-0.4,0.3-0.7c0.4,0,0.8,0.1,1.2,0.2c0.6,0.6,1.3,1,2.1,1.3l0.6,0.3c0.2,0.1,0.3,0.2,0.4,0.3
		c0,0,0.1,0.1,0.1,0.1l-0.2,0.3l0.7,0.3c0.5,0.3,1.1,0.3,1.6,0l0.1,0c0,0.1-0.1,0.1-0.1,0.2c-0.1,0.3,0.1,0.5,0.3,0.6
		c0.5,0.3,1.1,0.6,1.7,1l1.8,1.4c0.3,0.2,0.6,0.5,0.8,0.7c0.3,0.3,0.5,0.5,0.8,0.7c0.1,0.1,0.3,0.2,0.5,0.4c0.1,0.1,0.3,0.2,0.4,0.3
		c0.3,0.2,0.5,0.4,0.8,0.6l2.1,1.3l-1.5-2c0.3,0.2,0.5,0.4,0.8,0.5l1.6,0.7l0.1,0.5l0.1-0.1l0,0l0.1-0.1l-0.1,0.2
		c0.2,0.1,0.5,0.6,0.7,1c0.1,0.2,0.2,0.3,0.3,0.5h-0.2l1.8,1.8l0.8-0.6L107,60l1.5,0l-2.1-0.8c-0.3-0.4-0.5-0.7-0.7-1L105,56
		c-0.3-0.9-0.8-1.7-1.3-2.4c-0.5-0.6-1.1-1.1-1.8-1.5c-0.3-0.2-0.6-0.5-0.9-0.7c-0.6-0.4-1.2-0.9-1.7-1.4c0.1-0.2,0.1-0.4,0.1-0.6
		l0.1-0.3L99.2,49l0.8,0.1l-2.2-0.8c-0.2-0.1-0.3-0.1-0.5-0.2l0.5-0.7c-0.1-0.1-0.2-0.1-0.2-0.2c-0.5-0.4-1.1-0.7-1.8-1L95.4,46
		c-0.5-0.3-1.1-0.5-1.7-0.7l-2.4-0.7c-0.2-0.1-0.5-0.1-0.7-0.2l-3.2-0.6l-2.2-0.3c-0.7-0.1-1.4-0.2-2.1-0.3c-0.5-0.1-1-0.1-1.5-0.2
		c-0.1-0.2-0.2-0.3-0.4-0.4l-0.1,0c-0.5,0-1,0-1.5,0.1v0c-0.1,0-0.3,0-0.4,0c-0.6,0-1.3,0-1.9-0.1c-0.4,0-0.7-0.1-1.1-0.1
		c-0.3,0-0.6,0-0.8,0c-0.5-0.1-0.9-0.1-1.4-0.1v-0.1l-0.5-0.1h-0.1c-2,0.1-4,0.5-5.9,1.3c-0.8,0.3-1.5,0.5-2.4,0.8
		c-0.2-0.3-0.8-0.2-1.6-0.2c-0.3,0-0.7,0.1-1,0.1h-0.1l-0.1,0c-0.4,0.2-0.9,0.4-1.4,0.6c-0.4,0.2-0.9,0.4-1.3,0.6L57.9,46l-3.5,1.7
		L52.2,49c-0.4,0.2-0.8,0.5-1.2,0.7l-1,0.7c-0.5-0.3-1.2,0.1-2.7,1l-0.1,0.1c-0.7,0.5-2,1.5-2.4,1.5l-0.3-0.1l-0.2,0.2
		C44,53.4,42,55,42.6,55.8c-0.4,0.4-0.8,0.8-1,1.4l-2,1l0.4,0.5c0.1,0.1,0.1,0.4-0.3,0.8c-0.3,0.1-0.6,0.3-0.9,0.5l-0.1-0.7
		l-0.3,0.3l1.4-2l-2.7,2.1c-0.2,0.1-0.4,0.3-0.5,0.4c-0.4,0.3-0.7,0.6-1.1,0.9l-0.1,0.1l0,0.1c-0.4,1.1-0.8,2.1-1.3,3.1
		c-0.4,0.8-0.8,1.7-1.4,2.4c0,0,0,0,0,0c-0.3-0.2-0.7-0.1-1,0.1l-0.2,0.1L31.5,67c-0.2,0.4-0.3,0.8-0.4,1.2
		c-0.3,0.9-0.7,1.8-1.2,2.5l-0.2-0.1c-0.2,0.8-0.5,1.5-1.1,2.1c-0.3,0.3-0.5,0.6-0.8,1l-0.4-0.9l-0.4,2.1C27,75.3,27,75.6,26.9,76
		c0,0.9-0.4,1.8-1,2.5c-0.2,0.2-0.4,0.4-0.7,0.6c0.1-0.6,0.2-1.3,0.2-1.9l0-0.1c-0.3-1.6-1.5-1.7-2.4-1.8c-0.3,0-0.6-0.1-1-0.2
		l-0.4-0.1l-0.2,0.3c-0.5,0.7-0.8,1.5-1,2.3c-0.2,0.9-0.5,2.5,0.3,2.9l0.3,0.1c0,0.3,0.1,0.5,0.5,0.6c-0.1,0.1-0.2,0.1-0.2,0.2
		l-0.2,0.2l0.1,0.2c0.1,0.3,0.1,0.6,0.1,0.8c0,0.3,0.1,0.6,0.3,0.8c0.1,0.1,0.2,0.1,0.3,0.1c0.1,0.6,0.2,1.2,0.4,1.7
		c0,0.2-0.1,0.4-0.2,0.6l0.5,0.2c0,0.1,0.1,0.2,0.1,0.4v0l-0.3,0.1l0,0.3c-0.1,0.7-0.2,1.4-0.3,2c-0.3,1.2-0.4,2.5-0.5,3.7l-0.1,0
		l0,0.5c0,0.3,0,0.7,0.1,1l-0.3,0.5h-0.4c-0.1-0.3-0.2-0.5-0.3-0.7c0-0.1-0.1-0.2-0.2-0.3c0.1-0.9,0.1-1.8,0.1-2.7
		c0-0.6,0-1.1,0-1.7c0-1.4,0.2-2.5,0.8-3.1l0.1-0.1l0-0.2c0.2-0.9,0.1-1.8-0.2-2.7c-0.1-0.3-0.2-0.6-0.2-0.9l0-0.3l-0.2-0.1
		c-0.2-0.1-0.5-0.1-0.7,0c-0.3,0.2-0.6,0.5-0.7,0.9l-0.7-0.2c-0.2,0.6-0.3,1.2-0.3,1.9l0,0.6l0.2,0c-0.1,0.2-0.1,0.4-0.2,0.5
		c-0.1,0.1-0.2,0.2-0.3,0.3l-2,2.7l2-1.5c0,0.2-0.1,0.3-0.1,0.5l0.8,0.2c0,0.2,0.1,0.4,0.1,0.7l-0.5,1.2c-0.2,0.8-0.3,1.6-0.1,2.4
		c0.1,0.4,0.1,0.8,0.1,1.2l-0.9-0.7l0.3,1.3c0.3,1.3,0.5,2.7,0.7,4l-0.7,0.4c0.7,1.5,1,4.7,0.7,9l-0.1,2l0,0l0,0.1l-0.1,1.4l0.3-0.8
		c0.1,0.3,0.1,0.7,0.2,1l0,0c-0.2-0.1-0.4,0-0.5,0.1l-1.1-0.3l0.8,0.8l0,0.1c0.1,0.3,0.2,0.7,0.4,1c-0.4,0.9,0.4,3,0.4,3l0.1,0.1
		c0.8,1.5,1.6,3,2.2,4.5c0.4,1.1,0.9,2.1,1.4,3.1c-0.1,0.1-0.1,0.2-0.1,0.3l0,0.1l0.1,0.1c0.5,1,0.9,1.9,1.2,2.7
		c1,2.3,2.1,4.6,3.5,6.7l0.1,0.2l1.8,0.1l0.5,0.6l-0.3-0.7l0.3-0.2l0-0.1l1.1,0.5c0.5,0.2,0.8,0.6,0.9,1.1c0.1,0.8,0.6,1.4,1.3,1.7
		l0.3,0.2l0.2-0.3c0.1-0.2,0.2-0.3,0.3-0.4c0.1-0.1,0.2-0.2,0.3-0.3c0,0.1,0.1,0.3,0.1,0.5c0,0.2-0.1,0.2-0.1,0.2l0.3,0.9l0.3-0.1
		c0,0.1,0.1,0.1,0.1,0.2c0,0.1,0.1,0.1,0.1,0.2l-0.4,0.5l2,0.3l0,0.4c0,0.1,0,0.1,0,0.2l-4.2-1.3l3.2,2c0.2,0.1,0.4,0.2,0.6,0.2
		c0.1,0,0.1,0,0.1,0l0.2-0.1l0.2-0.4c0.2,0.4,0.6,0.8,1,1c-0.1,0.4-0.1,0.8,0.1,1.1l0.1,0.3l0.7,0.1l0.1,0.1
		c0.2,0.2,0.4,0.5,0.5,0.6l-1,1.4l1.8-0.9c0.1-0.1,0.2-0.1,0.3-0.3c0.2,0.1,0.4,0.3,0.6,0.4l-0.6,0.6c0,0-0.1,0-0.1,0l-0.2,0.4
		l-0.4-0.2l0.3,0.4l-0.1,0.2c0.1,0.1,0.3,0.1,0.4,0.2L40,146c0.5,0.8,1.3,1.3,2.2,1.2l1,0.5l-0.3-0.5c0.5,0.2,0.9,0.5,1.3,0.9
		c-0.3,0.3-0.1,0.8,0.1,1.1l0,0.1l-0.6,0.4l0.9,0.4c0.6,0.2,1.2,0.5,1.8,0.7l0.8,0.3c0.8,0.9,1.7,1.7,2.8,2.4c0.1,0,0.1,0.1,0.2,0.1
		l0.2-0.3c0.2,0.1,0.3,0.3,0.4,0.5l-0.3-0.1l0.5,0.3c0.1,0.1,0.1,0.2,0.2,0.3c0,0,0.1,0.1,0.1,0.1l-0.8-0.3l1.6,1.6
		c1,1,2.1,1.8,3.4,2.3l0.4,0.6c0.4-0.2,1.8,0.5,2.5,0.9c0.4,0.2,0.8,0.4,1.2,0.5l0.2-0.5l0.7,0.1l-0.2,0.4c0.1,0,0.1,0.1,0.2,0.1
		c0.2,0.1,0.3,0.2,0.4,0.2c0.2,0.2,0.6,0.3,0.8,0.2c0.2,0.2,0.4,0.3,0.5,0.4l-0.1,0l0.1,0.2l0.2-0.1l0,0c-0.2,0.1-0.4,0.3-0.4,0.6
		c0,0.2,0,0.3,0.1,0.5c0,0-0.1,0-0.1,0l-1.7-1.4l-0.6,0.5c-0.4-0.3-0.9-0.5-1.5-0.5c-0.2,0.1-0.4,0.2-0.5,0.4l-0.2,0.3l0.2,0.3
		c0.8,1,1.9,1.8,3.1,2.3l1.5,0.6L62,164l0.7,0.3l0.1,0l0.2-0.5c0.9,0.2,1.8,0.3,2.7,0.3l1.5-0.1c0.2,0.4,0.5,0.8,0.8,1.2h-0.4
		c0-0.1,0-0.2-0.1-0.3l-0.1-0.3l-0.3,0h-0.4l-0.2,0.3c-0.2,0.3,0,0.7,0.2,0.9l0.2,0.3c0,0,0,0,0,0c-0.1-0.1-0.1-0.1-0.2-0.2
		l-0.1,0.1c-0.1-0.1-0.2-0.2-0.3-0.3l-0.7,0.7c0.2,0.2,0.4,0.4,0.6,0.6l0.1-0.1c0.3,0.4,0.5,0.8,0.6,1.2l-1.2,0.4l1.4,0.5
		c0.2,0.1,0.3,0.1,0.5,0.1c0.2,0,0.4-0.1,0.5-0.2c0.4-0.3,0.2-0.9,0.1-1.3l0-0.1c0.1,0,0.2,0.1,0.3,0.1l0.3,0.2l0.3,0.3
		c0.8,0.9,3.5,2.1,6.3,3.3c0.4,0.2,0.7,0.3,1.1,0.5l0.5,0.6c0.9,1.4,2.6,2,4.1,1.5c0.3-0.1,0.6-0.1,0.9-0.1c0.3,0.4,0.7,0.7,1.1,0.9
		c0.4,0.2,0.7,0.5,1,0.8l0.1,0.2l0.2,0c0.5,0.1,1,0.1,1.5,0.2c1.3,0.1,2.5,0.4,3.7,0.9c0,0,0,0.1,0,0.1c-0.3,0.9,0.2,1.9,1.1,2.2
		l0.1,0.1l1.3,0c0.6,0.2,1.1,0.5,1.7,0.7c0.4,0.1,0.8,0.3,1.1,0.4l0.8,0.6c0.5,0.5,1.2,0.6,1.8,0.4c0.2-0.1,0.3-0.2,0.4-0.4l0.5,0.1
		c0.8,0.2,1.5,0.3,2.4,0.4l0.3,0l0,0.6c-0.2,0.1-0.4,0.2-0.6,0.2l0.1,1c0.2,0,0.4,0,0.6,0.1l0,0.5l0,0c-0.4-0.2-0.8-0.4-1.1-0.1
		s0,0.8,0.3,1.1l0.2,0.1c0.3,0.2,0.7,0.3,1.1,0.4c0.1,0,0.3,0,0.4-0.1c0.2-0.2,0.3-0.5,0.3-0.8c0-0.1,0-0.3-0.1-0.4l-0.2-0.6
		c0.3,0.1,0.6,0.2,0.9,0.3l-0.1,0.5c-0.1,0.4,0.1,0.8,0.5,0.9l0.9,0.4l-0.2-1c-0.1-0.2-0.2-0.4-0.3-0.6c0.3,0.1,0.7,0.3,1,0.4
		c2,0.8,3.7,1.4,4.8,1c0,0.1,0,0.3,0,0.4l0.1,0.2l1.3,0.5l0.2-0.5c0.3,0.1,0.6,0.3,1,0.4c1.8,0.7,3.5,1.6,5.2,2.6l0.9,1l-0.1,0
		c-0.4-0.1-0.9-0.2-1.1,0.3c0,0,0,0,0,0.1l-0.1-0.1l-2.7-1.1l2.2,1.9c0.2,0.2,0.5,0.4,0.7,0.5l-3.1-0.4l-1.4-0.8l0.7,0.7l-0.4-0.1
		l0.6,0.2l3.1,2.9l3.1,0.2l-3.9-2.1l1.8,0.7l1.2-0.5c0.4,0.2,0.6,0.3,0.7,0.7l0.1,0.4l0.4,0c1.4,0,2.7,0.5,3.8,1.4
		c0,0.3,0.3,0.5,0.6,0.7c0.1,0.1,0.3,0.2,0.4,0.3c-0.1-0.1-0.1-0.2,0-0.3c0,0,0-0.1,0.1-0.1l0,0l0,0.9c0.4,0.1,0.7,0.3,1,0.5
		c0.5,0.4,1,0.7,1.6,0.5l0.3-0.1c0.5,0.1,0.9,0,1.3-0.2c0.5-0.2,0.8-0.3,1.6,0.3c0.4,0.2,0.7,0.4,0.9,0.6c-0.3,0-0.5-0.1-0.7-0.1
		c-1.1-0.2-1.6-0.2-1.9,0.1l-0.2,0.3l0.3,0.7l0.4-0.1l0,0c0.6,0.1,1.1,0.4,1.6,0.7l-2.1-0.2l3.2,1.3c0.4,0.1,1,0.4,1,0.6l0.1,0.5
		l0.5-0.1c0.3-0.1,0.5-0.1,0.8-0.2l2.1,1l0,0.1c-0.1,0.3,0,0.6,0.2,0.9c0.4,0.4,0.8,0.6,1.3,0.5l0.4,0c0.8,0.3,1.3,0.5,1.7,0.3
		c0,0.1,0.1,0.2,0.1,0.3c0,0.1,0.1,0.1,0.1,0.2c-0.1,0-0.2,0.1-0.3,0.2c-0.2,0.2-0.2,0.4-0.2,0.6l0,0.1l0.1,0.1
		c0.5,0.6,1.1,1.2,1.7,1.6l1.9,1.1l-1.1-1.6c0.2,0.2,0.6,0.3,0.9,0.3c0.4,0.4,0.7,0.8,1,1.3l-0.1,0.3c0.8,0.4,1.5,0.8,2.1,1.4
		c0.4,0.3,0.8,0.6,1.1,0.8l0.1,1.2l2.1,1.8l0-0.3c0.5,0.4,1,0.8,1.5,1.1c0.6,0.4,1.2,0.8,1.6,1.4l1,1.3l-0.1-1.6
		c-0.3-1.2-0.8-2.3-1.5-3.2l0.8,0.1l-0.7-1c-0.3-0.4-0.5-0.8-0.8-1.2c-0.8-1.2-1.5-2.2-2.2-2.5l-0.9-0.3c-0.3-0.7-0.8-1.3-1.3-1.7
		c-0.3-0.3-0.5-0.6-0.7-0.8l-0.4,0.3c-0.6-0.4-1.2-0.9-1.7-1.4c-0.6-0.5-1.2-1-1.8-1.4l0.5-0.2l0-0.2c0.1-0.1,0.1-0.2,0.1-0.3
		c0.1-0.4-0.2-0.7-0.5-1c-0.1-0.1-0.3-0.3-0.3-0.3v0c0.5,0.2,1,0.5,1.4,0.7l0,0.2c0.8,0.2,1.4,0.7,1.9,1.3c0.4,0.5,0.9,0.9,1.4,1.2
		c0,0.1,0.1,0.2,0.2,0.3c0.4,0.5,1,0.9,1.6,1.2l-0.2,0.1l0.3,0l0.2,0.1c0.4,0.2,0.7,0.4,1.1,0.7l-1.2,0.2l1.3,0.7
		c0.4,0.3,1,0.4,1.6,0.3l0.2,0.5l0.3,0c0.1,0,0.1,0,0.2,0l0,0l0.1,0.1l0.7-0.6c0.3,0.5,0.7,0.8,1.3,1l0.9,0.2l-0.2-0.5
		c0.1,0.1,0.2,0.2,0.4,0.3c0.8,0.7,1.3,1.1,1.7,0.7c0.1,0,0.1-0.1,0.1-0.2c0,0,0.1,0.1,0.1,0.1c0.1,0.1,0.2,0.2,0.2,0.3
		c-0.2-0.1-0.5-0.1-0.7,0.1c0,0-0.1,0.1-0.1,0.1c-0.4-0.4-0.8-0.7-1.2-0.6c-0.3,0.1-0.5,0.3-0.5,0.6l-0.1,0.2l0.2,0.2
		c0.3,0.4,0.6,0.7,0.8,0.9c0.5,0.7,1.1,1.2,1.8,1.6c0.7,1,1.2,2.2,1.6,3.4l0,0.1l0.1,0.1c0.2,0.2,0.5,0.4,0.8,0.4
		c0.2,0,0.4,0.1,0.5,0.3l0.4-0.3l0,0l0.1-0.1l-0.5,0.4l0.5-0.3l-0.5,0.3c0.1,0.2,0.2,0.4,0.3,0.6l0.1,0.1c0.1,0.1,0.1,0.2,0.2,0.2
		l-2.7-1.5l2.8,2.6c0.3,0.3,0.6,0.6,0.8,1c0.2,0.5,0.7,0.7,1.2,0.5c0.1,0.1,0.2,0.3,0.3,0.4l-0.5,0.5c0.5,0.5,0.9,1.1,1.4,1.7
		c0.2,0.3,0.5,0.6,0.7,0.9l2.4,2.9l-0.7-1.6c0.1,0,0.2,0.1,0.3,0.1L168.5,226.5z M35.3,139.1l-0.1,0.2l-0.1,0
		C35.2,139.2,35.2,139.2,35.3,139.1z M103.7,184.5l-0.2-0.1l0.1-0.2C103.6,184.3,103.7,184.4,103.7,184.5z M67.4,165.3L67.4,165.3
		L67.4,165.3L67.4,165.3z M69.1,166.8l-0.1-0.1l0.4,0.2c0.1,0.1,0.1,0.2,0.1,0.3c0,0-0.1,0-0.1,0.1L69.1,166.8z M40.7,143.9
		c0.5,0.4,1,0.8,1.5,1.3c-0.2-0.1-0.4-0.1-0.6-0.1c-0.1-0.1-0.2-0.2-0.2-0.3L40.7,143.9L40.7,143.9z M47.4,129.4
		c0,0.1,0.1,0.1,0.1,0.2c0,0,0,0-0.1,0l-0.2-0.1L47.4,129.4z M33.2,106.3l0.1,0.2l0,0h0l0.6,0.8l0-0.4c0.1,0.1,0.1,0.1,0.2,0.1
		c0,0.6,0,1.1,0.2,1.7c0.1,0.6,0.2,1.1,0.2,1.7c-0.2-0.3-0.5-0.6-0.7-0.8c-0.6-0.6-1.1-1.3-1.2-2.2c0.2-0.2,0.3-0.5,0.3-0.8l0.5,0.5
		L33.2,106.3z M79.1,157.1L79.1,157.1L79.1,157.1C79.2,157.1,79.2,157.1,79.1,157.1L79.1,157.1z M92.5,165.3L92.5,165.3
		c0,0-0.1,0-0.2,0l0,0C92.4,165.3,92.5,165.3,92.5,165.3L92.5,165.3z M144.4,194.4c0.3,0.1,0.6,0.2,0.9,0.4
		C145,194.7,144.7,194.6,144.4,194.4L144.4,194.4z M147.1,197.6c-0.1,0-0.1,0-0.2,0c-0.2-0.3-0.5-0.4-0.9-0.5
		c-0.3-0.1-0.6-0.3-0.8-0.6l0,0c0.2,0.1,0.3,0.1,0.5,0.2l0.5-0.8l0.1,0c0.6,0.5,1,1.1,1.3,1.9C147.5,197.7,147.3,197.7,147.1,197.6
		L147.1,197.6z M22.5,98.4c0,0.3,0,0.6,0,0.8c0,0.6,0,1.3,0.1,1.9l-0.1,0l0-1.5l-0.8-0.3c0.1,0,0.1,0,0.2,0
		C22.3,99.4,22.4,98.8,22.5,98.4L22.5,98.4z M39.1,114.5c0.2,0.6,0.4,1.1,0.6,1.7c-0.3-0.4-0.6-0.8-0.9-1.3
		c-0.2-0.3-0.3-0.5-0.5-0.7l0.1-0.5l0.8,1.7L39.1,114.5z M38.3,134.5c-0.1-0.1-0.3-0.1-0.4-0.1c0,0,0,0-0.1,0l0.1,0
		C38.2,134.4,38.3,134.5,38.3,134.5L38.3,134.5z M21.4,99.4L21,99.2c0-0.1,0-0.2,0-0.3C21.1,99.1,21.3,99.2,21.4,99.4z M24.1,85.3
		c-0.1,0.2-0.2,0.3-0.3,0.4c0-0.1,0-0.2,0-0.2C23.9,85.5,24,85.4,24.1,85.3z M35.3,112.6c0-0.4-0.1-0.9-0.3-1.2
		c0.2,0.1,0.5,0,0.7-0.2c0.1,0.1,0.2,0.3,0.2,0.7l0,0.1l0,0.1c0,0.1,0.1,0.3,0.1,0.4l-0.3-0.1l-0.1,0.5c-0.1,0.5,0.2,0.8,0.5,1.1
		c0.4,0.4,0.4,0.5,0.3,0.6l-0.2,0.2c-0.1-0.1-0.2-0.1-0.4-0.2l-0.2-0.1c-0.2-0.5-0.5-0.9-0.7-1.3l0.4,0L35.3,112.6z M37.6,109.1
		L37.6,109.1L37.6,109.1c0-0.2,0-0.4,0.1-0.6l0,0c0.1,0.3,0.1,0.7,0.2,1C37.7,109.4,37.6,109.3,37.6,109.1L37.6,109.1z M37.1,104.1
		C37.1,104.1,37.2,104.1,37.1,104.1C37.2,104.1,37.2,104.1,37.1,104.1C37.2,104.1,37.1,104.1,37.1,104.1L37.1,104.1z M37.3,115.5
		L37.3,115.5L37.3,115.5L37.3,115.5z M32.3,123.3c-0.3-0.4-0.5-0.8-0.8-1.2l0,0c0,0,0.1,0,0.1,0C31.8,122.5,32,122.9,32.3,123.3
		L32.3,123.3z M21.9,106.7l-0.4-1.6l0,0.1c0-0.3,0-0.7,0-1.1c0-0.4,0-0.9-0.1-1.4c0.1,0.4,0.1,0.8,0.2,1.2l0,0.1h0l0,0.7l0.1,0.1
		c0.1,1.4,0.6,2.7,1.3,3.8c0,0.6,0.2,1.1,0.3,1.7c0.2,0.5,0.3,1.1,0.3,1.6c-0.7-1.1-1.3-2.3-1.8-3.6l0.4-0.1
		C22.1,107.8,22,107.3,21.9,106.7L21.9,106.7z M23.8,100.2c0,0,0.1,0.1,0.1,0.1c0,0.1-0.1,0.1-0.1,0.2
		C23.8,100.3,23.8,100.2,23.8,100.2L23.8,100.2z M26.8,114.4l-0.3,0.2l-0.1,0c0-0.1,0-0.1-0.1-0.2l-0.1-0.1l-0.2,0.1l-0.3-0.2
		l0.2,0.2l-0.4,0.2c-0.3-0.2-0.5-0.5-0.8-0.7c0-0.1,0-0.1,0-0.2l-0.1-0.5l-0.2,0l0-0.2c0.2,0.1,0.3,0.1,0.5,0.1l0,0l0.1,0.2l0-0.1
		c0.1,0.1,0.2,0.2,0.3,0.2L26.8,114.4L26.8,114.4z M27.9,118.7c-0.3-0.3-0.5-0.7-0.5-1.2l0.7,0.8c0,0.2,0,0.4,0,0.6L27.9,118.7z
		 M22.6,103c0,0-0.1,0.1-0.1,0.1c0-0.4,0-0.9,0-1.4l0.1,0C22.6,102.2,22.6,102.6,22.6,103z M27.7,126.5L27.7,126.5l0.8-0.6
		c-0.1-0.1-0.1-0.2-0.2-0.2l0.8,0.3l-0.6-0.8l0.1,0.1l0.8-0.6c-0.3-0.4-0.6-0.8-1-1c-0.1-0.1-0.2-0.2-0.3-0.3l0.4-0.6
		c0.1-0.1,0.1-0.2,0.2-0.4l0.7,1.1l-0.3-2.3c0-0.2-0.1-0.4-0.1-0.5c0.1,0.1,0.2,0.2,0.3,0.2c0.9,2.2,2,4.3,3.2,6.3
		c-1.5,0.1-3,0.2-4.6,0.2C27.7,127,27.7,126.8,27.7,126.5L27.7,126.5z M40,135.4c-0.2-0.1-0.3-0.2-0.5-0.2c0.1-0.1,0.1-0.1,0.2-0.2
		L40,135.4z M36.9,112.5c0.1,0.2,0.2,0.4,0.3,0.6c-0.2-0.2-0.4-0.3-0.6-0.4C36.7,112.6,36.8,112.5,36.9,112.5L36.9,112.5z M36.6,104
		c0,0-0.1,0-0.1,0.1c0-0.1-0.1-0.2-0.1-0.3C36.4,103.9,36.5,104,36.6,104L36.6,104z M66.1,148.6l0.1,0.1c0.2,0.3,0.4,0.5,0.6,0.7
		l1.1,0.9l-0.1-0.4c0.3,0.3,0.5,0.6,0.7,0.9l-0.5-0.1l-3-2.1l1.6,1.9l-0.1,0l-0.1,0.1c-0.2,0.1-0.3,0.2-0.3,0.4
		c-0.4-0.5-0.9-1-1.4-1.4c-0.2-0.1-0.4-0.2-0.6-0.3l0.1-0.1c-0.6-0.6-1.3-1.1-1.9-1.7l-0.1-0.1l1.5,0l-2.1-1c-0.5-0.2-1-0.5-1.5-0.7
		l0,0.1l-0.4-0.1c-0.1,0-0.2,0-0.3,0l-0.6,0c-0.3-0.2-0.5-0.4-0.8-0.5c0.1-0.1,0.2-0.2,0.2-0.3c0.1-0.1,0.1-0.1,0.2-0.2v0h0.5
		c0.7,0,1.5,0.1,2.2,0.4l-0.3,0.1l0.6,0.7c0.5,0.7,1.3,1.1,2.1,1c0.4-0.1,0.8,0,1.1,0.2c0.2,0.4,0.3,0.7,0.5,1.1l0.1,0.1l0.1,0.1
		C65.4,148.7,65.8,148.9,66.1,148.6L66.1,148.6z M78.3,159.1c-0.2-0.1-0.4-0.3-0.6-0.4c0.2,0,0.4,0.1,0.5,0.1c0,0,0,0.1,0,0.1
		L78.3,159.1z M84.1,160.2c0.3,0,0.7,0.1,0.9,0.4l0.1,0.1c-0.1,0.1-0.2,0.2-0.2,0.3l-0.1,0c-0.1,0-0.2-0.1-0.3-0.1
		C84.5,160.6,84.3,160.4,84.1,160.2L84.1,160.2z M48.5,145.9l0-0.2c0,0,0-0.1,0.1-0.1l0.5,0.9c0.1,0,0.1,0,0.2,0c0,0,0.1,0,0.2,0
		l0.3,0.5l0.1,0.7c-0.4-0.3-0.8-0.7-1.2-1.1L48.5,145.9L48.5,145.9C48.5,145.9,48.5,145.9,48.5,145.9z M46.9,140.4
		c-0.4-0.1-0.8-0.2-1.2-0.4c0.2-0.6,0.1-1.3-0.1-1.9l0.4,0.5c0.6,0.8,1.1,1.5,1.6,2.1c-0.2,0-0.3-0.1-0.5-0.1l-0.3-0.5L46.9,140.4z
		 M49.7,146.2c0,0,0.1-0.1,0.1-0.1l0.5,0.2c0.1,0.1,0.1,0.3,0.2,0.4L49.7,146.2z M56.7,153.2l0.3-0.2l0.1,0.1
		c0.3,0.2,1.2,0.7,1.7,0.1l0.1,0l0,0.8c0,0.1,0,0.3,0.1,0.4c-0.3-0.1-0.6-0.2-0.9-0.2c0,0,0,0-0.1,0l-1.1-0.7
		C56.8,153.4,56.7,153.3,56.7,153.2L56.7,153.2z M56.9,151.8c0,0,0-0.1,0.1-0.1c0.1,0.1,0.1,0.2,0.2,0.3c-0.1,0.1-0.1,0.1-0.1,0.2
		l-0.1,0l0.1-0.3C57,151.8,57,151.8,56.9,151.8L56.9,151.8z M60.8,153.6l-0.6,0.3l-1-0.6l-0.2-0.4c0-0.1,0-0.2,0-0.3
		c0.2,0.1,0.4,0.2,0.7,0.3l1,0.6c0,0-0.1,0.1-0.1,0.1C60.6,153.6,60.7,153.6,60.8,153.6z M55,152c0.3,0.2,0.5,0.4,0.8,0.5l0,0l0,0
		c-0.6-0.2-1.1-0.5-1.6-0.9c-0.1-0.1-0.1-0.1-0.2-0.2l0.2,0.1C54.5,151.6,54.8,151.8,55,152L55,152z M59.5,146.2l-0.1-0.2
		c0.1,0,0.1-0.1,0.2-0.1c0,0,0.1,0,0.1,0L59.5,146.2z M54.1,150.3l-1.7-2c-0.1-0.1-0.2-0.2-0.2-0.3c0,0,0.1,0,0.1-0.1
		c0.3,0.2,0.7,0.5,1,0.8c0.3,0.3,0.6,0.5,1,0.8c0.2,0.3,0.4,0.6,0.5,1l-0.1,0l-2.4-0.6c-0.2-0.2-0.3-0.5-0.3-0.8v0L54.1,150.3z
		 M67.5,153.5l0.3,0.1c-0.1,0-0.1,0-0.2,0C67.5,153.6,67.5,153.5,67.5,153.5L67.5,153.5z M101.7,176.3L101.7,176.3
		c0.7,0.3,1.5,0.7,2.2,1.1c-0.1,0.1-0.2,0.1-0.3,0.3l0,0l-0.1,0c-0.3-0.1-0.6-0.1-0.8-0.1c-0.1-0.1-0.3-0.2-0.6-0.2
		c-0.1,0-0.1-0.1-0.2-0.1C102.1,177,101.9,176.7,101.7,176.3L101.7,176.3z M96.9,175.1l2.6,0.1c0.2,0.1,0.4,0.2,0.6,0.3l0,0.4l0,0
		c0.4,0,0.8,0.1,1.2,0.3c-0.6-0.1-1.2-0.2-1.8-0.4c-0.6-0.2-1.1-0.4-1.7-0.4c-0.2,0-0.5,0-0.6,0.2c-0.2-0.1-0.3-0.1-0.4-0.2
		c0,0,0-0.1,0-0.1C96.7,175.1,96.8,175.1,96.9,175.1L96.9,175.1z M67.4,157.4l0.7,0.4l-0.3,0.4l0.4,0.3c1.3,0.9,2.7,1.7,4.3,2.2
		c0.7,0.3,1.4,0.5,2.1,0.8l-0.1,0.5l0.3,0.2c0.6,0.4,1.4,0.7,2.1,0.6c0.1,0,0.3,0,0.4,0c0,0.2,0.1,0.3,0.2,0.4l-0.2,0.6
		c0.2,0.1,0.3,0.1,0.5,0.1c1.8,0.7,3.5,1.7,5,2.8c0.9,0.7,2,1.3,3,1.8l1.2,0.5c0.1,0.1,0.1,0.2,0.2,0.3l-5.9-2.7l3.3,2.6
		c0.2,0.2,0.4,0.4,0.6,0.6c0.2,0.3,0.5,0.6,0.8,0.8c0.4,0.2,0.8,0.4,1.3,0.4c0.3,0.1,0.7,0,0.9-0.3l3.1,0.2l1.1,0.4l-1.7,0.3
		l4.2,0.6c0,0,0,0.1,0,0.1l0,0l0,0.3c0,0.2,0.1,0.3,0.2,0.4l-3.3-1.2l-0.2,0.1c-0.2,0.1-0.3,0.3-0.3,0.5c0,0,0,0.1,0,0.1l-0.5-0.1
		c-0.2,0-0.4-0.1-0.6-0.1l0.2-0.1l-3.1-1.2l-0.1,0c-0.2,0-0.7,0-0.7,0.5c0,0,0,0.1,0,0.1c-0.8-0.3-1.6-0.7-2.4-1.1
		c0-0.1-0.1-0.1-0.1-0.2l0.1,0l1.8-0.1l-1.6-0.9c-0.3-0.2-0.6-0.2-0.9-0.2l-0.1,0c-0.3-0.3-0.7-0.6-1-0.9c-0.3-0.3-0.6-0.6-1-0.8
		l-1.1-0.5c-0.1-0.1-0.2-0.2-0.3-0.3c-0.3-0.2-0.5-0.4-0.8-0.5c-0.4-0.3-0.8-0.6-1.2-0.9l-0.1,0.1l-0.1-0.2c-0.9-0.9-2-1.6-3.3-2
		l-3.1-1.8C67.8,159.8,67.3,158.5,67.4,157.4z M90,174.1l0.1-0.2c-0.1,0-0.2,0-0.2-0.1c0.3,0.1,0.5,0.1,0.8,0l1-0.1
		c0.1,0.1,0.2,0.2,0.4,0.3c0,0,0,0,0,0c-0.2,0-0.4,0.1-0.5,0.1C91,174.4,90.5,174.4,90,174.1L90,174.1z M79.9,168.1
		C79.9,168.1,79.9,168.1,79.9,168.1l0.1,0.1l0,0L79.9,168.1z M77.9,167.1l-0.7,0.1l-0.3-0.2c-0.3-0.2-0.6-0.3-0.9-0.4
		c-0.1-0.1-0.3-0.1-0.5-0.2l0.6-0.2c0.3,0,0.5,0.1,0.8,0.2l0.1,0l0,0C77.3,166.6,77.6,166.8,77.9,167.1L77.9,167.1z M79,168.7
		L79,168.7C79,168.8,79,168.8,79,168.7L79,168.7z M73.1,167.5C73.1,167.5,73.1,167.5,73.1,167.5l-0.3,0
		C73,167.4,73,167.4,73.1,167.5L73.1,167.5z M73.4,167.2l0.1-0.2c0.1,0,0.1,0.1,0.2,0.1C73.6,167.1,73.5,167.1,73.4,167.2
		L73.4,167.2z M101.2,170.8c-0.2-0.1-0.3-0.1-0.5-0.2c0,0,0-0.1,0-0.1c0.3,0.2,0.7,0.3,1,0.5C101.5,171,101.3,170.9,101.2,170.8
		L101.2,170.8z M81.7,161.8C81.7,161.8,81.7,161.7,81.7,161.8c0.1-0.1,0.2-0.2,0.3-0.2l0.4,0.4C82.2,161.8,82,161.8,81.7,161.8
		L81.7,161.8z M72.5,155.4l-0.6,0c-0.1-0.1-0.1-0.1-0.2-0.2c-0.1-0.1-0.3-0.2-0.4-0.3l0.7-0.6c0.1,0,0.3,0.1,0.6,0.1
		C72.8,154.8,72.7,155.1,72.5,155.4L72.5,155.4z M62.7,145.2l-0.2-0.3l-0.1-0.2c0.2,0.1,0.4,0.3,0.5,0.4
		C62.8,145.2,62.7,145.2,62.7,145.2L62.7,145.2z M73.8,168.6c0.1,0.1,0.3,0.1,0.4,0.2c0,0,0,0-0.1,0c-0.1,0.1-0.2,0.2-0.2,0.3
		c-0.3-0.1-0.5-0.2-0.8-0.4C73.4,168.8,73.7,168.7,73.8,168.6L73.8,168.6z M109.4,182.6L109.4,182.6l0.1,0.2c-0.2,0-0.5-0.1-0.7-0.1
		c-0.1,0-0.2,0-0.3,0L109.4,182.6z M108.7,181.6c-0.2-0.1-0.4-0.3-0.7-0.6c1.4,0.5,2.8,0.9,4.2,1.3l0.1,0.1c-0.3,0-0.6,0.1-0.8,0.3
		c-0.6-0.3-1.1-0.5-1.7-0.8l-0.3,0.4L108.7,181.6z M122.3,189.3L122.3,189.3l0.1,0.1C122.3,189.4,122.3,189.4,122.3,189.3
		C122.3,189.4,122.3,189.4,122.3,189.3L122.3,189.3z M121.2,188l-0.4,0c-0.4-0.5-1-0.7-1.6-0.6c-0.1-0.1-0.2-0.1-0.2-0.1
		c0.1,0,0.1,0,0.2-0.1c0.2-0.1,0.3-0.2,0.3-0.4c0.1,0,0.2,0.1,0.4,0.1l1.6,0.7l0.2,0.5C121.5,188,121.4,188,121.2,188L121.2,188z
		 M123.8,187.6L123.8,187.6l-0.2,0.5c-0.4,0-0.8-0.1-1.2-0.1l-0.2-0.3l0.1,0l-0.2-0.2l-1.2-1.6l0.3,0.6l-0.7-0.7
		c-0.4-0.5-1.1-0.7-1.8-0.6c-0.1,0-0.3,0-0.4,0l0.3-0.6l-0.3-0.3c-0.7-0.6-1.6-1.1-2.4-1.6l0.2,0l0.1,0.1c1.4,0.7,1.9,0.9,2.6,1.2
		l0.2,0.1c0,0.7,0.8,0.9,1.7,1.2c0.5,0.2,1,0.3,1.4,0.5l0.1,0.1h0.1c0.3,0,0.6,0,0.8,0.1l0,0.3C123,186.9,123.2,187.2,123.8,187.6
		L123.8,187.6z M137.5,189.4l0.1-0.1c0.2,0.1,0.4,0.2,0.6,0.3c0,0,0,0.1,0,0.1C138,189.6,137.8,189.5,137.5,189.4L137.5,189.4z
		 M140,192.2c0.1,0.1,0.1,0.1,0.2,0.2c-0.5-0.1-1-0.3-1.4-0.7l0.4-0.1l0.4,0L140,192.2z M143.8,195.3
		C143.8,195.3,143.8,195.3,143.8,195.3l0.2,0.1C144,195.4,143.9,195.4,143.8,195.3L143.8,195.3z M142.3,194.6
		c-0.1,0.1-0.2,0.2-0.2,0.3c-0.1,0-0.2-0.1-0.3-0.1c-0.1-0.1-0.1-0.1-0.2-0.2c0,0,0.1,0,0.1-0.1c0.1-0.1,0.2-0.1,0.3-0.2
		c0.3,0.1,0.6,0.2,0.9,0.3l0.1,0.1C142.7,194.5,142.5,194.5,142.3,194.6L142.3,194.6z M98.2,168.7l-0.2,0.2l-0.7-0.5
		c-0.8-0.5-1.7-0.9-2.6-1.1c-0.6-0.2-1.2-0.4-1.8-0.7c0.1,0,0.3,0,0.4-0.1c0.7,0.6,1.6,0.9,2.5,0.8c0.8,0,1.7,0.2,2.4,0.6
		c0,0.1,0,0.3,0.1,0.4c0,0.1,0.1,0.2,0.2,0.3C98.4,168.6,98.3,168.6,98.2,168.7z M78.4,159.2c0.4,0.2,0.8,0.3,1.2,0.4
		c-0.1,0-0.2,0.1-0.4,0.1C79,159.5,78.7,159.4,78.4,159.2L78.4,159.2z M61.7,143.9l-0.1,0.1c-0.4-0.4-0.8-0.8-1.2-1.1
		c-0.1-0.1-0.2-0.2-0.3-0.3c0.2,0.1,0.4,0.2,0.6,0.2L61.7,143.9z M22.4,96.4c0,0.4,0.1,0.7,0.1,1.1h-0.1c0-0.2-0.1-0.5-0.2-0.7
		L22.4,96.4z M19.6,96.7c-0.1,0.1-0.2,0.2-0.3,0.4c-0.1-0.8-0.1-1.5,0-2.3c0,0.7,0.3,1.3,0.8,1.7C20,96.5,19.8,96.6,19.6,96.7z
		 M29.1,129c0.1,0.1,0.1,0.1,0.2,0.2l-0.4-0.1C29,129,29,129,29.1,129z M33,132.8c-0.1-0.2-0.3-0.4-0.4-0.6l-0.1-0.2l-0.1,0
		c0.1,0,0.2-0.1,0.3-0.1l0,0c0,0,0,0,0.1,0L33,132.8z M34.6,133.1c-0.1,0-0.3-0.2-0.6-0.5l-0.3-0.4
		C34.1,132.4,34.4,132.7,34.6,133.1z M56.2,155.9c0.6,0.2,1.2,0.4,2,0.6c0.1,0.1,0.1,0.1,0.1,0.2l-0.5,0.6l0.9,0.1
		c0.3,0,0.5,0,0.8,0c0.2,0,0.4,0,0.6,0l0.1,0l0,0c0.1,0,0.2,0,0.2,0l0,0.2l0.2,0.2c0.1,0.1,0.2,0.2,0.3,0.3l0,0l0,0
		c-0.6-0.3-1.2-0.6-1.6-0.2c-0.2,0.1-0.3,0.4-0.3,0.6c-0.8-0.5-1.5-1.1-2.1-1.8C56.7,156.4,56.5,156.1,56.2,155.9z M139.9,200.3
		c-0.1-0.1-0.2-0.1-0.3-0.2l0.4,0.2C140,200.3,140,200.3,139.9,200.3L139.9,200.3z M154.5,206.4l0.1-0.2c0.1,0.2,0.2,0.4,0.3,0.6
		l0.1,0.2C154.8,206.8,154.7,206.6,154.5,206.4L154.5,206.4z M154.4,206l-0.7,0.6c-0.7-0.5-1-1.3-0.8-2.1l0-0.1h0.1
		c0.3,0,0.5,0,0.8-0.1l-0.3,0.2C153.8,205,154.1,205.5,154.4,206L154.4,206z M109.5,175.3L109.5,175.3l0.1,0.1L109.5,175.3z
		 M52.7,135.2L52.7,135.2C52.7,135.2,52.6,135.3,52.7,135.2l-0.5-0.4L52.7,135.2z M43.3,121L43.3,121C43.3,121,43.3,121,43.3,121
		C43.3,121,43.3,121,43.3,121z M41.8,119c-0.1-0.1-0.1-0.1-0.2-0.2c0,0,0.1,0,0.1-0.1L41.8,119L41.8,119z M41.2,78.4
		C41.2,78.4,41.3,78.4,41.2,78.4c0,0.1,0,0.2-0.1,0.3c0,0-0.1,0-0.1,0h0L41.2,78.4z M100.9,55.1l0,0.3c0,0-0.1-0.1-0.1-0.1
		C100.8,55.2,100.8,55.1,100.9,55.1z M96.3,47.8L96.3,47.8c0.1,0,0.2,0.1,0.3,0.1C96.5,47.8,96.4,47.8,96.3,47.8z M22.3,80.6
		c0,0.1,0,0.2,0,0.3c0,0-0.1,0-0.1,0C22.2,80.8,22.2,80.7,22.3,80.6z M18.7,108.7c0.1,0,0.1,0,0.1,0L18.7,108.7L18.7,108.7z
		 M28.6,131.5c0-0.3-0.1-0.7-0.3-1c-0.1-0.4-0.3-0.7-0.4-1c0.3-0.1,0.6-0.2,0.9-0.3l0.9,1c0.7,0.8,1.1,0.9,1.5,0.9
		c0.2,0.1,0.3,0.3,0.4,0.5l0.1,0.1c0.1,0.1,0.3,0.2,0.4,0.2c-0.4-0.1-0.8-0.1-1.3-0.1c-0.4,0-0.7,0-1.1-0.1L28.6,131.5z M35.2,135.6
		L35.2,135.6l-0.1,0L35.2,135.6c-0.1-0.1,0-0.1,0-0.2C35.2,135.5,35.3,135.5,35.2,135.6C35.3,135.5,35.3,135.6,35.2,135.6
		L35.2,135.6z M65.5,162.9c0.1,0,0.1-0.1,0.2-0.2c0,0,0,0,0,0l0,0.2C65.6,162.9,65.6,162.9,65.5,162.9L65.5,162.9z M149.9,211.2
		L149.9,211.2c0.1,0.1,0.1,0.2,0.2,0.2c-0.1,0-0.1,0.1-0.2,0.1l-0.3,0.2l-0.3-0.8L149.9,211.2z M160.7,213.3l-0.5-0.2l-0.3-0.6
		c0-0.1-0.1-0.1-0.1-0.2l0.1,0.1l-0.5-1.4c0,0,0.1,0,0.1,0L160.7,213.3z M152.1,202.6c-0.3-0.1-0.5-0.2-0.7-0.4l0.1-0.2L152.1,202.6
		z M151.4,202.2c0,0.1,0,0.3-0.1,0.4c0,0-0.1,0.1-0.1,0.1l-0.1,0L151.4,202.2L151.4,202.2z M81.2,159.1c0-0.1,0.1-0.1,0.1-0.2
		l0.4,0.1C81.5,159,81.3,159.1,81.2,159.1z M47.4,130.8l-0.6,0.5c0.2,0.3,0.5,0.6,0.8,0.9l0.2-0.2l0,0.1c0.2,0.2,0.3,0.4,0.4,0.5
		c0.6,0.9,1.4,1.6,2.5,2l0.6,0.2l0.2,1.1l0.3,0.3c-0.5,0-1-0.1-1.4-0.1c-0.5-0.4-1-0.9-1.4-1.5l0.2,0l-0.4-0.6
		c-0.3-0.3-0.6-0.7-0.9-0.9c-0.3-0.2-0.5-0.5-0.7-0.7l0.3-0.3l-0.5-0.3c-0.1-0.1-0.2-0.1-0.3-0.2c-0.5-0.4-1-0.8-1.4-0.5l-0.6-0.5
		c0.2-0.2,0.3-0.5,0.4-0.7c0,0,0-0.1,0-0.1c0.3,0.1,0.6,0.2,0.8,0.4l0.1-0.2L47.4,130.8z M40.8,122.1c-0.5-0.2-1-0.4-1.5-0.7
		l-0.5-0.6v0l0.2,0c0.4,0,0.7-0.1,1-0.4c0.2,0.2,0.3,0.3,0.5,0.4l0.1,0.1L40.8,122.1z M46.2,68.3c-0.2,0.3-0.4,0.5-0.6,0.8v0
		c0-0.4,0-0.7,1-1.7l0,0.3l0.2-0.2C46.7,67.8,46.5,68,46.2,68.3L46.2,68.3z M46.8,66.2L46.8,66.2c0,0-0.1,0-0.1,0l0.2-0.3
		C46.8,66,46.8,66.1,46.8,66.2L46.8,66.2z M41,76.9c-0.1,0.4-0.1,0.7,0,1.1c-0.2-0.2-0.4-0.3-0.7-0.3L41,76.9z M101.4,54.7l-0.1-0.6
		c1,0.7,2,1.6,2.9,2.5l0.1,0.1c0,0-0.1,0-0.1-0.1l0,0c0,0-0.1,0-0.1,0v0c-0.1,0-0.2,0-0.3,0l-1.2-1.1
		C102,54.9,101.7,54.7,101.4,54.7z M18.5,113.1L18.5,113.1L18.5,113.1C18.5,113.1,18.5,113.1,18.5,113.1L18.5,113.1z M29.2,132.9
		c0-0.2-0.1-0.3-0.2-0.4l0.2,0.2c0.1,0.1,0.2,0.1,0.3,0.2L29.2,132.9z M35.8,136.9c0.5,0.6,0.9,1.2,1.3,1.9
		c-0.1-0.1-0.3-0.2-0.4-0.3l-0.7-0.4V138C36,137.6,35.9,137.2,35.8,136.9L35.8,136.9z M66.2,163.1L66.2,163.1c0.1,0,0.3,0.1,0.4,0.1
		c0.2,0.1,0.4,0.1,0.6,0.2c0,0,0,0.1,0,0.1L66.2,163.1z M68.3,165.5c0.1,0.1,0.1,0.2,0.2,0.3c0.2,0.2,0.4,0.5,0.6,0.8l-0.4-0.1
		c-0.3-0.4-0.6-0.7-1-0.9l0-0.2L68.3,165.5z M101.1,181.5c0.2,0,0.3,0,0.5,0.1l0,0.1c-0.1,0.1-0.2,0.2-0.3,0.3L101.1,181.5z
		 M118.1,190.1l0.3,0.4c-0.1,0-0.1,0-0.2-0.1c0,0-0.1,0-0.1,0c0.1,0.1,0.1,0.2,0.1,0.3c-0.1-0.1-0.2-0.1-0.2-0.2L118.1,190.1z
		 M134.8,201.6c0.3,0,0.6-0.1,0.8-0.1l0.3,0.2L134.8,201.6z M148.8,211.7l0.6,0.1l-0.3,0.2l0,0l-0.2,0l-0.5-0.5
		C148.6,211.7,148.7,211.7,148.8,211.7z"/>
	<path class="st0" d="M73.2,53.7c1.4,0,2.9,0.1,4.3,0.2l0.1-1c-2.9-0.4-5.9-0.3-8.8,0.2l0.2,1C70.4,53.9,71.8,53.8,73.2,53.7z"/>
	<path class="st0" d="M84,178.9l3.6,1.3l1.2-0.1l0-1L84,178.9z"/>
	<path class="st0" d="M67.6,54.3c0.2,0,0.4-0.1,0.6-0.1l0.4,0l0.1-0.9l0.2-0.2l-0.1-0.2l0.2-1l-0.8,0.6l-0.3,0.1l1.1-1.8l-3,2.6
		c-0.1-0.3-0.3-0.5-0.5-0.5c-0.8-0.1-1.6,0.2-2.3,0.7l-0.2,0.2l0,0.1L62,54.3l1,0l0.1,0.7l-0.8,0.2c-0.1,0-0.1,0-0.2,0
		c-0.4,0-0.7,0.2-1,0.4l-0.2,0.2l0.1,0.3c0.1,0.3,0.3,0.5,0.6,0.5c0.2,0,0.3-0.1,0.5-0.1c0.2-0.1,0.5-0.2,0.7-0.4l0.6-0.4l0.1,0.5
		l0.6-0.4c0.3-0.2,0.6-0.5,0.9-0.8l0.8-0.2C66.3,54.6,66.9,54.4,67.6,54.3l-0.1,0.1L67.6,54.3z M67.9,52.5l0,0.2
		c0,0-0.1,0.1-0.1,0.1L67.9,52.5z"/>
	<path class="st0" d="M88.9,56.3l-2.5-1.8l4,5.5l-0.9-2.9C89.4,56.8,89.2,56.5,88.9,56.3z"/>
	<path class="st0" d="M103.7,57.5L103.7,57.5L103.7,57.5z"/>
	<path class="st0" d="M117.7,49.2l-0.3-0.1l-0.6,0.3l0.1,0.4c0,0.3,0.1,0.6,0.3,0.9l0.6,1.3l-0.1,0.1l-0.2,0.1
		c0.1,0.3,0.1,0.6,0,0.9c0,0.1,0,0.2,0,0.4l-0.2-0.1l2.3,5.5l-0.6-3.8l0.7,0.3l-0.9-1.1c0-0.3-0.1-0.5-0.1-0.8
		c0-0.5-0.1-1.1-0.4-1.6l-0.2,0.1l0.2-0.1c-0.1-0.1-0.2-0.2-0.3-0.3l0-1C118,49.7,118,49.4,117.7,49.2z"/>
	<path class="st0" d="M126.1,23.2c0.8-0.5,1.7-1,2.5-1.5c0.8-0.5,1.7-0.9,2.6-1.3c0.2-0.1,0.4-0.2,0.6-0.3l0,0l-0.4-0.9
		c-0.2,0.1-0.4,0.2-0.6,0.3c-3.4,1.5-6.6,3.5-9.4,5.9l0.6,0.8C123.3,25.1,124.7,24.1,126.1,23.2z"/>
	<path class="st0" d="M193.4,143.9l0.1-0.2c0.1-0.3,0.2-0.6,0.2-0.9l0.7-4.5l-1.6,4.3c-0.1,0.2-0.1,0.5-0.2,0.7
		c0-0.4-0.2-0.8-0.5-1.1c-0.2-0.1-0.4-0.1-0.6-0.1l-0.3,0.1l-0.1,0.3c-0.1,0.5-0.1,1.1,0.1,1.6c0.1,0.1,0.1,0.2-0.1,0.8l-0.4,1.1
		l1.5-0.7L192,148l1.1-3.2l2.4-1.1L193.4,143.9z"/>
	<path class="st0" d="M211.7,100.8l-0.7,0.1l-0.1,0.3l0,0.1c0,0.3-0.1,0.7-0.3,1l-0.3,0.5l0.5,0.2c0.1,0,0.2,0,0.2,0
		c0.2,0,0.4-0.1,0.5-0.3c0.3-0.5,0.4-1.1,0.2-1.7L211.7,100.8z"/>
	<path class="st0" d="M215.6,80.1l0-0.2l0-3.2l-0.4,1.5l-0.1-0.6c0.1-0.7,0.1-1.4,0-2.1c-0.1-0.6-0.4-1.2-0.9-1.6
		c-0.3-1.1-0.2-1.2,0-1.4c0.3-0.3,0.5-0.7,0.5-1.2l0.5,0.4l-0.3-1.6l0.2-0.5l-0.1-0.2c-0.1-0.3-0.2-0.5-0.4-0.8l-0.3-1.5l-0.2,0.4
		l-0.3-0.6l-0.2,0.8c-0.1-0.3-0.2-0.5-0.3-0.8c-0.1-0.2-0.5-0.7-0.9-0.6c-0.2,0-0.3,0.1-0.4,0.2c0.1-0.6,0.1-1.2,0-1.7l0-0.4
		l-0.6-0.1c0-0.1,0-0.2,0-0.2c0-0.1,0-0.2,0.1-0.3l1.4,1.5l2.3,1.2l-1.8-3.2l0.2,0.2l0-0.1l1.1,1l-1.3-2.5l-0.1-0.1
		c-0.3-0.6-0.5-1.1-1-1l-0.4,0.1v0c-0.1-0.1-0.3-0.1-0.4-0.2c-0.4-0.1-0.6-0.3-1.3-1.1l0-0.1c0.6,0.5,1.2,0.9,1.7,0.7l2-0.8
		l-1.7-0.1c0,0,0.1,0,0.1,0c0.2-0.1,0.4-0.3,0.3-0.9l0-0.2l-0.2-0.1c-0.1-0.1-0.2-0.2-0.4-0.4c-0.3-0.4-0.6-0.7-0.9-0.8l-0.2-0.3
		c0.1,0,0.1,0,0.2,0l1.7,0.1l-1.4-1c-0.4-0.3-0.9-0.4-1.3-0.5c0-0.8,0.1-1.6,0.2-2.4c0.1-1.1-0.3-2.2-1.1-3.1l-0.3-0.4l0,0
		c0.1-0.7-0.1-1.5-0.6-2.1l-0.4-0.5l-0.1,0.2l-0.6-1.6c-0.4-1.1-1.3-1.8-2.4-2.1c-0.3-0.1-0.6-0.2-0.9-0.4l0.3,0l-0.5-0.7
		c-0.2-0.3-0.4-0.6-0.6-0.9c-0.3-0.4-0.6-0.9-0.9-1.3c0-0.4-0.1-0.8-0.3-1.1l-0.1-0.2l-0.3,0c-0.3,0-0.5-0.1-0.7-0.3l-2.8-2.2
		l2.3,3.3c-0.1,0-0.2,0.1-0.3,0.2l-0.2,0.2l-0.3-0.1c-0.6-0.4-1.3-0.8-2.1-0.9l0.4-0.3c-0.2-0.2-0.3-0.5-0.5-0.7l-0.1-0.1l-0.8,0.6
		c0.1,0.1,0.2,0.2,0.3,0.4l-0.8-0.2l0-0.1l-0.4-0.3c-0.3-0.2-0.6-0.3-1-0.3l-0.1-0.2c-0.4-1-1.2-1.7-2.2-2l-0.3-0.1
		c0-0.1,0-0.2-0.1-0.3l1.2,0.3l-1.3-1.3c-0.9-0.9-2-1.5-3.2-1.9c-0.3-0.1-0.7-0.2-1-0.3l-0.3-0.3c-1.8-1.5-3.7-2.9-5.7-4.3
		c0.1-0.2,0-0.5-0.1-0.7l-0.2-0.3l-0.4,0.1c-0.1,0-0.3,0.1-0.4,0.1c-0.7-0.5-1.5-1-2.3-1.5c-0.4-0.3-0.9-0.6-1.4-0.9l-0.3,0.5
		c-0.1-0.1-0.3-0.2-0.4-0.2c0-0.2-0.2-0.5-0.4-0.6l-0.2-0.1l-0.6,0.1L175,24l0.3-0.3l-0.6-0.3c-0.6-0.3-1.2-0.6-1.8-0.8
		c-0.3-0.1-0.6-0.3-0.8-0.4l-0.3-0.1h0.1l-1.7-0.9c-0.2-0.1-0.5-0.2-0.7-0.2c-1.6-0.7-3.2-1.3-4.8-1.9l0.4-0.7l-0.7,0.6
		c-2.3-0.8-4.6-1.4-7-1.9c-0.6,0-1.1,0-1.3,0.4c-0.2,0.4,0.1,0.8,0.4,1l0.1,0.1l-1.1,0.2l-1.4-1.1l0.1,0l-0.1,0l-0.8-0.6l-0.7,0.3
		l-0.8-0.2c-0.3-0.8-0.9-1.2-2.6-1.2h-0.7l0.3,0.8l-0.6-0.1l0,0v0c-0.5-0.1-1.1-0.1-1.9-0.2l-0.1,1l1.9,0.1c0.5,0.1,0.9,0.2,1.4,0.3
		l0.9,0.2l-0.1-0.2l0.8,0.1c0.1,0.2,0.2,0.4,0.3,0.6l0.2,0.3l1.1-0.5l2.4,0.5L154,19l2.6,0.5c0.4,0.1,0.8,0.2,1.2,0.3
		c-0.9,0.1-1.9,0.2-2.8,0.4c-1.3-0.3-2.6-0.5-3.9-0.4l0.4-0.2l-1.7,0c-0.7,0-1.5,0-2.2,0.1c-0.3,0-0.5,0.1-0.8,0.1
		c-0.5,0.1-1.1,0.1-1.6,0.2l-0.4-0.5l-0.3,0.1c-0.6,0.1-1.4,0.3-2.3,0.5c-1,0.2-2.1,0.4-3.1,0.7l-0.4,0.1l0,0.6
		c-0.1-0.1-0.1-0.2-0.3-0.3l-0.2-0.1l-0.2,0.1c-1.6,0.6-3.1,1.3-4.6,2.1c-1.3,0.7-2.6,1.5-3.8,2.4c-1,0.3-1.9,0.7-2.7,1.4
		c-0.6,0.4-1.2,0.8-1.8,1.1l-0.1,0l-0.3-0.4c-1.3,0.7-2.4,1.6-3.5,2.6c-0.9,0.9-1.7,1.8-2.5,2.8l-1.2,0.5l-0.2,0.1
		c-1.1,1-1.4,1.4-1.2,1.8c0.1,0.2,0.3,0.4,0.5,0.4c-0.1,0.2-0.3,0.4-0.5,0.7c-0.9,0.5-1.6,1.3-2.2,2.1c-0.2,0.2-0.3,0.4-0.4,0.6
		c-0.3,0.4-0.6,0.9-0.7,0.9l-0.3,0.1l-0.1,0.3c-0.3,0.5-0.4,0.8-0.3,1.2c0.1,0.2,0.2,0.3,0.3,0.4l-0.1,0.1c-0.1,0-0.1,0-0.2,0
		c-0.2,0-0.5,0.2-0.5,0.4l-0.2,0.5l-0.7,2.7c-0.1,0.4-0.1,0.8-0.1,1.2c0,0.4,0,0.8,0,1.2c0.1,0.4,0.1,0.7,0.2,1.1
		c0.1,0.7,0.5,1.3,1,1.8l1.7,1.7l-0.9-2.2c-0.1-0.1-0.1-0.3-0.2-0.4c0.1-0.1,0.3-0.2,0.3-0.3l0.2,0.4l0.6-1c0.2,0.3,0.3,0.6,0.5,0.9
		l2,2.4v-1.4c0-0.6-0.1-1.3-0.4-1.8c-0.2-0.5-0.4-1-0.6-1.4c-0.2-0.4-0.3-0.8-0.3-1.2c0-0.2,0-0.4,0-0.6c0-0.1,0.1-0.3,0.2-0.4
		c0.2,0,0.4-0.2,0.6-0.3l0.3-0.1l0-0.1l0.1-1.3c0.1-0.2,0.1-0.4,0.1-0.6l0.8,0.4c0.1-0.2,0.2-0.3,0.2-0.5c0.8-1.9,1.8-3.6,2.9-5.3
		c1.2-1.9,2.8-3.5,4.6-4.7c0.2,0.1,0.4,0,0.5,0l0.2-0.1c0.1-0.1,0.3-0.3,0.4-0.5c0.1-0.1,0.3-0.3,0.4-0.4l0,0c0.1,0,0.1-0.1,0.2-0.1
		c0.4-0.4,0.9-0.7,1.4-1c0.5-0.3,1-0.5,1.4-0.7c0.4-0.1,0.7-0.3,1.1-0.5l0,0l0.4,0l0.2,0c0.4-0.2,0.7-0.3,0.9-0.5
		c0.3-0.1,0.6-0.3,0.9-0.4c0.6-0.3,1.1-0.7,1.5-1c0.5-0.3,1-0.6,1.5-0.9c0.3-0.1,0.5-0.3,0.8-0.4c0.1,0,0.2-0.1,0.2-0.1
		c0.3,0.3,0.7,0.2,1.3,0.1c0.3,0,0.5-0.1,0.8,0h0.1l0.1,0c1.6-0.6,3.2-1.1,4.9-1.4c0.8-0.2,1.7-0.3,2.6-0.4l0.5-0.1
		c0.5,0,0.9-0.1,1.4-0.1c0.3,0,0.6-0.1,0.9-0.1c0.2,0.5,0.9,0.6,2.1,0.5c0.6,0,1.2,0,1.8,0.2l-0.1,0.4l0.5,0
		c0.8,0.1,2.2,0.1,2.7-0.5l0.1-0.2c0.5,0,1,0,1.5-0.2l1.2,0.8l0.3-0.3c0.3-0.3,0.7-0.5,1.1-0.4c0.1,0.1,0.2,0.2,0.2,0.3l-0.8,0.4
		l0.5,0.2h-1.9l2.1,0.9c0.3,0.1,0.5,0.3,0.8,0.4l0.6,0.3l0.2,0c1.6-0.3,3.3-0.2,4.9,0.2c-0.1,0.2-0.1,0.5-0.1,0.7l0.1,0.3l0.3,0.1
		c0.3,0.1,0.7,0.1,1,0.1c0.8,0,1.5,0.2,2.2,0.6l0,0.2c1.2,0.2,1.4,0.4,1.6,0.7c0.1,0.2,0.3,0.3,0.4,0.4l-1.1,0.4l2.3,0.4
		c0.3,0,0.6,0.1,0.9,0.2c1.6,0.2,1.7,0.7,1.8,1.4c0,0.1,0,0.1,0,0.2l-0.1,0l0.2,0.8c0.1,0.6,0.8,1.1,1.6,1.6l0.3,0.2
		c0.6,0.3,1.2,0.7,1.6,1.2l2.1,2l-0.8-1.6c0.6,0.4,1.1,0.9,1.6,1.4L183,39c0.5,0.5,1.1,1,1.8,1.6l0.2,0.1c0.1,0,0.3,0.1,0.4,0.1
		l0.3,0.9c0.1,0.3,0.2,0.6,0.4,0.8l-0.8,0.4c-0.8-0.9-1.5-1.7-2.2-1.7c-0.1,0-0.3,0-0.4,0.1c-0.2-0.3-0.4-0.6-0.4-1l0-0.4l-0.4-0.1
		c-0.8-0.1-1.6-1-2.4-1.9c-0.2-0.2-0.4-0.5-0.6-0.7c-1-1.1-1.7-1.8-2.4-1.8h0c-0.3,0-0.6,0.2-0.9,0.4l-0.3,0.4l0.4,0.3
		c0.6,0.5,1.2,1,1.9,1.4l-0.5,0.5l-4-1.3c-0.1-0.2-0.2-0.4-0.2-0.6l0-0.2l-0.2-0.1c-0.6-0.4-1.3-0.7-2-0.7c-0.2,0-0.4,0-0.7-0.1
		l-0.2,0l-0.2,0.2c-0.8,0.7,0,1.6,0.5,2.1c0.2,0.3,0.4,0.5,0.6,0.8c0,0.1,0,0.2,0,0.3l0.7,3l0.2-2.3l0.1,0.1l0.6-0.5
		c0.1,0,0.2,0.1,0.4,0.1l0.4,0.8c0.3,0.5,0.8,0.8,1.3,1.1c0.2,0.1,0.4,0.2,0.6,0.3l-1.3,0.5l1.5,0.4c0.7,0.2,1.3,0.6,1.9,1l0.3,0.2
		l0,0.8c1,0.3,1.9,1,2.5,1.9c-0.2-0.1-0.4-0.1-0.5-0.2c-0.9-0.6-1.7-1.3-2.4-2c-0.9-0.9-2.1-1.6-3.3-1.9l-0.1,0h-0.1
		c-1.3,0.1-1.8,1-2.2,1.8c-0.2,0.3-0.3,0.6-0.5,0.9l-0.1,0.1l0,0.1c-0.1,0.6,0.9,1.3,1.3,1.5c0,0,0.1,0.1,0.1,0.1l2,2.5
		c0.3,0.4,0.7,0.6,1.1,0.8l0.4,0.2l0.2-0.4c0.1-0.2,0.1-0.4,0-0.6c-0.2-0.3-0.4-0.5-0.7-0.5c-0.1,0-0.2-0.1-0.4-0.2l-1.6-1.3
		c0.3,0.1,0.7,0,0.9-0.2l0.2-0.2c0.2,0,0.3,0,0.4-0.1l0.1,0.2l0.4,0c0.2,0,0.4,0,0.6,0.1c0.2,0.1,0.4,0.1,0.6,0
		c0.1-0.1,0.2-0.1,0.3-0.2c0.5,0.1,1,0.2,1.5,0.2c0.3,0,0.6,0,0.9,0.1c0.3,0.1,0.5,0.2,0.8,0.2l0.3,0l0.5,0.1
		c0.3,0.4,0.5,0.9,0.7,1.3l0.7,1.4l0,0.1c0,0,0,0,0,0l0.3,0.7l0-0.5c0.4,0.5,0.8,1,1.1,1.6l0.1,0.1c0.5,1.2,1.3,2.1,2.4,2.8
		c1.1,0.4,2,0.8,3.1,1.3l0.4,0.2c0.3,0.4,0.5,0.8,0.7,1.2l0.6,1.1l0.4,0.7c0.1,0.3,0.2,0.5,0.4,0.7c0,0.1-0.1,0.2-0.1,0.3l0,0.2
		l0.1,0.2c0.5,1.1,1,2.2,1.4,3.3c0.5,1.3,1,2.6,1.6,3.9l0.1,0.2l0.2,0l1.1,0.9c0.3,0.3,0.3,0.4,0.2,0.8c-0.3,0.6-0.2,1.4,0.4,1.8
		l0.3,0.2l0.3-0.2c0.2-0.1,0.3-0.2,0.5-0.2c-0.1,0.1-0.2,0.1-0.3,0.1l0.1,1l0.1,0c0,0,0,0.1,0,0.1l-0.4,0.2l-1.6-1.1l2.2,2.6
		c0,0,0.1,0.1,0.1,0.1c0,0.3,0,0.7,0.2,1c-0.3,0.2-0.5,0.5-0.6,0.9l-0.2,0.4l0.6,0.3c0,0.2,0,0.4,0,0.6l-0.8,0.4l-2.5-1.3l2,1.6
		l-1,0.5l1.4-0.1l1.1,0.9l0,0.7c0,0.1,0,0.1,0,0.2c-0.2,0.2-0.4,0.4-0.5,0.7l-0.1,0.2l0,0.2c0.1,0.3,0.2,0.6,0.4,0.8
		c0.3,0.3,0.4,0.8,0.3,1.2h0c-0.4,0.1-0.6,0.4-0.7,0.7c0,0-0.1,0.1-0.1,0.2l-0.6,0l0.4,0.7c0.3,0.5,0.6,1,0.8,1.6
		c-0.3,0.9-0.4,1.9-0.3,2.9v0l0.3,0c-0.1,0.3-0.2,0.6-0.3,0.8l-0.1,0.3l-0.1-0.5l-0.5,1.5c-0.3,1-0.4,2-0.4,3h-0.1l-0.1,1
		c0,0,0.2,0.1,0.2,0.8c0,0.5,0,0.9,0,1.4c0,0,0,0,0,0l-0.3,0l-0.1,0.3c-0.1,0.3-0.1,0.6-0.2,0.9l-1.3-0.1l-0.1,0.3
		c-0.4,0.8-0.5,1.7-0.4,2.6l0,0.1l0,0c0.1,0.8,0.4,1.6,0.9,2.3l0.5,0.7c-0.4,0.3-0.7,0.7-1,1.1l-0.1-0.2l0,0.3l-0.3,0.4l-0.2,0.3
		l0,0L193,106l0.3,1.1c0,0,0,0.1-0.1,0.1l0-0.2l-0.1,0.4c-0.2,0.2-0.4,0.4-0.6,0.5c0,0,0,0-0.1,0l-0.4-0.3l-0.3,0.4
		c-0.7,1.3-1.2,2.6-1.5,4c-0.2,0.8-0.4,1.5-0.6,2.3l-0.5,0.6c-1.7,1.8-1.4,2.7-0.7,3.5c0.1,0.1,0.2,0.2,0.2,0.3
		c-0.3,0.3-0.6,0.6-0.8,1c-0.2,0.4-0.5,0.7-0.8,1.1l-0.2,0.1l0,0.2c0,0.3,0,0.7,0,1c0,0.5,0,1,0,1.4l-0.4-1.2l0,2.7
		c-0.1,0-0.2,0.1-0.3,0.1c-0.9,0.1-1.7,0.7-2.1,1.4l-0.1,0.2l0.2,0.8c-0.2,0.4-0.4,0.9-0.5,1.3c-0.1,0.3-0.2,0.7-0.4,1l-0.6,0.7
		c-0.5,0.6-0.6,1.1-0.4,1.5c0,0.1,0.1,0.1,0.1,0.2l0,0.2l0.1-0.1c0.1,0.1,0.2,0.1,0.3,0.1l0,0.1c-0.1,0.6-0.2,1.2-0.3,1.8
		c0,0.2,0,0.5-0.1,0.7l-0.2,0.1c-0.4,0.1-0.7-0.1-0.9-0.4l-1.3-2.5l0.4,2.8c-0.1,1.1-0.4,2.1-0.9,3.1c-0.6,1.6-1.2,2.9-0.9,3.7
		c0,0.1,0.1,0.2,0.2,0.3c-0.4,0.8-0.7,1.6-1.1,2.5s-0.8,1.8-1.2,2.7l0-0.3l-0.2,0.5l-0.1-0.3l0,0.5l-0.4,0.8
		c-0.1,0.1-0.1,0.3-0.2,0.4v0l-1.2,1.3c0-0.3-0.1-0.6-0.4-0.7c-0.2-0.1-0.4,0-0.5,0.1l-0.5-0.3c-0.4,0.6-0.7,1.3-0.9,2
		c-0.1,0.6-0.4,1.1-0.9,1.4l-0.3,0.2l0,0.3c0.2,1.2-0.1,2.4-0.7,3.4c-0.3,0.1-0.4,0.4-0.6,0.7c0,0,0,0.1-0.1,0.1l-1.1-2.2l0.4,2.9
		c-0.1,0.3-0.2,0.6-0.3,0.9c-0.3,0.6-0.6,1.3-0.1,1.7l0.1,0.1c0.1,0.4,0.3,0.7,0.7,0.9c0.3,0.2,0.3,0.2,0.1,0.9
		c-0.1,0.4-0.3,0.8-0.5,1.2c-0.1-0.2-0.1-0.4-0.1-0.5c-0.2-0.7-0.3-1.2-0.7-1.3c-0.2-0.1-0.5,0-0.6,0.2l-0.4,0.4l0.4,0.2
		c-0.1,0.6-0.2,1.1-0.4,1.7l-0.5-1.3l-0.2,2.4c0,0.4-0.1,0.8-0.4,1.1l-0.5,0.4l0.5,0.4c0.4,0.3,0.7,0.6,1,1l-0.2,0.6l-0.5-1
		l-0.1,1.5l-0.1,0.3l-0.1,0.1c-0.7,0.3-1,1.1-0.7,1.7c0,0.1,0.1,0.1,0.1,0.2l0.1,0.2c0,0.4,0.2,0.9,0.5,1.2c0,0.1-0.1,0.1-0.1,0.2
		c-0.1,0.1-0.2,0.3-0.3,0.4c-0.1,0-0.1-0.1-0.2-0.1c-0.2,0-0.5,0.1-0.6,0.2l-0.1,0.1c-0.3,0.6-0.5,1.2-0.6,1.9
		c-0.1-0.2-0.1-0.4-0.2-0.6l0,0l0,0l0,0c-0.2-0.5-0.3-0.8-0.6-0.9l-0.3,0l-0.4,0.5l0.2,0.3c0.1,0.1,0.2,0.3,0.3,0.5l0,0.1
		c0.1,0.2,0.1,0.3,0.2,0.5l0.9-0.3c0,0.1,0,0.2,0,0.3l-0.1,2.3l1-2c0,0.2,0.1,0.3,0.2,0.5c-0.2,0.6-0.4,1.1-0.7,1.6l0,0l-0.3,0.1
		c0.1,0.6,0.1,1.3,0.1,1.9c-0.2,0.9,0,1.8,0.3,2.6l0,0l-0.6-0.1l0,0l-0.1,0l-0.4-1.8l-0.9,1.2l0.6,2.6l0.2-0.3
		c0.1,0.6,0.3,1.2,0.5,1.8c0.3,0.6,0.4,1.2,0.5,1.8l0.1,1.6l0.8-1.4c0.4-0.9,0.6-2,0.7-3l0.4,0.4l0.2-0.9c0.1-0.5,0.3-1.1,0.5-1.7
		c0.4-1.3,0.7-2.1,0.4-2.6l-0.3-0.6c0.2-0.3,0.3-0.7,0.4-1.1l0.2,0.2l0,0.1l0.1,0l0.3,0.2l0,0.1l0,0l0,0.1l0,0l0,0l0.1,0.9
		c0,0.2,0.1,0.5,0.2,0.7l-0.4,1.2l0.3,0.2c0,0,0.1,0.1,0.1,0.1c0,0,0,0.1,0,0.1l1,0c0,0,0,0,0-0.1c0.1,0,0.1,0.1,0.2,0.1
		c0,0.3,0.1,0.6,0.3,0.8l0,0l-0.2,0.1l0.4,0.3l0.2,0.2l0.1-0.1c0.1,0.1,0.1,0.4,0.2,0.6c0.1,0.4,0.2,0.8,0.4,1.1l0,0.2
		c0,0,0,0-0.1,0c-0.1-0.5-0.2-0.8-0.5-1c-0.3-0.1-0.6-0.1-0.8,0.1l-0.2,0.2l0,0.3c0,0.4,0,0.7,0.1,0.9c0,0.7,0.2,1.5,0.5,2.1
		c0,1-0.2,2-0.5,3l0,0.1l0,0.1c0.1,0.3,0.3,0.5,0.5,0.7c0.1,0.1,0.2,0.2,0.2,0.3l0,0l0.4,0l-0.4,0.1l0,0c0,0.2,0,0.4,0,0.5l0,0.1
		l0,0.1c0,0.1,0,0.1,0,0.2l-1.8-2.4l1.4,3.4c0.1,0.3,0.2,0.7,0.3,1c0,0.5,0.4,0.9,0.8,0.9c0,0.1,0.1,0.2,0.1,0.3l-0.7,0.3l1.8,5.6
		v-1.5c0.1,0.1,0.2,0.1,0.3,0.2l0.8,0.3l-0.3-2.8l0.6,0.2l-0.5-1.1c-0.2-0.5-0.3-1.1-0.3-1.6l0.5,0c-0.1-1.8-0.5-2.3-1.2-2.6
		c-0.3-0.1-0.5-0.2-0.6-1.1l0.9-0.1c0.1,0.2,0.3,0.5,0.5,0.7l0.3,0.5l0.4-0.3c0.8-0.6,0.8-1.8,0.8-2.8c0-0.5,0-0.9,0.1-1.4l1.8-3.6
		l-1.5,1.8c0.1-0.1,0.1-0.3,0.2-0.4l0-0.1c0-2.4-0.5-4.8-1.6-7l-0.2-0.5c0.2,0.1,0.5,0.2,0.7,0.1l0.3-0.1l0-0.4c0.1-0.5,0-1-0.3-1.3
		c-0.2-0.2-0.2-0.5-0.2-0.7l-0.2,0l0.5-0.1c0-0.1,0-0.1,0-0.2l-0.1-0.4c0.1-0.1,0.1-0.2,0.2-0.3l0.6,0.3l0.4-0.6
		c0.3-0.6,0.9-1.6,1.4-2.3l0.5,1l-0.3-1.3c0.1-0.2,0.3-0.4,0.5-0.6l0.4,0.1l0.2-0.3c0.1-0.3,0.2-0.6,0.3-0.9
		c0.1-0.4,0.2-0.7,0.4-1.1l0.1-0.2l-0.1-0.2c-0.1-0.1-0.1-0.2-0.2-0.3c1.3-0.1,1.7-1.6,2-2.6l0.7-2.4l-1.6,2c0,0-0.1,0.1-0.1,0.1
		c0,0-0.1,0-0.1,0c0.2-0.3,0.4-0.6,0.6-0.9c0.1-0.3,0.3-0.5,0.5-0.8l0.1-0.1l0-0.2c0.1-0.7,0.3-1.3,0.7-1.9c0.4-0.6,0.7-1.2,0.7-1.9
		c0,0,0,0,0.1,0l0.3,0.1l0.2-0.2l0.1-0.1c0.3-0.5,0.5-1,0.3-1.3c-0.1-0.2-0.2-0.3-0.4-0.3c0.2-0.7,0.6-1.4,1.2-1.9
		c0.5-0.4,0.9-1,1.2-1.5l0.1-0.1l0-0.2c-0.2-1,1.1-3.6,2-5.4l0.3-0.5c0.2,0,0.4-0.1,0.6-0.1c0.1,0,0.1-0.1,0.2-0.1l0.5-0.2l-0.2-0.5
		c-0.3-0.9-0.3-0.9-0.3-1.3c0-0.2,0.1-0.6,0.1-1.1l0-1.5l-0.7,0.9c0.1-0.3,0.3-0.5,0.5-0.7l-0.5-0.6c0.1-0.3,0.2-0.7,0.4-1
		c0.2-0.4,0.3-0.9,0.4-1.3c0-0.1,0.1-0.1,0.1-0.2l0,0.2l1.9-3.4l0.6-0.2c-0.1,0.2-0.1,0.5,0,0.7c0,0,0,0.1,0,0.1l-1.1,1.9l1.5-1.6
		c0.1,0.1,0.3,0.1,0.4,0.1l0.1,0c0,0,0,0.1,0,0.1l-0.2,0.8l-2.3,1.5l0,0.2c-0.1,0.7-0.1,1.3-0.1,2c0,0-0.1,0.1-0.1,0.1
		c0,0,0.1,0,0.1,0v0.3l-0.6,0.1c0,0.3,0.3,0.6,0.6,0.8c0,1-0.1,1.9-0.3,2.9l-0.6,2.9l1.5-2.5c0.7-1.2,1-2.6,0.9-4c0-0.4,0-0.8,0-1.2
		l2-3.5c0.2-0.3,0.3-0.5,0.5-0.7c0.1-0.2,0.3-0.3,0.4-0.5l0,0.1l0-0.1c0.2-0.3,0.4-0.7,0.5-1c0.1-0.5,0.3-0.9,0.4-1.4l0.7-2.1
		c0.2-0.7,0.2-1-0.1-1.3c0-0.1,0-0.2,0-0.3l0.4-1.4c0,0,0,0,0,0c0.3-0.2,0.6,0,0.8,0.2c0,0,0,0,0,0l0.6,1.1l-1,0.9
		c-0.2,0.2-0.4,0.4-0.5,0.6l-0.4,0.7l0.9,0h0c0.2,0,0.3-0.1,0.4-0.2l-0.6,0.7l0.2,0.5h0l0.1,0.3h0l0.3,0.9l3.2-6.1l-3,3.5
		c0.1-0.1,0.1-0.2,0.2-0.3l1.1-2.3l-0.9,0.8l0.3-1.2c0.4-1.1,0.9-2,1.5-3l0,2.4l1.1-1l0-2.7l-0.8,0.7l0.2-0.3c0.7-1,1.3-2,1.9-3.1
		l0.5-0.9l-0.1,0c0-0.1,0.1-0.1,0.1-0.2l0.1-0.2l-0.3-0.6l0.1-0.1l-0.4-1.8l0,0c0.1,0.2,0.2,0.3,0.4,0.4l0.5,0.2l0.5-2.1
		c0,0,0.1,0,0.1,0c0.3,0,0.6-0.1,0.8-0.3l0.1-0.1l0-0.2c0-0.4,0.2-0.7,0.3-1l0.2,0.1l0.3-0.4c1-1.5,1.7-3.2,2.1-5l0.1-0.4l-0.4-0.1
		c-0.5-0.2-0.9-0.5-1.3-0.8c0.4,0.1,0.8,0,1-0.3l0.2-0.2l0,0l0.6,1l0.5-1.9l0.3,0l0.1-0.4c0.1-0.3,0.2-0.7,0.2-1.1
		c0-0.2,0.1-0.4,0.1-0.6l0.1-0.4h0c0.1-0.2,0.1-0.3,0.2-0.4l0.1,1.9l0,0l0,0l0.1,1.1l0.3,0l1,3l-0.3-4l0-0.5l0.7,0.1
		c0-0.1,0-0.2,0-0.3l0.3,0c0.1-0.8,0.2-1.3,0.3-1.8c0.2-1,0.3-2,0.4-3l-1-0.2c-0.1,0.6-0.3,1.2-0.6,1.8l-0.5-0.2l-0.1,0.5
		c-0.2,0.7-0.2,1.4,0.1,2l-0.1,0.1l-0.8-3.1c0-0.1,0.1-0.3,0.1-0.4l1.3,0.7l-1-1.6c-0.3-0.5,0.3-1.4,0.8-2.1
		c0.1-0.1,0.1-0.2,0.2-0.3v0.2l1.3-1.9c0.2-0.1,0.4-0.3,0.4-0.6l0.8-1.1l0-0.1c0.2-1.1,0.4-2,0.6-2.9c0.4-1.3,0.6-2.7,0.7-4.1
		l0.1,0.1l0.2-0.5c1-2.4,0.8-3.6,0.3-4.6l0.2-0.7l-0.4,0.4c-0.6-0.8-1-1.9-0.9-3c0.3-0.2,0.5-0.5,0.5-0.8c0.3,0,0.6-0.1,0.8-0.3
		c0,0.1,0.1,0.2,0.2,0.3l0.1,0.3l0,0.2l0-0.1l0.2,0.5v2.7l0.4-1.7l0.5,1.1l0-3.1l0-0.2C215.6,80.4,215.6,80.2,215.6,80.1z
		 M169.7,170.2c0-0.1-0.1-0.1-0.1-0.1c0-0.1,0-0.2,0.1-0.3l0-0.2C169.7,169.7,169.7,170,169.7,170.2z M213.8,78l0,0.3
		c0,0-0.1,0-0.1,0C213.7,78.2,213.7,78.1,213.8,78L213.8,78L213.8,78z M212.2,68.8C212.2,68.8,212.2,68.8,212.2,68.8l-0.3-0.4
		l0.3,0.1C212.2,68.6,212.2,68.7,212.2,68.8z M211.6,70.2l-0.4,0.5l0,0.2c0,0.3,0.1,0.6,0.1,0.9c-0.1,0.9,0.2,1.8,0.7,2.5l0.5,0.6
		l0.2-0.5c0.1,0.2,0.1,0.5,0.2,0.7l-0.1,0.1l0.1,0.5c-0.2-0.1-0.4-0.1-0.6,0c-0.2,0.1-0.3,0.3-0.4,0.5l0,0c-0.3-0.3-0.7-0.6-1.1-0.8
		c-0.1-0.6-0.2-1.2-0.1-1.9l0.1,0l0.1-0.5c0-0.5-0.1-0.9-0.2-1.3c-0.1-0.3-0.2-0.7-0.2-0.8l0.5-0.2l-0.2-0.5c0-0.1-0.1-0.2-0.1-0.2
		c-0.2-0.5-0.4-1-0.9-1c-0.1-0.2-0.1-0.4-0.2-0.5c0.3-0.2,0.5-0.4,0.7-0.6c0-0.1,0.1-0.1,0.1-0.2c0.2,0.2,0.3,0.3,0.4,0.5l0.2-0.1
		L211.6,70.2z M204.3,108.3c-0.1,0.1-0.1,0.1-0.2,0.2l0,0c0.1-0.2,0.1-0.3,0.2-0.5C204.2,108.1,204.3,108.2,204.3,108.3L204.3,108.3
		z M204,110.3c-0.1-0.1-0.3-0.2-0.4-0.3c0.1-0.3,0.2-0.6,0.3-0.9C203.8,109.5,203.8,109.9,204,110.3L204,110.3z M175.6,172.2
		l-0.1,0.1c0-0.1-0.1-0.2-0.1-0.3c0-0.1,0-0.2,0.1-0.3L175.6,172.2z M172.2,189.6l-0.2-0.2l0.1-0.7l0.4-0.9c0,0,0.1,0,0.1,0.1
		L172.2,189.6z M165.3,183l-0.1-0.3l0.2-0.3l-0.1-0.2c0-0.1,0-0.2,0-0.3c0.1,0,0.2-0.1,0.3-0.1c-0.1,0.4-0.2,0.8-0.3,1.2L165.3,183z
		 M177.8,42.4c-0.4-0.3-0.7-0.6-1-1c0.3,0.2,0.7,0.3,1.1,0.4c-0.1,0.1-0.1,0.2-0.1,0.3C177.8,42.2,177.8,42.3,177.8,42.4z
		 M182.1,44.3c0,0,0.1,0.1,0.1,0.1v0.1C182.2,44.4,182.1,44.4,182.1,44.3z M183.1,43.5c0,0.1,0,0.1,0,0.2l-0.1-0.2L183.1,43.5
		C183.1,43.5,183.1,43.5,183.1,43.5L183.1,43.5z M182.4,42.8L182.4,42.8L182.4,42.8L182.4,42.8c-0.3-0.3-0.5-0.6-0.8-0.8l-0.3-0.3
		l-0.4,0.2c0-0.3-0.1-0.5-0.3-0.7C181.4,41.6,181.9,42.2,182.4,42.8L182.4,42.8z M179.7,40.3l0-0.2c0.3,0.2,0.5,0.5,0.8,0.7
		C180.2,40.6,180,40.4,179.7,40.3L179.7,40.3z M180.1,42.3L180.1,42.3L180.1,42.3L180.1,42.3z M208.7,52.4c0.1,0.2,0.1,0.4,0.2,0.6
		c0.1,0.3,0.2,0.7,0.2,1.1c-0.2-0.2-0.3-0.5-0.5-0.8c-0.3-0.4-0.5-0.8-0.8-1.2l0.1-0.5l0.8,1.7L208.7,52.4z M210.7,56.8
		C210.7,56.8,210.7,56.8,210.7,56.8l0.1,0.2h0C210.7,56.9,210.7,56.9,210.7,56.8L210.7,56.8z M212.2,86.4L212.2,86.4L212.2,86.4
		L212.2,86.4z M211.7,89c0,0.1,0,0.3-0.1,0.4c0,0,0,0.1,0,0.1l-0.1-0.1l0.1-0.3C211.6,89.2,211.6,89.1,211.7,89L211.7,89z
		 M208.8,96.4l0.2,0.5c-0.1,0.1-0.1,0.2-0.2,0.3l-0.1-0.6l-0.2,0.3c0-0.2,0-0.4-0.1-0.6l0.7,0.1c0.1-0.3,0.1-0.5,0.1-0.8l-1-0.1
		l0,0.3l-0.3,0c-0.1,0-0.1,0-0.2,0c0.2-0.5,0.4-1,0.5-1.5c0.1-0.2,0-0.4,0-0.6l0.2,0c0.3-0.9,0.5-1.8,0.8-2.8l0.7,0.7l-0.1-0.9
		l0.2,0c0.1,0.2,0.2,0.4,0.4,0.5c0.2,0.1,0.3,0.4,0.3,0.7l-0.9,1.3l0,0.1c-0.1,0.3,0.1,0.6,0.3,0.7c-0.2,0.3-0.3,0.6-0.4,0.9
		l-0.4,1.7L208.8,96.4z M203.6,114.3c0.3-0.2,0.5-0.4,0.7-0.7c0,0,0.1-0.1,0.1-0.1c0,0.2-0.1,0.4-0.3,0.6l-0.1,0.1
		c0,0.1-0.1,0.2-0.1,0.2l-0.1-0.1L203.6,114.3z M202.4,112.8c0.2,0.1,0.3,0.3,0.3,0.6c0,0-0.1,0.1-0.1,0.1L202.4,112.8z M198.1,125
		c0.1,0.7-0.1,1.4-0.5,1.9c-0.4,0.1-0.7,0.3-0.8,0.6c0,0-0.1-0.1-0.1-0.1l-0.1-0.1l0.3-0.4c0.5-0.7,0.8-1.5,1.1-2.4
		c0.2-0.6,0.4-1.3,0.8-1.8c0,0.1,0,0.1,0.1,0.1C198.2,123.5,198,124.2,198.1,125L198.1,125z M181.3,140.8c0-0.1,0-0.2,0-0.3
		c0-0.4,0-0.6,0-0.8l0.3,0.8l-0.1,0L181.3,140.8z M188.7,131.5c0,0.4-0.2,0.8-0.4,1.2c0-0.4,0.2-0.9,0.3-1.3c0,0,0-0.1,0-0.1
		L188.7,131.5z M189.9,125.1c-0.1,0.1-0.2,0.2-0.3,0.3c-0.1-0.1-0.2-0.3-0.3-0.4c-0.2-0.2-0.3-0.3,0.1-0.9l0.2,0
		c0-0.2,0.1-0.3,0.2-0.5c0,0.2,0,0.4,0.1,0.5l0.2,0.5C190.1,124.9,190,125,189.9,125.1L189.9,125.1z M188.8,129.3
		c0.1,0,0.3-0.1,0.4-0.2l0.2,1.7l0,0l-0.4-0.8c0-0.1-0.1-0.3-0.1-0.4c0,0,0,0,0-0.1C188.8,129.3,188.8,129.3,188.8,129.3
		L188.8,129.3z M186.6,134.7c0-0.1,0-0.3,0.1-0.4c0.1-0.1,0.1-0.3,0.2-0.5c0-0.1,0.1-0.2,0.2-0.4c0.3,0.1,0.6,0,0.9-0.3
		c-0.3,0.5-0.7,1.1-1,1.5c0,0.1-0.1,0.1-0.1,0.2c0-0.1-0.1-0.1-0.2-0.1C186.7,134.7,186.7,134.7,186.6,134.7L186.6,134.7z
		 M175.9,152.6C175.9,152.6,175.9,152.6,175.9,152.6c0.1,0.3,0.1,0.6,0,0.9c-0.3-0.1-0.3-0.2-0.3-0.9l0,0
		C175.7,152.5,175.7,152.5,175.9,152.6C175.8,152.6,175.8,152.6,175.9,152.6L175.9,152.6z M180.8,147.7c-0.6,0.2-0.8,0.9-1,1.7
		c-0.1,0.4-0.2,0.7-0.3,1.1l-0.1,0.2l0,0.2c0.1,0.2,0,0.5-0.1,0.7l-0.1-0.1l-0.3,0.1c-0.4,0.1-0.7,0.6-1.1,1.4l-0.6-0.2l-0.1-0.2
		L177,151c0.4-0.3,0.6-0.9,0.4-1.4c0.1-0.2,0.2-0.3,0.3-0.4c0,0,0,0,0.1,0.1c0.1,0.1,0.3,0.2,0.4,0.2l-0.9,2.4l1.7-2
		c0.6-0.7,0.6-1.2,0.3-1.7c0,0,0-0.1-0.1-0.1c0,0,0-0.1,0-0.1l0.9-0.1l0.1-0.2c0.5-0.7,0.9-1.3,1.3-2.1c-0.4,0.9-0.6,1.3-0.8,1.9
		L180.8,147.7z M182.1,140.8l0.5-0.6c0.2-0.2,0.4-0.5,0.6-0.8c-0.3,0.9-0.6,1.9-0.8,2.8l-0.4,0.4c0-0.1-0.1-0.2-0.2-0.3l0,0
		c0.2-0.4,0.4-0.8,0.6-1.2L182.1,140.8z M177.8,164.1l0.3,0.2l0.1,0.3l0.2-0.1l0,0c-0.2,0.6-0.4,1.1-0.6,1.6
		c-0.1-0.2-0.1-0.3-0.2-0.4C177.4,165.1,177.4,164.5,177.8,164.1L177.8,164.1z M197.5,98.2C197.5,98.2,197.5,98.2,197.5,98.2
		l0.1,0.1l-0.2,0L197.5,98.2z M196.7,67.4c-0.1,0-0.1,0-0.2,0c-0.1-0.2-0.2-0.4-0.3-0.5c0,0,0,0,0,0c0.2-0.3,0.2-0.7,0-1.1
		c0-0.2-0.1-0.4-0.1-0.6l0,0l0.4,0.8c0.3,0.7,0.6,0.9,1,1c0,0.1,0.1,0.2,0.1,0.3l0,0.1l0.1,0.1c0,0,0.1,0.1,0.1,0.1
		C197.5,67.4,197.1,67.4,196.7,67.4L196.7,67.4z M196.3,58.4c0.2,0.3,0.3,0.7,0.5,1l0.4,0.8l0.5-0.7c0.1-0.1,0.1-0.2,0.1-0.3
		l0.2,0.4l0.1-0.5l0.6,0.3l1.2,4.1c-1.2,0-2.4,0-3.6,0c-0.1-0.6,0-1.2,0.2-1.8l1.3,0.4l-0.8-1.1c-1.1-1.6-1.9-1.7-2.7-1.1l-0.1,0
		l-0.2-1.2l0.5-0.8c-0.2-0.1-0.3-0.2-0.4-0.4c0-0.1,0.1-0.2,0.1-0.3c0,0,0,0,0-0.1c0.1,0.1,0.3,0.1,0.5,0.3l1.4,0.7
		C196.2,58.1,196.2,58.3,196.3,58.4L196.3,58.4z M210,89.1c-0.1,0.4-0.2,0.7-0.2,1.1l-0.2,0l-0.2-1.5l-0.8,0.1
		c0.1-0.5,0.2-1.1,0-1.6c0.2-0.1,0.4-0.1,0.6-0.2c0.1,0,0.2-0.1,0.2-0.1l0.2,0.2c0.1,0.1,0.1,0.1,0.2,0.2l0.3,1.2c0,0,0,0.1,0,0.1
		L210,89.1z M206.7,97.6L206.7,97.6L206.7,97.6L206.7,97.6z M201.2,61c-0.1-0.1-0.2-0.3-0.2-0.4c0,0.1,0.1,0.2,0.1,0.2
		C201.2,60.9,201.2,60.9,201.2,61L201.2,61z M205.4,78.4c-0.2-0.3-0.4-0.5-0.7-0.8c0.5-0.4,0.9-1,1.1-1.6c0,0.6-0.1,1.3-0.1,1.9
		L205.4,78.4z M205.7,78.4c0,0.1,0,0.2,0,0.3l0-0.1L205.7,78.4z M201.9,70.7c0,0,0.1,0,0.1,0.1l0,0.1c-0.1-0.1-0.2-0.1-0.3-0.2
		c0,0,0,0,0,0C201.8,70.6,201.9,70.6,201.9,70.7L201.9,70.7z M203,71.8c0,0,0,0.1,0,0.1c-0.1-0.1-0.1-0.2-0.2-0.2
		c0.1,0,0.1-0.1,0.2-0.1L203,71.8z M202,84.9c0-0.3,0-0.6,0.1-1l0.5-0.6l0,0.6c0,0,0.1,0,0.1,0l-0.1,0.3L202,84.9z M203.3,84
		l0.1,0.1c-0.1,0.1-0.1,0.2-0.1,0.3c0,0,0,0.1-0.1,0.1L203,84C203.1,84,203.2,84,203.3,84L203.3,84z M200.6,59.2
		c0,0.2,0.1,0.4,0.2,0.6c0-0.1-0.1-0.2-0.1-0.3l-0.1-0.3C200.5,59.2,200.5,59.2,200.6,59.2L200.6,59.2z M201.4,91.4c0,0-0.1,0-0.2,0
		c0-0.4,0-0.7,0-1.1c0-0.2,0-0.4,0.1-0.6l0.1,0.2c0,0.2,0,0.4,0,0.6C201.3,90.8,201.3,91.1,201.4,91.4L201.4,91.4z M201.3,92.4h0.3
		c0,0.7,0.3,0.9,0.6,1l-0.2,0.1l-0.1,0l0,0.1l-0.4,0.3c-0.2,0.1-0.3,0.3-0.4,0.4c-0.1-0.2-0.2-0.4-0.3-0.6
		C200.8,93.2,201,92.7,201.3,92.4L201.3,92.4z M202.6,93.4l0.1,0.2C202.7,93.6,202.7,93.5,202.6,93.4L202.6,93.4z M202.3,89.4
		l-0.8-1.4c0.1-0.2,0.3-0.5,0.5-0.6l0.1-0.1l0.4,1.9l0.6-2.2c0.1-0.4,0.2-0.5,0.2-0.5h0c0,0.3,0,0.6-0.1,0.8c0,0.3-0.1,0.6-0.1,0.9
		C202.8,88.7,202.6,89.1,202.3,89.4L202.3,89.4z M202.9,93.8L202.9,93.8l0,0.1C203,93.9,202.9,93.9,202.9,93.8L202.9,93.8z
		 M197.6,56.3l-0.3-0.2c-0.2-0.2-0.4-0.4-0.4-0.7c0,0,0-0.1,0-0.1l0.7,0.6C197.6,56,197.6,56.2,197.6,56.3z M202,101.1l-0.1,0.3
		l-0.6,0.1C201.6,101.4,201.8,101.3,202,101.1L202,101.1z M205.9,98.6c0,0,0.1-0.1,0.1-0.1v0.1v0.2C206,98.7,205.9,98.7,205.9,98.6
		L205.9,98.6z M206.5,50.3c0.1,0.2,0.2,0.3,0.2,0.5c-0.2-0.1-0.3-0.3-0.5-0.4C206.3,50.4,206.4,50.4,206.5,50.3L206.5,50.3z
		 M203.6,47.9c-0.4-0.7-1-1.3-1.6-1.9l-0.5-0.5c0,0,0-0.1,0-0.1l0.9,0.5l-0.5-0.9L202,45l0,0.1l0.1,0l0.9,0.6
		c0.1,0.5,0.3,0.9,0.5,1.3c0.2,0.4,0.3,0.8,0.4,1.2C203.8,48.1,203.7,48,203.6,47.9L203.6,47.9z M203,45.7L203,45.7
		C202.9,45.6,202.9,45.6,203,45.7C203,45.6,203,45.6,203,45.7L203,45.7z M198.1,57.7C198.2,57.8,198.2,57.8,198.1,57.7l0.5,1.5
		l-0.5-0.5l0.1-0.5C198.2,58.1,198.2,57.9,198.1,57.7z M195.4,56.5L195.4,56.5L195.4,56.5L195.4,56.5z M194,55.8
		c-0.1,0-0.2-0.1-0.2-0.1c0.1-0.1,0.2-0.1,0.2-0.2c0.3-0.4,0.4-0.9,0.2-1.3l0.8,1.6L194,55.8z M193.5,58.4l0,0.9c0,0,0-0.1-0.1-0.1
		c-0.1-0.3-0.2-0.6-0.3-1C193.2,58.2,193.4,58.3,193.5,58.4z M198.6,67.8l-0.2,0.6c0-0.1-0.1-0.2-0.1-0.4l0-0.2
		C198.4,67.8,198.5,67.8,198.6,67.8z M199.6,68.9C199.6,68.9,199.5,68.9,199.6,68.9c-0.1,0-0.2-0.1-0.3-0.4l-0.1-0.4
		C199.5,68.2,199.6,68.3,199.6,68.9L199.6,68.9z M196.7,112.1c0.5-0.6,0.9-1.4,1.1-2.2l0,0.8l1.1-4.7c0.3-1.4,0.9-2.6,1.8-3.7
		c0.2-0.2,0.4-0.4,0.7-0.6l-0.1,0.2c-0.4,1.2-0.7,2.6-0.7,3.9c0,0.2,0,0.3,0,0.5c-0.5,0.2-0.6,0.8-0.7,1.4c0,0.1,0,0.2,0,0.2l0,0
		l-0.1,0.2c-0.3,0.6-0.3,1.3-0.1,1.9c0,0.1,0,0.1,0.1,0.2c-0.2,0.1-0.4,0.3-0.6,0.5l-0.1,0.1l-0.5-0.1c0,0.1,0,0.2,0,0.3
		c-0.1,0.5-0.2,1-0.4,1.5l-0.5-0.1l-0.1,0.4l-0.2,0.4l-0.7-0.8L196.7,112.1z M194.5,119.8C194.5,119.8,194.5,119.8,194.5,119.8
		L194.5,119.8C194.5,119.7,194.5,119.7,194.5,119.8L194.5,119.8z M199.8,122L199.8,122c0-0.1,0.1-0.2,0.1-0.3c0,0,0,0.1,0,0.1
		C199.9,121.9,199.8,122,199.8,122L199.8,122z M205.8,102.4c0.1-0.2,0.2-0.4,0.3-0.6l0.9,0.1c0,0.1,0,0.1,0,0.2
		c-0.4,0.3-0.8,0.5-1.2,0.7l-0.1-0.1C205.8,102.5,205.8,102.5,205.8,102.4L205.8,102.4z M206.9,101.5L206.9,101.5
		c0.1,0.1,0.1,0.1,0.1,0.2L206.9,101.5z M208.6,59.6c-0.3-0.2-0.5-0.3-0.8-0.5l-0.3-0.5c0,0,0-0.1,0-0.1l0.2,0c0.1,0,0.1,0,0.2,0
		c0.3,0,0.6-0.1,0.8-0.2c0.1,0.2,0.2,0.3,0.4,0.4l0,0.9c0,0.1,0,0.3,0,0.4C208.9,59.8,208.8,59.7,208.6,59.6L208.6,59.6z M168.3,22
		C168.3,22,168.3,22,168.3,22c0,0,0.1,0,0.1,0C168.4,22,168.3,22,168.3,22z M198.5,93.9c0.1,0.4,0.2,0.8,0.4,1.2
		c0,0.1-0.1,0.2-0.1,0.2l-0.7,0.1l0.4,0.6c0.1,0.2,0.3,0.3,0.4,0.4c0.1,0.1,0.2,0.2,0.3,0.3l-0.3,0.1l-0.1,0.1
		c-0.1,0.1-0.1,0.3-0.2,0.4l-0.1,0.1c0-0.4-0.1-0.7-0.5-0.9c-0.1,0-0.2-0.1-0.3-0.1c-0.1,0-0.3,0-0.4,0.1c0.1-0.6,0.3-1.2,0.6-1.8
		C198.2,94.7,198.4,94.3,198.5,93.9z M195.6,103.6l0.1,0.1c0,0,0,0.1,0,0.2c0,0.1,0,0.3,0,0.4c0,0-0.1,0.1-0.1,0.1v-0.7
		C195.6,103.7,195.6,103.6,195.6,103.6L195.6,103.6z M193.9,114c0.2-0.3,0.3-0.6,0.4-0.9l0.2,0.3l0.4-0.8c0-0.1,0.1-0.2,0.1-0.3
		l0.7-0.1l-0.6-0.1c0-0.1,0.1-0.3,0.1-0.4c0.1-0.2,0.1-0.4,0.2-0.6l0.5,0.3c0,0.1,0,0.3,0,0.4l-0.1,1.5l0.6-0.7l0.2,1.1
		c-0.1,1-0.2,1.1-0.2,1.1c-0.2,0-0.4,0.1-0.6,0.2l-0.1-0.3l-0.3,0.9l-0.3-0.4v1.4c0,0.1,0,0.1,0,0.2l-0.9,1.2
		c-0.2,0.3-0.4,0.5-0.6,0.7c-0.3,0.2-0.5,0.5-0.7,0.8c-0.2,0.4-0.3,0.8-0.3,1.2c0,0.3,0.2,0.6,0.5,0.7c0.1,0.5,0.1,1.2,0.2,1.9
		l-0.4,0.9l-0.4-3l-0.4,3.8l-0.2,0.6c-0.1,0.2-0.1,0.3-0.2,0.5c-0.1,0.2-0.2,0.4-0.2,0.5l0,0c-0.1,0.1-0.3,0.1-0.4,0.2l0.9-2.5
		l-0.4-0.2c-0.1,0-0.2-0.1-0.3-0.1c-0.1,0-0.2,0-0.3,0.1v0c0-0.2,0-0.5,0.1-0.7l0.2,0.1l0.8-2.4l-0.1-0.2c-0.1-0.3-0.3-0.5-0.6-0.5
		h-0.1c0.5-1.4,1.4-3.2,2.3-3.8l0.1-0.1c0.4-0.5,0.6-0.9,0.4-1.3c-0.1-0.3-0.4-0.4-0.7-0.5h0c0.1-0.2,0.2-0.4,0.3-0.6l0,0.6
		L193.9,114z M193.4,110.1l0-0.1h0.1c0,0,0,0.1,0,0.1C193.5,110.1,193.4,110.1,193.4,110.1L193.4,110.1z M192.4,111.3
		c0,0.1-0.1,0.2-0.1,0.2c0,0,0,0-0.1-0.1c-0.1-0.1-0.2-0.1-0.3-0.1c0-0.1,0.1-0.3,0.1-0.4c0-0.1,0.1-0.2,0.1-0.2
		c0,0.1,0.1,0.3,0.2,0.4l0.1,0.1L192.4,111.3z M171.5,182.3c0,0.2-0.1,0.4-0.1,0.7c0,0,0-0.1,0-0.1l0-0.2
		C171.4,182.5,171.4,182.4,171.5,182.3L171.5,182.3z M171.5,186.2c0.1,0,0.1,0,0.2,0v0c0,0.1,0,0.2,0,0.3c-0.1-0.1-0.2-0.2-0.3-0.3
		C171.4,186.2,171.4,186.2,171.5,186.2z M172.3,180.4c0,0.1,0,0.1,0,0.2l-0.4-0.1l0,0.2c-0.1,0.4-0.1,0.8-0.2,1.2h-0.2
		c0-0.1,0-0.3-0.1-0.4c0.1-0.6,0.4-1.2,0.9-1.6L172.3,180.4z M175.9,167.6L175.9,167.6c0.1-0.3,0.2-0.3,0.4-0.2c0.1,0,0.1,0,0.2,0
		c0,0.1,0,0.2,0.1,0.4l-0.1,0.3c0-0.2-0.1-0.3-0.3-0.4C176.1,167.6,176,167.6,175.9,167.6L175.9,167.6z M177.3,169.3l0,0.2
		c0,0,0,0,0,0l0,0c-0.1-0.2-0.1-0.4,0-0.5l0-0.4h0C177.4,168.8,177.4,169,177.3,169.3L177.3,169.3z M179.8,162.2
		c0,0.1-0.1,0.2-0.1,0.3c0,0-0.1,0-0.1,0c0-0.1,0-0.2,0-0.4C179.7,162.2,179.8,162.2,179.8,162.2L179.8,162.2z M201.9,113.1
		c0-0.1,0-0.2,0-0.3c0.1-0.1,0.2-0.1,0.3-0.1L201.9,113.1z M209,98.1L209,98.1L209,98.1L209,98.1z M187.9,41.7l-0.6,0.3
		c-0.2-0.3-0.5-0.5-0.7-0.8l-0.4-0.4C187.1,40.9,187.6,41,187.9,41.7z M188.3,42.5l0.1,0.1c0.2,0.4,0.5,0.6,1,0.7h0.5l0.1-0.3
		c0.1,0,0.3,0.1,0.4,0.1c-0.2,0.3-0.4,0.5-0.6,0.7l-0.7,0.6l-1-1.5c-0.1-0.1-0.1-0.2-0.2-0.3L188.3,42.5z M187.2,48.8
		c-1.2-0.6-2.4-1.2-3.5-2c-0.1-0.6-0.4-1.2-0.9-1.7l0.6,0.4l0.1-0.1l0.1,0.1c0.6,0.7,1.4,1.2,2.2,1.5c0.2,0.3,0.5,0.6,0.8,0.9
		c0.3,0.3,0.6,0.6,0.8,0.9L187.2,48.8z M178.1,40l0.1,0.1l-0.2,0.3c-0.1,0-0.1-0.1-0.1-0.1L178.1,40z M196.9,97.8L196.9,97.8
		C196.9,97.9,196.9,97.9,196.9,97.8L196.9,97.8z M173.3,150.2L173.3,150.2l0.2,0C173.4,150.2,173.4,150.2,173.3,150.2z M165,183.2
		L165,183.2L165,183.2L165,183.2z M171.2,186.2C171.2,186.2,171.2,186.2,171.2,186.2L171.2,186.2
		C171.2,186.2,171.2,186.2,171.2,186.2L171.2,186.2z M206.2,108.3L206.2,108.3L206.2,108.3L206.2,108.3z M213.9,78.4
		C214,78.4,214,78.4,213.9,78.4l0.1,0.7c-0.1-0.2-0.2-0.4-0.3-0.6L213.9,78.4z M211.7,67c0,0.1,0,0.1,0,0.2c0,0.1,0,0.2-0.1,0.3
		c0.1-0.1,0.2-0.2,0.4-0.1l-0.2,0.8l-0.2-0.3l0,0c0-0.1-0.1-0.3-0.2-0.6c0,0,0.1,0,0.1-0.1C211.6,67.2,211.7,67.1,211.7,67L211.7,67
		z M211.8,59.3C211.8,59.2,211.8,59.2,211.8,59.3c0.1-0.1,0.1,0,0.2,0L211.8,59.3z M207.6,47.3l-0.3,0.4c-0.3-0.3-0.6-0.7-0.8-1.1
		c0-0.1,0-0.3,0-0.4L207.6,47.3z M196.1,38.5l1,1.1c0.4,0.5,1,0.8,1.6,1c0.7,0.2,1.2,0.6,1.6,1.2c0,0.1,0,0.1,0.1,0.2
		c-0.2,0-0.4,0-0.5,0.2c-0.2,0.1-0.3,0.3-0.3,0.5l-0.1-0.1c-0.1,0-0.2-0.1-0.3-0.1c-0.1-0.3-0.2-0.6-0.4-0.9
		c-0.1-0.1-0.1-0.2-0.2-0.3c0,0.1,0,0.2-0.1,0.3c-0.1,0.1-0.1,0.1-0.2,0.2l0,0l0.3-0.9l-1.3-0.4c-0.2-0.4-0.5-0.7-0.8-1
		c-0.2-0.2-0.4-0.5-0.6-0.7L196.1,38.5z M138.8,21.6C138.8,21.6,138.8,21.7,138.8,21.6l-0.1,0.2l0,0c0-0.1,0-0.1,0-0.2L138.8,21.6z
		 M116.1,42.8L116.1,42.8C116,42.9,116,42.9,116.1,42.8c0,0,0-0.1,0-0.1C116.1,42.7,116.1,42.8,116.1,42.8L116.1,42.8z M180.6,36.3
		L180.6,36.3l-0.1,0c0-0.1-0.1-0.2-0.1-0.2c0.1-0.2,0.2-0.5,0.2-0.7c0.1,0,0.1,0,0.2,0c0,0,0,0.1,0,0.1
		C180.9,35.7,180.8,36,180.6,36.3L180.6,36.3z M186.6,43c0.2,0.3,0.5,0.5,0.8,0.7l1.5,1l-0.1,0.1l0.2,0l0.2,0.1l-0.1-0.1l0.9,0
		c0.4,0,0.6,0.3,0.9,1c0,0.1,0.1,0.2,0.1,0.2c-0.1,0-0.2,0-0.3,0.1c-0.3,0.1-0.4,0.4-0.4,0.7l0,0.3l3.1,1.5c0.1,0.2,0.1,0.4,0.1,0.6
		l-0.7,0.5l0,0l0,0c0,0.1,0.1,0.1,0.1,0.2l-0.1,0c0,0.1,0.1,0.1,0.1,0.2l0.1,0.1l0.1-0.1c0.3,0.4,0.6,0.7,1,1l0,0l-0.1,0.6l0.3,0.2
		c0.1,0.1,0.2,0.1,0.3,0.2c0.1,0.1,0.3,0.2,0.4,0.2l1.1,0.5l-0.2,0.1l-0.9-0.4l0.6,0.6l0,0l0.1,0.1c-0.5-0.3-0.9-0.5-1.4-0.8V52
		l-0.7,0l-1.2-0.7l0.4,1l-0.1-0.1c-1.3-1.1-2.7-2-4.2-2.8l0-0.2h0c0.2,0,0.5-0.1,0.7-0.2l0.2,0.1l-0.1-0.3c0,0,0,0,0-0.1
		c0.1-0.3,0-0.6-0.4-1l-0.1-0.2c-0.3-0.8-0.9-1.5-1.6-1.9c0.2-0.2,0.2-0.5,0-0.7l-0.1-0.2c-0.2-0.2-0.4-0.3-0.5-0.5l-0.4-1l0,0.5
		c-0.1-0.1-0.2-0.3-0.3-0.4l-0.2-0.2L186.6,43z M175.8,39.1c0.2,0.1,0.4,0.2,0.6,0.2c0.1,0,0.1,0,0.2,0l0.6-0.2
		c0.2,0.1,0.3,0.2,0.5,0.3l0,0.3l-0.3,0.3c0,0,0,0,0.1,0c-0.2-0.1-0.4-0.1-0.6-0.1c-0.1,0-0.1,0-0.2,0c-0.6-0.6-1.2-1.1-1.9-1.5
		c-0.6-0.3-1.1-0.8-1.6-1.3L175.8,39.1z M198.6,73.7l-0.3-0.4c0.2-0.3,0.4-0.6,0.5-0.9c0.1,0.5,0.1,1-0.1,1.5l0,0
		C198.7,73.9,198.6,73.8,198.6,73.7z M198,78.4c0.1,0,0.2,0,0.3-0.1c0,0.1,0.1,0.3,0.1,0.4l-0.6-0.3L198,78.4z M195.6,99.8
		c0,0.1,0,0.3,0,0.4c-0.1,0-0.2,0.1-0.3,0.2C195.5,100.2,195.5,100,195.6,99.8z M173.6,150.2l0.1,0l-0.3,0.3c0,0,0,0-0.1,0
		c0-0.1,0.1-0.1,0.1-0.2S173.6,150.2,173.6,150.2L173.6,150.2z M167.4,177.3c0-0.6,0.1-1.1,0.3-1.7c0.2-0.7,0.3-1.4,0.4-2.2
		c0,0,0.1,0,0.1-0.1l0.4,0.3l0.2-0.2c0.5-0.1,0.7-0.6,0.8-0.9c0-0.2,0.1-0.3,0.2-0.5c0,0.2,0,0.4,0,0.6l0,0.4l-0.2,0.1
		c0.1,0.6,0,1.2-0.3,1.8c-0.2,0.5-0.4,1.1-0.4,1.7c-0.1,0.1-0.1,0.2-0.1,0.3c-0.2,0.7-0.3,1.4-0.1,2.1c0,0.1,0,0.2,0,0.3l-0.2-0.1
		l-0.1-0.3l-0.6-0.2l-0.2,0.2l-0.3-0.1c0-0.1,0.1-0.2,0.1-0.3c0.1-0.4,0.2-0.8,0.3-1.1L167.4,177.3z M168,179.7l0-0.1l0.4,0.3
		L168,179.7z M170.7,193L170.7,193l-0.4,0.1L170.7,193z M173.5,189.1c0,0-0.1,0.1-0.1,0.1c-0.1-0.1-0.3-0.1-0.4-0.1c0,0-0.1,0-0.1,0
		l0.7-1.3c0.1,0.2,0.4,0.3,0.6,0.2c0.1,0,0.2-0.1,0.3-0.1L173.5,189.1z M173.6,177.4c-0.1,0.1-0.3,0.1-0.4,0.1c0,0-0.1,0-0.1,0
		c0,0,0-0.1,0-0.2l0.1,0L173.6,177.4z M194.5,130.4c0-0.1,0-0.1,0.1-0.2c0,0,0,0,0.1-0.1C194.6,130.2,194.5,130.3,194.5,130.4
		L194.5,130.4z"/>
	<path class="st0" d="M189.9,46.8l-0.3-0.4l-0.7-0.6l-0.7,0.7l0.9,0.9L189.9,46.8z"/>
	<path class="st0" d="M132.8,20.6l0.3-0.2l0-0.1c0.1-0.1,0.2-0.2,0.3-0.2l-1,1.7l2.2-1.6c0.4-0.3,0.9-0.7,1.4-1l0,0.1
		c0.1,0.4,0.5,0.6,0.9,0.5c0.3,0,0.6-0.1,0.9-0.2c0.5-0.1,1-0.3,1.5-0.4l0.3-0.1l0-0.3l0.7-0.3l-0.8-0.1l0-1.1l1.3,0.1
		c0.2,0,0.4,0,0.5,0c0.4,0,0.7,0,1.1-0.1l0.4-0.1l0-0.4c0-0.2-0.1-0.4-0.2-0.5c-0.4-0.3-0.9-0.2-1.9,0.1l-1.3,0.4l0-0.4l-0.6,0.2
		c-0.6,0.1-1.1,0.4-1.5,0.8l-1.2,0.3c-1.3,0.3-2.5,0.7-3.8,1.2l-0.3,0.1l-0.1,0.9c-0.1,0.1-0.1,0.3,0,0.4l-0.1,1L132.8,20.6z"/>
	<path class="st0" d="M166.6,32.6c-0.1,0.2-0.2,0.4-0.1,0.6l0.1,0.3l0.3,0.1c0.6,0.2,1.1,0.4,1.6,0.6l0,0c0.3,0.1,0.5,0.3,0.8,0.3
		l0.3-1l-0.7-0.3c-0.1-0.1-0.1-0.2-0.1-0.3l0,0c0-0.1,0-0.2,0-0.2l0-0.6l-0.4,0.2l-0.9-1l0.2,1.2C167.3,32.3,166.9,32.4,166.6,32.6z
		"/>
	<path class="st0" d="M112.5,37.9l2.1-3.5l-6.4,6.4l3.5-2.1C112,38.6,112.3,38.3,112.5,37.9z"/>
</g>
</svg>
