<svg xmlns="http://www.w3.org/2000/svg" width="255.51" height="415.665" viewBox="0 0 255.51 415.665">
  <g id="グループ_1509" data-name="グループ 1509" transform="translate(-2480.826 -1145.823)">
    <path id="パス_801" data-name="パス 801" d="M2521.987,1246.966c.2.784.98,1.372,2.352,1.568s2.058.687,2.058,1.471a2.458,2.458,0,0,1-.1.783,1.191,1.191,0,0,0,.979.589,2.223,2.223,0,0,0,.629-.079.97.97,0,0,0,.371.079,2.356,2.356,0,0,0,.981-.2l.364-.094c.068.03.136.06.2.094.392.588,1.274.784,2.45.784,1.274,0,2.157.2,2.548.685a1.468,1.468,0,0,1,.371-.407,1.5,1.5,0,0,1,.629.407,2.455,2.455,0,0,1,.176-.23c.063.04.126.08.2.133a1.84,1.84,0,0,0,.686.2.361.361,0,0,0,.295-.1c.037-.018.092-.033.136-.051a1.673,1.673,0,0,0,.569.15.361.361,0,0,0,.295-.1,1.908,1.908,0,0,1,.335-.126c.187.035.393.08.625.126a2.414,2.414,0,0,0,.784.1,1.5,1.5,0,0,0,.41-.06,3.017,3.017,0,0,0,.59.06,1.126,1.126,0,0,0,1.078-.589h1.47a13.226,13.226,0,0,0,3.43-.685,27.818,27.818,0,0,1,3.234-1.079,14.119,14.119,0,0,1,4.705-1.568q5.439-3.526,8.232-5c.1-.2,3.725-3.92,10.683-11.27a67.27,67.27,0,0,0,9.507-12.154,22.036,22.036,0,0,1,2.45-4.41,8.551,8.551,0,0,0,1.666-4.606v-3.038a5.494,5.494,0,0,0-2.842-5.1,7.59,7.59,0,0,0-3.921-1.078c-.177,0-.348.019-.521.032-.16-.01-.314-.032-.479-.032a8.713,8.713,0,0,0-3.429.784l-5.1,2.254-11.369,9.016c-4.508,3.627-8.036,6.665-10.487,9.7l1.274,1.175c0,.089.25-.068.658-.315l.342.315c0,.066.141-.007.375-.146a1.35,1.35,0,0,0,.292.049.814.814,0,0,0,.435-.135,1.458,1.458,0,0,0,.565.135c.588,0,1.078-.687,1.47-1.863a3.7,3.7,0,0,1,1.175-2.352c1.177-.882,4.41-3.724,9.7-8.624a42.746,42.746,0,0,1,10.487-7.645h2.744a1.693,1.693,0,0,1,.666-.757,3.421,3.421,0,0,1,.686.365,3.3,3.3,0,0,0,1.47.392h.883a8.019,8.019,0,0,0,1.176,2.058,4.487,4.487,0,0,1,1.078,2.45,2.4,2.4,0,0,1-.784,1.765,10.972,10.972,0,0,1-1.47,5l-2.45,4.606c-6.175,7.742-9.409,11.761-9.8,12.055a93.691,93.691,0,0,1-11.173,11.271,49.418,49.418,0,0,0-5.587,2.842,13.636,13.636,0,0,1-5.782,2.156,1.984,1.984,0,0,1-1.862.785h-.392c-1.264,0-2.043.194-2.343.772-3.119-.016-6.3-.1-9.5-.184a11.183,11.183,0,0,1-8.625-4.8,2.672,2.672,0,0,0-.778.291c-.072-.1-.152-.189-.222-.291a1.758,1.758,0,0,0-.491.158.7.7,0,0,1-.077-.158l.784-.686a3.669,3.669,0,0,1-.979.1c-.042,0-.07-.017-.11-.02l.089-.078a2.55,2.55,0,0,1-.273.045c-.577-.122-.883-.591-.883-1.515,0-1.568-.294-2.451-.98-2.548.392-1.078.686-1.569.785-1.569,0-.489-.785-.685-.785-.685a4.051,4.051,0,0,0-.392-1.471,6.216,6.216,0,0,1-.294-1.47,1.428,1.428,0,0,1,.686-1.274,1.258,1.258,0,0,1-.392-.98,1.915,1.915,0,0,1,.1-.686,3.672,3.672,0,0,0,.1-.98,1.062,1.062,0,0,0-.1-.588,23.735,23.735,0,0,1,1.862-5c0-.2-.1-.392-.1-.588a1.755,1.755,0,0,1,.393-.882,1.365,1.365,0,0,0,.391-.882c0-.2-.2-.49-.686-.784l-.392.391c-.019.023-.037.053-.057.076a1.863,1.863,0,0,0-.551-.467l-.392.391a9.494,9.494,0,0,0-1.666,3.332,9.323,9.323,0,0,1-1.862,3.333c.1,3.039.2,6.077.2,9.115C2518.361,1242.556,2519.733,1245.2,2521.987,1246.966Z" fill="#fff"/>
    <path id="パス_802" data-name="パス 802" d="M2523.434,1220.642c-.033.416-.055.852-.055,1.333,1.078-.687,1.568-2.254,1.568-4.411v-.588a2.763,2.763,0,0,0-1.021,1.322c.013-.236.021-.48.021-.734v-.588c-1.078.686-1.568,2.352-1.568,5A2.879,2.879,0,0,0,2523.434,1220.642Z" fill="#fff"/>
    <path id="パス_803" data-name="パス 803" d="M2528.137,1212.694a13.873,13.873,0,0,1-1.621,2.322l.784.392a10.069,10.069,0,0,1,1.862-2.744,3.272,3.272,0,0,0,.98-2.156,1.672,1.672,0,0,0-.1-.687,7.645,7.645,0,0,0-.977,1.257,2.38,2.38,0,0,0,.075-.57,1.672,1.672,0,0,0-.1-.687,10.268,10.268,0,0,0-1.765,2.647,15.93,15.93,0,0,1-1.763,2.548l.784.392A9.973,9.973,0,0,1,2528.137,1212.694Z" fill="#fff"/>
    <path id="パス_804" data-name="パス 804" d="M2532.572,1173.951h.392a1.061,1.061,0,0,1,.686.195c.294.2.392.294.392.393a1.139,1.139,0,0,1,.687-.2,1.556,1.556,0,0,1,.2.015c.076.071.111.127.111.181a.616.616,0,0,1,.226-.118c.155.034.326.075.539.118.345,0,.65,0,.929-.015l.071.015a5.194,5.194,0,0,0,1.96-.2.953.953,0,0,0,.5-.552l.263-.33.784,1.078c.354-.025.665-.051.941-.082l.059.082c1.373-.1,2.157-.2,2.353-.588h.979a6.8,6.8,0,0,0,1.569-.294c.388-.056.708-.109.989-.147a1.768,1.768,0,0,1,1.245,1.029l.548-.6a2.081,2.081,0,0,1,.452.6l.98-1.078a1.89,1.89,0,0,1,.871-.534c.208.112.3.31.384.73,0-.276.34-.408.746-.632a1.237,1.237,0,0,1,.254.632c0-.392.685-.49,1.273-.98a2.213,2.213,0,0,1,.6-.339.382.382,0,0,0,.169.045,2.472,2.472,0,0,0,.655-.156.458.458,0,0,0,.345.156,3.031,3.031,0,0,0,.784-.2c.224-.075.411-.131.579-.178a.73.73,0,0,1,.283.276l-.294.195.392.393.1-.588c0-.085.166-.165.643-.187a.646.646,0,0,1,.162.187l-.294.195.392.393.1-.588c0-.055.076-.108.252-.146a.7.7,0,0,1,.513.44l-.392.392.392.49a1.855,1.855,0,0,1,.959-.841l-.351.351.392.49a2.36,2.36,0,0,1,.689-.718c.123.067.246.146.369.228a2.7,2.7,0,0,1,.231-.375,2.114,2.114,0,0,1,.769.375,2.807,2.807,0,0,1,2.35-1.684,28.68,28.68,0,0,0,3.609.508l-.393.392.393.293.391-.293-.294-.392.042-.083q.414.045.861.083l-.393.392.393.293.391-.293-.294-.392.285-.569.071-.015a.375.375,0,0,0,.232.094c.064,0,.13,0,.2-.005a1.084,1.084,0,0,1,.466.4c-.294,1.275-1.469,2.255-3.527,3.137a6.249,6.249,0,0,0-3.381,2.858.667.667,0,0,1-.932-.016c-.392,0-.882.392-1.568,1.177a2.861,2.861,0,0,1-1.96,1.078c-.588,1.372-1.96,2.645-4.116,3.92-2.156,1.372-3.528,2.646-3.921,3.92h-.489a3.2,3.2,0,0,0-2.45,1.274,9.136,9.136,0,0,1-2.549,2.156l.392.392a.917.917,0,0,1,.657-.343l.343.343c.1-.2.49-.392,1.176-.392.2-.49.882-.98,2.156-1.47s1.96-1.078,2.157-1.96a63.112,63.112,0,0,0,7.742-4.705l7.743-5.488a7.25,7.25,0,0,0,3.822-1.47,24.5,24.5,0,0,1,3.626-1.961,6.159,6.159,0,0,0,2.254-.881,4.55,4.55,0,0,1,1.862-.392h.588a7.557,7.557,0,0,1,3.462-1.052,6.181,6.181,0,0,1,1.713.366,2.19,2.19,0,0,1,.106-.249,5.857,5.857,0,0,1,.894.249,9.924,9.924,0,0,1,.882-1.569,2.991,2.991,0,0,0,.685-1.47,1.086,1.086,0,0,0-.489-.98,16.088,16.088,0,0,0-2.255-.195c-.148,0-.333.017-.5.026-.168-.008-.332-.026-.5-.026a38.989,38.989,0,0,0-5.292.685,31.231,31.231,0,0,1-4.839.673,6.791,6.791,0,0,1-2.1-.379,1.476,1.476,0,0,1-.268.21,5.5,5.5,0,0,1-.732-.21,1.261,1.261,0,0,1-.981.393h-1.273a1.525,1.525,0,0,0-.71.207,31.566,31.566,0,0,0-3.484-.207c-.172,0-.363.008-.55.015-.151,0-.3-.015-.45-.015a57.594,57.594,0,0,0-9.312,1.273,57.128,57.128,0,0,1-8.712,1.164,21.247,21.247,0,0,1-3.91-.477h-1.471a25.592,25.592,0,0,1-3.92-.392q-2.793-.294-4.41-.295c-.012.007-.02.016-.032.023-.349-.014-.676-.023-.968-.023a1.377,1.377,0,0,0-.784,1.078C2530.122,1172.187,2530.906,1172.873,2532.572,1173.951Zm19.23,13.819c-.043,0-.082.012-.124.014l.006-.014c.243-.122.515-.273.771-.408a3.312,3.312,0,0,0-.164.408Z" fill="#fff"/>
    <path id="パス_805" data-name="パス 805" d="M2531.1,1198.354a1.248,1.248,0,0,0,.587-.1c.005-.012.013-.02.019-.032a1.14,1.14,0,0,0,.394.129,1.248,1.248,0,0,0,.587-.1,2.7,2.7,0,0,1,2.746-1.765h4.017c.294,0,.588-.685,3.921-.882a5.721,5.721,0,0,0,3.822-1.372l-1.274-1.175.392-.393a1.042,1.042,0,0,0-.392-.588,4.49,4.49,0,0,1-.84,1.128l-.16-.147.392-.393a1.042,1.042,0,0,0-.392-.588,4.735,4.735,0,0,1-4.451,2.439c-.288-.012-.613-.036-1.018-.086a1.119,1.119,0,0,0-.366.062c-.191-.014-.4-.033-.634-.062a1.848,1.848,0,0,0-.882.294,2.43,2.43,0,0,1-.345.288.93.93,0,0,1-.223-.288,1.613,1.613,0,0,1-.642.393.874.874,0,0,1-.358-.393,1.628,1.628,0,0,1-.8.43,3.7,3.7,0,0,1-1.14-.43,4.4,4.4,0,0,0-1.862-.588,2.486,2.486,0,0,0-.5.064,2.4,2.4,0,0,0-.5-.064,3.479,3.479,0,0,0-.98.2l-1.176,1.078a1.363,1.363,0,0,0-.49.981.593.593,0,0,0,.1.391A6.553,6.553,0,0,0,2531.1,1198.354Z" fill="#fff"/>
    <path id="パス_806" data-name="パス 806" d="M2615.184,1235.4a2.308,2.308,0,0,0-.2.785c0,.49.392.979.98,1.568a5.151,5.151,0,0,1,1.078,1.078c.176-.163.352-.344.528-.54a2.628,2.628,0,0,1,.472.54,18.747,18.747,0,0,0,4.018-6.763,45.076,45.076,0,0,1,3.529-7.253,12.641,12.641,0,0,1,6.166-1.941,25.479,25.479,0,0,1,3.713.472,5.586,5.586,0,0,1,2.352,4.41c0,.294-.1.49-.1.784a30.055,30.055,0,0,1-1.569,6.272,31.446,31.446,0,0,0-1.666,6.469,58.767,58.767,0,0,0-3.038,7.252c-1.078,3.038-2.254,5.391-3.724,6.861a7.358,7.358,0,0,0-1.078,2.94,3.9,3.9,0,0,1-1.372,2.843,4.3,4.3,0,0,1,.2.979,4.654,4.654,0,0,1-.98,2.353,3.927,3.927,0,0,0-.98,2.254,3.452,3.452,0,0,0,.2.98,13.4,13.4,0,0,1-1.274,3.626,6.365,6.365,0,0,0-.981,3.038c0,.294.1.49.1.687a2.684,2.684,0,0,0-.491.882,17.609,17.609,0,0,0,1.547-2.617,4.53,4.53,0,0,0-.155,1.048c0,.294.1.49.1.687a2.684,2.684,0,0,0-.491.882,19.26,19.26,0,0,0,1.765-3.039,14.064,14.064,0,0,1,2.155-3.234,13.887,13.887,0,0,1,1.667-6.076,26.166,26.166,0,0,0,2.254-5.783c1.863-2.548,3.724-6.567,5.489-12.055a68.707,68.707,0,0,1,4.8-12.447,39.217,39.217,0,0,0,1.077-6.37,6.261,6.261,0,0,0-2.547-5.391l5.684-6.174-.49-.392c-.189.124-.367.238-.552.359l-.448-.359a56.172,56.172,0,0,1-7.939,4.606h-6.938a8.72,8.72,0,0,0,1.372-3.136,5.751,5.751,0,0,1,1.862-2.842,110.431,110.431,0,0,1,8.135-16.662c3.136-5.39,6.174-10.878,9.212-16.367,2.156-2.842,5.293-8.036,9.6-15.68,4.607-8.038,7.84-13.33,9.409-15.878a10.636,10.636,0,0,1,.1-1.764,1.5,1.5,0,0,0-1.078-1.47l-.336.42a1.338,1.338,0,0,0-.664-.42l-.392.49a17.491,17.491,0,0,0-3.332,6.077c-1.176,1.175-3.038,4.507-5.391,10.094-2.352,5.489-4.41,8.918-6.076,10.193l-4.7,8.428a42.023,42.023,0,0,1-5.587,7.939,42.037,42.037,0,0,0-5.685,11.859,57.539,57.539,0,0,0-5.782,9.8,82.713,82.713,0,0,1-5.488,9.9h-.981a3.106,3.106,0,0,0-1.666,2.645,3.607,3.607,0,0,0,.784,2.059c-.881.294-1.372,1.078-1.763,2.254a5.222,5.222,0,0,1-1.078,2.45,1.933,1.933,0,0,1,.1.686C2618.614,1231.677,2617.536,1233.245,2615.184,1235.4Z" fill="#fff"/>
    <path id="パス_807" data-name="パス 807" d="M2645.958,1213.056a2.577,2.577,0,0,0-1.567.882l.881.98a3.959,3.959,0,0,0,.52-.534l.48.534a2.2,2.2,0,0,0,.98-1.765c-.1,0-.2-.1-.294-.1a1.583,1.583,0,0,0-.721.227c0-.044.015-.083.015-.13C2646.154,1213.153,2646.057,1213.056,2645.958,1213.056Z" fill="#fff"/>
    <path id="パス_808" data-name="パス 808" d="M2662.715,1217.956c-2.255,1.47-4.607,3.038-7.057,4.509a33.112,33.112,0,0,0-4.8,2.254,43.671,43.671,0,0,0-5.292,4.7,8.317,8.317,0,0,0-2.253,5.488v.687l2.351,3.234a4.589,4.589,0,0,0,2.941,2.058c.15-.051.315-.1.492-.146a3.639,3.639,0,0,0,.508.146,26.68,26.68,0,0,1,5.88-.882,31.76,31.76,0,0,0,5.978-.784l8.429-2.842-.392-.294-.771.172-.229-.172c-8.572,1.926-14.109,2.9-16.529,2.936a12.931,12.931,0,0,1-2.366-.192c-1.765-.784-2.647-2.843-2.647-5.978v-.981l3.822-3.822,1.96-.588a1.6,1.6,0,0,1,.225-.049,1.832,1.832,0,0,1,.736.245c.276,0,.578-.013.905-.041.029.017.068.023.095.041a17.955,17.955,0,0,0,4.41-.686,21.078,21.078,0,0,1,4.313-.588c2.45-.882,4.9-1.765,7.35-2.548a14.934,14.934,0,0,0,6.174-4.8l.294-1.666a9.726,9.726,0,0,0-5.684-1.96c-.156,0-.318.015-.477.023-.174-.011-.349-.023-.523-.023A16.579,16.579,0,0,0,2662.715,1217.956Zm3.528,2.94a11.35,11.35,0,0,0-4.509,2.254c-1.316,0-2.373,0-3.2.046a44.633,44.633,0,0,0,4.593-2.593l4.311-1.177c1.146-.27,2.191-.487,3.12-.632A16.529,16.529,0,0,1,2666.243,1220.9Z" fill="#fff"/>
    <path id="パス_809" data-name="パス 809" d="M2589.409,1473.478a6.354,6.354,0,0,0-2.744,3.333c-.49,1.372-.98,2.744-1.568,4.017l1.176.393a2.728,2.728,0,0,0,.194-.269l.806.269a12.583,12.583,0,0,0,1.568-3.823,6.093,6.093,0,0,1,1.961-3.528l-.393-.392a4.171,4.171,0,0,0-.638.422c.011-.009.02-.021.031-.03Z" fill="#fff"/>
    <path id="パス_810" data-name="パス 810" d="M2663.595,1458.875Z" fill="#fff"/>
    <path id="パス_811" data-name="パス 811" d="M2531.514,1208.352l.784.391a9.772,9.772,0,0,1,1.666-2.548,7.188,7.188,0,0,0,1.568-2.94,2.905,2.905,0,0,0-1.217.741,2.945,2.945,0,0,0,.217-.741,3.287,3.287,0,0,0-2.156,2.352,5.3,5.3,0,0,1-1.862,2.745l.784.391a9.772,9.772,0,0,1,1.666-2.548c.146-.194.27-.376.4-.56A5.261,5.261,0,0,1,2531.514,1208.352Z" fill="#fff"/>
    <path id="パス_812" data-name="パス 812" d="M2544.845,1433.98a5.457,5.457,0,0,0-3.137-2.939c-.784-.2-2.156-.393-4.116-.687a7.476,7.476,0,0,1,1.078-1.666c3.626-4.213,6.272-11.27,8.232-21.169a4,4,0,0,0,.294-1.862v-.589c0-1.273.294-2.057.883-2.45v-1.567c0-4.8-1.274-7.743-3.627-9.017a5.534,5.534,0,0,0-.814.124c-.064-.038-.12-.088-.186-.124-1.567.1-3.43.98-5.782,2.842a49.048,49.048,0,0,0-11.467,10.977c-3.234,4.312-6.469,8.625-9.6,13.035v1.568a33.084,33.084,0,0,0-5.587,8.232,70.7,70.7,0,0,1-5,8.527,11.016,11.016,0,0,1-.981,3.137,9.915,9.915,0,0,0-.979,3.332,5.654,5.654,0,0,0-1.765,2.646,7.191,7.191,0,0,1-1.47,2.548c-.2.393-1.372,3.92-3.724,10.487-1.47,4.312-2.842,7.742-4.018,10.389-.294.294-.49,1.372-.686,3.136a4.239,4.239,0,0,1-1.47,2.94,19.44,19.44,0,0,1-.784,4.8l-1.569,4.6a3.987,3.987,0,0,0-.49,2.059v1.176a8.523,8.523,0,0,1,.2,1.078,3.623,3.623,0,0,0-1.568,4.606,8.116,8.116,0,0,1-.588,2.744,8.739,8.739,0,0,0-.588,2.647,7.491,7.491,0,0,0,.2,1.47,6.8,6.8,0,0,0-1.471,3.43l-.588,3.823c0,.2-.2,2.352-.784,6.566a15.47,15.47,0,0,1-.294,2.254,14.863,14.863,0,0,0-.294,2.352,3.666,3.666,0,0,0,.1,1.078,2.925,2.925,0,0,0-.784,2.352v.49c0,1.471-.3,2.45-.784,2.843v19.111a4.774,4.774,0,0,1,.588,2.451c0,.49-.1,1.175-.2,2.057a17.535,17.535,0,0,0-.1,2.059,5.133,5.133,0,0,0,1.274,3.626,1.521,1.521,0,0,0,.839-.218c.057.071.1.149.161.218a1.617,1.617,0,0,0,1.47-.882,2.048,2.048,0,0,1,.98-1.176,2.191,2.191,0,0,1-.882-1.667,6.1,6.1,0,0,1,.49-1.764,5.241,5.241,0,0,0,.392-1.763l-1.074.66a3.583,3.583,0,0,0,.074-.66l-.3.187c-.266-4.5-.361-8.9-.361-13.125a181.145,181.145,0,0,1,1.666-24.4,15.2,15.2,0,0,1,.784-3.431,10.031,10.031,0,0,0,.686-3.332,11.991,11.991,0,0,0-.2-1.862,10.132,10.132,0,0,0,1.47-4.509l.49-4.9-.391-.392.391-.49c1.177-3.136,1.862-4.8,2.059-5.194a28.866,28.866,0,0,1,2.45-10.585c.2-.882,1.078-3.234,2.45-7.155a36.779,36.779,0,0,0,1.96-7.448,2.108,2.108,0,0,0,.882-1.96l4.9-11.467c2.45-5.783,6.763-13.035,9.409-19.112a40.7,40.7,0,0,1,1.96-3.626l.882-1.273c4.509-6.763,7.449-11.272,9.017-13.428a86.141,86.141,0,0,1,12.055-13.329c2.491-1.869,4.412-2.84,5.772-3a3.656,3.656,0,0,1,1.461.456c0,.98.1,1.96.1,2.94a58.1,58.1,0,0,1-2.647,17.837l-.882.785a16.731,16.731,0,0,1-2.841,7.154l-4.412,6.762c-4.311,2.451-7.546,4.215-9.8,5.195a8.457,8.457,0,0,1-3.823,3.137,9.017,9.017,0,0,0-3.822,3.038.586.586,0,0,0-.1.391c0,.49.491,1.177,1.275,2.059.242-.1.487-.211.731-.318.089.106.169.206.269.318a50.7,50.7,0,0,0,10.585-6.175,23.557,23.557,0,0,0,3.136-2.744,6.9,6.9,0,0,1,3.075-1.982,2.133,2.133,0,0,0,.237.022c.13,0,.326-.02.555-.041a2.957,2.957,0,0,0,.445.041c.294,0,.882-.1,1.568-.1.318-.045.588-.068.821-.082,1.169.082,1.921.579,2.1,1.65l-2.352,6.174a14.7,14.7,0,0,0-2.744,3.529,7.047,7.047,0,0,1-3.332,2.94c-.588,1.372-2.157,2.842-4.214,4.7a22.469,22.469,0,0,0-4.411,4.607l-1.666.391a108.927,108.927,0,0,1-24.8,20.386v.784a1.39,1.39,0,0,0,1.47,1.176h3.254a1.728,1.728,0,0,0,.882-1.47c0-.2-.1-.294-.1-.49a81.673,81.673,0,0,0,10.977-9.017q7.791-7.5,10.585-9.7c4.019-3.723,8.232-7.35,12.153-11.172A28.67,28.67,0,0,0,2544.845,1433.98Zm-47.368,27.159c-.256.722-.507,1.412-.755,2.079.111-.557.2-1.091.275-1.6A1.857,1.857,0,0,0,2497.477,1461.139Zm-9.644,31.5-.146-.146.391-.49c.445-1.185.819-2.159,1.124-2.935a2.927,2.927,0,0,1,.072.485A3.471,3.471,0,0,1,2487.833,1492.637Zm3.009-11.139q.286-1.293.689-2.533c-.113.532-.24,1.081-.394,1.668Zm7.253-22.133c-.085.249-.168.484-.252.726a3.583,3.583,0,0,0,.036-.432l.676-1.581Zm6.655-15.412c.116-.234.232-.469.35-.7a3.594,3.594,0,0,0-.046.436A3.3,3.3,0,0,0,2504.75,1443.953Zm12.542-23.172.307-.462v.137C2517.5,1420.558,2517.394,1420.674,2517.292,1420.781Z" fill="#fff"/>
    <path id="パス_813" data-name="パス 813" d="M2586.166,1545.438a1.7,1.7,0,0,0-.868-.219,25.9,25.9,0,0,1-5.881,6.762c-1.176.981-3.626,2.745-7.351,5.2a14.1,14.1,0,0,0-4.116.882,20.19,20.19,0,0,1-3.221.725,4.34,4.34,0,0,0-1.757-.725,1.214,1.214,0,0,0-.5.115,1.762,1.762,0,0,0-.5-.115c-.032,0-.062.013-.093.016a4.7,4.7,0,0,1-1.358-2.368,16.652,16.652,0,0,0-.784-3.234c.393-.1.491-.294.491-.491s-.1-.391-.392-.685a1.745,1.745,0,0,1-.49-.687c-.1-1.175-.2-2.45-.2-3.724a63.992,63.992,0,0,1,.981-9.311c.784-4.9,1.372-7.84,1.567-9.212.294-.883.784-3.039,1.471-6.272a23.629,23.629,0,0,1,2.058-6.175,45.167,45.167,0,0,1,1.961-7.742,30.127,30.127,0,0,1,3.527-10.194,3.025,3.025,0,0,1-.294-1.274,4.25,4.25,0,0,1,1.177-2.45,4.241,4.241,0,0,0,1.175-2.45,2.18,2.18,0,0,0-.1-.784c0-.1.2-.882.588-2.45a5.439,5.439,0,0,0,.294-1.666,1.25,1.25,0,0,0-.1-.589,5.944,5.944,0,0,0,1.47-2.939l.49-3.234a13.124,13.124,0,0,0,1.96-4.8c0-.1.1-.2.1-.294a34.352,34.352,0,0,0,.98-4.7l2.45-5.782a2.7,2.7,0,0,1-.2-1.275,12.64,12.64,0,0,1,.686-3.528,11.945,11.945,0,0,0,.588-3.332v-.49a12.071,12.071,0,0,0,.392-4.019v-.588a5.779,5.779,0,0,1,.686-3.038,57.29,57.29,0,0,0-1.568-11.075,14.41,14.41,0,0,0-6.469-8.527,122.464,122.464,0,0,0,10.876-8.718c.026.307.049.617.079.919a58.743,58.743,0,0,0,1.47,8.624,2.9,2.9,0,0,1-.195.98,4.319,4.319,0,0,0-.2,1.275l.98,1.078c.078-.314.153-.583.219-.859l.781.859a7.872,7.872,0,0,0,.392-2.353,1.6,1.6,0,0,1-.588-1.47v-.14l.96.336c-.053-.132-.1-.269-.152-.4l1.152.4a7.35,7.35,0,0,1-.491-1.568c-.1-.588-.49-.784-1.175-.784h-.588a11.8,11.8,0,0,1-.1-2.058v-1.274a28.044,28.044,0,0,0-.1-3.234c0-.687-.1-1.372-.1-1.863.784,0,1.176-.392,1.176-1.372,0-.173.006-.318.01-.474q10.891-10.941,14.4-22.108a5.476,5.476,0,0,0-3.92-3.921H2595a6.009,6.009,0,0,0-3.4.81c.423-2.346.693-4.219.874-5.571a6.305,6.305,0,0,0,.588-1.569,5.723,5.723,0,0,0,.2-1.273v-.393h.588a1.887,1.887,0,0,1-.294-.979,6.825,6.825,0,0,1,.294-2.156,7.812,7.812,0,0,0,.2-1.372,2.712,2.712,0,0,0-.075-.542.37.37,0,0,0,.143-.1,3.526,3.526,0,0,0,.716.152c.392,0,.491-.49.588-1.274,0-.882.2-1.372.49-1.567.392-.3.686-1.177.98-2.746a5.323,5.323,0,0,1,1.078-3.038,3.644,3.644,0,0,1-.686-1.96v-.391a7.779,7.779,0,0,1,.686-2.843,8.229,8.229,0,0,0,.687-2.842v-.392a1.986,1.986,0,0,0-.294-1.078c1.372-.2,2.156-1.176,2.351-2.842.294-2.548.49-4.019.687-4.214.588-1.177.882-1.078,1.372-4.607a16.871,16.871,0,0,1,3.234-7.056l1.862-4.215a19.919,19.919,0,0,1,2.254-4.116l.384-.672a17.681,17.681,0,0,0,1.651,6.2c-.392.392-.588.686-.588.98s.2.686.784,1.274a2.629,2.629,0,0,1,.784,1.568,1.834,1.834,0,0,1-.49.981,26.317,26.317,0,0,0,6.468,10.976c1.373,1.078,2.647,2.254,3.92,3.43a7.331,7.331,0,0,0,4.509,1.862,3.175,3.175,0,0,0,.438-.033,5.149,5.149,0,0,0,.562.033,4.977,4.977,0,0,0,1.783-.421c.412.021.824.03,1.236.03.057,0,.115-.01.173-.01.275.006.551.01.827.01,4.508,0,9.114-2.059,14.014-6.371l11.663-11.859a4.742,4.742,0,0,0,.98-2.254c0-.686-.392-1.078-1.078-1.47-.2.107-.372.2-.549.294a3.986,3.986,0,0,0-.451-.294,17.045,17.045,0,0,1-2.45,1.176,44.717,44.717,0,0,1-9.115,11.173,35.3,35.3,0,0,1-12.054,7.154h-1.353a34.881,34.881,0,0,1-5.1-.293,5.109,5.109,0,0,0-2.548-2.059,6.072,6.072,0,0,1-2.353-1.764v.96a3.982,3.982,0,0,1-1-.96v1.078a3.729,3.729,0,0,1-.079.391c-.1-.246-.2-.5-.293-.783a1.322,1.322,0,0,1-.2-.784.722.722,0,0,1,.2-.588l-1.176-2.352-.391.489a3.412,3.412,0,0,1-.4-.074l-.208-.415-.227.284a.958.958,0,0,1-.635-.579,2.653,2.653,0,0,0,.588-1.666,6.274,6.274,0,0,0-1.47-3.038,5.686,5.686,0,0,1-1.176-3.038v-.49a12.977,12.977,0,0,1-1.568-5.292,46.642,46.642,0,0,0-.882-5.587,2.317,2.317,0,0,1-.2-1.273c0-.153,0-.312,0-.478a8.7,8.7,0,0,0,.489-1.033c2.255-4.8,4.313-9.115,6.077-13.035.98-1.372,2.842-4.019,5.88-8.037,2.45-3.234,1.862-6.077,3.038-8.428l2.45-3.038a10.254,10.254,0,0,1,2.941-2.647,25.021,25.021,0,0,1,2.254-5.1c1.081-1.891,2.805-3.528,3.08-4.695.592-.022,1.228-.044,1.918-.067a45.612,45.612,0,0,0,7.154-1.372c2.646-.491,5.293-.981,7.841-1.569a122.847,122.847,0,0,0,12.936-3.528,3.694,3.694,0,0,0,2.059-1.47c.588-.784,1.078-1.175,1.666-1.175h1.078l.392-2.451a4.609,4.609,0,0,0-4.312-2.646l-.013.094a5.546,5.546,0,0,0-.987-.094l-.2,1.47a2.914,2.914,0,0,0-1.275,1.666,2.78,2.78,0,0,1-1.567,1.764c-11.369,3.626-18.426,5.685-21.072,6.175a37.767,37.767,0,0,1-5.482,1.1c.008-.187.014-.374.014-.554a3.084,3.084,0,0,0-.49-1.96c-.184.082-.458.214-.777.372a1.8,1.8,0,0,0-.223-.372c-.888.4-3.517,1.76-6.221,3.305-1.225.093-2.512.181-3.874.263h-4.684a14.174,14.174,0,0,1-2.411-.265l.251-.617a5.722,5.722,0,0,0,.393-1.959v-.491l-.49.393c-.256.512-.5,1.044-.743,1.567a5.4,5.4,0,0,0,.233-1.469v-.491l-.49.393c-.374.747-.728,1.518-1.085,2.289a1.444,1.444,0,0,1-.132.164c-.276-.063-.544-.121-.839-.2a1.406,1.406,0,0,1-.227.256,2.812,2.812,0,0,1-.439-.453,1.794,1.794,0,0,0-.98-.587.859.859,0,0,0-.531.182,1.106,1.106,0,0,0-.442-.177,4.7,4.7,0,0,0-2.556-.986,4.61,4.61,0,0,1-3.038-1.078s-.588-.588-.882-.588-.49-.195-.685-.489c-.1-.49-.295-.784-.589-.784l-.489.391-.06-.024c-.109-.229-.257-.367-.451-.367l-.156.125-.314-.125-.286.285-.615-.246c-.125-.319-.249-.53-.373-.53l-1.372-.784-4.214-4.214-.1-.686c-.1,0-.195.1-.294.1-.294,0-.685-.294-.882-.882l-.685-1.176a2.065,2.065,0,0,1,.391-1.372l-.391-.393-.1-.979a3.787,3.787,0,0,1-1.078-2.059l-.294-2.351v-5a83.771,83.771,0,0,1,3.921-10.879,82.943,82.943,0,0,0,8.33-10.781c1.176-1.666,3.431-5.39,6.86-11.172a5.885,5.885,0,0,0,.491-2.548,10.022,10.022,0,0,0-2.842-6.469,12.562,12.562,0,0,0-3.528-.588c-.165,0-.336.013-.505.022-.165-.009-.331-.022-.495-.022a12.031,12.031,0,0,0-3.529.588c-.49.49-3.724,2.45-9.6,5.978-4.215,2.451-6.959,4.9-8.135,7.449a5.608,5.608,0,0,0-3.627,3.528l-2.058,5a5.135,5.135,0,0,1-2.156,1.078,2.293,2.293,0,0,0-1.568,2.156,1.425,1.425,0,0,0,1.471.981,6.542,6.542,0,0,0,.654-.046,1.864,1.864,0,0,0,.346.046,10.9,10.9,0,0,0,1.763-.2,4.23,4.23,0,0,1,2.708-.955,14.352,14.352,0,0,1,3.446.661c.157-.045.317-.1.475-.145.176.048.344.088.525.145a36.592,36.592,0,0,0,8.919-4.019c.651-.371,3.177-1.994,7.612-4.916a1.275,1.275,0,0,1,.111.506,2.257,2.257,0,0,1-.294.882,7.251,7.251,0,0,0-.2,1.177,2.372,2.372,0,0,0,.392,1.273l-8.821,11.173c-2.254,3.627-3.332,8.331-3.332,14.211a20.94,20.94,0,0,0,5.881,14.995c4.312,4.509,10.29,7.155,18.033,7.743a4,4,0,0,1,.95.109c-.282.617-.56,1.232-.855,1.851a17.661,17.661,0,0,0-1.862,6.664,7.506,7.506,0,0,0-.334.957c-1.7,1.178-2.6,2.6-5.053,5.667-2.744,3.332-6.664,7.155-8.723,8.429a6.163,6.163,0,0,1-2.351,4.41c-.981,1.078-2.744,1.177-2.744,2.843-4.019,5.194-3.725,6.958-5.49,11.564h-.588a.989.989,0,0,1-.881.588c-.294,0-.294-.1-.392-.1-.2,0-.393.2-.687.2a14.214,14.214,0,0,0-4.8,1.763,39.532,39.532,0,0,0-4.9,3.235l1.082-.072c-.025.023-.061.051-.082.072l2.068-.138.95.432.132-.4.868.4.2-.588a3.5,3.5,0,0,1,.905-.182,4.878,4.878,0,0,1,.643.084c.008-.032.024-.061.033-.093a4.963,4.963,0,0,1,.967.093,3.215,3.215,0,0,1,1.471-1.961,2.666,2.666,0,0,1,.578-.367c-2.629,4.128-4.849,11.64-7.067,16.539l2.548,2.744a3.9,3.9,0,0,0,.523-.514l.477.514c2.353-1.862,2.157-6.371,3.529-11.369,1.274-1.274,3.135-5,3.528-5.88.784-1.764,4.116-2.156,4.41-2.745l.256-.256a8.933,8.933,0,0,0,1,.061c.169,0,.34-.009.511-.016.161.009.325.016.489.016a10.227,10.227,0,0,0,4.1-.805l.972.9c0-.078.2-.16.688-.29l.312.29c0-.1.294-.2,1.078-.391.392-.2.588-.393.588-.784-1.177-.588-7.253-.981-10.682-.981h-1.079c.49-.685,1.176-3.332,3.43-7.35,1.96-3.529,3.626-6.468,5.881-7.939,0-2.057,3.43-4.7,3.43-4.7a3.337,3.337,0,0,0,1.568-2.646c.1-1.079.882-2.058,2.353-3.039,1.15-.647,2.243-.873,2.784-1.218-.054.126-.1.263-.162.377a44.358,44.358,0,0,1-2.058,6.959l-.49,4.507a17.1,17.1,0,0,1-.981,4.8,2.731,2.731,0,0,1,.589,1.764,12.722,12.722,0,0,1-.589,3.137,14.959,14.959,0,0,0-.489,2.94,4.518,4.518,0,0,0,.686,2.548v1.176c0,.064,0,.122,0,.187-.824,1.545-1.982,3.592-3.625,6.339-2.842,4.8-2.745,3.92-3.039,6.37a4.33,4.33,0,0,0-.1.49l-2.254,2.647c0,.2.1.49.1.784a11.578,11.578,0,0,1-.785,3.528,8.983,8.983,0,0,0-.784,3.626,4.715,4.715,0,0,0,.1,1.176c-.589.981-1.078,2.059-1.765,3.137a8.514,8.514,0,0,0-.685,2.94v.392a4.305,4.305,0,0,0,.489,1.47c-1.666,1.47-2.548,3.921-2.842,7.546-.392,4.7-.685,7.449-1.176,8.429h.392c-.1,0-.2.294-.294.686s-.2.589-.49.589h-.392a2.461,2.461,0,0,0-1.666,2.057v2.744c-1.274.981-1.862,2.745-1.862,5.391v.588c0,2.254-.49,3.822-1.275,4.7-.067.355-.124.7-.189,1.047a16.806,16.806,0,0,0-1.475.873c-1.469,1.176-2.94,2.254-4.41,3.332a54.392,54.392,0,0,0-11.27,11.173l-9.7,12.251a87.867,87.867,0,0,1-6.469,11.173,94.142,94.142,0,0,0-6.468,11.369l-1.96,2.057a3.715,3.715,0,0,0-1.274,2.549c0,.294.1.588.1.882a103.428,103.428,0,0,0-8.036,18.23,19.006,19.006,0,0,1-2.058,4.116,7.139,7.139,0,0,0-1.176,3.626,2.742,2.742,0,0,0,.1.882,4.746,4.746,0,0,0-.587,1.568,2.953,2.953,0,0,0-.294,1.078c0,.2,0,.294.1.393a7.277,7.277,0,0,0-.489,2.155,1.981,1.981,0,0,0,.882,1.765,4.154,4.154,0,0,0,.626-.321,2.011,2.011,0,0,0,.374.321,3.686,3.686,0,0,0,2.057-1.96c.294-.981.687-1.863.981-2.745a2.648,2.648,0,0,0,1.568-2.156,20.5,20.5,0,0,1,.1-2.45l-.392.294-.784-.784c.882-2.744,1.47-4.8,1.862-6.175l4.705-10.192-.393-.392a10.144,10.144,0,0,0,2.646-4.313,30.392,30.392,0,0,1,1.666-4.606,95.614,95.614,0,0,0,5.587-9.6,60.68,60.68,0,0,1,5.979-9.507l-.393-.393.882-.685c9.347-14.453,18.253-24.55,26.819-30.316a115.348,115.348,0,0,0-1.75,18.5c0,.88.019,1.723.049,2.549a57.784,57.784,0,0,1-13.671,9.955c-.391.393-1.175.49-2.352.49h-.392a2.441,2.441,0,0,0-1.96.687.587.587,0,0,0-.1.391.889.889,0,0,0,.3.687l.979.882a2.731,2.731,0,0,0,1.275.588c.2,0,.2-.1.293-.2.038,0,.075.011.112.013a1.406,1.406,0,0,0,.595.184.224.224,0,0,0,.2-.082,8.589,8.589,0,0,1,5.17,3.9,12.059,12.059,0,0,1,2.156,6.272c0,.392-.1.686-.1.981l.784,1.273v12.742a34.894,34.894,0,0,0-1.568,8.625c-.98.685-1.471,1.861-1.765,3.723a6.393,6.393,0,0,1-1.273,3.627c.2.294.392.489.392.783a2.258,2.258,0,0,1-.294.883,1.929,1.929,0,0,0-.2.98,1.233,1.233,0,0,0,.1.588,90.763,90.763,0,0,0-4.9,15.289c-1.765,7.056-3.332,12.153-4.8,15.387,0,.2.1.491.1.686a7.6,7.6,0,0,1-.979,3.137,9.088,9.088,0,0,0-1.274,3.724,5.047,5.047,0,0,0,.2,1.078,5.315,5.315,0,0,0-1.078,2.254,7.324,7.324,0,0,1-.882,2.352c0,.294.1.589.1.883a15.325,15.325,0,0,1-1.079,5,21.835,21.835,0,0,0-1.763,5.488v1.078a30.421,30.421,0,0,1-1.569,8.625,1.752,1.752,0,0,1,.392.882,1.376,1.376,0,0,1-.784,1.078,30.541,30.541,0,0,0-.392,5.1c0,5.292,1.372,9.6,4.215,12.74a15.143,15.143,0,0,0,5.684,1.177c.172,0,.348-.019.521-.025s.319.025.479.025c3.528,0,7.253-1.372,11.271-4.118,1.666-1.077,4.9-3.919,9.9-8.33v-2.744a1.894,1.894,0,0,0-1.47-.686C2586.257,1545.292,2586.208,1545.365,2586.166,1545.438Zm13.147-151.738a5.232,5.232,0,0,1,.587,2.352,9.233,9.233,0,0,1-1.763,4.411,13.231,13.231,0,0,0-1.961,4.116,82.228,82.228,0,0,1-8.021,10.128.776.776,0,0,1-.389-.287c.685-.294,1.078-.686,1.078-1.176a3.616,3.616,0,0,0-.49-1.568,3.853,3.853,0,0,1-.491-1.372c0-.491.588-.882,1.666-.981l-.1-.685-.588-.1s.2-6.175.2-7.155h.588l.392-4.8h.587l-.195-.98a5.877,5.877,0,0,1,.2-1.421c1.05-.58,2.1-1.113,3.136-1.56,1.339-.282,2.316-.461,2.909-.54A2.97,2.97,0,0,1,2599.313,1393.7Zm-11.862,31.109v-.277c.124.788.261,1.568.415,2.335h-.316A11.8,11.8,0,0,1,2587.451,1424.809Zm1,4.7a2.611,2.611,0,0,1-.157.85,1.685,1.685,0,0,1-.45-1.34v-.49l.416.146C2588.324,1428.956,2588.382,1429.237,2588.451,1429.513Zm6.469-54c-.1.392-.2.589-.49.589h-.008a1.821,1.821,0,0,1,.412-1.3c0,.008-.008.022-.012.03h.392C2595.116,1374.825,2595.018,1375.119,2594.92,1375.511Zm25.678-92.674a1.7,1.7,0,0,0,1.077-.588c0-.008.011-.008.012-.014l.066.014h.686c.03-.02.052-.033.081-.051.07.013.145.029.233.051h.686c.187-.125.346-.223.49-.308a.98.98,0,0,1,.079.209,2.115,2.115,0,0,0,.882.687c1.023.078,1.914.155,2.684.183a20.859,20.859,0,0,0-2.488,1.834c-2.94,2.647-2.548,1.667-3.92,2.548a14.737,14.737,0,0,1-2.059,2.353,3.511,3.511,0,0,1-1.907.8,19.356,19.356,0,0,1,1.336-3.205,9.513,9.513,0,0,0,1.372-4.214v-.361a1.508,1.508,0,0,0,.237-.11A1.074,1.074,0,0,0,2620.6,1282.837Zm-4.43,28.871a6.272,6.272,0,0,1-1.177,3.333c.49.392.687.686.687,1.078a3.037,3.037,0,0,1-1.275,2.058c-.662.729-1.272,1.493-1.573,1.857.314-2.724.594-5.435.806-8.187a44.161,44.161,0,0,1,2.156-10.977,5.722,5.722,0,0,1-.392-1.764c0-1.274.686-2.94,2.058-5.1-.124-.331-.225-.642-.307-.945a4.879,4.879,0,0,1,.7-.468l6.272-3.43,1.078-1.177,3.234-2.645,6.419-3.39h.278c-8.327,10.021-9.288,20.419-17.106,27.108A2.735,2.735,0,0,0,2616.168,1311.708Zm-1.5-14.122c.072-.229.155-.466.256-.713A5.62,5.62,0,0,1,2614.666,1297.586Zm6.016,56.6a.637.637,0,0,1-.2.1c-.095-.157-.167-.319-.245-.48C2620.386,1353.926,2620.531,1354.057,2620.682,1354.182Zm-14.506-137.6c.132,0,.291,0,.473-.006.107.005.238.007.423.007.339,0,.907,0,1.621-.067a4.883,4.883,0,0,1,1.789.459,24.326,24.326,0,0,1-3.919,8.625,20.37,20.37,0,0,1-9.9,7.644c-5.407.687-9.386,1.148-12,1.383Q2587.783,1224.886,2606.176,1216.583Zm-7.387,142.166c.018.033.031.067.051.1a6.372,6.372,0,0,0-1.218,1.487,1.911,1.911,0,0,0-.271-.9A2.5,2.5,0,0,0,2598.789,1358.749Z" fill="#fff"/>
    <path id="パス_814" data-name="パス 814" d="M2634.316,1474.654a3.148,3.148,0,0,1-.216.239,3.02,3.02,0,0,0-.784-.239,5.761,5.761,0,0,1-1.078.98,1.574,1.574,0,0,0-.49,1.078,1.233,1.233,0,0,0,.1.588,10.46,10.46,0,0,0,1.469,1.274,41.732,41.732,0,0,1-5.684,8.821c-2.254,2.646-4.508,5.488-6.664,8.233a2.366,2.366,0,0,1-1.275,1.567,1.686,1.686,0,0,0-1.175,1.569l-8.919,8.625-.392-.393c-3.333,2.647-5.978,4.019-8.037,4.215a2.021,2.021,0,0,1-1.666.685h-.392a4.907,4.907,0,0,1-3.038.785h-.589a14.343,14.343,0,0,0-3.132.277,4.681,4.681,0,0,0-2.434-1.062,2.13,2.13,0,0,0-.553.066,2.226,2.226,0,0,0-.447-.066,1.657,1.657,0,0,0-.686.1,5.285,5.285,0,0,0,3.038,1.96c-.49.588-.686.882-.686,1.078a2.315,2.315,0,0,0,1.568.882,1.63,1.63,0,0,0-.054-.421,1.69,1.69,0,0,0,1.054.421,1.957,1.957,0,0,0-.791-1.482c.363.012.726.012,1.066.012.1,0,.19-.007.287-.008.241,0,.486.008.713.008a16.823,16.823,0,0,0,9.213-2.45h.489a5.228,5.228,0,0,0,3.627-1.862,14.037,14.037,0,0,1,3.075-2.481l.041.031.107-.1a2.806,2.806,0,0,1,.5-.193l.393.294q17.053-15.877,25.286-31.461A6.412,6.412,0,0,0,2634.316,1474.654Zm-42.632,40.1a3.315,3.315,0,0,0-.413-.406c.206.029.429.037.647.051A2.976,2.976,0,0,0,2591.684,1514.753Z" fill="#fff"/>
    <path id="パス_815" data-name="パス 815" d="M2607.561,1449.662a8.944,8.944,0,0,1,1.078-1.176,51.913,51.913,0,0,1,8.232-8.134l.784-1.569.392.393a57.954,57.954,0,0,1,7.449-6.077,16.941,16.941,0,0,1,8.82-3.136c.785,0,1.275-.49,1.372-1.568.2-.981.588-1.47,1.079-1.569a1.861,1.861,0,0,0-1.47-.784,2.5,2.5,0,0,0-.531.072,1.648,1.648,0,0,0-.469-.072,5.745,5.745,0,0,0-1.372.294,4.93,4.93,0,0,1-1.372.295h-.883a6.87,6.87,0,0,1-3.156.852,13.814,13.814,0,0,1-5.546-1.539c.2-.2.2-.294.2-.588a2.409,2.409,0,0,0-.1-.784,7.36,7.36,0,0,1-.2-1.176.728.728,0,0,1,.1-.49,6.3,6.3,0,0,1,1.078-1.666l.294-.294a2.879,2.879,0,0,0,.979-1.862,1.909,1.909,0,0,0-.489-1.274,2.14,2.14,0,0,0-.735.4,2.652,2.652,0,0,0-.265-.4c-.98.294-1.765,1.372-2.255,3.136l-.391-.392a15.752,15.752,0,0,1-1.079,2.352,6.255,6.255,0,0,0-.686,2.352c0,.392.1.784.1,1.078a12.785,12.785,0,0,1,2.156,1.667,4.29,4.29,0,0,0,2.351,1.372,1.747,1.747,0,0,0,.551-.085,1.457,1.457,0,0,0,.449.085,1.658,1.658,0,0,0,.981-.3l-.392-.392.392-.293a6.573,6.573,0,0,1,.854-.082,1.39,1.39,0,0,1,.89.375c-.1.294-.49.392-1.078.392l-5.391,4.607a18.359,18.359,0,0,0-4.41,5.1l-.392-.391a10.313,10.313,0,0,0-2.254,2.156,6.145,6.145,0,0,1-2.352,2.155c-.882,1.078-2.45,2.843-4.8,5.195a26.963,26.963,0,0,0-4.606,5.292,22.435,22.435,0,0,0-3.528,4.508,18.014,18.014,0,0,1-3.43,4.509c0,.1.1.294.1.392a2.357,2.357,0,0,1-.882,1.568,8.968,8.968,0,0,0-1.569,1.862,1.643,1.643,0,0,1,.2.491c0,.293-.294.685-.785,1.175a1.962,1.962,0,0,0-.685,1.078c0,.294.2.491.391.785a2.754,2.754,0,0,1,.614-.809c0,.008-.005.017-.005.024,0,.294.2.491.391.785a5.192,5.192,0,0,1,1.569-1.666,3.045,3.045,0,0,0,.882-2.157,12.2,12.2,0,0,0,4.278-6.542l.085-.112a1.141,1.141,0,0,1,.635.48l1.568-2.058-.392-.393C2602.072,1456.032,2604.229,1453.484,2607.561,1449.662Zm-9.5,9.415-.059.092c.008-.033.019-.065.027-.1C2598.042,1459.07,2598.057,1459.076,2598.066,1459.077Z" fill="#fff"/>
    <path id="パス_816" data-name="パス 816" d="M2591.585,1471.812a2.065,2.065,0,0,0,.393-1.079.737.737,0,0,0-.393-.685.834.834,0,0,0-.622.534.746.746,0,0,0-.378-.534c-.489.1-.686.49-.783,1.078a2.318,2.318,0,0,1-.393,1.176l.784.391a1.594,1.594,0,0,1,.392-.881c.051-.085.089-.158.129-.232a1.5,1.5,0,0,1-.305.722l.784.391A1.594,1.594,0,0,1,2591.585,1471.812Z" fill="#fff"/>
    <path id="パス_817" data-name="パス 817" d="M2585.019,1507.095a3.408,3.408,0,0,0-1.176-2.157l.391-.392-.391-.294c0-.686.1-1.078.391-1.176a7.762,7.762,0,0,1-.489-2.744,6.948,6.948,0,0,1,.489-2.646v-.981a39.651,39.651,0,0,1,.687-6.076l1.176-6.958-.392-.49c-.3.529-.552,1.058-.794,1.587l.186-1.1-.392-.49a17.912,17.912,0,0,0-2.352,7.35.909.909,0,0,0-.686.882,1.58,1.58,0,0,0,.294.882,1.369,1.369,0,0,1,.392.883c0,.391-.294.685-.785.882a1.227,1.227,0,0,1,.1.587,5.013,5.013,0,0,1-.2.882,2.248,2.248,0,0,0-.294.882,1,1,0,0,0,.391.687,2.094,2.094,0,0,0-.294,1.175,6.758,6.758,0,0,0,.2,1.275,5.1,5.1,0,0,1,.2,1.078,1.47,1.47,0,0,1-.49,1.176v.392a10.288,10.288,0,0,0,1.862,5.684,40.279,40.279,0,0,1,3.234,5.293,1.206,1.206,0,0,1,.98.49c.393.489.588.686.784.686a.668.668,0,0,0,.529-.318c.2.216.337.318.471.318a.708.708,0,0,0,.588-.392q-3.234-3.969-5-5.881A1.741,1.741,0,0,0,2585.019,1507.095Zm.71,3.371q-1.23-1.446-2.1-2.392a3.4,3.4,0,0,0,.263-.441c.051.082.1.163.149.245C2584.708,1508.881,2585.265,1509.736,2585.729,1510.466Z" fill="#fff"/>
    <path id="パス_818" data-name="パス 818" d="M2642.684,1409.218a2.624,2.624,0,0,0,.433.065l.081-.091c.078,0,.163-.006.234-.006.294,0,.489.1.685.1l.784-.882c-.1-.49-.49-.882-1.274-1.274a3.125,3.125,0,0,1-1.47-.981,4.231,4.231,0,0,0-.49-.1,1.408,1.408,0,0,0-.5.109l-.01-.012a4.231,4.231,0,0,0-.49-.1,2.2,2.2,0,0,0-1.47.784,3.411,3.411,0,0,1-1.006.743,1.3,1.3,0,0,0-.837-.449,1.818,1.818,0,0,0-.513.167.921.921,0,0,0-.487-.167,2.671,2.671,0,0,0-.784.294,3.476,3.476,0,0,1-.979.2,65.3,65.3,0,0,1-7.449,5.488l.784,1.079a1.4,1.4,0,0,1-.613.663,1.838,1.838,0,0,1-.347-.173,4.078,4.078,0,0,0-.56.22,1.905,1.905,0,0,1-.44-.22c-1.275.391-1.96,1.176-1.96,2.156,0,.489.294.783.882.98a3.984,3.984,0,0,1,.352-.37,1.553,1.553,0,0,0,.648.37,19.294,19.294,0,0,1,3.627-2.842,6.6,6.6,0,0,0,2.85-3.154l.3-.066.182.182,1.763-.393a2.535,2.535,0,0,0,1.372-1.078l.393.294.784-.686A47.528,47.528,0,0,1,2642.684,1409.218Z" fill="#fff"/>
    <path id="パス_819" data-name="パス 819" d="M2671.851,1421.73c2.45-3.234,1.862-6.077,3.038-8.428l2.45-3.038a10.227,10.227,0,0,1,2.94-2.647,25.021,25.021,0,0,1,2.254-5.1c1.176-2.058,3.136-3.823,3.136-5,0-.686.1-1.568.1-2.352a3.085,3.085,0,0,0-.491-1.96c-.184.082-.457.214-.776.372a1.8,1.8,0,0,0-.224-.372c-1.764.784-10.388,5.391-12.839,7.644-2.94,2.647-2.548,1.667-3.92,2.548a14.728,14.728,0,0,1-2.058,2.353c-1.078,1.078-3.332.685-3.626,1.372-2.156,1.274-2.94,2.646-5.685,6.076-2.744,3.332-6.665,7.155-8.722,8.429a6.162,6.162,0,0,1-2.353,4.41c-.979,1.078-2.744,1.177-2.744,2.843-4.018,5.194-3.725,6.958-5.488,11.564h-.588a.993.993,0,0,1-.882.588c-.294,0-.294-.1-.393-.1-.2,0-.391.2-.685.2a14.223,14.223,0,0,0-4.8,1.763,39.57,39.57,0,0,0-4.9,3.235l1.081-.072c-.025.023-.06.051-.081.072l2.068-.138.95.432.132-.4.868.4.2-.588a3.493,3.493,0,0,1,.9-.182,4.912,4.912,0,0,1,.644.084c.008-.032.024-.061.033-.093a4.972,4.972,0,0,1,.967.093,3.212,3.212,0,0,1,1.469-1.961,2.682,2.682,0,0,1,.58-.367c-2.631,4.128-4.849,11.64-7.068,16.539l2.548,2.744a3.839,3.839,0,0,0,.522-.514l.478.514c2.352-1.862,2.156-6.371,3.528-11.369,1.275-1.274,3.137-5,3.528-5.88.785-1.764,4.117-2.156,4.412-2.745l.256-.256a8.9,8.9,0,0,0,1,.061c.169,0,.34-.009.511-.016.161.009.325.016.489.016a10.228,10.228,0,0,0,4.1-.805l.972.9c0-.078.205-.16.687-.29l.313.29c0-.1.294-.2,1.078-.391.391-.2.588-.393.588-.784-1.176-.588-7.252-.981-10.683-.981h-1.078c.49-.685,1.176-3.332,3.431-7.35,1.96-3.529,3.626-6.468,5.879-7.939,0-2.057,3.431-4.7,3.431-4.7a3.339,3.339,0,0,0,1.569-2.646c.1-1.079.881-2.058,2.351-3.039,1.568-.881,3.038-.98,3.137-1.666h.685a6.492,6.492,0,0,1,3.137-4.508l6.273-3.43,1.078-1.177,3.233-2.645,6.919-3.654c-8.532,10.1-9.44,20.625-17.327,27.372a2.734,2.734,0,0,0-1.862,2.645,6.283,6.283,0,0,1-1.176,3.333c.49.392.685.686.685,1.078a3.033,3.033,0,0,1-1.273,2.058c-.981,1.078-1.862,2.254-1.765,2.058-.685,1.274.49,1.078-6.076,12.055-2.843,4.8-2.744,3.92-3.038,6.37a4.254,4.254,0,0,0-.1.49l-2.254,2.647c0,.2.1.49.1.784a11.639,11.639,0,0,1-.784,3.528,8.967,8.967,0,0,0-.784,3.626,4.807,4.807,0,0,0,.1,1.176c-.588.981-1.078,2.059-1.763,3.137a8.475,8.475,0,0,0-.687,2.94v.392a4.339,4.339,0,0,0,.49,1.47c-1.666,1.47-2.547,3.921-2.841,7.546-.393,4.7-.687,7.449-1.177,8.429h.392c-.1,0-.2.294-.294.686s-.2.589-.49.589h-.392a2.463,2.463,0,0,0-1.666,2.057v2.744c-1.274.981-1.863,2.745-1.863,5.391v.588c0,2.254-.489,3.822-1.273,4.7a126.642,126.642,0,0,0-2.549,23.032c0,2.254.1,4.313.294,6.273a58.58,58.58,0,0,0,1.471,8.624,2.9,2.9,0,0,1-.2.98,4.393,4.393,0,0,0-.2,1.275l.981,1.078c.078-.314.153-.583.219-.859l.781.859a7.851,7.851,0,0,0,.391-2.353,1.606,1.606,0,0,1-.588-1.47v-.14l.96.336c-.052-.132-.1-.269-.152-.4l1.152.4a7.391,7.391,0,0,1-.489-1.568c-.1-.588-.49-.784-1.177-.784h-.588a12.061,12.061,0,0,1-.1-2.058v-1.274a27.493,27.493,0,0,0-.1-3.234c0-.687-.1-1.372-.1-1.863.785,0,1.176-.392,1.176-1.372a1.165,1.165,0,1,0-.588-2.253,1.222,1.222,0,0,1-1.078-.393c.687-.294,1.078-.686,1.078-1.176a3.589,3.589,0,0,0-.49-1.568,3.886,3.886,0,0,1-.489-1.372c0-.491.588-.882,1.666-.981l-.1-.685-.588-.1s.2-6.175.2-7.155h.587l.393-4.8h.588l-.2-.98a7.655,7.655,0,0,1,1.078-3.626c.49-2.647.784-4.705.98-6.175a6.255,6.255,0,0,0,.588-1.569,5.708,5.708,0,0,0,.2-1.273v-.393h.589a1.888,1.888,0,0,1-.294-.979,6.819,6.819,0,0,1,.294-2.156,7.719,7.719,0,0,0,.2-1.372,2.714,2.714,0,0,0-.075-.542.371.371,0,0,0,.143-.1,3.513,3.513,0,0,0,.716.152c.392,0,.49-.49.588-1.274,0-.882.2-1.372.49-1.567.393-.3.686-1.177.98-2.746a5.315,5.315,0,0,1,1.079-3.038,3.637,3.637,0,0,1-.687-1.96v-.391a7.764,7.764,0,0,1,.687-2.843,8.239,8.239,0,0,0,.685-2.842v-.392a1.976,1.976,0,0,0-.294-1.078c1.372-.2,2.156-1.176,2.353-2.842.294-2.548.49-4.019.685-4.214.588-1.177.883-1.078,1.372-4.607a16.9,16.9,0,0,1,3.235-7.056l1.862-4.215a19.93,19.93,0,0,1,2.254-4.116l.784-1.372a19.42,19.42,0,0,0,2.647-4.214c2.253-4.8,4.312-9.115,6.076-13.035C2666.95,1428.4,2668.813,1425.748,2671.851,1421.73ZM2633.8,1540.809v-.274q.186,1.182.414,2.332h-.317A12.061,12.061,0,0,1,2633.8,1540.809Zm1,4.7a2.61,2.61,0,0,1-.158.85,1.685,1.685,0,0,1-.451-1.34v-.49l.417.146C2634.677,1544.956,2634.735,1545.237,2634.8,1545.513Zm6.468-54c-.1.392-.2.589-.49.589h-.009a1.821,1.821,0,0,1,.413-1.3c0,.008-.008.022-.012.03h.392C2641.468,1490.825,2641.37,1491.119,2641.272,1491.511Zm2.7-15.172a1.9,1.9,0,0,0-.272-.9,2.5,2.5,0,0,0,1.439-.69c.018.034.031.068.051.1A6.385,6.385,0,0,0,2643.974,1476.339Z" fill="#fff"/>
    <path id="パス_820" data-name="パス 820" d="M2736.336,1530.42a1.438,1.438,0,0,0-.783-1.274,1.456,1.456,0,0,0-.746.2,2.31,2.31,0,0,0-.254-.2c-.589,0-.981.293-1.569.882-.686,2.646-2.548,5.489-5.587,8.429-4.41,4.312-6.86,6.958-7.644,7.84a87.662,87.662,0,0,0-7.057,5.881,19.366,19.366,0,0,1-7.742,4.606,7.078,7.078,0,0,1-2.849,1.314,2.378,2.378,0,0,0-.365-.04,2.323,2.323,0,0,1-.227.086c-.258-.019-.515-.086-.773-.086a2.052,2.052,0,0,1-.312.118,5.287,5.287,0,0,1-.649-.216,4.811,4.811,0,0,0-1.175-.294,1.359,1.359,0,0,0-.467.1,2.4,2.4,0,0,0-.533-.1,1.386,1.386,0,0,0-1.176.687l.391.391-.088.088-.48-.479c-.2,0-.392.1-.588.1a1.579,1.579,0,0,1-.359-.044l-.053-.053a.813.813,0,0,0-.083.013.75.75,0,0,1-.484-.8c0-1.078-.294-1.666-.785-1.961l-.5.552a1.391,1.391,0,0,0-.5-.552l-.6.661a1.219,1.219,0,0,1-.355-.758c0-.1.1-.2.1-.294a14.023,14.023,0,0,1-5.292-6.273,68.383,68.383,0,0,1-2.549-7.742,18.134,18.134,0,0,0-.784-4.509,16.171,16.171,0,0,1-.784-4.41v-1.666c0-1.177-.1-2.646-.195-4.41-.294-3.627-.491-5.587-.491-6.077a58.511,58.511,0,0,0,.392-6.174l-.392-.392c.294-3.039.392-5.292.392-7.057a.855.855,0,0,1-.489-.882,2.239,2.239,0,0,1,.294-.882,3,3,0,0,0,.294-1.078c0-.2-.1-.392-.1-.588s.1-.294.1-.392a2.2,2.2,0,0,0-.294-.98,2.469,2.469,0,0,1-.2-.686c0-.2.2-.491.686-.686l3.528-22.542a14.007,14.007,0,0,0,.981-4.312,12.171,12.171,0,0,1,.98-4.313c.294-.2.392-.783.392-1.666v-.392a1.363,1.363,0,0,1,.686-1.372,2.9,2.9,0,0,1-.2-.98,4.515,4.515,0,0,1,.588-1.764,3.913,3.913,0,0,0,.588-1.568.827.827,0,0,0-.2-.686c1.96-6.567,3.234-11.565,3.92-14.9v-5.881a5.535,5.535,0,0,1-.98-2.156,4.441,4.441,0,0,0-1.273-2.449,73.732,73.732,0,0,0,7.448-7.94c1.372-1.47,3.626-4.311,6.86-8.33a2.938,2.938,0,0,1,.588-1.765,3,3,0,0,0,.687-1.469c0-.392-.294-.785-.883-1.079l-.422.423a2.015,2.015,0,0,0-.578-.423l-.686.687a12.547,12.547,0,0,1-2.254,5.1,56.153,56.153,0,0,1-4.018,4.312.593.593,0,0,1,.1.392c0,.2-.1.392-.391.686l-.882.785a15.808,15.808,0,0,0-2.843,2.45,14.747,14.747,0,0,1-3.038,2.646,5.312,5.312,0,0,0-1.568.882,7.423,7.423,0,0,1-1.249.66,2.045,2.045,0,0,1-.789-.759,13.3,13.3,0,0,1-1.96-.391,9.786,9.786,0,0,0-1.96-.392,2.69,2.69,0,0,0-.5.052,3.171,3.171,0,0,0-.5-.052,2.756,2.756,0,0,0-.736.106,2.318,2.318,0,0,1-.127-.89,96.365,96.365,0,0,1,9.7-21.366,6.734,6.734,0,0,1,.587-2.058,7.518,7.518,0,0,0,.588-2.254,2.237,2.237,0,0,0-1.175-1.862,5.78,5.78,0,0,0-.391.52,2.826,2.826,0,0,0-.609-.52,7.071,7.071,0,0,0-1.667,3.92,3.479,3.479,0,0,1-.882,1.372,3.126,3.126,0,0,0-.784,1.666,1.844,1.844,0,0,0,.2.784,17.6,17.6,0,0,0-2.353,4.215,6.525,6.525,0,0,1-1.176,3.233,6.31,6.31,0,0,0-1.175,3.039c-3.823,9.017-4.7,10.487-7.45,11.369l.883,2.255-5.978,11.956c-2.94,5.88-5.1,9.8-6.665,11.565,0,.074.013.661.1,1.764a1.388,1.388,0,0,1-.882,1.372,7.886,7.886,0,0,1-1.274,2.744,6.654,6.654,0,0,0-1.078,3.137.909.909,0,0,0,.882.685,2.368,2.368,0,0,0,.542-.13.845.845,0,0,0,.458.13,6.169,6.169,0,0,0,1.862-.685,39.088,39.088,0,0,1,3.136-6.861,23.544,23.544,0,0,0,2.744-6.861c.295-.392,1.372-2.352,3.234-5.978q2.648-5.292,2.647-5.88l4.7-7.743a10.629,10.629,0,0,1,1.494-.259,1.169,1.169,0,0,1,.643.259,5.29,5.29,0,0,1,.874-.088.756.756,0,0,1,.126.088,5,5,0,0,1,.728-.085,6.773,6.773,0,0,1,4.838,2.339,16.493,16.493,0,0,1,1.275,6.861,15.723,15.723,0,0,1-1.275,6.762,3.793,3.793,0,0,0-.392,2.157v.391a1.913,1.913,0,0,1-.784,1.765,31.865,31.865,0,0,1-1.568,7.154,66.979,66.979,0,0,0-1.96,6.86v.491a5.259,5.259,0,0,1-.393,1.862,9.467,9.467,0,0,0-.49,2.058,2.4,2.4,0,0,0,.589,1.568,61.9,61.9,0,0,0-2.646,11.663c-.2,1.176-.491,4.606-1.079,10.486l-.2,1.96a9.485,9.485,0,0,0-.391,3.529v.686a5.239,5.239,0,0,1-.785,3.136,1.18,1.18,0,0,1,.686.98c0,.491.1.882.1,1.372a27.709,27.709,0,0,0-.393,4.607c0,1.274.1,2.646.2,4.214.1,1.47.2,2.94.2,4.215a31.9,31.9,0,0,1-.393,4.9l1.274,1.47a2.276,2.276,0,0,1-.881,2.058,61.082,61.082,0,0,1,1.469,8.821,39.419,39.419,0,0,0,1.666,8.625,13.779,13.779,0,0,0,5,7.055,22.315,22.315,0,0,0,4.7,3.824,6.128,6.128,0,0,0,2.842,2.057c1.177.393,2.353.687,3.431,1.078l.243-.243c.252.081.514.155.757.243l.261-.261a.487.487,0,0,1,.307.261,1.24,1.24,0,0,1,.329-.355c.343.048.6.153.671.355.294-.49.783-.685,1.666-.685h.588c1.274,0,2.058-.2,2.352-.883,1.961,0,3.627-1.176,5.1-3.43a30.855,30.855,0,0,0,6.763-5.684,34.636,34.636,0,0,1,6.86-5.685l.687-1.274a1.044,1.044,0,0,1,.882-.686c.1,0,.2.1.391.1a21.678,21.678,0,0,1,3.332-4.214,36.91,36.91,0,0,1,4.118-3.627.584.584,0,0,1-.1-.392c0-.391.2-.588.687-.784s.881-.49.881-.784a1.855,1.855,0,0,1-.2-.784,3.409,3.409,0,0,1,.294-1.176A4.456,4.456,0,0,0,2736.336,1530.42Zm-54.22,5.179a14.639,14.639,0,0,1-.468-2.953Q2681.882,1533.928,2682.116,1535.6Zm-1.174-15.47c.021-.187.039-.366.058-.548.036.7.061,1.386.061,2.019,0,.052,0,.1,0,.15C2680.985,1520.9,2680.942,1520.352,2680.942,1520.129Zm1,7.841a2.767,2.767,0,0,1-.342,1.455c-.022-.6-.056-1.247-.1-1.961Zm-.828-27.306c-.017.265-.032.548-.039.86a1.586,1.586,0,0,1-.133-.506A.556.556,0,0,1,2681.114,1500.664Z" fill="#fff"/>
  </g>
</svg>
