<svg xmlns="http://www.w3.org/2000/svg" width="64" height="64" viewBox="0 0 64 64">
  <g id="グループ_1562" data-name="グループ 1562" transform="translate(-12655 324)">
    <rect id="長方形_1268" data-name="長方形 1268" width="64" height="64" transform="translate(12655 -324)" fill="#ff953a"/>
    <path id="パス_2363" data-name="パス 2363" d="M2163.912,1021.918c2.284-3.045,11.5-25.351,11.264-28.557-.153-2.284-2.288-3.273-4.188-3.273a6.127,6.127,0,0,0-4.187,1.675c-1.217,1.217-3.655,6.472-5.254,9.974-1.748,3.655-3.346,7.31-5.021,10.964l-.152.3c-.837-1.136-2.817-3.876-4.872-6.921-2.513-3.655-5.1-7.537-5.711-8.451-1-1.523-3.5-1.98-4.8-1.98s-3.655.532-3.426,2.664c.228,1.979,12.866,17.662,16.064,21.316-.076,2.208-1.448,9.974-1.067,13.324a4.123,4.123,0,0,0,1.295,2.892,25.807,25.807,0,0,0,8.376,2.817,2.411,2.411,0,0,0,2.208-1.141C2165.74,1035.47,2163,1023.139,2163.912,1021.918Z" transform="translate(10529.446 -1306.671)" fill="#fff"/>
  </g>
</svg>
