<svg xmlns="http://www.w3.org/2000/svg" width="35.101" height="34.951" viewBox="0 0 35.101 34.951"><path d="M21.629,7.228c4.686,0,5.241.018,7.092.1a9.75,9.75,0,0,1,3.259.6,5.8,5.8,0,0,1,3.331,3.317,9.636,9.636,0,0,1,.6,3.245c.084,1.843.1,2.4.1,7.062s-.018,5.219-.1,7.062a9.637,9.637,0,0,1-.6,3.245,5.8,5.8,0,0,1-3.331,3.317,9.75,9.75,0,0,1-3.259.6c-1.85.084-2.405.1-7.092.1s-5.241-.018-7.092-.1a9.75,9.75,0,0,1-3.259-.6,5.441,5.441,0,0,1-2.018-1.307,5.413,5.413,0,0,1-1.313-2.009,9.637,9.637,0,0,1-.6-3.245c-.084-1.843-.1-2.4-.1-7.062s.018-5.219.1-7.062a9.636,9.636,0,0,1,.6-3.245A5.413,5.413,0,0,1,9.261,9.239a5.441,5.441,0,0,1,2.018-1.307,9.75,9.75,0,0,1,3.259-.6c1.851-.084,2.406-.1,7.092-.1m0-3.149c-4.766,0-5.364.02-7.236.105A12.93,12.93,0,0,0,10.133,5,8.607,8.607,0,0,0,7.025,7.012,8.562,8.562,0,0,0,5,10.107a12.779,12.779,0,0,0-.816,4.242c-.085,1.864-.106,2.459-.106,7.205s.02,5.341.106,7.205A12.779,12.779,0,0,0,5,33a8.563,8.563,0,0,0,2.024,3.1,8.607,8.607,0,0,0,3.109,2.016,12.931,12.931,0,0,0,4.26.812c1.872.085,2.47.105,7.236.105s5.364-.02,7.236-.105a12.931,12.931,0,0,0,4.26-.812A8.955,8.955,0,0,0,38.258,33a12.779,12.779,0,0,0,.816-4.242c.085-1.864.106-2.459.106-7.205s-.02-5.341-.106-7.205a12.779,12.779,0,0,0-.816-4.242A8.955,8.955,0,0,0,33.126,5a12.93,12.93,0,0,0-4.26-.812c-1.872-.085-2.47-.105-7.236-.105Z" transform="translate(-4.079 -4.079)" fill="#ffffff"/><path d="M135.593,126.635a8.883,8.883,0,1,0,8.958,8.883A8.92,8.92,0,0,0,135.593,126.635Zm0,14.649a5.766,5.766,0,1,1,5.815-5.766A5.79,5.79,0,0,1,135.593,141.284Z" transform="translate(-118.042 -118.042)" fill="#ffffff"/><circle cx="2.12" cy="2.12" r="2.12" transform="translate(24.791 6.041)" fill="#ffffff"/></svg>