<svg xmlns="http://www.w3.org/2000/svg" width="35.101" height="34.887" viewBox="0 0 35.101 34.887"><g transform="translate(0)"><path d="M-1072.9,33.55A17.55,17.55,0,0,0-1090.45,16,17.55,17.55,0,0,0-1108,33.55a17.555,17.555,0,0,0,14.808,17.337V38.624h-4.456V33.55h4.456V29.684c0-4.4,2.62-6.828,6.629-6.828a26.989,26.989,0,0,1,3.929.343v4.319h-2.213a2.537,2.537,0,0,0-2.86,2.741V33.55h4.867l-.778,5.073h-4.089V50.888A17.555,17.555,0,0,0-1072.9,33.55Z" transform="translate(1108 -16)" fill="#ffffff"/></g></svg>