<svg version="1.1" id="レイヤー_1" xmlns="http://www.w3.org/2000/svg" xmlns:xlink="http://www.w3.org/1999/xlink" x="0px"
	 y="0px" viewBox="0 0 47 30" style="enable-background:new 0 0 47 30;" xml:space="preserve">
<style type="text/css">
	.st0{fill:#FF953A;}
</style>
<path class="st0" d="M46.3,14c-0.8-0.8-2.5-1.6-3.2-0.9c-3,2.9-6.7,4.9-10.8,5.7c4-4.2,7.7-8.4,7.9-9.5c0.1-0.4,0.1-0.7-0.2-1
	c-0.7-0.7-3.7,0.7-5,1.6c-1.2,0.8-2.3,1.7-3.3,2.6c-1.3,1.1-2.9,2.6-4.5,4.2c-0.2-0.4-0.3-0.9-0.2-1.3c0.1-0.5,0.7-1,1.2-1.6
	c1.6-2,3.1-6,6.4-7.4c0.1,0,0.2-0.1,0.3-0.2c0.7-0.8-0.2-3.2-0.9-3.8c-0.3-0.3-0.7-0.5-1.2-0.4c-3.2,0.9-5,5-7.1,7.6
	c-1.1,1.4-2,3-2.4,4.7c-0.3,1.6,0.9,3.3,1.8,4.4c-0.7,0.7-1.4,1.4-2.1,2.1c-0.8-0.8-1.6-1.7-2.5-2.6c0.1-0.1,0.1-0.1,0.1-0.2
	c3.2-4.5-1.1-13.7-5.5-17.2c-0.8-0.6-1.7-1.3-2.9-0.1c-0.8,0.8-1.6,2.5-0.9,3.2c2.9,3,4.9,6.7,5.7,10.8c-4.2-4-8.4-7.7-9.5-7.9
	c-0.4-0.1-0.7-0.1-1,0.2C5.7,7.6,7.1,10.6,8,12c0.8,1.2,1.7,2.3,2.6,3.3c1.1,1.3,2.6,2.9,4.2,4.5c-0.4,0.2-0.9,0.3-1.3,0.2
	c-0.5-0.1-1-0.7-1.6-1.2c-2-1.6-6-3.1-7.4-6.4c0-0.1-0.1-0.2-0.2-0.3C3.3,11.5,1,12.4,0.4,13c-0.3,0.3-0.5,0.7-0.4,1.2
	c0.9,3.2,5,5,7.6,7.1c1.4,1.1,3,2,4.7,2.4c1.6,0.3,3.3-0.9,4.4-1.8c0.9,0.9,1.7,1.7,2.5,2.6c-0.7,0.7-1.4,1.5-2.1,2.4
	c-0.5,0.6-0.4,1.5,0.2,2.1c1.1,1,2.8,1,4,0.1c0.5-0.3,1-0.7,1.5-1.1c0.7,0.7,1.4,1.3,2.1,1.8c0.6,0.5,1.5,0.4,2.1-0.2
	c1-1.1,1-2.8,0.1-4c-0.2-0.3-0.4-0.6-0.7-0.9c0.8-0.7,1.6-1.5,2.4-2.3c0.1,0.1,0.1,0.1,0.2,0.1c4.5,3.2,13.7-1.1,17.2-5.5
	C46.8,16.1,47.5,15.2,46.3,14z"/>
</svg>
