<svg version="1.1" id="レイヤー_1" xmlns="http://www.w3.org/2000/svg" xmlns:xlink="http://www.w3.org/1999/xlink" x="0px"
	 y="0px" viewBox="0 0 198.8 194.9" style="enable-background:new 0 0 198.8 194.9;" xml:space="preserve">
<style type="text/css">
	.st0{fill:#E8B368;}
</style>
<g transform="translate(-21.229 -6.13)">
	<path class="st0" d="M194.6,65.6c-0.3-0.4-0.7-0.7-1-0.9C194.2,65.7,194.4,65.8,194.6,65.6z"/>
	<path class="st0" d="M121.1,174.5l-1.5,0.8c0.2,0.1,0.5,0.1,0.7,0.2C120.5,175.1,120.7,174.8,121.1,174.5z"/>
	<path class="st0" d="M121,167c-0.1,0.1-0.2,0.1-0.3,0.2c-0.9,0-1.8,0-2.6-0.2l-3.2-0.3c-1-0.1-2-0.3-2.9-0.4c0.3,0,1-0.1,0.6-0.5
		c-1.3-0.2-2.3-0.3-3.3-0.5l-2.8-0.6c-1.8-0.4-3.8-0.8-6.6-1.2l-1.5,1.8c-0.1,0.4,1,0.3,2.3,0.2c-0.3,0.4-0.7,0.9,0.7,1.1
		c2.6,1.4,4.6-0.4,6.5,0.2l-0.7,0.1c1.8,0.9,3.9,1,5.9,0.4c1.3,2-5.6-0.4-2.8,1.6c-2-0.9-5.2-0.2-6.9-0.5c2.6,0.9,4.7,3.1,3.8,3.9
		c3.1,0,3.2-1,3.3-1.9c0-0.9,0-1.8,2.6-1.7c1.2,0.3,2.3,0.6,3.5,0.8l1.5-1.8c1.2,0.1,0.6,0.5,0.4,0.9c-1.3,0.8-2.6,1.6-3.9,2.4
		c0.5-0.2,1-0.3,1.6-0.4c1.1,1.5,1.8,1.4-0.4,2.7c2.1-0.7,1.4-1.9,4.4-1.9c-1.2,0.7-1.6,2.3,1.1,2.6c-0.1,0.1-0.3,0.2-0.4,0.3
		l0.5-0.3c0.1,0,0.1,0,0.2,0c7.5-1.4,12.1-6,18.2-8.9c0.2,0.5,1.6,0.6,3.2,0.4c1.6-0.2,3.5-0.5,4.7-0.6c-0.7,1.4-2.5,2-4.3,2.6
		c1.2-0.1,3.3-0.5,4.8-0.7l0.1-2.5c6.6-1.8-1.2,2.3,1.9,2c1.8-0.7,2.3-1.7,3.4-2.3c-5.1,2,0-3.1-5.2-1.4c0.3-0.9,1.1-1.7,2.1-2
		c0.5-0.2,1.1-0.4,1.6-0.5c0.5-0.1,1-0.2,1.5-0.2c2.4,1-1.4,1.6-1.5,3.2c2.1-0.8,1.6-1,2.2-2.1c1.6-0.4,3.2-1.1,4.6-2
		c1.4-0.8,2.7-1.2,4-0.5c0.4-0.2,0.7-0.5,1.1-0.7c-0.3,1.2-1.3,2.1-2.5,2.3c-0.2-0.8,1.4-1.2,0-1.5c-0.7,1.3-1.4,0.9-0.5,1.9
		c-1.6,1.5-1.5,2.4-2.5,3.8c1.6-0.8,3.2-1.5,4.9-2c1.9-0.8,3.8-1.8,4.8-3.2c0.8-2.2-1.1-3.6-2.1-5.5c-0.3-0.2-2.6,0.6-3.6,1.7
		c-0.5,0.1-1,0.1-1.4,0c0.1,0.1,0.2,0.2,0.2,0.3c-0.7,0.1-1.4,0.2-2,0.3c0.7,0,1,0.2,0.9,0.5c-0.4,0.1-0.8,0.4-1.2,0.7
		c0.3,0.5,0.6,0,1.1-0.4c-0.4,0.6-0.9,1-1.5,1.4c-0.7,0.3-2.1,0.8-2.1,0.3c0.3-0.2,0.7-0.5,1-0.7c-1.5,0-2.8,2.1-4.5,1.7
		c-0.2-0.3,0.3-0.7,0.4-0.9c-1.4,1.6-3.1,1.9-5.5,3.3l1.1-2c-1.1,1.3-2.6,2-4.3,2.1c-1,0.1-1.9,0.2-2.9,0.2c-0.9,0-1.9-0.1-2.8-0.3
		c0.4,0.2,1.1,0.4,0.7,0.7c-1.9,0.6-3.5-0.3-2.7-1.3c-0.9,0.8-2.7,0.6-4.6,0.6c-1.9,0-3.9-0.3-5.2,0.7
		C125.2,164.2,123.1,165.6,121,167z M101.4,165.6L101.4,165.6c0.7,0,1.3,0.2,1.8,0.6L101.4,165.6z"/>
	<path class="st0" d="M161,155.4c-0.1-0.1-0.3-0.1-0.4-0.2C160.7,155.4,160.8,155.4,161,155.4z"/>
	<path class="st0" d="M143.5,170.5l0.6-0.2l-0.6,0.1C143.5,170.4,143.5,170.5,143.5,170.5z"/>
	<path class="st0" d="M121.4,178.1c-0.5,0.3-0.8,0.4-1.3,0.6c0.3-0.1,0.6-0.1,1-0.2C121.4,178.4,121.6,178.3,121.4,178.1z"/>
	<path class="st0" d="M120.4,176.1L120.4,176.1c0.2-0.1,0.4-0.2,0.7-0.4c-0.1,0-0.3,0-0.4-0.1l0,0c-0.2-0.1-0.3-0.1-0.5-0.1
		c0,0.1,0,0.1,0,0.2c-1.2,0.1-1.4,1.3-3.6,1c0.5,0.1,1-0.1,1.3-0.6l-4.7-0.5l-4.7-0.7c0.2,0.6,2.9,1.6,1,1.7
		c0.7,0.7,3.3,0.6,3.8-0.1l-0.8,0.7c2.2-0.7,3.5,1.2,2.3,1.8l-0.4,0l-1.4,0.7c1.4-0.2,3.1-0.2,5.1-0.5l-3.1-0.2
		C116.7,178,118.6,177.1,120.4,176.1L120.4,176.1z"/>
	<path class="st0" d="M158.3,163.4l0.5-0.6C158.5,163,158.3,163.2,158.3,163.4z"/>
	<path class="st0" d="M148.7,171.5c0.8-0.8,1.8-1.4,2.9-1.6c1.2-0.3,2.5-0.6,3.7-0.9c2.5-0.4,4.5-1.1,4-2.6
		c-0.5,0.2-1.2,0.5-1.9,0.8c-0.8,0.3-1.6,0.7-2.2,1.2l-0.6-2.1c-2.3,0.7,0.2,1.8-3.2,2.6c0.3,0,0.7-0.1,1-0.1
		c-1.4,0.7-3,1.2-4.5,1.5c-1.7,0.4-3.6,0.6-5.1,0.9c0.2-0.7-1.9-0.5-1.7-1.6c-1.8,0.5-3.6,0.9-4.6,2c-0.1,0-0.2-0.1-0.3-0.1
		c0.1,0,0.2,0.1,0.3,0.1c-0.1,0.1-0.1,0.1-0.2,0.2c-1.3-0.2-3.1,0.9-4.8,0.6c0.7,0.6-2.2,2.3,1.7,1.2c-0.3,0.1-0.1,0.2-0.4,0.4
		c1,0.3,2.1,0.2,3-0.2c0.8-0.5,1.7-0.8,2.7-1c1.4,0.5-2,1.3-0.8,1.4c1.3-0.5,3.5-0.5,5.3-0.9c1.8-0.3,3.1-0.8,2.8-2
		C147.7,170.8,148.1,171.2,148.7,171.5z"/>
	<path class="st0" d="M124.6,177.8c0.2,0,0.4,0,0.5,0.1C125,177.8,124.7,177.8,124.6,177.8z"/>
	<path class="st0" d="M88.8,15l0.7,0C89.3,15,89.1,15,88.8,15z"/>
	<path class="st0" d="M89.5,23.2L89.5,23.2c-0.1,0.1-0.2,0.1-0.3,0.2L89.5,23.2z"/>
	<path class="st0" d="M79.2,187.6c-0.6-0.2-1.1-0.3-1.7-0.4C78,187.4,78.6,187.5,79.2,187.6z"/>
	<path class="st0" d="M53.4,168.1c0.1,0,0.3,0,0.4,0C53.6,167.9,53.4,167.9,53.4,168.1z"/>
	<path class="st0" d="M97.4,17.8L97.4,17.8l-0.1,0.3L97.4,17.8z"/>
	<path class="st0" d="M100.1,14.1l1.4-0.4C101,13.7,100.5,13.9,100.1,14.1z"/>
	<path class="st0" d="M92.8,31.6c0.2-0.3,0.4-0.6,0.7-0.9C93,31.2,92.5,31.5,92.8,31.6z"/>
	<path class="st0" d="M93.3,30.7c0.2-0.2,0.5-0.4,0.7-0.6C93.8,30.3,93.5,30.5,93.3,30.7z"/>
	<path class="st0" d="M48.3,78.5c0.2,0,0.3-0.1,0.4-0.2c0,0,0,0,0,0c0,0,0-0.1,0-0.1C48.5,78.2,48.4,78.3,48.3,78.5z"/>
	<path class="st0" d="M104.7,10.2l-0.8,1.4c-2.8-0.7-4.4,0.4-7,0.8c2-0.1,4-0.3,6-0.4c2.9,0.6,1.1,1.1-1,1.7c0.5-0.1,1-0.1,1.2,0.1
		c0-0.1,0.3-0.3,0.7-0.5c-0.1,0.1-0.1,0.3,0.2,0.5c2.8-0.7,3.2-0.5,4.9-1.8c1.9-0.2,3.9-0.1,5.8,0.3c0.8-0.3,0.8-1.1,1.7-1.4
		c-0.2,0-0.4,0.1-0.7,0.1l-0.1-1c0.8,0.1,1.3,0.5,0.9,0.8c2.5-1.1,2.6-0.1,2.8-1.8c1.6-1,3.4,0.1,1.6,0.9l4.6-1.3l-2.8-0.1
		c0.7-1.5,4.5,0.2,5.3-1.5L123,7.5l0.2-0.5c-1.4,0.5-2.8,0.6-4.2,0.4c0.1-0.2,0-0.6,0.9-0.7c-4.8,0.3-3,1.7-4.4,2.7l0-0.2
		c-0.8,0.4-1.6,0.5-2.5,0.5c1.3-0.9,2.7-1.8,4-2.7c-1.6-1.7-5.7-0.2-7.4-0.8c2.3,1.4-1.6,1,2.7,1.9l-2,2h-1.9
		c-0.3-0.3,0.6-0.9,0.3-1.4c-0.8,0.5-1.7,0.7-2.6,0.9c-0.6-0.6,1.1-1.3,2.5-1.2c-1.8-0.5,2-1.5-0.5-1.7c-5.1,1.2-8.6,2.4-11.8,5.1
		C99.1,11,102.3,10,104.7,10.2z M106.1,10.8c-0.6,0.5-1.5,1-0.2,1.2c0.5-0.2,1-0.4,1.6-0.4c-0.1,0.7-1.3,1-2.3,1.3
		c1.2-0.6,1.9-1.1-1.1-0.8C104.1,11.2,105,10.9,106.1,10.8L106.1,10.8z"/>
	<path class="st0" d="M99.9,25.2L99.9,25.2c0.2,0,0.2-0.1,0.3-0.1L99.9,25.2z"/>
	<path class="st0" d="M86.2,163.1l0.6-0.3C86.4,162.8,86.2,162.9,86.2,163.1z"/>
	<path class="st0" d="M78.7,159.1C78.8,159.1,78.8,159,78.7,159.1C78.8,159,78.8,159.1,78.7,159.1z"/>
	<path class="st0" d="M65.4,182.7c0.3,0.1,0.2,0,0-0.2C65.4,182.6,65.4,182.7,65.4,182.7z"/>
	<path class="st0" d="M78.8,159.1c0,0-0.1,0.1-0.1,0.1C78.7,159.1,78.7,159.1,78.8,159.1z"/>
	<path class="st0" d="M58.3,136.4c-0.1,0.2-0.1,0.4-0.1,0.6C58.4,137.1,58.4,136.9,58.3,136.4z"/>
	<path class="st0" d="M49.9,142.4c0,0.1,0,0.1,0,0.2L49.9,142.4z"/>
	<path class="st0" d="M30.2,64.6c0.2-0.5,0.4-1,0.6-1.6C30.5,63.6,30.3,64.1,30.2,64.6z"/>
	<path class="st0" d="M78.8,159c0.2-0.1,0.4-0.1,0.7-0.2C79.2,158.8,79,158.9,78.8,159z"/>
	<path class="st0" d="M42.5,98.7c0-0.1-0.1-0.2-0.1-0.3C42.4,98.5,42.4,98.6,42.5,98.7z"/>
	<path class="st0" d="M42.6,99.2c0-0.2-0.1-0.4-0.1-0.6C42.5,98.9,42.6,99.1,42.6,99.2z"/>
	<path class="st0" d="M108.9,178.9l2.6,0.7l0.4-0.1C111.9,179.1,109,177.9,108.9,178.9z"/>
	<path class="st0" d="M57.1,48.3c-0.3,0.2-0.5,0.5-0.8,0.7c0,0.1,0,0.2,0,0.3C56.5,49.2,56.9,48.6,57.1,48.3z"/>
	<path class="st0" d="M26.6,76.5c0,0.3,0,0.6,0,0.9C26.5,77.1,26.6,76.8,26.6,76.5z"/>
	<path class="st0" d="M33,142.2c-0.8-1.3-1.4-2.6-1.9-4.1l0.9,1c-0.4-1.5-1.3-2.9-2.5-4c0.2,0,0.2-0.3,0.3-0.8
		c-0.9-2.2-2.3-2.9-2.5-1.3l0.5,0.6l-0.3,2.1c1.7-0.3,2.6,4.9,4.3,6.8c-1.4-1.1-3.4-1.7-3.4-4.6l-0.7,0.8c-0.9-1.9-0.5-4.1-1.7-4.8
		l1,2.3l-0.4,0.2c0.6,1.7,2.1,3.3,2.2,5.1c0.6,0.5,1.2,1,1.7,1.6c0.9,1,1.6,2.2,2,3.4l-0.2,0c1.2,0.6,1.8,2.2,2.3,4
		c0.3,0.9,0.5,1.7,0.7,2.5c0.2,0.6,0.5,1.1,1,1.5c0.9-0.2,0.5-1.2-0.1-2.3c-0.6-1-1.1-2.1-1.4-3.3c1.3,0.8,1.3,2.9,1.5,1.1
		c0.8,0.6,1.2,1.6,1.2,2.5c0,0.6,0,1.1,1.2,1.9l-0.5-1.7c1.3,0.4,2,2.6,3.4,3c0.5-0.4,0.2-0.8-0.4-1.4c-0.7-0.8-1.4-1.6-1.8-2.6
		l1.3,0.2c-1.1-1.1-2.2-2.2-3.2-3.3c-1.9-0.2-1.2,1-3.6-1c0-1.3,0.3-2.5,1.1-3.6C34.1,143.7,33.4,143,33,142.2z"/>
	<path class="st0" d="M35,144.1L35,144.1L35,144.1L35,144.1z"/>
	<path class="st0" d="M90.1,14.9l0.1-0.1C90.2,14.9,90.1,14.9,90.1,14.9z"/>
	<path class="st0" d="M41.4,124.6C41.4,124.6,41.4,124.6,41.4,124.6C41.4,124.6,41.4,124.6,41.4,124.6z"/>
	<path class="st0" d="M213.5,92.5c-0.3-2-0.7-4-1.3-5.9c0.3-0.7,0.5-1.4,0.8-2.2c-0.2-3.2-0.6-2.7-1-2.3c-0.4,0.5-0.9,0.9-1.6-2.1
		c0.4-0.9,0.1-2.8-0.1-4.6s-0.6-3.2-0.2-3.6c-0.4-1-0.5-1.5-1.1-1.3c0.2,1,0.9,3.1-0.1,2.2c-0.8-1.8-0.6-3-1.1-4.5
		c0.2,0,1.1,0.8,0.8,0.3c-1.5-3.6-3.8-10.3-6.7-12.5c0.6,1.2,1.3,0.9,1.6,2.8c-0.4,0.3-0.7-0.7-1.1-0.9c-0.7,0.7,1.2,1.4,1.2,3.5
		l-2-2.3l-0.1,2.1l-4.5-5.2c1.5,5.8,5.4,6.4,5.8,11.6c-0.5-0.6-0.5,0.3-0.6,0.6c0.9,1.2,1.4,2.9,2.2,3.5l0.6,2.4
		c-0.5,0.2-1.8-0.1-2.4-2.5c1.2,4.1,2.6,7.5,3.7,11.2c0.6,1.9,1,3.8,1.3,5.7c0.1,1,0.2,2.1,0.2,3.1c0,1.1,0,2.2-0.1,3.3
		c-0.2,0.4-0.3-1.2-0.4-0.5c0.2,1,0.4,2,0.7,3c-0.3-0.2-0.5-0.6-0.4-1c0.1,1.1,0,2.1-0.1,3.2c-0.1,0.9-0.3,1.7-0.5,2.6
		c-0.4,1.5-0.6,3-0.6,4.5c-0.3,0.1-0.3-0.5-0.2-1.1s0.1-1.1,0-0.9c-0.5,1.9-0.6,3.9-0.5,5.9c0,2-0.2,4-0.7,6
		c-0.3-1.7-1.1,0.8-1.9,1.9c-0.1,0.5-0.1,1-0.3,1.7c-0.1,0.3-0.1,0.6-0.2,0.9c-0.1,0.3-0.2,0.7-0.3,1c-0.4,1.4-0.8,2.9-1.4,4.5
		c-0.6,1.6-1.2,3.2-1.8,4.8c-0.7,1.6-1.3,3.1-1.9,4.5c-0.5-1.3-1.2,0.2-2.1,1.8c-0.9,1.6-1.9,3.5-2.7,3.1c-0.7,1-1.6,2.9-1.2,3.5
		c0.2-0.8,1.5-1.9,1.6-1.5c-0.5,0.8-1.1,1.9-1.6,2.8s-0.8,1.7-0.6,2.1l-2,1.2c0.4,0.9,0.3,2.1-0.4,2.9c-2.9,0.8,1,0.7-2.3,3.1
		c0.2-1,0.3-2,0.3-3c-1.4,1.4-0.9,1.5-1.7,2.7c-0.6-0.1,0-2.2,0.7-3.6l-1.9,1.5c-0.6,1.6-1.3,3.2-2.2,4.7c-0.5,0.9-1.1,1.7-1.7,2.4
		c-0.6,0.7-1.3,1.4-2.1,2c0.1-1,1-1.8-0.1-1.9c-1,1.4-2.2,3.7-4,4.5c0.2-0.3,0-0.3,0.2-0.5c-0.4,0.6-0.9,1.1-1.5,1.6
		c-0.3,0.2-0.6,0.4-1,0.5c-0.9,0.2-1.8,0.6-2.6,1.1c0-0.1,0-0.3,0-0.4c-0.5,0.6-0.9,1.1-1.4,1.7c-1.5,1.9-2.6,2.3-3.6,2.2
		c-1-0.1-1.9-0.6-3-0.4l0.4-0.4c-0.5,0-1.1,0.1-1.6,0.3c-0.7,0.3-1.4,0.6-2,0.9c-0.7,0.4-1.4,0.8-2,1c-0.5,0.2-0.9,0.4-1.4,0.5
		c1.7,0.1,0.6,0.5,2,1.3c1.3-0.9,0.6-2.2,2.9-2.7c0,1.3-2.8,3.1-3.2,4.2c-1.3,0.6-2.5-0.9-2.7-1.5c-1.3,0.6-2.7,1.1-4.2,1.4
		c-1.4,0.4-2.8,0.7-4.8,1.5c-1.3,1.3-2.3,4.1-5.8,3.2l0.2-0.5c-0.1,0.8-1.6,0.1-2.3,0.8c1.2,1.1-1.4,1.1,0,2.1
		c-2,0.4-2.3-1.3-2.5-2.3c-1.4,1.9-3.9-0.4-6.9,0.8c0.6-0.8,3.8-1.2,2.5-1.9l-4,2.3l1.7-0.1c-0.9,0.7-2.1,0.8-3.2,0.5
		c-0.8-0.3-1.3-0.8-2.2-1.1c-0.2-0.4,0.5-0.6,1.2-0.7c-1,0.1-2,0.2-3,0.6c-0.9,0.5-4.1,1.2-5.5,2l-0.5-0.1c0.1-0.1,0.1-0.2,0.3-0.2
		c-0.2,0-0.4,0-0.7,0.1l-1.5-0.4l0.3-0.2c-0.2,0-0.4,0.1-0.6,0.1l-1.6-0.5l-0.9,0.3l0.4,0.1c-0.4,1.3-2.5,2.2-4.7,1.6
		c1,0.4,2,0.7,3,0.9l-0.7,0.4c-2.5-0.7-4.9-1.3-7-2c0.9-0.1,1.8-0.1,2.7,0.2c-1.2-0.8-2.5-1.2-3.9-1.2c-1.4-0.1-2.6-0.4-2.9-1.4
		c0.8-0.2,1.7-0.2,2.6-0.2c0.7,0,1.4,0.1,2.1,0.2l2.1,0.4c0.8,0.1,1.7,0.2,2.6,0.2c1.7,1.7-2.6,0.4-2.9,1.2l2.1,0.7
		c-0.1-0.4,1-0.4,2-0.5s1.9-0.4,1.5-1.4l-13.1-3.6c2.1-2.8,4.2-5.6,6.1-8.4c0.1-0.2,0.2-0.4,0.4-0.6c-3.7-0.8-2.7,3.2-3.7,3.3
		c-0.9-0.1-1.8,0.5-2.3-0.3l0.5-0.4c-2.4-0.2-1.1,1.1-3.1,0.4c-1.9,0.3,1.4,0.6,0.1,1.1c-2.1-1-2.1,2-5.2-0.3
		c0.3-0.4,0.1-1.6,2.2-1.1c-0.6-0.5-1.1-1.1-1.6-1.6c1.2,0.1,2.3,0.3,3.4,0.7c1.5-0.9,1.5-1.8,2.8-2.6c-1,0.1-1.1,1.2-2.4,0.6
		c-1.5-0.9,0.4-0.6,0.7-0.9c-2.5,0.8-1.9-2.1-4.1-1.4c-0.1,1.6-0.5,1.5,0.5,2.9c-1.5,0-2.8-1.7-2.2-2.9l-0.7,1.1
		c-0.2-0.4-1.2-0.8-1.2-1.2l-0.6,0.4c0.4,1.3,1.6,2.3,3,2.3c-1,0.5,0.2,2.4-2,1.8c-0.9-0.4,0.1-0.7,0.2-1.1
		c-1.8-0.3-3.4-1.2-4.5-2.6c-0.8-1.3-2.1-2.2-3.5-2.7c0.8,0.1,1.5,0.5,2.2,0.9c0.9,0.6,1.9,0.9,2.9,0.9c-0.7-1.5-2.4-0.8-3.4-1.4
		c1.1,0,1.4-0.4,0.6-1.4l-0.7,0.5c-0.3-0.2-0.8-0.4-1.1-0.6s-0.6-0.5-0.6-0.7c-0.1,0.2,0,0.6,0.5,1.1c-1.3,0-2.5-0.4-3.6-0.9
		c-1.4-0.7-2.8-1.6-3.9-2.7c0.9-1.2,4.2,1.7,2.8-0.6c-0.7-0.1-1.4-0.2-2.1-0.2c-0.9-0.1-1.7-0.7-2.2-1.5c1.2-0.2-0.4-1.4-0.1-1.9
		c-1.1-0.1-2.2-0.3-3.4-0.4c-0.6-0.6-1.1-1.2-1.7-1.7c-0.6-0.5-1.2-1-1.9-1.3c0.6,0.3,1,0.7,1.4,1.2c-2.7,0.1-2.5-3.3-4.8-4.8
		c0.4,0.2,0.8,0.3,1.2,0.5c-0.5-0.8-1.2-1.5-1.9-2.2c-0.7-0.6-1.4-0.9-2.1-1.4l0.7-0.8c-1.1,1-3.6-1.7-4.3-2.2
		c3.7,3.6,1.9,4.7,5.9,7.7c-0.9-0.1-1.9-0.3-2.7-0.7c-0.8-0.3-1.7-0.7-2.8-1c-0.4-0.7-0.5-1.2-0.3-1.5c-0.8-0.1-1.6,0.4-2.6-0.4
		l0.2-0.8c-0.4-1.2-1.4-2.1-2.6-2.3c-1.2-0.3-2.1-1.2-2.5-2.4c0.3-0.8,1.1-0.4,1.9,0.4c0.4,0.4,0.9,0.8,1.3,1.3
		c0.5,0.4,0.9,0.8,1.4,1.1c0-2.3,2.3,2.5,2.5-0.5l-1.2-0.3c-0.6-0.9,0-1.4,0.4-0.8c-1-1-0.6-0.9-1.4-0.9c-1.5-2.3-1-2.5-0.6-2.8
		c0.1,0,0.2-0.1,0.3-0.2c0,0.8-0.1,1.6,1,1.7c0.2-0.4-0.4-1.3-0.8-2c0.1-0.4,0.1-1.1-0.5-2.5c0.6,0.3,1.2,1.6,1.7,0.8
		c0.4,0.9,0.7,1.8,1.1,2.6l0.8-0.7c-0.6-1.3-1.6-2.3-2.7-3.2c-0.9-0.6-1.9-1.1-3-1.3c2.2,2.4-0.7,1-0.3,3c-0.6-0.3-0.8-0.9-0.7-1.6
		c-0.3,0-1.2-1.5-1.6-0.9c0.8-1.1,0.6-3.5,0.4-5.4c-0.1-0.9,0-1.7,0.1-2.6c0.2-0.7,0.5-1,1.2-1c0-1.2-0.8-3-1.6-5.3l-0.7-1.7
		c-0.2-0.6-0.4-1.2-0.6-1.8c-0.4-1.2-0.7-2.4-0.9-3.6c0.3,0.3,0.5,0.7,0.8,1c1.2-5.5-2.2-3.6-3-6.5c0.5,1.2,0.7,0.5,0.8-0.5
		c0-1.1,0.2-2.1,0.6-3.2c-0.4-1.1-0.9-2-1.3-3.1c-0.4-1.3-0.6-2.7-0.5-4.1c0.9-0.8,2.4-0.9,2.7-2.9L41.9,91C42,90.5,42,90,42,89.4
		l0.1-1.7c0-0.9,0.2-1.9,0.6-2.7l0,0.3c0.9-2.2-0.4-2.5-0.9-0.7l0-2.3l0.3,0c0-0.7,0-1.5-0.1-2.3l0-2.5c0-0.9,0.1-1.9,0.2-2.8
		c0.2-1.1,0.5-2.2,0.8-3.2c0.4,1.6,2.7-2.6,1.5,1.5c0-1.3-1,0.3-1.5,0.4c-0.3,0.7-0.5,1.4-0.4,2.1c0.1,0.5,0.1,1.1,0.1,1.6
		c0.6-0.3,1.7,0.5,2.1,1.4c-0.1-0.5-0.1-0.9,0-1.4c0-0.6,0.1-1.1,0.3-1.7c0.3-1.2,0.7-2.4,1.1-3.6c0.9-2.3,1.5-4.5,0.7-5.5
		c1.8-3.3,3.9-7.8,6.8-10.8c-0.2,0-0.5,0.1-0.6-0.1c1-0.7,1.9-1.4,3-1.9l-0.4,0.8l2-1.1c0.4,0.2,0.1,1.2-0.5,1.9
		c-0.3,0.5-0.8,0.6-0.5,0.1c-1,2.5,1.5-1.2,1.1,0.7c-0.4,0.4-0.8,0.9-1.1,1.4c0.8-0.7,1.5-1.5,2-2.5c0.3-0.8,1.1-1.3,1.9-1.3
		c0.4-1.6,1.8-4.3,4-5.3c-0.4,1.2,2-1.8,1.6,0.1c0.4-1.2,2.5-1.7,2.5-2.7c-0.4,0.6-1,1.1-1.7,1.3c0.7-0.9,0.5-1.6,1.5-2.3
		c0.2,0,0.2,0.3,0.2,0.3c1.1-1.5-0.6-2.7,1.8-4.4c1.5-1.2,2.3-1.6,2.6-1.5s0.1,0.6-0.2,1.3c-0.6,1.4-1.8,3.3-1.3,3.3
		c0.3-0.7,0.8-1.3,1.5-1.8c0.7-0.6,1.6-1.1,2.6-1.4l-0.2,0.5c0.6-0.6,1.4-1.7,2.3-1.4c0.2-1.2,0.5-2.4,0.9-3.5c1-0.6,2-1.1,3-1.7
		l-0.5,0.9c0.6-0.5,1.2-0.9,1.8-1.2c0.4,0.7-0.5,0.9-1.4,1.6c0.7,0.5,1.2,0.1,1.8-1L83,34.7c0.7-0.8,3.3-3.3,1-2.5
		c1.6-1.6,2.4-0.1,3.6-1.1c0.2,0.6-0.8,1.3-0.1,1.5c1-0.2,2-0.6,2.8-1.2c-1,0.1,0.2-0.7-1.4-0.6c0.5-0.6,2-1.3,1.9-1.6
		c-0.5,0.3-0.7,0.8-1.6,0.6c1.5-1,3.2-1.5,4.9-1.6c-0.1,0.2-0.2,0.4-0.3,0.6c2-1.9,5.3-2.6,6.6-4.4l-0.7-0.1c-0.5,0.5-1.3,0.8-2,0.7
		c1.6-0.9-1.3-0.9,0.4-2c2.4-1.3,4.6-0.4,5.8-2.3c-2.3,0.4-5.5,0.5-6.4,1.4l1.5-0.4l-3.2,2.9c-0.2-0.6-2.9,1.4-3,0.3
		c1.1-0.6,2.2-0.9,3.1-1.3c-0.3-0.4-3.1,0.7-4.3,1l1.6-0.1c-2.6,1.8-6.1,2.8-8.5,4.6c1.9-1.7-2.7,0.4-1.3-1.2
		c0.6-0.9,1.8-0.5,1.4-0.6c0-1.1-1.6,0.5-2.3,0c-0.2,0.7-2.7,2.3-1,2.3c-0.9,0-2.6,1.8-3.9,1.8c0.6,0.9-1.9,1.8-2.2,2.5
		c-0.4,0.2-0.9,0.3-1.4,0.2c0.9-0.9,2.1-2.1,3.3-3.3v0c0.6-0.1,1.6-0.6,1.2-0.7l-0.1-0.4c2.5-2.4,5.1-4.7,6.4-5.8L84.3,25
		c1.9-2.3,4.3-1.7,6.3-3.5c-0.1,0.2-0.3,0.4,0.1,0.3c1.2-0.4,2.2-1,3.1-1.8c0.7-0.7,1.8-1.1,2.8-1.1l-0.2,0.7
		c0.2-0.1,1.4-1.1,1.1-1.7c-1.2,0.7-2.5,1.2-3.8,1.5c0.8-1,1.9-1.7,3.1-2.1l0-1.2c1.3-1.6,2.9-0.3,4.2-1.8l-1.7-0.3
		c0.1-0.1,0.2-0.1,0.3-0.2c-0.6,0.2-1.1,0.5-1.5,1c-2.4,1.4-3.9,0.2-4.4-0.3c-1.2,0,0.3-1.5,0-2.2c-1.9,0.9-1.6,2-3.5,3
		c-0.5,0-0.4-0.3-0.2-0.5l-1.2,1c-0.1-0.3-3.4,0.7-1.6-0.8c0.3-0.1,0.8-0.3,1.3-0.4c-2.8,0.2-7.6,1.3-7.7,0.1
		c-1.5,0.4-1,0.8-3.5,1.6c-0.9,1.4,0.5,1.7-1.9,3.5c0.7-0.2,1.4-0.4,2.1-0.6c0.4-0.4,0.7-0.7,1.1-1.1l-2.1,1.1
		c1.2-1,0.9-1.4,1.1-2.4c3.2-1.6,4.4-0.5,6.1-0.8c-0.9,1.1-2.6,1.6-1.8,2.4c-1.8-0.2-1.6,1.6-3.6,1.7l0.3-0.5
		c-1.3,1.5-1.8,0.6-2.8,2c0-0.2-0.2-0.3-0.3-0.3c-2.5,1.9,1,0.2-1.4,2.6c-2.4,1.2-1.2-1.2-2-1.3c1.8-1.8,1.7-2.2,1.6-2.6
		s-0.1-0.8,2-2.5c-0.3-1.4-2.2-0.7-4.5,0.9c1.7-0.3-0.4,2.5,1.9,2.3c-3.3,2.7-2.2,5-6.3,6.3l0-0.3l-1.2,2l-2.3,1
		c0.3-0.9,0.9-1.8,1.7-2.4c0.7-0.5,1.3-1.1,1.7-1.8c-1.3,0.2-2.5,1-3.1,2.3c-0.7,1.4-1.7,2.6-2.9,3.5c-3.1,0.4,2.6-3.2,2.1-4.4
		c-0.4,0.4-0.8,0.7-1.4,0.9c-0.5,0.2-1,0.2-1,0c0.9-0.4,1.7-1.1,2.3-1.8c0.7-0.8,1.6-1.5,2.6-1.8c-1.4,1.5,0.4,0.3,0.3,1
		c0.3-0.8,3.2-2.9,5.5-3.9c0.1-0.6-0.4-0.6-1.2-0.3c-0.7,0.3-1.7,0.8-2.4,1c-1.1,1.1-2.3,2-3.8,2.6c-1.3,0.5-2.4,1.5-3.2,2.7
		c-2.6,2.2-0.6-0.7-0.8-0.7c-2.6,1.5-0.7,1.6-1.4,2.4c-1,1.3-2.3,2.2-3.8,2.9c-1.2,0.4-2.4,1-3.3,1.9c-1.2,2.1-2.6,4-4.2,5.7
		c-1.8,2.2-3.8,4.5-5.4,6.6c0.1-0.8-0.6-0.5-1-0.5c-0.1,1-0.3,2.1-0.6,3.1c-0.2,0.6-0.5,1.3-1.2,3.3l2.2-2.3c-0.6,1.1-1,2.3-1.4,3.5
		c-0.3,1.1-1,2.1-1.9,2.9c0.6-0.4,0.9-0.4,1-0.2c-0.4,0.6-0.8,1.2-1.1,1.9c-0.2,0.5-0.4,1.1-0.6,1.6c-0.1,0.5-0.2,1.1-0.3,1.6
		c-0.1,0.5-0.2,1-0.3,1.4c-0.7,1.1-1.2,2.2-1.6,3.4c0,0.2-0.1,0.4-0.2,0.6c-0.1,0.2-0.3,0.4-0.5,0.6l0.3-0.2c-0.2,0.6-0.6,1.1-1,1.5
		l0.1-0.4L32,71.4l-1.2-0.9c-1.4,2.4-1.2,6-0.6,5.2c-0.6,1.3-0.8,1.6-0.9,1.5s-0.3-0.4-0.7-0.3c0-1.6-0.2-5.5,1.2-6.1
		c-0.2,0.2-0.4,0.8-0.3,1c0.3-0.9,0.6-1.6,0.8-2.1c0.2-0.4,0.3-0.9,0.4-1.3c0.1-0.7-0.1-0.9-0.3-1.1c-0.5-0.4-1.2-0.3-0.7-2.2
		c-0.8,1.9-2,3-2.3,5.3c-0.1,0.5-0.4,1.8-0.5,3.2c-0.2,1-0.3,2.1-0.3,3.1c0.1-0.9,0.3-1.7,0.7-2.5c0.4-0.9,0.9-1.7,1.5-2.7
		c-0.6,1.8,0,2.3-0.8,3.7l-0.1-0.6l-0.1,2.1c-0.9,0.1-1.6,5.3-1.9,2.1c-0.4,2.7,0.5,1.2,0.3,3.4L26,81.5c-0.3,0.8-0.6,1.6-0.8,2.4
		c0.3-0.6,0.7-1.2,1-1.8c0,0.1,0,0.1,0,0.2l1.4-4.7l0.9,0.3c0.2,1.8-0.5,2.1-0.9,4h1c-0.6,1.1-1,2.1-1.5,3.2c0.1,0,0.2,0,0.2,0
		c-0.1,0.2-0.2,0.5-0.3,0.7c0.1-0.2,0.2-0.4,0.3-0.5c0,0.9-0.1,1.8-0.2,2.8c-0.7,1.8-2.1,0.6-1.5,3.8l0.1-0.2
		c0.1,0.8,0.1,1.6,0.1,2.4c0,1-0.1,2-0.3,3c-0.2-0.1-0.3-0.8-0.3-1.2c-0.1,0.7-0.1,1.4-0.2,2.1l-0.5-1.9l-0.1,0.2l0.6,2.3
		c0,1.2,0,2.3,0.1,3.4c0.2,2.1,0.2,3.9-0.5,4.8c-0.8-0.1-0.4-1.7-1.3-1.6c0.5-2.9,0.1-3.8-0.3-4.9s-0.9-2.3-0.3-5.7
		c1-0.2,0.9-1.6,0.7-3.2c-0.1-0.8-0.1-1.5-0.1-2.3c0-0.6,0.4-1.2,0.9-1.6c-0.3,1.3-0.3,2.7,0,4c0.2,1.1,0.5,1.9,0.6,1.6
		c0.1-1.2,0.1-2.6,0.3-4c0.1-1.2,0.4-2.3,0.7-3.4c-0.9,1.4-2,0.9-2.5-0.3c-0.1,1.2-0.2,2.4-0.4,3.6c-0.2,1.3-0.5,2.8-0.7,4.3
		c-0.3,1.5-0.5,3.1-0.7,4.7c-0.2,1.5-0.4,3-0.4,4.5l1.2-0.8c1,4.6-1.2-0.4-1.2,3.4l1,1.5l-0.1,0.3c0.4,0.8,0.8,1.6,1.3,2.4
		c-0.2-1.9-1.1-0.8-0.6-3c0.4-2,0.9-0.1,1.7,0.3c-0.4,1.3,0.3,5.7-0.8,3.2c0.6,1.5,1,3,1.7,4.5c-0.5,0.1-0.8-0.8-1.1-1.3
		c0.2,1.2,0.4,2.3,0.7,3.4l-0.2-0.1c0.9,2.6,1.7,6.3,2.9,8c0-2.5,0.3-2,0.8-1.1c0.4,1,1,2.3,1.3,2c0.3,1.6-1.7,3.2-3.4,0.2
		c0.5-1.3-0.9-3.2-1.3-5c0,2.5,0.7,3,1.2,4.7c-0.4-0.5-0.5,0.2-0.5,1s0.1,1.8-0.1,1.9c-0.4,0-0.7-0.2-1-0.5
		c-0.6-0.7-0.8-1.5-0.7-2.4c-0.6-3.6,1-0.9,0.6-1.8c0.5-0.7,0.2-1.9-0.2-3.2c-0.4-1.3-0.7-2.6-0.8-3.9c0.1-0.3,0.3,0.4,0.4,0.7
		c-0.1-0.9-0.4-2.3-0.6-3.6s-0.5-2.3-0.9-2.3c0.3,1.5,0.6,3.1,1.1,4.6c-0.1,1.1-0.9-1.2-1.2,0.4c0.4,1.2,0.6,2.5,0.6,3.7l-0.4-0.1
		c0,3.6,0.7,7.1,2.1,10.4c1.9-0.2,3.3,0.8,5.6,1c0.7,2.1,1.4,4.3,2.2,6.5c0.4,1.1,0.8,2.2,1.2,3.3c0.4,1.1,0.9,2.2,1.3,3.3
		c0.3-0.3,0.6-0.6,1-0.6c0.1,1.6,1.6,3.3,0.8,4c0.9,0.5,1.8,1,2.6,1.7c0.3,0.2,0.6,0.3,0.9,0.5c0.4,0.6,0.9,1.2,1.3,1.7
		c0.1,0.7,0.3,1.4,0.5,2c0.6,1.7,1.5,3.3,2.5,4.8c0.5,0.7,1.1,0.2,1.6-0.8c0.3,0.9,0.7,1.7,1.2,2.5c-0.8,0.1-1.6-0.3-2.2-0.9
		c1.3,1.8,2.6,3.6,4.1,5.2l-0.6,0l2.2,1.3c-1.2-0.8-2.5-2.7-1.5-3.2c1,0.6,1.9,1.4,2.7,2.4c0.7,0.8,1.7,1.4,2.8,1.6
		c-1.1,1.7-0.7,2.5-1.9,3c-0.1-0.1-0.1-0.2-0.2-0.3c-1.6,0.3-3.3-0.1-4.6-1c0.5,0.8,1.1,1.5,1.8,2.1c-0.1,0-0.2-0.1-0.3-0.1l0.4,0.2
		c0.1,0.1,0.1,0.1,0.2,0.2c0.4,0.4,0.8,0.8,1.2,1.2c0.3,0.3,0.7,0.6,1.1,1c0.5,0.4,1.1,1,1.9,1.8c-0.1,0.6-1.1,0.2-2.1-0.2
		c-0.9-0.4-1.7-0.9-1.5-0.2c-1-1.2-2-2.4-3-3.6c0.6,0.5,0.8,0.3,1.2,0.4c-1.1-0.6-2-1.4-2.8-2.3c-0.7-0.8-1.6-1.4-2.5-1.7
		c-0.3-0.8,0.2-0.5,0.7-0.2s1,0.6,0.4-0.1c1.1,0.7,2.5,0.9,3.8,0.5c-1.1-1.5-1.7-1.6-2.2-1.5c-0.9,0.2-1.8-0.1-2.4-0.7l-0.9-2.6
		c-1-0.9-0.1,0.8-0.2,1.2c-1.3-1.1-1.2-2.2-2-3.3c0.1,0.5,0.4,1.5,0,1.6c-0.7-2.4-2.4-3.7-2.4-6.7c0.1,1.6-2.1,0.3-2.8-0.4l1.3,4.8
		c0.9,1,1.6,2,2.4,2.9l1,1.4l1.1,1.3c0.7,0.9,1.4,1.7,2.2,2.6c0.9,0.9,1.9,1.8,2.9,2.6l-0.6,0.3c0.8,1.5,2,2.8,3.4,3.8
		c0.8,0.6,1.8,0.9,2.8,1c0.9,0,1.9,0.1,2.8,0.3c1.3,0.4,2.5,1,3.6,1.8c-0.6,1.6,2.8,1.8,1.8,3c-1.7-1.3-1.6-0.6-1.5,0.5
		c1.3,0.2,2.5-0.4,4.3,1.5c-1.1,0.3,0.4,2.1-1.8,1c1,0.9,2.1,1.6,3.4,2.2c0.9,0.4,1.9,0.5,2.9,0.2c2.6,0.6,2.8,1.2,2.9,1.8
		c0.1,0.6,0.3,1.4,2.8,2.1l-0.9,0.3l3,1.1l-0.7-1.2c1.3,0.2,2.5,0.4,3.8,0.6c2.4,0-0.5-1.3,0-1.8l-1.1,0.8c-1.3-0.8-3.6-0.8-3.6-1.7
		c2.3,0.9,2.1-0.3,3.2-0.3l-2.3-0.5l-0.4-1.2c-2.1-1-3.6-2.1-5.3-1.8c0.1,0.1,0.2,0.2,0.3,0.2l-2.2-0.9c0.9,0.4,1.8,0.9,2.7,1.2
		l-0.2-0.2c0.6,0.1,1.3-0.2,1.6,0.6c-1,0.4-2.1,0.4-3.1,0c-1.2-0.4-2.5-1-3.9-1.5c0.1-0.4-0.7-0.9-0.2-1c0.1-0.1,0.5,0.2,0.8,0.4
		c0.1-0.7,1.6-0.3-0.5-2c1.3-0.4,3.7-1,3.8-1.4c1.6,0.5,3,1.3,4.3,2.3l-0.2,0.2c1.1,0.8,4,0.9,3.8,2c0.8,0.1,3,0.7,1.1-0.8
		c1.2,0.3,2.4,0.6,3.6,0.9c-1.2,1.6,1.9,3.3-2,3.3c0.1,0,1.5,0.3,3.6,0.8c-0.1,0-0.1,0.1-0.2,0.1c-0.1,0-0.3,0.1-0.4,0.2
		c-0.4-0.2-0.7-0.2-0.6-0.6c-1.7,0.8,0,1.9,1.9,2.6l0.8-0.9c0.7,0.6,1.3,1.2,2,1.7c0.8,0.6,1.7,0.9,2.7,1c2.1-0.7,4.2-1.6,6.3-2.5
		c0.5,0.1,1.1,0.1,1.6,0.1c0.5,0.8,3,0.8,1.8,1.8c0.1,0.5-0.7,0.6-1.7,0.2c-0.1-0.2,0.1-0.2,0-0.4c-0.4,0.6-0.8,1.3,0.3,2.3
		c-1.2-0.4-1.4-0.6-2.4-0.3c0.4,0.2,0.8,0.3,1.3,0.4c-1.9-0.2-4.9,0.4-5.4,1.3l-0.5-0.1c2.9-0.9,1.6-1.9,5.9-2.1
		c-2.3-1.6-3.6-1-5.1-0.7c-0.5,0-0.9-0.1-1.3-0.1l-4.5,1.1l-1.2,0.7c1.7,0.1,3.3,0.2,5,0.3c-0.8,0.4,1.5,0.9,0.4,1.2
		c0.4,0,2.1,0.3,1.7-0.1l-0.4-0.1c0.9-0.8,1.7,0.6,2.7,1.1c-0.9,0-2.8,0.3-1.5,0.8c0.6-0.4,4.3-0.3,1.9-1.4c1.1-0.1,2.7-0.4,3.9,0.2
		c-1.6,0.3-0.7,1-1.3,1.8c0.9-0.3,1.6-1,1.9-1.8c3.4,1.8,4.4,4.4,8.8,3.9c0.6-0.1-2.6,0.1-2.1-0.7c1.2-0.5,2.5-0.3,3.5,0.6
		c0.8,0.8,2,1.2,3.1,1.1l-0.5-1.5c0.9-0.2,2.9-0.3,3.9-0.4c0.2,0.5,3,1.6,0.8,2c0.9,0.2,1.8,0.2,2.7,0c0.7-0.3,1.3-0.6,1.9-1.1
		c0.6-0.5,1.3-0.9,2-1.2c1-0.4,2-0.5,3.1-0.5c-1.5-0.2-3.1-0.2-4.7-0.1c2.1-0.9,0.4-0.7,0.7-1.7c0.8,0.4,1.8,0.6,2.7,0.5
		c0.8,0,1.1,0.1-0.3,0.8c1.6-0.1,5-0.1,5.7-0.8c-0.5-0.1-1-0.2-1.4-0.4c2.1-0.1,4.2-1,5.7-2.5c-1.1,0.2-2.1,0.7-3,1.4
		c-1.1,0.8-2.3,1.2-3.6,1.1c-4-0.7,1-1.1-1.5-2.4c-1,0.4-1.9,0.8-2.9,1.2l1.3,0.1c-0.5,1.5-4.4-0.1-4.2,1.7c-1-0.5-2.1-0.8-3.3-1
		c-1.2-0.1-2.4-0.5-3.4-1c-0.8,0.5,0.3,0.7,1.2,0.8c-1.6-0.2-1.9,1.5-3.9,0.3c-1-0.3-0.5,1.2,1.4,1.3c-1.7,0-3.3-0.2-4.9-0.4
		l1.6,1.3l-1.9-0.2l1.5,0.8c-1.8-0.1-3.7-0.4-5.4-0.8c-1.4-0.3-2.8-1-3.8-2.1c1.9-0.2,3.8-0.2,5.6-0.1c1.9,0,3.7-0.2,4.8-1
		c-0.6-0.6-2.7,1-3.3-0.7l-1.1,0.9c-1.1,0.2-3.7,0.2-3.7-0.9c1.1-0.1,2.3-0.3,3.4-0.7c0.8-0.3,1.5-0.7,2.3-1.1
		c0.1-0.2,0.3-0.3,0.8-0.3l0,0l0,0c0.1,0,0.2,0,0.3,0l0,0c0,0.1,0,0.1,0,0.2l0.4-0.2c0.8,0.1,1.6,0.1,2.5,0c1,0.3,0.2,0.9,0,1.1
		c1.3,0.6,2.7,0.6,4,0.1c1.9-0.1,3.6,0.5,4.9,0.5c-0.7-0.8-0.1-1.1,1-1.3c0.2,0.8,2.8,1,1.9,1.4c1,0.1,1.9-0.1,2.8-0.5
		c0.8-0.4,1.5-0.9,2.2-1.2c0.1,0.4,1,0.4,1.6,0.4s1.2,0,0.6,0.5l2.1-1.6c1.4,0.4,4.3-0.8,4.8,0c1.5-0.6,0.4-1.5,2.5-1.4
		c-0.1,0.2,0.1,0.3-0.4,0.4c1.5,0.2,3.1-0.3,4.3-1.2c-1.5,0.1-0.4-0.2-2.2,0c0-0.2,0.2-0.4,0.5-0.7l0.4-0.1c0.3,0,0.6,0.1,0.8,0.2
		c0.3-0.2,0.3-0.3,0.2-0.4c0.7-0.2,1.3-0.4,2-0.6c-2.4,2,2.4,0.7,1.2,1.8c2-0.5,3.9-1.4,5.5-2.7c0.8-0.6,1.5-1.2,2.3-1.9
		c2.4-0.9,4.8-1.9,7.2-2.8c1.5-0.6,2.9-1.3,4.4-2c0.7-0.4,1.5-0.7,2.2-1.1l-0.1,0.1c-0.7,0.7-1.7,1.5-0.5,1.4
		c0.1-0.6,0.4-1.2,0.9-1.7c0.6-0.3,1.2-0.6,1.8-0.9l4.3-2.3c0.6-0.3,1.1-0.7,1.7-1c-0.7,0.8-1.2,1.5-0.3,1.7l2.6-2.4l0,0.6
		c1.2-0.8,2.3-1.7,3.4-2.5c-0.9-0.1-1.4,0.1-1.8-0.2c0.2-0.2,0.5-0.3,0.7-0.5c0.3-0.3,0.7-0.6,1-0.9c0.1-0.1,0.2-0.2,0.2-0.2
		c1.6-0.7,0.7,0.7,3.8-0.6l4.7-4.2l-0.2,0.5c0.3-0.2,0.5-0.5,0.5-0.8c5.1-4.9,9.7-10.2,13.8-15.9c0.9-1.7,0.2-1.6-0.5-1.3
		c-0.8,0.2-1.7,0.5-1.3-0.9c-1.3,1.7-3.2,3.7-4.6,5.4c-1.3,1.4-2.2,2.7-2.1,3.4c-0.1-0.2-0.4-0.3-0.8,0c-0.2,0.9-0.4,1.9-0.7,2.8
		l2-1.5c-0.3,0.9-0.8,1.8-1.4,2.6c-0.8,1-1.7,1.9-2.6,2.8c-1.8,1.8-3.9,3.2-4.8,3.3c1-0.9,1.7-2,2.1-3.3c0.3-0.8,0.9-1.7,3.6-3.6
		c-0.3-0.1-1.1,0-1.2-0.2c1.7-1.5,3.2-3.1,3.2-3.9c0.2-0.7,0.5-1.4,0.7-2.1c0.1-0.4,0.3-0.7,0.4-1.1s0.3-0.8,0.4-1.2
		c0.6-1.6,1.2-3.3,1.6-4.8c2.1-2,3.4-5.1,5-7.9l0.1,0.8c0.6-1,1.1-2,1.6-3.1c0.5-1.3,1.1-2.6,1.7-3.8l0.9-0.2
		c0.3-0.9,0.7-2.3,1.2-3.8c0.5-1.5,1.1-3,1.5-4.5c-0.2-0.1-0.5,0.5-0.8,1c-0.3,0.5-0.5,0.7-0.5,0c-0.5,1.4-0.9,2.6-0.2,2.3
		c-0.5,1.4-1.2,1.1-2,2.1c0.5-1.8,1-3.7,1.5-5.5c0.1-0.1,0.1-0.2,0.2-0.3c0,0.1,0.1,0.1,0.3-0.3l-0.4-0.4c0,0.1,0.1,0.1,0.1,0.2
		l-0.4-0.4c0.4-1.4,0.8-1.7,1-1.4c0.7-3.1-0.2-4.5,0.8-7.6c0.5,1.6,0.5,3.2,0.1,4.8l0.9-3.7c0.1,1.6-0.1,3.2-0.4,4.8
		c-0.3,1.7-0.5,3.1,0.3,2.8c0.2-1.1,0.4-2.3,0.6-3.5c0.1-1.3,0.3-2.6,0.4-3.8c0.1-0.6,0.1-1.3,0.2-1.9c0-0.6,0-1.2,0-1.8
		c0-1.2-0.1-2.3-0.2-3.2c0.6-1.1,0.9-2.3,0.8-3.5c0-0.7,0-1.4,0.1-2.1s0.1-1.5,0.3-2.3c0.2-0.4,0.5-1.5,0.9-0.9v0.9
		c0.1-1.1,0.1-2.2,0.1-3.3c0-0.6,0-1.1,0-1.7S213.6,93,213.5,92.5z M44,122.9c-0.4-1.1-0.1-1.4,0.2-1.5c0.1,0,0.1-0.1,0.2-0.2
		c0.1,0.3,0.3,0.7,0.5,1C44.8,123.3,44.4,123.3,44,122.9z M41.5,115.2c0,0.4-0.1,0.8-0.2,1.2C41.2,115.9,41.3,115.5,41.5,115.2
		L41.5,115.2z M41.4,65.7c0.2-0.7,0.4-1.4,0.6-2.1c0.2-0.7,0.5-1.5,0.7-2.3s0.4-1.6,0.7-2.5l0.8-2.7c0,0.2,0,0.4,0,0.5
		c1.9-3,2-3.3,3.5-5.7l-0.2,1.1c0.8,0.1,1.6-2.3,3-4.1c0.2-0.8,0.9-2.3,1.8-2.5l0.1,0.7c0.3,0,0.8-0.3,1.4-0.9s1.4-1.4,2.3-2.3
		c-0.1,0.4-0.3,0.8-0.4,1.2c-0.2,0.8-0.6,1.6-1,2.3c0.3-0.5,0.8-0.9,1.4-1.1c-0.6,1.6-1.1,3.1-1.6,4.7c0.6-0.6,1-1.4,1.1-2.2
		c0.2-1,0.7-1.8,1.5-2.4c0.5,1.1,0.9,1.5-0.4,4.2c-1.7,1.5-0.3-0.7-1.4-0.2c0,0.8-0.5,1.5-1.2,1.7c-0.5,0.2-1.1,0.5-1.2,1.8
		c-1.3,1.8-1.4,0.7-2.2,0.9c1.3-1.9-1.5,0,0.2-2.5c-1.9,1.4-0.2,2.3-1.7,3.6l-1-0.6c-0.9,0.9-1.8,1.9-2.6,3c-0.9,1.3-1.6,2.7-2,4.2
		c1.6-1.5,0,1.6,0.7,1.6c-0.3-0.4,0-1.2,0.5-1.9c0.5-0.6,1.1-1,1.2-0.9c-0.7,1.6-2.4,5.5-3,6.2c0.6-0.9,1.2-1.7,1.9-2.5
		c0,0.5-0.1,0.9-0.2,1.4c-0.1,0.6-0.1,1.2-0.2,1.8c-0.1,0.8-0.2,1.6-0.2,2.3c-1,0.8-1.4,2.6-2.2,3l0-2.5c0.3-0.2,0.6-0.3,1-0.4
		L42.8,68c-1,1.2-2.6,4-3.6,4.3c0.3-0.9,0.7-1.8,1-3S41.1,67.1,41.4,65.7L41.4,65.7z M40.8,149.7c0.2,0,0.3-0.2,0.3-0.4l0.3,0.4
		c0,0.5,0.1,1,0.1,1.5C41.3,150.7,41.1,150.2,40.8,149.7L40.8,149.7z M42.3,145l-1.8-2.5l0.6-0.8c-0.5-1.1-1-2.1-1.7-3.1
		c-0.6-0.9-1.3-1.7-1.9-2.7c-0.7-0.9-1.3-1.9-1.8-2.8c-0.6-1.1-1-2.4-1.3-3.6c1,0.3,1.2,2.5,1.5,2c-0.2-1-0.8-1.9-1.7-2.5
		c-0.6-0.5-1.1-1-0.9-2.9c1.5,4.4-0.3-3.1,1.5,0.6c-0.7-1.3-1.2-2.6-1.6-4.1c-0.3-1.4-0.6-2.9-0.7-4.4c-0.2-1.4-0.2-2.8-0.2-4.1
		c0-1.1-0.2-2.3-0.3-3.4c-0.5,1.2-0.9-1.4-1.1-1.5c0-1.1,0.6-0.9,0.7,0c0.3-2.2,1-2.7,1.7-2.6l0.4,4.1c0.1-1.4,0.6-2.3,0.7-3.4h0
		c0-0.6-0.1-1.1-0.3-1.6c-0.4-0.6-0.5-0.5-0.9-0.4c-0.6-1.2-1.3-2.7-2.2-4.8l0.2,0.1c-0.1-1.5,0-3.1-0.1-4.6l0.4,0.5
		c-0.2-0.9-0.5-1.8-0.6-2.7c0.9,0,0.5-0.9,1.1-0.7c0.9-0.9,0.9-2.3,0.8-4.1c-0.1-1.9,0.1-3.8,0.6-5.6c0.1,0.2,0.2,0.4,0.3,0.6
		c-0.3-1,0.2-2.8,0.7-4.6c0.1-0.5,0.3-0.9,0.5-1.4s0.4-0.9,0.6-1.3c0.4-0.9,0.7-1.7,1-2.5l0.1,0.2c-0.2,2,0.2,2.5,0.8,1.8
		c0,0.7-0.2,1.7-0.1,2.3c-0.3,1-0.6,3.9-1.5,4c0.5-2.1,0.3-2-0.4-1.1c0.2,2.2-0.8,6.1,0.5,6c-0.4,2.9-0.4,0.9-1.1,3
		c-0.4,0.3-0.7-0.5-0.9-1.2l-0.2,4.4c0,0.7,0,1.5,0,2.2l0.1,2.2c1,0.2,1.1-5.6,2.3-2.8c0.3,0.7,1.8,0.5,1.3,3.3
		c-0.1,0.1-0.2-0.2-0.3-0.4c0.1,0.5,0,0.9-0.1,1.4c-0.1,0.5-0.2,1-0.3,1.5c-1,0.6-0.8-1.6-1.4-2.5c0.3,0.9,0.4,1.9,0.5,2.9l-0.4-0.2
		l0.3,3c0.8,1.1,0-2.3,0.6-2.6l0.6,1.8c0.1,1.1,0.4,3,0.5,4.9c0,1,0.1,1.9,0,2.8c0,0.8-0.2,1.6-0.5,2.3c-0.1,2.7,0.8,1.1,1.5,1.5
		c1.1,1.1,0.3,2.8,0.9,4.1c0.7-0.4,1.1,1.2,2,0.8l0.4,2.3c1,0.3,0.6-0.7,0.3-1.8c0.3-0.7,1.1,0.8,1.8,2c0,0.1,0,0.2,0,0.3
		c-0.4-0.6-0.8-1.4-0.9-1.3c0.2,0.6,0.5,1.2,0.7,1.8c-0.3,0.2-0.9-0.3-0.7,0.7l0,0.1c-0.3,0.1-0.6,0.2-1.1-0.5
		c0.8,1.5,0.1,2.2,1.2,3.6c-1-0.5-1,0.2-0.9,1.2s0.4,2.1,0.1,2.5c-0.3-0.5-0.5-1.1-0.6-1.7c-0.1-0.7-0.2-1.4-0.2-2.1
		c-0.1-0.7,0-1.4,0.2-2.1c-0.2-0.3-0.4-0.8-0.5-1.2c-0.2-0.7-0.2-1.5-0.2-2.2l-1.6-0.8c0.4,1.6,1.5,3.5,0.3,3.5
		c0.3,0.7,0.8,1.2,1.2,1.9c-2.3-1.3-2.2-1.3-3.4-3c-0.1,1.1,0.1,2.3,0.5,3.3c0.4,0.9,0.8,1.7,1.3,2.5c0.9,1.6,2,2.9,2.1,5l-0.3-0.4
		C43.8,139.5,43.3,142,42.3,145L42.3,145z M67.8,166.4c-0.5-0.3-1.1-0.6-1.6-0.9c0.5-0.3,0.4-1,1.7,0.2h0
		C67.7,165.9,67.6,166.2,67.8,166.4C67.8,166.4,67.8,166.4,67.8,166.4L67.8,166.4z M63.7,163.6c0,0.2,0,0.3,0.1,0.5
		c-0.4-0.2-0.8-0.4-1.1-0.7c-0.2-0.7-1-1.3-1.2-2.6c0.1-0.3,0.9,0.1,1.4,0.3c-0.6-1-1.4-1.7-2.4-2.1c1.4,1.6,0.3,1.3,0.1,2.4
		c-1.2-0.4-2.6-2.2-3.3-2.5c-0.5-0.7-0.9-1.5-1-2.4c-0.1-0.7,0.2-1.1,0.8-1c-1-0.5-1.6-1.7-3-1.8c2.2,0.8-1.4,1.9,1.5,2.9
		c-0.2,1-0.7,0.7-1.3,0c-0.7-0.8-1.2-1.7-1.6-2.7c0.7,0.4,0.6-0.5,0.9-0.7c-1.8-1.3-1.8,0.4-1,2l-2.2-1.4l0.2,0.2
		c-0.7-0.6-1.4-1.2-2-1.9l0,0c0.6-1.2,1.1-1.9,1.3-1l-0.3-1.8l1.5,1.5c0.1-1.5-1.4-2.1-2-3c-0.3-1.6,2.3,1.8,4.1,1.6
		c0.1,0,0.2,0.1,0.3,0.1c0.3,0.4,0.7,0.8,1.1,1.2c0.4,0.5,0.6,1.2,0.6,1.8c0.5-0.4,1.3,0.1,2.1,0.7c0.9,0.7,1.7,1.7,2.5,1.8
		c2.5,2.3,0.4,3.5,3.1,4.9l-0.4-1.5c1.1,0.7,1.9,1.2,2.7,1.8c1,0.7,1.9,1.5,2.7,2.3c-0.3,1.3-1-1.1-1.8-0.9l0.6,1.9
		c-0.5-0.4-2.1-0.3-1.5-1.2c-0.3,0.5-1.6,0.6,0.2,1.4L63.7,163.6z M77.2,171.9c-3.9-2-5.2-2.4-5.1-1.3c0.2,0.8,0.5,1.6,1,2.4
		c0.6,1,1.5,2.1,2.5,3.4c-2.7-1.6-5.3-3.4-7.8-5.4l0.1,0.8c-0.7-0.8-1.8-0.5-1.9-1.5c1-0.3,2.1-0.4,3.2-0.4c1.7-0.1,3.6-0.4,4.4-0.4
		c1.6,0.6,3,1.5,4.3,2.5L77.2,171.9z M86.3,173.1c-1.6-1.2-2.5,1.9-3.5-0.5c-0.6,0.7-0.2,1.2,0.3,1.6c-0.2,0-0.4,0.2-0.6,0.4
		c-0.6-0.3-1.2-0.6-1.8-0.9c-0.5-0.3-0.9-0.7-0.6-0.9c0.6-1.2,2.8-0.3,3.8-1.2v0C84.6,171.4,87.1,172.4,86.3,173.1L86.3,173.1z
		 M92.8,179.2l0.7-0.8c0.3,0.3,0.5,0.8,0.4,1.3L92.8,179.2z M96.3,180.5l0.2,0l0,0c0.4,0.1,0.7,0.2,1,0.4L96.3,180.5z M189,160.4
		c-0.1,0.3-0.3,0.7-0.5,1.1c-0.1,0.1-0.2,0.2-0.3,0.3c-0.2,0.2-0.4,0.4-0.6,0.5C187.9,161.7,188.4,161,189,160.4L189,160.4z
		 M177.7,172.4c-0.4,0.5-0.8,1-1.3,1.4c-0.1,0.1-0.3,0.1-0.4,0.2c0.1-0.4,0.3-0.7,0.4-1.1C176.8,172.7,177.2,172.5,177.7,172.4z
		 M171.5,174.2c-0.1,0.4-0.2,0.8-0.5,1c-0.5,0.2-1,0.2-0.9-0.3c0.1-0.1,0.2-0.2,0.4-0.3C170.5,174.8,170.8,174.8,171.5,174.2
		L171.5,174.2z M173.7,174.9c0.6-0.5,1.2-1.1,1.7-1.7c2-1.2,0.5,0.5,0.3,1C175,174.4,174.3,174.7,173.7,174.9z M184.1,165.3
		c0-0.3-0.3-0.3-1.2,0.5c0.4-0.7,0.9-1.4,1.5-2c0.6-0.8,1.4-1.7,2.1-2.5c-1.3,1.8,2.9-0.7-0.6,2.4c0,0,0,0,0,0
		C185.3,164.3,184.7,164.8,184.1,165.3L184.1,165.3z"/>
	<path class="st0" d="M55.1,152.5c0,0-0.1,0.1-0.1,0.1C55,152.6,55,152.6,55.1,152.5z"/>
	<path class="st0" d="M122.6,179.1c0.2,0,0.3,0,0.5,0C123,179.1,122.8,179.1,122.6,179.1z"/>
	<path class="st0" d="M44.1,56.7L44.1,56.7L44.1,56.7L44.1,56.7z"/>
	<path class="st0" d="M100.8,15.9c0.2,1-3.6,0.8-2.2,1.7C99.3,17,101.3,16.7,100.8,15.9z"/>
	<path class="st0" d="M101.6,17.2l-2.4,0.7l1.6,0.1C100.9,17.7,100.7,17.4,101.6,17.2z"/>
	<path class="st0" d="M102.5,25.6c3.5-0.3,4.3-2.6,7.2-3.2c-1.6-0.9-7.6-0.5-7.4,1.3c1-1,2.4-1.6,3.8-1.7
		C107.2,24.4,103.1,23.2,102.5,25.6z"/>
	<path class="st0" d="M101.8,27.2l1.9-0.8l-0.2-0.1l-1.9,0.9L101.8,27.2z"/>
	<path class="st0" d="M220,98.7l-0.1-2.3c0.2,2.7,0.2,5.5,0,8.2c0,1.6-0.2,3.2-0.4,4.7c-0.1,0.9-0.2,1.7-0.3,2.7
		c0,0.4-0.1,0.8-0.1,1.2c0.1-0.9,0.3-1.9,0.4-2.9c0.2-1.5,0.4-3.1,0.5-4.6l0.1-4.7C220,100.3,220,99.5,220,98.7z"/>
	<path class="st0" d="M219,113.4l0-0.3c-0.1,0.6-0.2,1.2-0.3,1.7C218.8,114.4,218.9,113.9,219,113.4z"/>
	<path class="st0" d="M32.3,63.2c-0.1,1-0.2,2.1,0.5,1.9c1.1-3.2-0.6-2,0.9-4.7l-2,0.7C32.5,61.1,32.4,62.2,32.3,63.2z"/>
	<path class="st0" d="M62,59.1l-0.2-0.5c-0.1,0.4-0.1,0.9-0.1,1.3L62,59.1z"/>
	<path class="st0" d="M64.5,59.7c-0.5,0.6-0.9,1.3-1.3,2c0.4-0.3,0.8-0.7,1.2-1L64.5,59.7z"/>
	<path class="st0" d="M49.1,68.9l0.3-1.6C49.3,67.6,47.8,69.2,49.1,68.9z"/>
	<path class="st0" d="M48.8,80.6c0.1,0,0.2,0,0.3-0.1C48.9,80.5,48.8,80.5,48.8,80.6z"/>
	<path class="st0" d="M49.2,81.5c-0.1,0.6-0.1,1,0.6,0.2c0.3-1.5-0.2-1.3-0.7-1.2C49.4,80.5,49.3,81,49.2,81.5z"/>
	<path class="st0" d="M50.3,100.4l-1.2-0.9c0.4,0.5,0.9,1,1.4,1.5L50.3,100.4z"/>
	<path class="st0" d="M53.4,142.9l-1.6-1.4c0.5,0.7,1,1.3,1.6,2L53.4,142.9z"/>
	<path class="st0" d="M60.4,131.5c-1.9-1.3-0.6,4.1-3,1.4c0.1,0.7,0.4,1.3,0.8,1.8c0.2,0.2,0.3,0,0.5-0.2c0.3-0.4,0.6-1.1,1.4,0.4
		C59.2,133,59.9,131.5,60.4,131.5z"/>
	<path class="st0" d="M60,134.8c0.1,0.3,0.3,0.6,0.4,0.8C60.3,135.3,60.2,135,60,134.8z"/>
	<path class="st0" d="M53.8,140.2c0.5,0.4,1,0.8,1.6,1.1c0.5,0.2,0.9,0.2,1.1-0.1c-0.8-1.4-2-2.4-3.5-2.9l0.3,0.7
		c-1-0.5-2.1-0.9-3.1-1.5C51.5,138.3,52.7,139.2,53.8,140.2z"/>
	<path class="st0" d="M60.9,181.4l-1.8-0.3l1.7,1.2C60.5,181.8,62,181.4,60.9,181.4z"/>
	<path class="st0" d="M76.4,190.8l0.3,0.4l2.3,0.3l-0.3-0.4L76.4,190.8z"/>
	<path class="st0" d="M75.4,158.3l2.7,1.3c-0.1-1.4-0.7-0.3-2.1-1.4l2.2-0.2C76.9,157.2,75.1,157.9,75.4,158.3z"/>
	<path class="st0" d="M136.1,194c0.6,0,1.1,0,1.6-0.1C137.2,193.9,136.6,193.9,136.1,194z"/>
	<path class="st0" d="M179.8,174l-2.4,1.5C178.3,175.1,179.1,174.6,179.8,174z"/>
	<path class="st0" d="M131.6,197.5c-1.5,0.1-3,0.1-4.6,0.2c1.6,0.6-1.2,0.9-1.5,1.4c1.6,0,3.2,0,4.8,0c0.2,0.2,0.6,0.4,1.6,0.6
		c0.4-0.4,0.9-0.8,1.4-1l-2.1,0.1C131.4,198.3,131.7,197.9,131.6,197.5z"/>
	<path class="st0" d="M133.1,174.6l1.3-0.4l-2.1,0.5L133.1,174.6z"/>
	<path class="st0" d="M139.4,175.4c2.2-0.3,1.3,0.1,3.6-0.5C141.9,174.4,140.1,175.1,139.4,175.4z"/>
	<path class="st0" d="M141.4,169.2l-1.8,0.8l2-0.7L141.4,169.2z"/>
	<path class="st0" d="M217.3,115.1l0.1,0.1C217.4,115.1,217.4,115,217.3,115.1z"/>
	<path class="st0" d="M217.2,118.5l-0.6-1c0.3,1.4,0.4,2.7,0.6,4.1c0.6-1.9,1-3.8,1.4-5.8l-1-0.7
		C217.7,115.6,217.8,117.8,217.2,118.5z"/>
	<path class="st0" d="M214.8,123.8c0.2-2.8,1.9-0.9,1.1-3.2c-1-0.2-1.5,3.2-1.5,4l2.5,1.2C217.3,122.7,215.9,122.4,214.8,123.8z"/>
	<path class="st0" d="M207.7,141.7c-0.4-0.1-0.9-0.2-1.3-0.1l0.1,1.7l-1.3,1.6l1.3-0.6l0-0.9L207.7,141.7z"/>
	<path class="st0" d="M212.2,134.9l-1.6,2.6C211.1,136.8,211.6,136,212.2,134.9z"/>
	<path class="st0" d="M210.7,137.4c-0.5,0.7-0.9,1.3-1.5,1.9l0.1,0l-1.7,2.5c1,0.2,2.1,0.4,3.4-2.4l-1.5-0.2
		C209.9,138.6,210.3,138,210.7,137.4z"/>
	<path class="st0" d="M151,168.2c0.6-0.3,1.1-0.7,1.6-1l-0.2-0.1c-0.5,0.3-1.1,0.7-1.6,1L151,168.2z"/>
	<path class="st0" d="M160,164.8c-0.4,0.2-0.7,0.5-0.9,0.9C159.5,165.4,159.8,165.1,160,164.8z"/>
	<path class="st0" d="M172.8,155.8c0-0.3,1.2-1.9,0.6-2.1c-0.7,0.7-1.3,1.4-2.1,2.1C171.8,155.6,172.3,155.5,172.8,155.8z"/>
	<path class="st0" d="M170.4,156.7l0.9-0.9C171,156,170.6,156.3,170.4,156.7z"/>
	<path class="st0" d="M173.1,155.8l-0.2-0.1C172.8,155.9,172.9,155.9,173.1,155.8z"/>
	<path class="st0" d="M215.7,128.2c-0.4,0.7-0.7,1.4-1,2.2C215.3,130.7,215.5,129,215.7,128.2z"/>
	<path class="st0" d="M214.7,72.5c-0.2,0.5-0.2,1,0,1.4L214.7,72.5z"/>
	<path class="st0" d="M191,64.7c0.1,0.1,0.3,0.1,0.4,0.1C191.3,64.8,191.1,64.8,191,64.7z"/>
	<path class="st0" d="M191,64.7c-0.8-0.5-1.2-3.1-2.3-3.5h0.3l-1.2-1.3C188.6,61.2,190,64.2,191,64.7z"/>
</g>
</svg>
