<svg version="1.1" id="レイヤー_1" xmlns="http://www.w3.org/2000/svg" xmlns:xlink="http://www.w3.org/1999/xlink" x="0px"
	 y="0px" viewBox="0 0 227.7 235.9" style="enable-background:new 0 0 227.7 235.9;" xml:space="preserve">
<style type="text/css">
	.st0{fill:#E8B368;}
</style>
<g transform="translate(-21.003 -27.998)">
	<path class="st0" d="M210.7,258.5c-1.4,1.4-1.7,0.8-1.4,1.9c-0.9,1-2.3,1-1.3-0.1l-0.7,0.5l-0.7,0.5l-1.5,0.9l2-0.6
		c-0.2,1.1-3.2,1-3.5,2.2l3.6-1.5l-0.1,0.3c0.9-0.6,1.8-1.1,2.9-1.4c0,0.2,0.2,0.4-0.5,0.7c2.1-1.1,2.2-1.6,2.2-2s-0.2-1,1.3-2.1
		c-0.2,0.2-0.5,0.3-0.8,0.4C211.5,258.9,210.5,258.9,210.7,258.5z"/>
	<path class="st0" d="M221.6,249.4c-1.3,1.6-1.6,1.7-2.2,3c-1.1,0.9-2.3,1.6-3.7,2.1c-0.4,0.4-0.2,0.9-0.7,1.4l0.4-0.3l0.8,1
		c0.4-0.5,0.9-0.9,1.5-1.2c-0.6,1-1.2,2-1.9,3c1,0.1,1.9-0.2,2.7-0.9c0.8-0.6,1.6-1.1,2.4-1.6c-1.9,0.2,0.6-1.2-2.3,0l0.6-1.9
		c0.8-0.5,1.5-1,2.3-1.5c-0.2-0.3,0.9-1.9-0.2-1.2c-0.2,0.3-0.5,0.6-0.8,0.9C220.2,251.4,222.8,249.4,221.6,249.4z"/>
	<path class="st0" d="M66.3,131.5c0.1,0.1,0.1,0.2,0.2,0.3C66.5,131.7,66.4,131.6,66.3,131.5z"/>
	<path class="st0" d="M105.9,127.9c0.1,0,0.2,0.1,0.3,0.1C106.2,128,106,128,105.9,127.9z"/>
	<path class="st0" d="M106.1,134.5C106.1,134.4,106.2,134.4,106.1,134.5C106.2,134.4,106.1,134.4,106.1,134.5z"/>
	<path class="st0" d="M206.2,132.8l1.3,0.4C207.1,133,206.6,132.9,206.2,132.8z"/>
	<path class="st0" d="M240.8,226.1c0-0.1,0-0.1,0-0.2V226.1L240.8,226.1z"/>
	<path class="st0" d="M234.2,160.1c0,0.3,0.1,0.5,0.2,0.7C234.5,160.7,234.5,160.5,234.2,160.1z"/>
	<path class="st0" d="M206,132.8l0.2,0L206,132.8L206,132.8z"/>
	<path class="st0" d="M227.2,241.8l-0.1-0.1L227.2,241.8L227.2,241.8z"/>
	<path class="st0" d="M226.5,245.6l-0.6,0.9C226.2,246.2,226.4,245.9,226.5,245.6z"/>
	<path class="st0" d="M240.8,176c0.5,0.4,1.1,0.1,0.3-0.9C241.1,175.5,241.2,176.2,240.8,176z"/>
	<path class="st0" d="M223.8,232.9c0.1,0.2,0.1,0.5,0.1,0.7C223.9,233.1,223.9,232.8,223.8,232.9z"/>
	<path class="st0" d="M225.4,249.9l-0.1-1.1c1.8-1,2.3-2.3,3.5-3.7c-1,1.1-2.1,2-3.1,3.1c-1.9,1-1-0.1-0.1-1.4
		c-0.3,0.3-0.5,0.5-0.7,0.5c0.2,0.4-2.7,4,0.2,1.4c0.6,0.8-1.5,2.1-2.1,2.9c0.7-0.4,0.1,0.7,0.5,0.8c0.3-0.6,0.7-1.2,1.2-1.6
		c0.6,0-0.2,1.2-1,1.8c1.3-0.5-0.7,1.7,0.9,0.7c2.7-2.9,4.2-5.3,4.8-8.3c-0.6,1-1.2,1.9-1.9,2.7C227,248.6,226.2,249.3,225.4,249.9z
		"/>
	<path class="st0" d="M145.7,137.6l-0.4,0.2C145.6,137.7,145.7,137.6,145.7,137.6z"/>
	<path class="st0" d="M193.9,146.6c0-0.1-0.1-0.3-0.2-0.4C193.6,146.2,193.7,146.4,193.9,146.6z"/>
	<path class="st0" d="M208.2,147l0.2-0.1l-0.3-0.1L208.2,147z"/>
	<path class="st0" d="M213.5,149.5c-0.9-0.5-1.9-1.9-2.4-2.1c1.1,1.4-0.3,0.7-1.4,0.3c-0.7-0.8,0.6-0.5-0.1-1.1l-2.1-1.3l1.7,1.3
		l-1,0.3l0.2,0.1c3.2,1.7-0.5,1.2,2.8,2.8c-0.1,0-0.3,0-0.4,0.1c1.4,0.6,3.3,2.6,4.1,2.1C214.6,151.7,212.9,149.7,213.5,149.5z"/>
	<path class="st0" d="M210.9,149.9c-0.2-0.1-0.4-0.1-0.6-0.2C210.5,149.9,210.7,149.9,210.9,149.9z"/>
	<path class="st0" d="M239.7,193.3c-0.1,0.2,0.2,0.6,0.3,0.8c0-0.2-0.1-0.5-0.2-0.7C239.8,193.4,239.8,193.3,239.7,193.3z"/>
	<path class="st0" d="M238.3,194.8c-0.1,0.4-0.3,0.7-0.6,0.9c0.1,0.6,0.5,0.9,0.7,1.5C238.2,196.4,238.2,195.6,238.3,194.8z"/>
	<path class="st0" d="M199.5,134.9L199.5,134.9L199.5,134.9L199.5,134.9z"/>
	<path class="st0" d="M202.2,149.5C202.2,149.5,202.2,149.5,202.2,149.5C202.2,149.5,202.2,149.5,202.2,149.5z"/>
	<path class="st0" d="M233.9,238.1l0,0.2C233.8,238.2,233.8,238.1,233.9,238.1z"/>
	<path class="st0" d="M248.1,206.9c-0.2,0-0.6,0.1-0.6-0.3c-0.2-1.4,0-2.8,0.5-4.2c0.4-1.1,0.7-2.2,0.7-3.4
		c-0.3-0.7-0.5-1.5-0.6-2.3c-0.2-1-0.4-2-0.5-3c-0.1-1.1-0.3-2.2-0.4-3.3s-0.3-2.2-0.5-3.1c0.5,0.3,0.7-0.3,1-0.6
		c-2-1.7-1.2-1.1-2.9-3.5c0.1,0.8,0,1.7,0.1,2.5c-0.6-1.8-2.1-2.8-1.8-4.8c-0.3,1.4-0.8,0.8-1.3-0.3c-0.4-1.1-1-2.1-1.6-3.1
		c-0.2-2-2-3.1-1.6-4.5l0.2,0.2c-0.3-0.8-0.7-1.7-1.1-2.5l1.4-0.5c-0.5-1.9-2.5-3.3-2.5-2.5c-0.7-1.8,0-1,0.4-1.6
		c1,0.6,3.1,2.1,2.5,3.3c0-0.2-0.2-0.6-0.4-0.6c1,2.4,1.5,2.6,2,2.4c0.5-0.2,1-0.8,1.7,0.3c-0.5-1.3-0.4-2.6-1.4-3.7
		c-1-1.3-2.1-2.5-3.4-3.5c1.6,1.2,1.5,2.4,1.8,4c-0.5-1.2-1.3-0.9-1.4-2.1l0.4,0.2c-0.4-0.3-0.8-0.6-1.1-0.9
		c0.6-0.7-1.8-3.3,0.2-2.2c-1.2-1.4-0.9-0.1-2.1-1.3c0.6,1,1.1,2,1.6,2.9l-0.8,0.5c-1.1-0.6-0.8-1.3-1.5-2.3l-0.7,0.7l-0.7-2.4
		c-0.4,0.6-1.2-0.9-1.6-1.3c-0.5-1.2,1.2-1.6-0.9-2.7l0,0.2c-1.1-0.7-2-1.6-2.7-2.6c0.2-0.1,0.6,0.2,0.8,0.3c-0.9-1.2-1.9-2.2-3.1-3
		c-1.1-0.9-2.1-1.8-2-2.7c0.7-0.4,1.1,0.6,1.8,0c2,3.5,3,0.8,5.7,4.7c-1.4,1.5,3.4,2.2,2.4,4.2c-0.9-1.6-3.4-2.6-3.4-2.2
		c1.2,1.2,2.3,2.5,3.2,4c-0.1-0.8,0.6-1.5,1.4-1.6c0.2,0,0.4,0,0.6,0.1c-2-1.9-4.2-6.5-6.9-9.4l-0.6,1.2c-3-1.6,1.1-0.5-0.7-2.4
		l-1.5-0.1l0-0.2c-0.7-0.2-1.4-0.3-2.2-0.4c1,0.8,1.2-0.2,1.9,1.1c0.7,1.2-0.7,0.6-1.4,0.9c-0.4-0.9-3-2.7-0.9-2.1
		c-1.2-0.4-2.3-0.9-3.4-1.3c0.3-0.3,1,0,1.4,0c-0.7-0.5-1.4-0.9-2.1-1.4l0.2-0.1c-1-0.4-2-1-3-1.5c-0.9-0.5-1.9-0.8-2.9-1
		c2.2,2.6-1.9-0.1-2.1,0.6c-0.9-0.7,0-2.7,2.7-2c0.2,1,2.2,1.2,3.3,1.9c-1.1-1.3-1.9-1.1-3.1-1.8c1.1,0.1-1-1.6-0.8-1.9
		c0.9-0.5,2.1-0.3,2.6,0.6c2.1,1.5-0.5,1,0.3,1.3c-0.1,0.7,0.7,1.1,1.6,1.6c0.9,0.4,1.7,0.9,2.5,1.6c0.1,0.2-0.4,0-0.7-0.1
		c1.1,0.7,3.2,2.6,3.9,2.1c-1-0.6-1.9-1.2-3-1.7c-0.4-0.6,1.3,0.1,0.8-0.9c-0.8-0.3-1.6-0.9-2.2-1.5l0.4-0.2c-0.8-1-1.7-1.8-2.8-2.5
		c-1.1-0.7-2.3-1.4-3.5-1.9c-1.5,1.2-3.1,1.4-5.1,2.5c-3-1.6-6-3.3-9.2-5.1c-0.1,0.3-0.4,0.7-0.7,0.9c-0.7-0.8-2.6-1.3-2.1-2
		c-1.4,0.4-4.6-0.2-4.5,0.8l-0.4-0.1c-0.7-1.1-1.6-2-2.8-2.6c0.4,0,0.7,0.1,1,0.2c-0.7-0.9-3.9-2.5-4.7-1.9c-1.7-0.6-3.4-1.2-5-1.8
		l0.6-0.3l-2.3,0c1.3,0.1,3,0.8,2.2,1.5c-2.6,0-3.6-1.3-6-0.7c0.6-1.5,0-1.9,1-2.6c0.1,0,0.2,0.1,0.2,0.1l0,0
		c-0.1,0-0.1,0.1-0.2,0.1c0.2,0,0.3,0,0.2-0.1c0.2-0.1,0.4-0.2,0.6-0.2c0.2,0.1,0.5,0.2,0.7,0.2c0,0.4-0.8,0.4-0.5,0.7
		c0.6,0.2,1.3,0.3,2,0.3c-0.6-0.2,0.3-0.3-0.6-0.7c0.5-0.1,1.5-0.1,1.5-0.2c-0.4,0.1-0.8,0-1.1-0.2c1.1,0,2.2,0.2,3.2,0.7
		c-0.1,0.1-0.2,0.2-0.4,0.2c1.6-0.3,3.5,0.3,4.8-0.1c0.1,0.1,0.2,0.2,0.4,0.3c1.2,0.2-0.2-0.6-0.1-0.8c1.4,0.2,1.7,0.9,2.7,1.3
		c-0.2-0.3-0.8-0.7-0.5-1c1.4,1.2,3.2,1.4,4.2,3.1c-0.6-0.9,1.7-1.1,2.5-1c-0.9-0.8-1.7-1.6-2.6-2.4c-4.3-1.1-6.6-2.4-11.4-3.1
		l0.5-0.4c-0.5-0.3-1-0.5-1.6-0.7c0.5,0.1,1,0.1,1.5,0c-0.1,0.1-0.3,0.1,0,0.2c1.7,0.5,2.9-0.5,4.1,0.4l-0.2,0.2l-0.1,0l0.1,0
		l-0.1,0.1c0,0,0.1,0,0.3,0l0.7,0.5c0.1-0.1,0.1-0.3,0.7-0.1l-1.3-0.3c0.3-0.1,0.6-0.2,0.7-0.4c0.2,0,0.4-0.1,0.4-0.3
		c-0.2,0.5-2.3-0.7-1.8,0.1c-0.4-0.1-0.7-0.1-1.1-0.2c0.7-0.2,1.5-0.2,2.3-0.1l0.3-0.6c0.9-0.3,1.4,0.3,2.1,0.4c0,0,0,0,0,0
		c0,0,0.1,0,0.1,0c0.1,0,0.2,0,0.3,0c1,0.1,3.5,0.6,0.8-0.6c0.4-0.7,2.3,0.5,3.3,0.6c-0.6-0.4,0.5-0.4,0.4-0.7
		c-0.6,0-1.2-0.2-1.8-0.4c-0.2-0.5,1-0.3,1.9,0.2c-0.9-0.8,1.6-0.1,0.2-1c-3.1-0.9-5.5-1.5-8-1.3c0,0,0.1-0.1,0.1-0.1
		c-1.3-0.2-1.5,0.6-2.7,0.4c-0.3-0.1-0.1-0.2,0-0.3l-0.9,0.1c0-0.2-2.1-0.7-0.6-0.9c0.2,0.1,0.5,0.1,0.8,0.2
		c-0.8-0.4-1.9-0.8-2.8-1.2c-0.9-0.4-1.5-0.8-1.4-1.1c-0.9-0.3-0.7,0.1-2.2-0.3c-0.9,0.4-0.3,1-2,1.1l1.3,0.4
		c0.3-0.1,0.6-0.2,0.9-0.2l-1.4-0.1c0.9-0.1,0.9-0.4,1.3-0.9c2.2,0.2,2.4,1.2,3.4,1.5c-0.8,0.3-1.9,0-1.6,0.7
		c-0.9-0.7-1.3,0.3-2.4-0.3l0.3-0.1c-1.1,0.3-1.1-0.2-2,0.1c0.1-0.1,0-0.2-0.1-0.3c-1.9,0.1,0.4,0.4-1.5,0.8c-1.6-0.2-0.2-1-0.6-1.3
		c2.9-0.6,0.2-1,3.4-1.4c0.2-0.8-0.9-1-2.5-1c0.9,0.4-1,1.1,0.2,1.8c-2.5,0.2-2.7,1.8-5.1,1l0.1-0.1c-0.4,0.2-0.8,0.4-1.2,0.6
		l-1.4-0.3c1.1-0.8,2.2-0.4,3-0.9c-1.6-0.9-2.7,0.8-4.7,0.7c-1.6-0.9,2.3-0.6,2.5-1.3c-0.5,0.2-1.5-0.2-1.4-0.4
		c1.9,0.3,1.3-0.5,3.5,0c-1.1,0.2,0.1,0.3-0.2,0.6c1.3-0.3,2.6-0.3,3.9-0.1c0.5-0.6-1.1-0.6-2-0.9c-1.9,0.5-3.5-0.6-5,0.1
		c-1.9,0.1,0-0.6-0.1-0.6c-1.7-0.2-0.9,0.5-1.4,0.6c-2.7,0.5-2.8-0.6-4.6-0.5c-1.7,0.9-5.4,0.9-8.1,1.3c0.4-0.3,0-0.5-0.1-0.7
		c-1.7,1.3-1.1,0.8-3.1,1.7l1.6,0.2c-1.3,0.3-2.5,1.2-3.6,0.8c0.6,0.3,0.4,0.5-0.2,0.7c-0.1,0-0.2,0-0.4-0.1l-0.3-0.2
		c0,0.1,0.1,0.1,0.1,0.2h0l-0.3,0.4c-0.2,0.1-0.5,0.1-0.8,0.2c-1.2-0.8-2.6-1.2-4-1.1l-2.5,1.1c-0.9,0-1.7,0.4-2.3,1l-0.3,0.1
		c-0.9,0-0.2-0.3-0.4-0.6c0.8-0.4,2.6-1.6,3-0.9c-0.2-0.1-0.4,0-0.5,0.1c1.8-0.1,2.1-0.5,2.2-0.9c0,0,0.1,0,0.1,0c0.3,0,0.5,0,0.8,0
		l2.8-1l0.7-0.5l-3.2,0.2c0.5-0.3-1-0.4-0.3-0.7c-0.2,0-1.3,0-1.1,0.2l0.6,0.1c-0.4,0.2-0.8,0.4-1.2,0.7c-0.4,0-0.7,0.1-1,0.2
		c-1.2,0.4-2.3,0.8-3.4,1.3c0.9-0.5,2-0.6,3-0.2c-0.9,0.1-1.1,0.6-1.8,0.5l0.3-0.2l-1,0.5c-0.1-0.5-2.6,0.3-1.1-0.7
		c-0.2,0-0.4,0.1-0.5,0.2c-0.1-0.4-0.4-0.7-0.7-0.8c0.7,0.3,1.5,0.3,2.2,0.1l-1.2-0.2c1.8,0,4.8-0.8,4.9-1.5
		c-0.8,0.9-1.7-0.2-2.6-0.4c0.8-0.1,2.5-0.5,1.3-0.7c-0.5,0.3-3.9,0.6-1.7,1.2c-1.1,0.3-2.3,0.3-3.5,0.1c1.4-0.3,0.6-0.8,1.2-1.4
		c-0.7,0.2-1.3,0.8-1.7,1.4c-3.1-1.1-4-3-7.8-2.7c-0.5,0.1,2.3-0.1,1.8,0.5c-3,0.8-3.2-1.5-5.6-1.3l0.4,1.1
		c-1.1,0.1-2.3,0.1-3.4,0.1c-0.1-0.4-2.4-1.4-0.5-1.5c-3.8-1-4.1,1.9-8.4,1.1c1.3,0.4,2.6,0.6,3.9,0.7c-1.9,0.4-0.4,0.5-0.8,1.2
		c-0.9-0.8-4.4-0.6-1.9-1.2c-1.4-0.2-4.1-0.6-4.9-0.3l1.1,0.5c-1.8-0.3-3.6,0-5.2,0.8c2.5,0.2,2.8-1.1,5.9-0.6c3.2,1.2-1,0.7,0.9,2
		l2.7-0.5l-1.1-0.2c0.7-1,3.8,0.5,3.8-0.8c2.2,1.3,3.1,0.7,5.7,2c0.8-0.4-0.2-0.5-1-0.7c1.4,0.2,1.8-1.1,3.4-0.1
		c0.9,0.3,0.5-0.9-1.1-1c1.4,0.2,2.8,0.1,4.3,0.4l-1.4-1l1.7,0.2l-1.3-0.6c3.2,0.2,6.8,0.7,8.2,2c-3,0.6-7.4-0.2-9.3,1
		c0.5,0.5,2.4-0.8,2.9,0.5l1-0.7c1-0.2,3.3-0.2,3.3,0.6c-1.7,0.2-3.3,0.6-4.8,1.3c-0.1,0-0.2,0-0.3,0c0,0,0,0,0,0l-0.1,0
		c-0.3,0-0.6,0-0.9,0.1l0.1,0.3c-0.2,0-0.5,0-0.7,0c-0.2-0.1-0.3-0.1-0.5,0c-0.5,0-1,0-1.5,0c-0.9-0.3-0.1-0.7,0-0.8
		c-2.9-1.3-5.7,1-8.9,0c0.1-0.7-2.4-1.1-1.5-1.4c-1.9-0.4-3.2,0.3-4.5,0.6c-0.1-0.6-2.9-0.6-1.7-1.1l-2,0.8
		c-1.1-0.5-3.7-0.4-3.9-1.1c-1.4,0-0.7,1-2.4,0.4c0.1-0.1,0-0.3,0.4-0.2c-1.1-0.6-2.5-0.7-3.7-0.4c1.2,0.4,0.2,0.2,1.7,0.6
		c-0.2,0.4-2.1,0.7-3.6-0.1c2.7-0.6-1.5-1.3-0.2-1.7c-3.6-0.8-6.2,0.2-9.6,0.4c-3.6-0.7-7.8-2.2-10.8-2.2l0.3,0.1
		c-0.6,0-1.2,0.1-1.9,0.1c-0.9-0.3,0.5-1.1-1.1-1.3c0.9-0.8,2.5,0.7,4.3,0.4c-2.1-1.7,2.7-0.2,1.4-1.5c-0.9,0.8-2.2,0.5-3.7-0.1
		c-1.3-0.6-2.8-1-4.3-1.1c-1.9-1,1.3-0.4,0.4-0.9l-0.9,0.3c-0.7-0.5-0.9-0.8-0.6-1.2c-0.7-0.4-1.4-0.7-2.1-1
		c0.2,0.1,0.4,0.1,0.6,0.2c-2.6-2.3,2.3,0.3,1.8-1.2l-1.8-0.4l0.3-0.2c-0.7-0.3-1.3-0.6-2-0.9c0.1,0.7,0.4,0.9,0.1,1.3
		c-2.5-1.6-0.5-1-2-2.6c-0.9-0.5-1.9-1-2.8-1.5h0.3c-0.1-0.1-0.3-0.1-0.5-0.1c-3-1.7-5.8-3.7-8.5-6c-1.6-1,0.1,1.4-1.5,1.1
		c0.8,0.7,1.8,1.8,2.6,2.5c0.8,0.6,1.5,1.1,1.9,0.9c-0.1,0.1-0.2,0.2,0,0.5l1.6,0l-0.8-1c1.1,0.2,2.2,0.7,3.1,1.4
		c0.9,0.5,1.6,1.2,2.2,2c-0.6-0.3-1.3-0.4-2-0.4c-0.5,0-1.1-0.2-2.2-1.4c0,0.3,0.2,1.1-0.5,0.8c2.8,1.6,5.3,3.4,8.4,4.6
		c-0.9-0.3-1.9-0.4-2.8-0.5c2.4,0.7-1.3,0.5,0.9,1.6c-1.3-0.2-2.6-0.6-3.7-1.3c1.4,0.4-0.9-2.1,1.7-0.4c0.2-1.1-1.5-0.5-2.6-1.4
		c0.4,0,1.1,0.1,1.6,0.2s1,0,0.9,0c-1.3,0.1-2.6-1-3.8-2c-1.1-1.1-2-2-2.6-1.9c-0.5-0.1-1.1-0.2-1.6-0.3c-0.2-0.3-0.5-0.6-0.7-0.9
		c0-0.3,1,0.3,1.2,0.2c-0.8-0.6-1.6-1.3-2.3-2c0,0-0.1,0-0.1,0.1c-0.1-0.2-0.3-0.4-0.4-0.6c0-0.1,0-0.3,0-0.4
		c-0.1-0.1-0.2-0.1-0.3,0c-0.5-0.9-1-1.7-1.5-2.6l0.1,0L42,93.5c0-0.1-0.1-0.2-0.1-0.3c0.4-0.5,0.6-1.1-0.3-2l-0.4,0.6
		c-0.6-1.2-1.1-2.4-1.6-3.7c-1.1-3-2-6-2.6-9.2c0.1,0.9,0,1.8,0,2.8c-1.2-1.2,0.2,1.6-0.7,1.4c-0.4-0.5-0.5-1.2-0.5-1.8
		c0,0,0.1-0.1,0.1-0.1c0-0.1-0.1-0.2-0.1-0.2v0l0,0c-0.2-0.4-0.4-0.9-0.5-1.4l0.3,0.1l-0.4-2c-0.4,0.5-0.4,0.8-0.9,0.8
		c-0.2-2.8,0.5-1,0.9-3c-0.2-1-0.2-2-0.2-3l0.1,0.2c0,0,0,0.1,0,0.1l0.3,1.9l0.5,2.1c0.2,0.8,0.5,1.6,0.8,2.4
		c-0.9-2.6-1.5-5.3-1.7-8.1l0,0.9c0,0.2,0,0.3,0.1,0.5c0-0.1-0.1-0.1-0.1-0.2c-0.1-3.3,0.2-6.7,0.9-9.9c0.1-1.8-1.1,0.7-1.5-0.7
		c-0.3,1-0.6,2.4-0.9,3.4c-0.1,1-0.1,1.8,0.2,2c-0.1,0-0.3,0-0.4,0.3c0.2,0.5,0.4,0.9,0.7,1.3c0.1-0.4,0.2-0.8,0.4-1.2
		c0.3,1,0.4,2.1,0.3,3.2c0,1-0.1,1.9-0.4,2.8c-0.3-2.3-1.3-1.2-0.6-4.4c-0.3,0.1-0.7,0.7-0.8,0c0,3.9-0.2,7.5,1.3,11.4
		c0.2-2.5,0.7,0,1.3,0.7c-0.1,0.2-0.3,0.4-0.5,0.5l-0.7,0c0.2,0.2,0.4,0.4,0.6,0.6c0,0.2,0.1,0.5,0.2,0.7c0,0,0,0,0,0l-0.6-0.2
		c0.3,0.2,0.6,0.5,0.9,0.7c0.2,0.2,0.4,0.5,0.6,0.7c0.2,0.2,0.4,0.4,0.6,0.6c-0.4,0-0.7,0.3-0.8,0.8c-0.9-1,0.6-1-0.6-1.4
		c-0.6,0.3,0.5,1.5,0.7,1.8l1.2-0.5c0.2,0.3,0.3,0.6,0.3,0.9c-0.5,0.1-1.2-0.5-0.6,1l-0.2-0.4c1.4,2.3-0.4,2.3,1.5,3.3l-0.7,0.2
		c0.5,0.6,1,1.3,1.4,2c0.5,0.8,0.9,1.5,1.2,2.1l-0.2,0c0.7,0.7,1.3,1.5,1.8,2.3c0.1,0.2,0.3,0.5,0.5,0.9c0.2,0.3,0.6,0.8,1,1.4
		c-0.2-0.1-0.3-0.1-0.5-0.1l-0.8-0.5c-0.4-0.8-0.9-1.4-1.6-2c-0.7-0.7-1.4-1.5-2-2.3c0.2,0,0.4,0,0.5,0c-0.4-0.6-0.8-1.2-1.3-1.7
		c-0.6-0.6-1.1-1.3-1.4-2.1l0.4-0.8c-0.2-0.2-0.4-0.5-0.7-0.8c-0.2-0.3-0.5-0.7-0.7-1.1c-0.5-0.8-0.9-1.6-1.3-2.4
		c-0.4,0.2,0.3,1.6-0.5,1.2c0.4,0.8,0.8,1.4,1.1,0.9c0.4,0.8-0.2,1.2-0.1,2.1l-1-1.4c-0.4-0.5-0.7-0.9-1-1.4c-0.1-0.3,0-0.4,0-0.5
		l-0.8,0.2c-0.3-0.9-0.3-1.2,0.1-1.2c-0.4-0.7-0.9-1.3-1.5-1.9c-0.6-0.6-0.9-1.4-1-2.3c0.9,0.6,1.6,1.4,1.9,2.5
		c-0.2-0.8-0.5-1.5-0.7-2.3c0.6,0.8,1.1,1.6,1.5,2.5c0.5,0.9,1.1,1.5,1.5,0.9l-0.6-0.8l-0.5-0.9c-0.3-0.6-0.8-1.3-1.1-2
		s-0.7-1.4-1-2.1c-0.4-0.6-0.6-1.3-0.9-1.8c0.3-0.8,0.3-1.6,0.1-2.4c-0.2-1-0.2-2-0.1-3c0.2-0.3,0.5-1,0.9-0.6l0,0.6
		c0.1-1.4,0.2-2.9,0.2-4.3c0-0.7,0-1.5,0-2.2c0-0.7,0-1.4,0-2c0.4-0.4,0.8-0.8,1.2-1.2c0.9-2,0.5-1.9,0-1.8c-0.4,0.1-1.1,0.2-0.3-2
		c0.7-0.4,1.3-1.7,2-2.8c0.7-1.1,1.3-2.1,1.7-2.1c0.3-0.8,0.6-1.1,0.2-1.4c-0.5,0.6-1.2,2.2-1.3,1.1c0.6-1.5,1.5-1.9,2.2-3
		c0.1,0.2,0,1.2,0.1,0.7c0.4-0.8,0.9-1.6,1.5-2.3c0.3-0.4,0.6-0.9,0.9-1.3s0.7-0.8,1.1-1.3s0.7-0.9,1.1-1.3s0.7-0.8,1.1-1.2
		s0.7-0.8,0.9-1.2s0.6-0.7,0.8-1.1c-1,0.7-0.7,1.3-2.1,2c-0.2-0.3,0.5-0.8,0.6-1.2c-0.6-0.5-1,1.4-2.6,2c0.5-0.8,1.1-1.6,1.7-2.5
		l-1,0.3c0.5-0.6,0.9-1.2,1.3-1.7c0.3-0.1,0.6-0.2,0.8-0.4c0.3-0.2,0.6-0.4,0.9-0.7c0.6-0.6,1.3-1.1,2-1.5c0.2,0,0.7-0.1,0.5,0.3
		L45,38.2c1-0.5,2-1.3,3-1.9c0.5-0.3,1-0.7,1.5-1.1l1.4-0.9l1,0.2c3.1-0.8-0.7-0.8,2.6-2c0.8,0.2,1.5,0.1,2.3,0l0.7-0.1
		c0.2,0,0.4,0,0.5,0c0.3,0,0.5,0.1,0.5,0.2c0.6-0.1,0.8-0.1,1-0.5c-0.5,0-1.7,0.2-1-0.3c0.8-0.2,1.6-0.1,2.4,0
		c-0.1,0.1-0.8,0.5-0.4,0.4c0.5,0,1.2-0.1,1.9-0.1l2.1,0.2c0.7,0,1.4,0.2,2.1,0.3c0.3,0,0.7,0,1,0.1c0.3,0,0.6,0.1,0.9,0
		c-0.7-0.2-0.9,0.1-1.8-0.5c0.2-0.3,0.6-0.1,0.9-0.1c0.2-0.6-1.1,0-1.9-0.7l2-0.1L67,30.4c1.5,0,3.1,0.1,4.5,0.4
		c-0.6-0.5-1.3-0.8-2.1-1.1c-0.7-0.2-1.3-0.2-2-0.2c-1.3-0.1-2.5,0.1-3.8-0.5c0.5-0.1,0.1-0.3,0-0.5c-1,0.1-1.9,0.3-2.8,0.5
		c-0.5,0-1,0.1-1.5,0.1c0.1-0.3,0.3-0.5,0.6-0.7c0.4-0.3,0.8-0.4,1.3-0.4c-0.5,0-1,0-1.6,0.1c-0.7,0.1-1.3,0.2-2,0.3
		c-0.6,0.2-1.3,0.4-1.9,0.6c-0.3,0.1-0.6,0.2-0.9,0.3L54,29.8l-1.8,0.8l-1.8,0.9c-1.3,0.5-2.5,1.3-3.9,1.8c-0.3,0,0.7-0.5,0.3-0.4
		c-0.7,0.4-1.2,1-1.7,1.6c0.1-0.3,0.3-0.6,0.6-0.7c-0.6,0.4-1.2,0.8-1.8,1.2c-0.6,0.3-1.1,0.6-1.5,0.9c-1,0.5-1.8,1.1-2.5,1.9
		c-0.2-0.2,1.2-1.3,0.9-1.2c-2.7,1.9-3.5,3.9-5.7,6.4c0.5-1.2-0.8,0.2-1.6,0.8c-0.4,0.6-0.9,1.4-1.5,2.3l-0.9,1.4L30,48.8l-0.9,1.6
		L28.3,52c-0.3,0.5-0.5,1.1-0.7,1.6L27,55.1c-0.3-0.7-0.8,0.4-1.3,1.7c-0.5,1.3-1,2.7-1.5,2.8c-0.3,0.9-0.5,2.3-0.2,2.4
		c0-0.5,0.6-1.7,0.8-1.5c-0.3,1.3-0.9,3.2-0.4,3.4l-0.8,1.6c0.4,0.1,0.6,0.6,0.5,1.4c-1.3,2,0.7-0.3-0.3,2.5
		c-0.2-0.5-0.4-0.9-0.7-1.3c-0.2,0.7-0.2,1.4-0.1,2.1c-0.3,0.4-0.7-0.8-0.7-1.9c-0.2,0.6-0.4,1.2-0.6,1.8c0.3,1,0.5,2,0.6,3.1
		c0.2,1.3,0.3,2.5,0.2,3.8c-0.4-0.3-0.4-1.2-0.8-0.3c0.2,1.1,0.8,2.4,0.6,3.9c-0.1-0.2-0.1,0-0.2-0.2c0.7,2.3,0,2,0.2,4.2
		c-0.1,0-0.1,0-0.2,0c0.1,0.1,0.1,0.3,0.2,0.4c-0.4,0.2-0.9,0.4-1.3,0.6c0,0.8,0.1,1.5,0.4,2.3c0.4,1,0.9,2,1.3,1.9
		c0-0.7,0.1-0.6,0.4-0.4c-0.1,0.5-0.2,1.1-0.2,1.7l-0.2-0.3c-0.1,1,0.1,1.9,0.6,2.8l0.6,1.4c0.2,0.3,0.3,0.7,0.4,1
		c-0.1-1.3,0.2-0.6,0.4-1.8c-0.5-0.9-1.1-0.1-1.4-1.9c0.6-0.1,1.5,1.8,2.1,1.9c0.2,0.8,0,1.7-0.5,2.4c1,2.1,1.4,3.5,3,5.8
		c0.4,0.3,1.1,0.3,1.6,0.6c0.4,0.3,0.8,0.6,1.1,1.1c-0.1-0.2-0.3-0.3-0.4-0.5l0,0.2c0.2,0.2,0.4,0.4,0.6,0.7
		c0.1,0.2,0.1,0.4,0.2,0.6l-0.2,0.1c-0.3-0.2-0.6-0.4-0.8-0.7c2.9,3.7-1.8,0.4,1,4.3c-1.1,0-2.9-2.3-3.4-3.9
		c-0.1-2.1,1.4,1.1,2.4,0.9c-1.2-1.5-1.1-1.2-1.9-1.6c-0.7-1.4-1.7-2.6-2.4-3.8c-0.8-1.2-1.4-2.3-1.1-3.4c-1-1.9-1.4-1.6-2.3-2.7
		c-0.9,0.1,0.5,2.7,0.5,4c0-0.1,0.1-0.2,0.1-0.2c0.2,0.6,0.4,1.2,0.6,1.9c-0.5-1.8,1-0.2,1.5,0.7c0.3,0.6,1,1.9,0.7,1.8l-0.7-0.9
		c0.3,1.4,2.1,2.3,2.4,3.9c-0.1,0.2-0.5-0.3-0.7-0.3c1.4,1.3,2.7,2.7,4,4.2l-1.6-0.6c1.9,1.1,4.3,4.6,5.8,7.3
		c-0.1-0.4-0.4-0.9,0-0.7c0.7,0.5,1.1,1.3,1.2,2.1c-0.8-0.3-0.8,0.5-1.3,0.5c0.1,0,0.2,0.2,0.4,0.4c-0.2,0.3-1.1-0.8-1.2-0.4
		c0.4,0.3,0.8,0.6,1.3,0.8c-1-0.3,0.8,1.5,1.5,2.1c2,0.8,5.5,3.5,8.1,4.8c-0.2-0.1-0.7-0.3-0.5,0c3.5,2.1,4.9,3.2,9.2,5.1l1.3-0.7
		c0.1-0.2-0.7-0.4-1.7-0.7c0.3-0.1,0.6-0.3-0.4-0.8c-1.7-1.4-3.4-1-4.7-1.9l0.5,0.2c-1.2-1-2.6-1.7-4.2-2.1c-0.1-0.2-0.1-0.3,0-0.3
		c0.3,0.1,0.7,0.2,1,0.3c0.9,0.5,2,1.2,1.5,0.4c0.1,0,0.2,0,0.2,0.1c0.7,0.4,1.4,0.8,2.1,1.1c-0.1,0.1-0.2,0.1-0.2,0.2
		c-0.1,0.1-0.2,0.2-0.3,0.2c1,0.4,1.6,0.3,1.9,0.1c0.4,0.1,0.7,0.3,1,0.4c-0.3-0.2-0.5-0.4-0.8-0.6c0.1-0.1,0.2-0.3,0.2-0.4
		c0.7,0.2,1.4,0.3,2.1,0.4c-0.4-0.1-0.8-0.3-1.1-0.5c0-0.2-0.1-0.3-0.1-0.5c0.5,0.1,1,0,1.2,0.4l-0.4,0.2c1.7,0.4,0.9-0.5,2.3,0.2
		c1.4,0-1-0.5,0-0.6c1.3,0.7,1.5-0.6,3.1,0.1c-0.1,0.3-0.2,0.6-0.3,1c-0.2,0-0.5,0-0.7-0.1l0.6,0.5c0,0.1-0.1,0.2-0.1,0.4
		c-0.6-0.1-1.2-0.3-1.8-0.5c-1.1,0.4-1.1,0.9-2.1,1.2c0.7,0.1,0.9-0.5,1.8-0.1c1.1,0.6-0.3,0.3-0.6,0.5c1.9-0.2,1.4,1.3,3.1,1
		c0.1-0.9,0.4-0.8-0.4-1.6c0,0,0,0,0.1,0c0.4,0.3,0.9,0.5,1.4,0.7c0.3,0.2,0.3,0.6,0.2,1l0.5-0.6c0.2,0.2,0.9,0.5,0.9,0.7l0.5-0.2
		c-0.1-0.1-0.2-0.3-0.3-0.4c0.3,0,0.6-0.1,0.7-0.2c-0.6-0.5-0.2-0.6,0.2-0.6c0.6,0.2,1.3,0.6,1.8,1c0.1,0.1,0.2,0.1,0.2,0.2
		c-0.1,0-0.3,0-0.4,0.1c-0.1,0.1-0.1,0.2-0.1,0.3c-0.3-0.1-0.6-0.1-0.9-0.1c0.3,0.4,0.8,0.6,1.3,0.5c0.2,0.1,0.4,0.3,0.6,0.4
		c-0.1,0.1,0,0.3,0.4,0.6l0.3-0.2c0.5,0.2,0.9,0.5,1.3,0.8c0-0.1-0.1-0.2,0-0.2l1.6,0.8c-1.5-0.9,0.6-1,1.4-0.8
		c0.5,0.1,1,0.3,1.5,0.5c-0.2,0-0.4,0-0.5,0c-0.3-0.1-0.6-0.2-0.9-0.3c0.2,0.4,0.3,0.5,0.6,0.5c0.1,0.1,0.2,0.2,0.3,0.3
		c0.1,0,0.2,0,0.3,0c0.1,0,0.2,0,0.3,0.1l-1.3,0.1c0.6,0.3,1.3,0.3,1.9-0.1c0.9-0.1,1.7,0.1,2.4,0.6c0,0.3-0.5,0.2-0.6,0.3
		c0.3-0.1,0.6-0.1,1-0.1c0,0,0,0,0,0c0.1,0,0.2,0,0.2-0.1c1.2,0,2.4,0.3,4.1,0.3l-1.5,0.7c2-0.7,5.7,0.7,8.3,1.9
		c-0.3-0.3-0.8-0.5-0.4-0.6c1.6,0.1,2.6,1.1,1.8,1.5c1.7-0.5,5.7,2.1,8,1.3c2.3-0.7,4.6-1.5,6.9-2.3c0.3,0.3,0.5,0.5,0.4,0.7
		c0.7-0.2,0.4-0.5,0-0.8c1.1-0.4,2.1-0.7,3.2-1.1c-0.4,0.1-0.8,0.1-1.2,0.1c-0.1-0.1-0.1-0.1-0.1-0.2c0.7,0,1.5-0.1,2.4-0.3
		c0,0,0,0,0,0c0.2,0,0.4,0.1,0.5,0.1c-0.1,0.4-1.2-0.2-1.2,0.3c0.5,0.1,0.9,0.1,1.4,0.1c-0.9,0.2,1.2,1.1,2.1,1.2
		c2.1-0.3,6,0.7,8.7,1.1c-0.2,0-0.7,0.1-0.5,0.3c3.8,0.6,5.3,1.3,9.6,1.7l1-1.2c0-0.3-0.8-0.2-1.7-0.1c0.2-0.3,0.5-0.6-0.5-0.7
		c-2-0.9-3.3,0.2-4.8-0.2l0.5,0c-1.4-0.6-2.9-0.7-4.3-0.4c-0.9-1.3,4.1,0.5,2.1-0.9c1.5,0.6,3.8,0.2,5.1,0.4c-2-0.6-3.5-2-2.8-2.6
		c-4.4-0.1-0.4,2.4-4.3,2.2l-2.6-0.7l-1.1,1.1c-1.6-0.3,1.2-0.8-1.3-1.2c-0.8,0.5-2.2-0.4-2.8-0.1c0.1-0.2,0.2-0.5-0.8-0.8
		c1.2-0.2,2.4-0.4,3.5-0.6l-0.9,0.5c3.2,0.9,3.1-1.4,5.1-2c-1.8,0.7,1.4,0.4,2.1,0.7c1.6-0.7,2.9-1.7,5-2c0.4,0.5,0.4,1.5,1.7,1.3
		l1-0.7c1.4-0.2,3.2-1,4-0.7l-0.2,0.1c1.2,0,1.5-0.5,1-0.7c1.2,0.2,2.4,0.3,3.6,0.4l-5.6,6.6c-0.1,0.2-0.2,0.3-0.4,0.5
		c3.9,0.4,2.6-2.5,3.6-2.7c0.9,0,1.8-0.5,2.4,0.1l-0.5,0.3c2.5-0.1,1-0.9,3.2-0.6c1.9-0.4-1.5-0.3-0.2-0.8c2.3,0.5,1.9-1.7,5.3-0.5
		c-0.3,0.3,0.1,1.2-2.1,1.1l1.9,0.9c-1.2,0.1-2.4,0.1-3.5-0.1c-1.4,0.9-1.3,1.5-2.6,2.2c1-0.1,1-1,2.4-0.7c1.6,0.4-0.4,0.5-0.6,0.8
		c2.5-0.9,2.2,1.3,4.5,0.5c-0.1-1.2,0.3-1.1-0.9-2c1.5-0.2,3.1,0.8,2.7,1.8l0.5-0.9c0.3,0.3,1.4,0.4,1.4,0.7l0.6-0.4
		c-0.9-0.9-2.2-1.4-3.5-1.2c0.9-0.5-0.6-1.7,1.8-1.6c1,0.1,0,0.5,0,0.8c5.4,0,4.8,2.2,9,2.3c-1.1,0.3-3.4-0.7-5.6-0.3
		c0.9,1,2.6,0.1,3.7,0.4c-1.1,0.3-1.4,0.5-0.3,1.1l0.7-0.5c0.7,0.1,2,0.2,2,0.5c0.1-0.2-0.2-0.4-0.8-0.7c2.8-0.5,5.8-0.2,8.5,0.7
		c-0.6,1.1-4.7-0.2-2.7,1.1c1.3,0,2.8-1,4.8,0.1c-1.2,0.5,0.8,0.9,0.6,1.3c1.2-0.2,2.4-0.5,3.5-0.7c1.4,0.6,3,0.9,4.5,0.9
		c-0.6,0-1.2-0.1-1.8-0.4c2.6-0.8,3.6,1.4,6.3,1.6l-1.4,0.1c1.6,0.7,3.4,1,5.2,0.9l-0.4,0.8c0.4-0.5,1.4-0.6,2.4-0.5
		c1,0.1,2.1,0.3,2.5,0.3c-1.5-0.2-2.9-0.7-4.2-1.5c-1.3-0.8-2.7-1.2-4.2-1.3c2.2-0.7,3.5-0.5,5.9-0.9c0.7,0.3,0.9,0.6,0.8,0.8
		c0.8-0.2,1.3-0.9,2.5-0.8l0.1,0.6c2.9,1.6,3.7-0.8,6.4,0.8c0,1.2-3.2,0.3-5.3,0.3c0.9,1.4-3.2-0.6-2.2,1.3l1.2-0.3
		c0.9,0.3,0.5,0.9-0.1,0.7c1.3,0.2,0.9,0.4,1.6,0c4.6,1.7-1.1,1.1,3,3.4c-0.6,0-1.8-0.5-1.9,0.2l-2.2-1.2l-0.5,0.8
		c2.3,1,4.9,1.1,7.2,0.3c-3.1-0.4,0.2-0.9-1-1.9c0.5-0.1,1.1,0.1,1.3,0.6c0.3-0.1,1.7,0.3,1.8-0.2c-0.2,1.1,1,2.3,2.1,3.5
		c1,1.2,1.7,2.2,0.5,2.8c1.2,1.3,6.4,3.1,9.4,5.2l-1.2-0.1c0.9,1.9,1.8,2.1,2.8,2c1-0.1,1.9-0.6,3,0c-2.1-0.7,0.8,1.8,0.9,2.9
		c0.9,0.3,1.8,0.6,2.7,0.9c1,0.4,1.9,1,2.6,1.9c-0.3,1-1.3,2-0.4,3.3l1.3,0.3c1,1.2,2.7,2.5,2.9,3.7l-0.2-0.1c0.4,0.8,0.8,1.1,1,1
		s0.4-0.6,0.1-1.3c0.5,0.3,0.9,0.7,1.4,1.1l-0.2,0.2c0.8,0.8,1.9,1.4,2.9,2.3c1.2,1,2.2,2.2,3,3.5c-1.2-0.4-0.2,3.3-1.9,0.5
		c0.8,0.6,0.5-0.9,0.8-1.3c-0.4-1.2-1.7-1.6-2.1-2c-0.2,0.6-1.4,1-2.3,0.8c0.7,0.4,1.3,1,1.7,1.6c0.6,0.8,1,1.7,1.5,2.5
		c0.4,0.8,0.9,1.5,1.4,2.2c0.3,0.5,0.9,0.8,1.6,0.7c0.3,0.7,0.5,1.4,0.8,2.2l0.9,2.4c0.2,0.8,0.5,1.7,0.7,2.5
		c0.1,0.4,0.2,0.9,0.3,1.3s0.1,0.9,0.1,1.3c0.1-0.2,0.2-0.5,0.4-0.5l-0.5,3.2c-0.1-0.2-0.2-0.4-0.3-0.6c-0.1,0.7-0.3,1.4-0.5,2.1
		c-0.3,0.3-0.8-0.3-0.9-1.1c-0.2-0.4,0-0.9,0.2-0.5c-1-1.7-0.1,1.7-1.1,0.7c0-0.5-0.1-1-0.3-1.4c0,0.5,0,1,0.1,1.5
		c0.1,0.4,0.2,0.8,0.3,1.1c0.3,0.7,0.2,1.5-0.3,2.1c0.5,0.6,0.9,1.3,1,2.1c0.3,1,0.2,2-0.1,3c-0.5-0.7-0.1,2.2-1,1.3
		c0.2,0.5,0.2,1.1,0.1,1.6c-0.1,0.6-0.2,1.1,0.1,1.3c-0.2-0.3,0-1.2,0.3-1.8c0.2,0.8,0.7,0.9,0.5,2c-0.1,0.1-0.2,0.1-0.3,0.1
		c0.3,1.4,2,0.5,1.6,2.9c-0.5,3.3-1,3-1.4,2s-0.8-2.6-1.1-2.1c0.2,0.1,0.3,0.9,0.2,1.8c-0.1,0.5-0.1,0.9-0.3,1.4
		c-0.1,0.4-0.3,0.8-0.5,1.1l-0.1-0.3c0,0.7,0.1,1.7-0.6,2.2c0.6,0.6,1.1,1.2,1.5,2l-1,2.9l-0.2-0.7c0,0.3-0.1,0.7-0.2,1
		c-0.1,0.3-0.2,0.6-0.3,0.9c-0.7,0.1-0.1-0.7,0-1.6l-0.1,0c-0.6,0.3-0.9,1-0.6,1.7l0.2-0.3c0,0.8-0.4,3.7,0.7,1.7
		c-0.1,0.7-0.4,1.3-0.9,1.8c-0.5,0.3-0.8,0.7-1,1.3c-0.5-0.1-0.1-1.1-0.7-0.7c-0.6,0.7-1,1.6-1.3,2.5c0.6-0.7,0.3,0.4,1.2-0.7
		c-0.1,0.4-0.2,0.8-0.3,1.2c-0.1,0.4-0.3,0.8-0.1,0.8c0.1-0.6,0.4-1.1,0.8-1.4c-0.1,0.4-0.3,0.8-0.5,1.1c-0.2,0.4-0.4,0.7-0.6,1
		c-0.5,0.7-1,1.3-1.6,1.9c-0.1-0.2-0.1-0.3-0.1-0.5c-0.3,1.2-0.8,2.3-1.5,3.3c-0.3,0.5-0.6,1.1-0.8,1.6c-0.2,0.4-0.4,0.9-0.5,1.4
		l0.6-0.4c0.1-0.3,0.3-0.7,0.5-0.9c0.2-0.3,0.4-0.5,0.7-0.7c-0.8,1.5,1.4-0.4,0.7,1.2c-0.6,1-1.4,1.8-2.2,2.6
		c-0.3,0.3-0.7,0.7-0.9,1.1c-0.3,0.3-0.4,0.7-0.5,1.1c0.9-0.8,1.9-1.7,2.8-2.6c0.4-0.4,0.8-0.8,1.1-1.2c0.2-0.3,0.4-0.6,0.5-1
		c-0.3,0.4-0.6,0.8-1,1.2c0.4-1.1,0.7-2.3,1-3.5c0.2,0.1,0.6-0.6,1-1.2c0.4-0.6,0.7-1.2,1.1-1c-0.5,0.9-1,1.8-1.7,2.7
		c0.5-0.3,1-0.8,1.3-1.3c0.5-0.8,1.1-1.7,1.5-2.1l-1.1,1.2c0.3-0.7,0.6-1.4,0.9-2c0.4-0.7,0.7-1.4,1-2.1s0.7-1.4,1-2.1
		c0.2-0.3,0.3-0.7,0.4-1c0.1-0.3,0.2-0.7,0.3-1c-0.3,2.1,1.6-2.2,1.6-0.5c0.1,0.8-1,1.6-0.7,1.3c0.6,0.4,0.8-1.4,1.6-1.8
		c-0.3-0.4,0.6-3-0.6-1.7c0.7-0.7,0.6-2.7,1.6-3.7c-0.5,0.1-0.4-0.5-0.3-1.1c0.2-0.5,0.2-1,0.2-1.6c0.2-0.4,0.4-0.8,0.8-1.2
		c-0.1,1.1,0,2.4-0.2,3.8c-0.3,0.5-0.7,1.5-0.4,1.2l0.3,0.1l-0.2,2.1c-0.1,0.7-0.2,1.4-0.3,2c-0.2,1.3-0.4,2.4-0.6,3.1
		c0-0.3,0-0.5-0.1-0.8c-0.1,1.1-0.5,2.2-1.2,3.2c-0.3,0.5-0.6,1-0.9,1.5c-0.3,0.5-0.5,1-0.7,1.6c-0.1-0.2,0-0.4-0.3-0.1
		c-0.6,0.9-1.1,2-1.4,3.1c-0.3,1-0.9,1.8-1.7,2.5l-0.2-0.5c-0.1,0.2-0.6,1.5,0,1.6c0.6-1.2,1.4-2.4,2.3-3.4
		c-0.3,1.2-0.8,2.3-1.5,3.2l0.6,0.6c-0.2,0.8-0.6,1.5-1.3,1.9c-0.7,0.5-1.1,1.1-1.4,1.9l1.6-1c0,0.1-0.1,0.2-0.1,0.3
		c0.4-0.4,0.7-1,0.9-1.6c0.7-1.5,2.1-2.6,3.7-3.1c1-0.9,0.6,0.9,1.1,1.1c0.4-0.6,0.7-1.3,0.7-2c0-0.7,0.2-1.4,0.6-2
		c0.4-0.4,0.4-0.2,0.4,0.1l0.4-1.4c0.3,0.1,2.2-3,1.7-0.9c-0.2,0.4-0.5,0.8-0.7,1.2c1.1-1.1,2.3-2.8,3.4-4.1
		c1.1-1.3,1.9-2.4,2.4-2.1c0.9-1.5,0.3-1.1,1.6-3.5c-0.2-1.3-1.3-0.3-0.7-3l-1.1,2c0,0.4-0.1,0.9-0.1,1.3c0.3-0.7,0.5-1.4,0.8-2.2
		c-0.2,1.4,0.2,1.3,0.6,1.8c-0.5,1.2-1.2,2.4-2.1,3.4c-0.7,0.7-1.3,1.3-1.9,2c0.1-1.1,1-2.8,0-2.4c1.4-1.4,0.2-1.9,1.6-3.6l0.1,0.4
		c0-1.7,0.8-1.7,0.8-3.1c0.1,0.1,0.3,0,0.4-0.2c0.7-2.8-0.7,0.7-0.5-2.2c0.9-2.4,1.5-0.6,2.1-1.2c-0.1,2.2,0.2,2.2,0.5,2.3
		s0.5,0.2,0.1,2.6c0.5,0.1,1-0.3,1.4-1c0.3-0.4,0.5-0.9,0.6-1.4c0.2-0.5,0.3-1.1,0.5-1.8c-0.9,1.6-1.2-1.3-2.6,0.7
		c0.6-3.8-1.5-3.7,0.4-7.6l0.1,0.1l-0.4-1.7c0.3-0.7,0.5-1.5,0.8-2.3c0.4,0.7,0.6,1.5,0.4,2.3c-0.2,0.7-0.2,1.4,0,2.1
		c1.8-2.8-0.4-3.8,0.2-7c0.8-1.4,1-0.6,0.9,0.6c0,1.2-0.1,2.7,0.4,2.7c-0.2-0.7,0.7-2.5,0.9-2.3c-0.3,0.8-0.4,1.7-0.3,2.6
		c0.1,1-0.1,2-0.6,2.8c0-1.7-0.4,0.2-0.8-0.1c0.3,0.5-0.2,3.8-1.2,6c0.6,0.6,1.3-1.9,2-3.3c0-1.4,0.3-2.8,0.8-4.1
		c0.5-1.2,0.6-2.4,0.4-3.7c0.3-3,0.8-0.3,0.9-0.4C248.5,207.2,248.3,206.9,248.1,206.9z M185.9,122.8c-0.2,0-0.5,0-0.7-0.1
		C185.4,122.7,185.6,122.8,185.9,122.8z M185.7,119.2c1.8,0.3,3.5,0.9,5.1,1.8l-0.9,0.4c-1.5-1.2-2.8-1.2-4.5-1.8
		c1.3,0.6,2.5,1.2,3.7,1.7c1,0.8,0.9,0.9,0.2,0.8l-0.8-0.6c0.1,0,0.1,0,0.2,0c-0.4-0.1-0.7-0.1-1.1,0c-1,0.1-2-0.5-2.3-1.5
		C184.9,119.7,185.4,119.5,185.7,119.2L185.7,119.2z M52.5,128.9c-0.5-0.1-0.9-0.4-1.3-0.8L52.5,128.9z M125.5,137.9L125.5,137.9
		c-0.5,0-0.9-0.1-1.3-0.4L125.5,137.9z M185.4,130.2c-0.1,0-0.1,0.1-0.1,0.1c1-0.2,1.9,0,2.8,0.4c0,0.2,0,0.3-0.2,0.5
		c-0.5-0.2-1-0.5-1.6-0.7c-0.5-0.2-0.8,0.1-1,0.5c-0.2,0-0.4,0.1-0.5,0.3c0.1,0.1,0.2,0.1,0.4,0.1c0,0.1,0,0.1,0,0.2
		c-0.5-0.5-1.2-0.8-1.8-1.1C183.9,130.2,184.6,130.1,185.4,130.2z M121.1,128.4l-0.1,0L121.1,128.4
		C121.1,128.3,121.1,128.3,121.1,128.4z M121,128.2c-0.1,0-0.1,0.1-0.2,0.1l-1.3-0.4l0.6-0.2l-0.4-0.1c0.4-1,2.3-1.5,4.4-1.3
		l-1.8,0.4c-0.1,0.4,0.7,0.4,1.3,0.4C122.5,127.4,120.8,127.4,121,128.2L121,128.2z M120,128.5L120,128.5
		C120.1,128.5,120,128.5,120,128.5L120,128.5z M96.4,132.3c0.3-0.2,0.6-0.2,0.9-0.1C97,132.2,96.7,132.3,96.4,132.3
		C96.4,132.3,96.4,132.3,96.4,132.3z M101.2,133.9c0.3-0.1,0.6-0.3,0.7-0.6c0.4,0.1,0.7,0.3,0.9,0.6
		C102.3,134,101.7,134,101.2,133.9L101.2,133.9z M87.4,133.9c1.1-0.3,2.2-0.5,3.3-0.6c-1.2,0.2-2.4,0.1-3.5-0.3
		c-1.1-0.3-2.2-0.4-3.4-0.3c0.7-0.3,1.5-0.6,2.3-0.8c0.7,0.1,1.5,0,2.1-0.3c0.9,0.2,1.8,0.4,2.7,0.4c-0.6,0.1-1.1,0.2-0.6,0.8
		l0.8-0.4c0.7,0,0.6,0.5,0.1,0.5c1-0.1,0.8,0,1.2-0.3c1.1,0,1.5,0.1,1.6,0.2C91.9,133.1,89.8,133.6,87.4,133.9L87.4,133.9z
		 M53.3,119.8c-0.2-0.1-0.4-0.2-0.6-0.4c0.2,0.1,0.5,0.3,0.7,0.4L53.3,119.8L53.3,119.8z M42.6,115.5l2.2,1.3l0.1,0L45,117l0,0
		c-0.5-0.1-1.1-0.1-1.7-0.2l-0.3-0.3c0.1-0.1-0.1-0.4-1.1-1.2c0.2,0.2,0.2,0,0.4,0.1c-0.1-0.2-0.2-0.3-0.3-0.5
		c0.3,0.1,0.6,0.1,0.9,0.1l0.2,0.2c-0.1,0-0.1,0-0.2,0c0.1,0.1,0.3,0.1,0.4,0.2l0.7,0.6C43.5,115.9,43.1,115.7,42.6,115.5z
		 M40.1,116.7l0.6,0.1c0,0,0,0-0.1,0c0.7,0.3,1.1,0,2.2,0.6c-0.2-0.1-0.5-0.1-0.7,0l1.5,1C42.5,117.8,41.3,117.3,40.1,116.7z
		 M42.9,116.5c0.1,0.1,0.2,0.2,0.4,0.3c-0.4,0-0.7-0.1-1.1-0.1C42.3,116.5,42.7,116.6,42.9,116.5L42.9,116.5z M36.3,110.9l-0.4-0.4
		c0.1,0.1,0.2,0.1,0.4,0.2C36.3,110.8,36.3,110.8,36.3,110.9L36.3,110.9z M34.2,99.3c-0.5-0.2-1-0.6-1.2-1.2
		C33.4,98.6,33.8,99,34.2,99.3L34.2,99.3z M62.3,124.7c0-0.2-0.1-0.4-0.4-0.6c0.1,0,0.3-0.1,0.4-0.2l1.2,0.5
		c0.3,0.2,0.6,0.3,0.4,0.5c-0.1,0.1-0.2,0.2-0.3,0.3C63.1,125,62.7,124.9,62.3,124.7L62.3,124.7z M64.5,118.5
		c1.1-0.2,2.3,0.1,3.2,0.8c-0.7-0.1-1.3-0.2-1.2-0.5c-0.5,0-1.8-0.2-0.7,0.5l-2.3-0.4c0.1-0.1,0.2-0.2,0.2-0.4L64.5,118.5z
		 M78.8,127.7c0.9-0.1,2.2,0.2,2.8,0.2c0.5,0.1,1,0.4,1.3,0.9c-0.8-0.1-1.4,0-1.5,0.5c-0.8,0-1.5-0.4-1.9-1
		c-0.2,0.1-0.5,0.1-0.8,0.1C78.7,128.2,78.9,128,78.8,127.7L78.8,127.7z M88.9,124.6c-0.2-0.1-0.4-0.2-0.6-0.3
		c0.2-0.1,0.5-0.2,0.7-0.2C88.9,124.3,88.9,124.5,88.9,124.6L88.9,124.6z M89.3,129.1l-1.5,0.1c0.4,0.6,1.5,0.2,2.3,0.3
		c0.7,0.4-1.9,0.4-3.1,1.1c0,0-0.1,0-0.1,0c-0.9-0.6,1.7-0.3,0.8-0.6c-1-0.1-2-0.3-2.9-0.6c0.1,0,0.2-0.1,0.3-0.1
		c-0.1,0-0.3,0.1-0.4,0.1l-0.3-0.1c-0.2-0.3,0.5-1.1-1.1-0.7c-0.3-0.9,1.7-0.4,2.6,0.1c-0.5,0.1-0.2,0.4-0.4,0.6
		c1.6-0.1,1-0.8,0.1-1.2c0.6-0.1,1.2-0.2,1.8-0.3l-0.2,0l1.8-0.1l0,0c0,0.7-0.1,1.1-0.5,0.9L89.3,129.1z M80.9,130.4
		c-2.4-0.3-1.1-1.4-3.3-1.4l0.6,0.6c-1.2,0-2.5-0.2-3.7-0.5c0.1,0,0.3-0.1,0.4-0.2c0,0,0.1,0,0.1,0l0,0c0.2-0.2,0.5-0.5,1.9-0.1
		l-0.7-0.3c2,0.1,5.1,1.2,7.3,1.7c0,0-0.1,0.1,0,0.2C82.6,130.3,81.7,130.3,80.9,130.4z M73.4,127c0.3,0,0.5,0.1,0.8,0.1
		c-0.1,0-0.1,0.1-0.1,0.2C73.9,127.2,73.6,127.1,73.4,127z M78.1,128.4c-0.8-0.1-1.6-0.2-2.3-0.5c-0.1-0.1-0.2-0.1-0.3-0.1l-0.2-0.1
		l0.9-0.2c0-0.1-0.1-0.2-0.1-0.2l0.9,0.1c0.3,0.3,0.9,0.3,1.3,0.9C78.3,128.3,78.2,128.4,78.1,128.4L78.1,128.4z M68.7,126.2
		c-1.1-0.1-2.2-0.5-3.2-1H66c5.7,1.5,3.7-0.2,0.9-2.5l2.8,0.9c0.9,0.3,1.9,0.6,2.8,0.9l-0.1-0.4c0.6,0.3,1.3-0.1,1.4,0.4
		C72.2,125.3,70.5,125.8,68.7,126.2L68.7,126.2z M73.9,128.6l-0.1,0.3c-0.1,0-0.2,0-0.2-0.1C73.5,128.6,73.7,128.6,73.9,128.6
		L73.9,128.6z M90.7,130.8c-0.1,0-0.2-0.1-0.3-0.1c0.1,0,0.1,0,0.2-0.1L90.7,130.8z M42.1,106.1c0.1,0,0.2,0,0.3-0.1l0.9,1.7
		c0.6-0.6,1.5-0.6,2.2-0.2c0.5,1.3,0.6,1,0.9,0.7c0.1,0.1,0.2,0.2,0.3,0.4c0.4,0,0.2-0.3-0.1-0.5c0.1,0,0.1,0,0.2,0
		c0.1,0,0.2,0,0.2,0c0.4,0.2,0.8,0.4,1.1,0.8c-0.6,0.1-1.2,0.2-1.7,0.3c-1.2-0.6-2.8-0.5-3.8-1.8C42.8,107,42.2,106.4,42.1,106.1z
		 M47.2,110.6c-0.4-0.4,0-0.5,0.2-0.6c0.2,0,0.4,0.1,0.6,0.2c0,0.2-0.3,0.4-0.7,0.4C47.3,110.7,47.3,110.6,47.2,110.6L47.2,110.6z
		 M36,110.8c-0.2,0-0.4,0-0.5-0.1c-0.2-0.2-0.3-0.4-0.5-0.7C35.2,110.3,35.6,110.6,36,110.8L36,110.8z M53.7,113.5
		c0,0,0-0.1,0.1-0.1c0.3,0.1,0.6,0.3,0.8,0.4c0,0,0,0,0,0.1c0,0,0,0,0,0c0.1,0.1,0.3,0.1,0.4,0.2c-0.4,0.2-0.9,0.1-1.2,0.2
		C53.5,113.9,53.2,113.7,53.7,113.5L53.7,113.5z M92.2,131.4c-0.5-0.2-1-0.3-1.5-0.2c0.2,0,0.2-0.1,0.3-0.1c2.1,0.3,2.4-1.3,4.6-1
		C96,130.8,93.8,131,92.2,131.4L92.2,131.4z M94.1,125.3l-0.3,0c0,0,0,0-0.1-0.1c0.1,0,0.2,0,0.3-0.1c-0.7-1,1.1-0.5,0.7-1.2
		c0.2,0,0.3-0.1,0.5-0.1c0.2,0.1,0.4,0.2,0.6,0.4C95,124.6,94,124.9,94.1,125.3L94.1,125.3z M124.1,127.7c-0.1,0.1-0.3,0.2-0.4,0.3
		c-0.1,0-0.1,0.1-0.2,0.1C123.2,127.8,123.5,127.7,124.1,127.7L124.1,127.7z M122.1,125.5l3.1,0.6l-1.1,0.3
		c-0.4-0.1-1.4-0.3-2.7-0.6L122.1,125.5z M126.5,126.4C126.5,126.4,126.5,126.4,126.5,126.4l1.4,0.2
		C126.7,126.8,127.6,126.5,126.5,126.4L126.5,126.4z M155.2,122.9c0.3-0.2,0.7-0.2,1.1-0.2c-0.1,0.2-0.1,0.4-0.2,0.6
		c-0.2-0.1-0.5-0.1-0.7-0.2l0.1-0.1C155.3,123,155.2,122.9,155.2,122.9L155.2,122.9z M150.4,123c0.1,0,0.1,0,0.2,0.1L150.4,123
		C150.4,123.1,150.4,123,150.4,123L150.4,123z M151.6,122.3c-0.7,0.1-2.4,0.1-1.4,0.6c-0.1,0.1-0.2,0.1-0.3,0.2l-1.1,0l0-0.3
		c-0.5,0-1-0.1-1.5,0c0-0.4-0.1-0.7-0.3-1c1.4-0.2,1.7-0.3,3.1-0.6l-0.5,0.4c0.2,0.4,1.6-0.2,2.9-0.4c0.3-0.2,0.5-0.3,0.9-0.4
		c0.3,0,0.6,0.1,0.8,0.1l-0.2,0.3c0.2,0.3,1.4,0.2,2.9,0.1c-0.2,0.1-0.4,0.3-0.6,0.4c-0.4,0.3-0.9,0.5-1.4,0.6
		c0.4-0.1,0.7-0.1,1.1,0.1c-0.4,0.2-0.7,0.4-1.1,0.6C153.4,122.8,151.5,123,151.6,122.3L151.6,122.3z M135.1,128.4
		c-0.1-0.1-0.1-0.3-0.1-0.4l0.6,0.1C135.4,128.2,135.2,128.3,135.1,128.4L135.1,128.4z M181.9,125c0.5,0,1,0.1,1.5,0.2
		c0,0,0.1,0.1,0.3,0.2c-0.4,0-0.7,0-1.1,0.1C182.2,125.4,181.8,125.3,181.9,125z M184.6,126.5c0.6,0,0.5-0.2,0.3-0.4h0
		c0.3,0.2,0.5,0.5,0.8,0.7C185.4,126.9,184.9,126.8,184.6,126.5L184.6,126.5z M184.7,124.8c0.6,0.4-0.3,0.4-0.8,0.4
		c-0.8-0.3-1.7-0.5-2.6-0.7l0.9,0.4c-1.6,0-3.2-0.1-4.8-0.3c-0.3-0.1-0.6-0.1-0.8-0.2c0-0.3-1.8-0.5-0.8-0.8c0.6-0.3,1.1,0.3,1,0.2
		c0.3-0.5-1-0.3-1.3-0.7c-0.3,0.3-1.9,0.3-1.4,0.7c-0.3-0.1-0.6-0.2-0.9-0.3c0-0.9,4-0.1,3.3-0.9c1.2,0.4,2.4,0.9,3.6,1.4
		c-0.4-0.1-0.8,0-1.2,0.1C181.7,124.1,182.3,125.2,184.7,124.8L184.7,124.8z M130.3,119.4c-0.1-0.4,0.5-0.5,1.3-0.3
		c-0.2,0.1-0.4,0.2-0.6,0.3l0.8-0.1c0,0-0.1,0.1,0,0.1c0,0,0.1-0.1,0.1-0.1l1.4-0.1l-0.1,0.6c-0.9,0.6-1.1,0.2-2,0.4l0,0.2
		C130.4,120.1,129.5,120,130.3,119.4L130.3,119.4z M30.8,104.9c0.1,0,0.2,0.1,0.3,0.2C31,105,30.9,105,30.8,104.9z M32.4,106.4
		c-0.2-0.2-0.4-0.4-0.6-0.7c0.1-0.7,0.9,0.5,0.8-0.6c0.6,0.7,0.6,1.7,0.1,2.4c0.7,0,1.1,0.7,1.5,1.5c-0.3-0.4-0.6-0.8-0.8-1.1
		l-1.4,0.4C28.6,103.4,33.7,108.9,32.4,106.4z M34.9,111.9c-0.8-1.1-1.8-2.4-2.3-3.3c1,0.4,2,1.1,2.7,1.9c-0.6-0.3-1.3-0.8-1.1-0.1
		c0.5,0.2,1,0.3,1.5,0.5l0.2,0.2l-0.1-0.2l0.7,0.2c0,0.1-0.1,0.3-0.2,0.3c0.6,0.7,1.3,1.3,2,1.9c-0.2,0-0.3-0.1-0.5-0.2
		c0.5,0.4,1,0.7,1.6,0.9c0.1,0,0.2,0,0.3,0.1c0.6,0.8,1.7,1.5,2.4,2.4c-0.5-0.1-1.1-0.2-1.6-0.2c0.1-0.1,0.1-0.2,0-0.3c0,0,0,0,0,0
		l-0.3,0.1c0.1,0.1,0.1,0.1,0.2,0.2c-0.1,0-0.2,0-0.3,0c0.1,0.1,0.2,0.1,0.2,0.2c-0.1,0-0.2,0.1-0.3,0.1c-1.3-0.7-2.5-1.5-3.7-2.3
		C36.3,114,35.7,113,34.9,111.9z M35.6,118c0-0.5,0.4-0.4,0.8-0.2c0.1,0.1,0.2,0.2,0.3,0.3C36.6,118.3,36.4,118.7,35.6,118L35.6,118
		z M37.6,119.2c0.1,0.1,0.2,0.3,0.4,0.4c-0.2-0.1-0.3-0.2-0.5-0.2C37.5,119.3,37.6,119.2,37.6,119.2L37.6,119.2z M51.4,124.2
		c-0.6-0.1-1.2-0.4-1.6-0.9c1,0.3,1.8-0.4,0.1-1.9c-0.9-0.5-1.7-1-2.5-1.4c-0.2-0.3-0.2-0.4,0.4-0.2c-0.6-0.7-1.5-1.1-2.5-1.1
		l0.7-0.1c-1.7-0.4-2-2-0.9-1.7l0,0l0.6,0.1l-0.2-0.1l0.4,0c-0.1-0.1-0.3-0.1-0.4-0.2c0.6-0.5,1.8-0.3,3,0.4
		c-0.1-0.1-0.7-0.5-1.6-1.2l0.5,0l2,1.4l1.9,1.2c-0.6-0.1-1.1-0.3-1.7-0.6c1,1.4,3.8,1.4,4,2.6c-2.6-0.2-3.4-1.1-5.7-2
		c0,0,0.1,0,0.1-0.1l-0.3-0.3c-0.2-0.8,1.8,0.6,2.1,0.3c-0.4-0.3-0.8-0.6-1.2-0.9c-0.1,0.4-1.5-0.4-2.2-0.3l-0.2-0.1
		c0,0,0,0.1,0,0.1c-0.1,0.1-0.2,0.3-0.1,0.4c2.4,1.8,5.1,3.3,7.9,4.5C53.1,123,52.2,123.6,51.4,124.2L51.4,124.2z M55,121.4
		c-0.2-0.2-0.2-0.5-0.2-0.7l0.7,0.4L55,121.4z M75.6,133c0.5-0.1,0.9-0.2,1.4-0.3c0.4,0.1,0.9,0.2,1.3,0.3
		C77.4,133.3,76.5,133.3,75.6,133L75.6,133z M85.7,134c0,0,0-0.1,0-0.1c0.5,0,1-0.1,1.5-0.2l-0.1,0.2C86.6,133.9,86.1,134,85.7,134
		L85.7,134z M98.1,132.1c0.4-0.1,0.8-0.2,0.7-0.4c0,0.1,0.1,0.3,0.2,0.4C98.7,132.1,98.4,132.1,98.1,132.1L98.1,132.1z M104.5,134
		c-1.5-0.6,1.5-1,1.5-1.2l-2,0.3c0.9-0.5,0.1-0.8,1.4-1.2c-1.2,0.3-1.3-0.3-2.5,0.1c1.5-1-1.5-0.7-1.5-1.2c1.2-0.1,2.3,0.1,3.4,0.6
		c0.7-0.1,1.5-0.1,2.2,0l1.1-0.9c-1,0.1-2.5,0.5-2-0.2l-1.5,0.4c0.9-0.7,1.9-1.3,3-1.7c-2.5-0.7-5,1.2-7.1,0.5l0.4-0.1
		c-4.5,0.3-5.2-0.9-5.8-2.3l1.9-0.2l0,0.6c1.7,0,3.5-0.2,5.1-0.7c0.3,0,0.7,0,1,0c-0.7,0.5-3.9,0.2-2.7,1l4.1-1.1l-1.2-0.1
		c0.7-0.1,1.4-0.2,2.1-0.1l0,0c-0.5,0.5-1.6,0.3-1.5,0.5c0.6,0,1.2-0.2,1.7-0.5c0.4,0.1,0.8,0.3,1.2,0.5c0,0-0.1,0-0.1,0
		c0,0,0.1,0,0.1,0c0.4,0.3,0.8,0.5,1.3,0.7c0.2,0.4-0.6,0.4-1.3,0.4c1,0.1,2,0.1,3-0.1c0,0,0,0.1,0,0.1c0.3-0.1,0.6-0.2,0.9-0.3
		l-0.1,0c1.6-0.2,3.2-0.5,4.7-0.9l0.5,0.1c-0.1,0.1-0.2,0.1-0.3,0.1c0.2,0,0.4,0,0.6,0l0.4,0.1l-1.3,0.2c0.4,0,0.8,0.1,1.1,0.3
		c-0.8,0-1.7,0-2.7,0.1l2.5,0.3l0.7-0.3c0,0,0,0,0.1,0c0.3,0,0.7-0.1,1-0.3l0,0l1.3,0.3c0.2,0.2,0.4,0.3,0.6,0.4l-1.4,0.3
		c-0.8,0.6,1.3-0.1,1.4,0.2l-1.2,0.6c-0.3,0.1-0.8,0.2-1.3,0.3l0.1-0.1c-1.7,0.4-2.5-1.1-1.4-1.3l-0.1,0l-3.1,1.1
		c-0.2,0-0.4,0-0.5,0c0.1,0,0.2,0.1,0.3,0.1l-0.1,0.1c-0.5,0-0.7,0.1-0.7,0.3l-0.6,0.2c0.2,0,0.3,0.1,0.5,0.1c0,0,0,0.1,0,0.1
		l-0.4,0.1c-1-0.3,0.2-0.6-0.7-0.8c-0.8,0-1.6,0-2.5-0.1c0.7,0.1,1.4,0.2,2.1,0.2l-0.7,0.7l0.2-0.1c0.2,0,0.4,0,0.5,0
		c-0.1,0.2-0.3,0.4-0.5,0.5c-0.3-0.1-0.7,0-1,0.1c-0.1,0.5-1.1,0.5-1.2,1.2c-0.5,0-1,0-1.4,0c-1,1,1.7,0,2.1,0.4
		c0.6,0.7-1.1,0.4-0.7,0.8c-0.6,0-0.8,0.3-0.9,0.6C105.8,133.8,105.2,133.9,104.5,134L104.5,134z M107.1,134.4c0,0,0-0.1,0-0.2
		c0.3-0.1,0.7-0.1,1-0.2C108,134.3,107.9,134.6,107.1,134.4L107.1,134.4z M108.5,133.3c-0.3-0.1-0.7-0.1-1.1-0.1
		c1.1-0.2,1.2-0.6,1.8-0.8c0.7-0.1,1,0.1,0.9,0.4C109.5,132.6,108.9,132.8,108.5,133.3L108.5,133.3z M109.7,130.8l1.1-0.4
		c-0.1,0-0.2-0.1-0.2-0.1c0.3,0,0.6,0,0.9,0.2c0,0,0,0.1-0.1,0.1C110.9,130.8,110.3,130.9,109.7,130.8L109.7,130.8z M120.1,129
		c-0.1-0.2,0.1-0.4,0.3-0.5c0.4,0.1,0.7,0.1,0.7-0.2c0.6,0.1,1.3,0.2,1.9,0.4c-0.4,0.4-1,0.5-1.5,0.5c0-0.1,0.1-0.2,0.3-0.2
		C121,129.2,120.9,129,120.1,129L120.1,129z M130.1,129.9L130.1,129.9l0.2,0C130.2,129.9,130.2,129.9,130.1,129.9L130.1,129.9z
		 M149.3,131c-0.4,1-2.7,0.7-3.6,1.5l0,0c-0.6,0.2-3.3-0.1-2.5-0.8c1.8,0.6,2.2-1.7,3.6-0.2c0.4-0.6,0.1-0.9-0.6-1.1
		c0.2-0.1,0.4-0.2,0.5-0.4l1.9,0.3C149,130.6,149.5,130.8,149.3,131L149.3,131z M156.4,132c-1.6-0.1-3.2-0.4-4.7-0.9l0.6-0.1
		c4.2,0.7,5.5,0.5,5.2-0.2c-0.3-0.7-2-1.8-4.2-3.2c0.1,0,0.2,0,0.2,0c0.3,0.1,0.5,0.1,0.8,0.2c0.1,0,0.1,0.1,0.2,0.1
		c0,0,0.1,0,0.1-0.1c2.3,0.5,4.6,1.1,7,1.6l-0.2-0.5c0.9,0.3,1.8-0.1,2.1,0.5C161.2,130.5,158.8,131.3,156.4,132L156.4,132z
		 M164.2,132.9c-0.4,0.3-0.2,0.9-1.7,0.3c0.2-0.2,0.1-0.4,0-0.5L164.2,132.9z M181.3,139.5c-1.1,0.2-2.9-0.9-2.8-1.3
		c-0.4,0.5-1.2,0.4-2.2,0.2c-1-0.3-2-0.4-3-0.3c-3.1-0.8-1.4-2.1-4.4-2.3l0.8,0.9c-2.2-0.2-4.3-0.6-6.3-1.3c0-0.9,1.2,0.4,2,0.1
		l-1-1.2c0.6,0.1,2.1-0.4,1.7,0.4c0.2-0.4,1.4-0.9-0.5-0.9l1.6-0.3c0-0.1-0.1-0.2-0.2-0.3l1.2,0.1c0.4,0.4,1.3,0.5,1.9,1.4
		c0,0.3-0.9,0.2-1.4,0.2c0.9,0.5,1.9,0.8,2.9,0.7c-1.8-0.6-0.7-0.8-0.8-1.6c1.3,0,3.1,0.6,3.8,0.6c1.5,0.7,2.4,1.8,1.1,2.2
		c1.1-0.1,2,0.6,3.4,0.1c-2.3,0.2,0.7-1.8-2.3-1.4c-0.3-1.4,2.4-0.1,3.5,0.7c-0.8,0-0.4,0.5-0.7,0.8c2.1,0.2,1.6-0.9,0.3-1.6
		c0.8,0,1.7,0,2.5,0.1l-0.2-0.1l2.4,0.5l0,0c-0.1,1-0.3,1.6-0.9,1.2l0.9,1l-1.9-0.4c0.4,1,2,0.8,2.9,1.1
		C186.5,139.7,183,138.7,181.3,139.5L181.3,139.5z M228.7,168.5c0.9,1.3,0.9,1.1,0.9,0.2c-1.4-0.9-2.8-3.4-3.7-2.5
		c-1.3-1.7-0.2-0.7-0.8-2.2c0.2-0.4,0.7-0.2,1.3,0l-2.2-2.3c-0.7-0.7-1.6-1.4-2.3-2.1c-0.9,0.5,2.1,3.6-0.2,2.8
		c-0.6-0.2-1.6,0.9-2.7-0.9c0.1-0.1,0.3-0.1,0.5,0.1c-0.8-0.6-0.6-0.9-1.3-1.8c0.4-0.9,1.4,0.4,2.4,0.4c-0.7-0.3-1.3-0.7-1.9-1.2
		l0.4-0.1l-1.8-1.4c-1.2-0.1,1.2,1.2,0.9,1.7l-1.4-0.6c-1.3-1-4.8-3.5-5.1-5.4c-1.2-1.5-1.2-0.2-2,0c-1.4,0-1.7-1.4-2.8-1.8
		c-0.4,0.6-1.5-0.2-2,0.6l-1.4-1.1c-1.6,0.6,1.7,1.3,1.7,2.1c0.1,1.5-1.3-0.4-1.2,0.5c1.2,0.6,1.6,0.2,2.3,0.4
		c0.7,0.4,0.9,0.9,0.6,1.2c-1.5-1.6-1.6,0.1-2.9-1l0.1-0.3c-0.6,0.7-2.4-1-3.4-1.2c-1.1-1.8,2.1-0.3,2.2-0.6c-0.7-0.3-1.4-0.7-2.2-1
		c1.2,0,0.7-1,2.2-0.8c-1.4-0.5-1.1-1.3-2.7-1.5c2.2-0.4-1.2-1.8-0.9-2.6c1.6,0.5,3.4,2.9,3.3,3.1c0.9,0.3,1.6,0.9,2.2,1.6l1.7-0.4
		c-1.1-0.7-2.9-1.2-1.9-1.8c-0.6-0.2-1.2-0.3-1.9-0.5c1.4-0.4,2.9-0.4,4.3-0.1c-1.1-1.3-2.6-2.1-4.2-2.4c-0.7-0.2-1.5-0.4-2.2-0.7
		c-0.7-0.2-1.3-0.7-1.8-1.2l0.5,0.1c-5.4-2.2-5.9-4.1-6.2-6.3l0,0c0.9,0.2,1.8,0.4,2.5,0.7l-0.2,0.8c1.5,0.7,3,1.2,4.7,1.6
		c0.4,0.3,1.2,0.7,1.5,0.9c-0.2-0.2-0.5-0.5-0.6-0.8c1.9,0.3,3.7,1,5.3,2.1c-0.9,0.4-2.1-0.8-2.1-0.4c2.1,1.4,3-0.6,4.6,1.6
		c-3.2-1.6,1.7,1.5-1.5,0.4c1.1,0.3,2.2,0.8,3.1,1.4c0.9,0.6,1.8,1.3,2.6,2c0.5,0.5,0.9,0.9,1.4,1.4c-0.1-0.1-0.3-0.1-0.5-0.1
		c0.2,0.1,0.3,0.1,0.5,0.2c0.8,0.8,1.7,1.5,2.5,2.3c-0.2-0.9,1.4,0.2,1.6,0.1c0.5,0.6,0,0.8-0.5,0.4c0.8,1.3,0.6,2-0.1,2.4l-1.3-1.1
		l0.1,0c0.5,0.4,0.6,0.2,0.7,0.1l0.5,0l-0.5-0.1c-0.7-0.6-1.1-0.9-1.2-0.5l0.4,0.4c-0.1,0-0.1,0-0.2,0l-0.9-0.7
		c0.6,0.8,0.6,1.6,1.2,2.2c0.3,0.3,0.7,0.6,1.1,0.7c0.6,0.1,0.6,0,0.9-0.3c1.1,0.3,2.4,0.6,4.2,1.1l-0.2,0.1
		c0.8,0.7,1.6,1.5,2.4,2.3l-0.6,0c0.6,0.3,1.3,0.6,1.9,0.9c-0.7,0.6,0.1,0.7-0.5,1.1c-0.2,1,0.6,1.7,1.6,2.5c1.1,0.8,2,1.8,2.6,3
		l-0.6-0.1c0.8,0.3,1.5,1.4,2.1,2.6c0.3,0.6,0.6,1.3,0.9,1.9s0.5,1.3,0.7,1.8l-0.2,0c-1-1-1.5-0.9-1.6-0.2c-0.4-0.4-0.8-0.8-1.3-1.1
		C229.5,170.7,228.1,169.2,228.7,168.5L228.7,168.5z M240.6,196l-0.5-0.1c-0.2,0.5-0.3,1-0.3,1.5c0,0.7,0.1,1.7,0.1,2.7
		c-0.1-0.2-0.3-0.5-0.5-0.7c-0.4-0.5-0.7-1-0.9-1.6c0.1,0.5,0.1,1-0.1,1.5c-0.7-1-1.4-2-2-2.9c-0.1,1.7,1.6,1.6,1.4,3.7
		c-1,0.1-1.5,0.3-2.4-1.7c0-1.9,0.6,0,0.9-1.1c-0.7-0.6-0.5-1.1-0.3-1.6l0,0c0.3-0.6,0.1-1.3-0.5-1.6c0,0,0,0,0,0
		c-0.4-1.7,0.4-1.4,0.7-2.1c0.4,1.8,0.9-1.2,1.5,1c0.3-2.1-1.2-1-1.2-2.7l1-0.6c0-1.1-0.1-2.1-0.3-3.2c-0.2-1.1-0.7-2.2-1.3-3.2
		c-0.1,1.9-0.9-0.6-1.5,0c1-0.2,1,2.3,0.6,2.4c-0.3-0.6-0.7-1.6-1.1-2.6c-0.4-0.7-0.6-1.4-0.8-2.2l0.3,2.5c-0.8-0.5-2.8-2.8-3-2.8
		c0-1.1-0.7-2.2-0.4-3l1.4,1.1l-0.3,0.9c0.4,0.2,0.8,0.3,1.2,0.5c-0.2-1.2-0.7-3.6-0.3-4.5c1.1,2.5,3.4,5.8,6.7,10.1
		c-0.1,0-0.3-0.1-0.3-0.2c0.7,2.6,0.8,2.8,1.4,4.9c-0.2-0.2-0.4-0.3-0.6-0.5c-0.5,0.6,0.4,2.1,0.8,3.8
		C240.7,194.3,240.9,195.2,240.6,196L240.6,196z"/>
	<path class="st0" d="M178.5,138.2c0,0,0.1-0.1,0.1-0.1C178.5,138.1,178.5,138.1,178.5,138.2z"/>
	<path class="st0" d="M106.6,128.2c-0.1,0-0.3,0-0.4,0C106.3,128.1,106.4,128.2,106.6,128.2z"/>
	<path class="st0" d="M205.1,136.4l-1.2-0.1c1.1,0.7,2.4,1,3.7,1c-0.2,0.1-0.1,0.3,0.1,0.6c1.7,0.7,3.1,0.4,2.6-0.6l-0.7,0l-0.6-1.3
		c-0.7,0.6-1.7,0.2-2.8-0.3c-1.1-0.6-2.3-1-3.5-1.3c1.6,0,3.5-0.8,4.6,0.9l0.3-0.8c1.5,0.7,2.1,2,3.3,1.7l-1.7-0.7l0.3-0.4
		c-1.2-0.6-3-0.8-3.8-1.7c-1.7,0.2-3.5-0.1-5-1l0.2-0.1c-2.5,0.5-4.4-2.9-6.1-2.8c-1.5,1.1,2.6,1.7,3.1,2.6
		c-1.4,0.1-2.1-1.1-1.6,0.1c-2.9-0.4-0.9-1.8-3.5-1.7l1,0.8c-1.3,0.3-2.7-0.7-3.9-0.4c-0.6,0.9,1.6,0.6,3.3,1.5l-1.2,0.4
		c1.3,0.2,2.6,0.4,4,0.6c1.7-0.7,0.7-1.2,3.4-1.1c0.5,0.8,0.6,1.7,0.4,2.6C200.7,134.5,202.9,135.3,205.1,136.4z"/>
	<path class="st0" d="M226.2,243c-0.2,0.6-1.1,1.7-0.5,1.8C225.2,244.4,227.3,242.8,226.2,243z"/>
	<path class="st0" d="M224.5,244.6l-0.1,0.2C224.5,244.7,224.5,244.6,224.5,244.6z"/>
	<path class="st0" d="M225.4,243.3l-0.9,0.7c0,0.2,0.2,0.3,0,0.6L225.4,243.3z"/>
	<path class="st0" d="M216.2,246.4c0.9-0.2,1.8-0.7,2.5-1.5c0.8-0.8,1.4-1.6,1-2c-0.1,0.9-0.6,1.8-1.3,2.3c-1.4-0.8,1.2-1.7,0.5-3.2
		c-0.6,0.6-1.1,1.4-1.4,2.2C217.1,245.1,216.7,245.8,216.2,246.4z"/>
	<path class="st0" d="M219.3,240.4l-0.1,0l-0.5,1.2l0.1,0L219.3,240.4z"/>
	<path class="st0" d="M247.3,214.1c0.5-0.1,0.2-1.1,0.1-1.7C247.2,213,247.2,213.6,247.3,214.1z"/>
	<path class="st0" d="M243.6,178c0.4,0.6,0.7,1.2,1,1.9c-0.2-1.6-1-3.1-2.1-4.3c-0.5-0.5-0.9-1-1.2-1.6c-0.4-0.6-0.7-1.4-0.9-2.1
		l-0.2,1.6c0.9,1.2,1.6,2.1,2.4,3C242.9,177,243.3,177.5,243.6,178z"/>
	<path class="st0" d="M241.6,171.8c1.2,1.8,1.3,0.4,2,2.3l0.4-1.3C243.5,173.6,242,171.1,241.6,171.8z"/>
	<path class="st0" d="M232,193.1c-0.2-0.2-0.4-0.4-0.6-0.6c0.1,0.2,0.2,0.4,0.3,0.6L232,193.1z"/>
	<path class="st0" d="M236.3,161.4l0.4,0.2l-0.7-1.4L236.3,161.4z"/>
	<path class="st0" d="M229.7,192.8c0.1,0.4,0.1,0.8,0.1,1.1l0.5,0.4C230.1,193.9,230,193.3,229.7,192.8z"/>
	<path class="st0" d="M233.4,178.6l0.7,0.9C233.9,179.3,233.7,177.8,233.4,178.6z"/>
	<path class="st0" d="M229.3,153.1l1.3,0.9l0-0.2l-1.3-0.9L229.3,153.1z"/>
	<path class="st0" d="M221.1,157.7c0.4,0.4,0.6,1.1,1.1,1.2C222,158.4,221.6,157.9,221.1,157.7z"/>
	<path class="st0" d="M204.9,131.6c-2.2-1.1-2.5-1.5-5.1-2.6c1.9,1.2,2.3,1.6,2,2C203.6,132.1,203.7,131.1,204.9,131.6z"/>
	<path class="st0" d="M197,127.4c0.4,0.2,0.8,0.4,1.2,0.8C198.5,127.7,196.6,127.2,197,127.4z"/>
	<path class="st0" d="M195.8,148.5c-2.6-2.2-0.2,0.9-2.3-0.3c1.2,0.9,1.4,1.9,1.1,2.1C196.2,150.4,193.3,147.8,195.8,148.5z"/>
	<path class="st0" d="M193.4,148.3c-0.2-0.1-0.4-0.3-0.6-0.4C193.1,148.1,193.3,148.2,193.4,148.3z"/>
	<path class="st0" d="M183.2,145.2c0.9,0.6,2.1,0.9,3.2,0.8c-0.1-0.1-0.3-0.2-0.4-0.3l2.4,0C186.8,145.7,183.4,144.2,183.2,145.2z"
		/>
	<path class="st0" d="M179.7,137.5c0.6,0.3,1.3,0.5,2,0.6C181.4,137.8,179.7,137,179.7,137.5z"/>
	<path class="st0" d="M155.2,138.3c0.3,0.9,0.6,0.1,1.7,0.6l-1.5,0.4c1,0.4,2.1-0.3,1.9-0.5L155.2,138.3z"/>
	<path class="st0" d="M85.2,113.9c-0.1,0-0.3,0-0.4,0C85,113.9,85.1,113.9,85.2,113.9z"/>
	<path class="st0" d="M63.8,102.5c0.8,0.5,1.5,1.2,2.4,1.8c-1.8,0.2,1.5,0.9,0.7,1.5c-0.8-0.1-1.6-0.4-2.2-1
		c-0.4,0.3,0.2,1.1-0.1,1.5c2.2,1.6,3.4-0.3,5.7,1c-0.3,0.5-1.2,0.6,0.4,1.2l-0.4,0c2.8,0.4,1.6,1.9,3.7,1.1l-0.3,0.7
		c1.4-0.1,3.7,0.6,5.1,0.9l-0.1,0.1c4,0.3,2.1,0.5,6.5,1.3l-2.2,0.3c1.4,0.8,2-0.1,3,0.3c-0.1,0.1-0.1,0.5-0.6,0.6
		c1.7,0,3.4,0,5.1,0c1.4-0.3-0.1-0.6-0.2-1c0.6-0.4,2.8,0.5,2.8,1c-0.4,0.1-1.6,0-0.9,0.5l2.1-0.8c2.2,1.3-2.2,1.2-3.5,1.3
		c2.4,0.7,3.3,0.1,5.9,0.7c-0.6-0.2-1.1-0.6-1.5-1.1c0.1-0.9,2.4,0,4.2,0.4c-1-0.6-0.3-0.8,0.6-1c0.1,0,0.2,0,0.3-0.1l0.3-0.1
		l-0.2,0c0-0.1,0-0.2-0.1-0.4c-1.5-0.1-2.4-1-3.4-1.3c0.6,1.6-3.2-0.4-4.5-0.3l-1.4-0.2l-0.5-0.1c-0.1-0.2,0.1-0.3,1-0.4
		c-0.7,0.1-2.8-0.5-2.7,0c-1.6-0.4-3.2-0.9-4.8-1.3c-0.1-0.1-0.2-0.2-0.3-0.3c-0.2,0-0.2,0.1-0.2,0.2c-3.4-1-6.8-2.1-10.1-3.2
		C69.9,105.3,66.8,104,63.8,102.5z"/>
	<path class="st0" d="M63.5,102.9c-0.4-0.3-0.8-0.5-1.3-0.6L63.5,102.9z"/>
	<path class="st0" d="M105.9,113.5c-0.8-0.6,0.8-0.4,1-0.7l-3.3-0.7c0,0.3-0.4,0.6-0.4,0.9L105.9,113.5z"/>
	<path class="st0" d="M102.8,111.5c-0.3,0.2-0.6,0.4-1,0.4l1.8,0.4C103.6,112,103.5,111.8,102.8,111.5z"/>
	<path class="st0" d="M96.7,128.8l1.6,0.1l-0.6-0.1L96.7,128.8z"/>
	<path class="st0" d="M34,81.7L34,81.7C34,81.6,34,81.6,34,81.7z"/>
	<path class="st0" d="M43,94.9L43,94.1l-0.5-0.1L43,94.9z"/>
	<path class="st0" d="M63.6,130.8c0.5,0.2,1,0.4,1.5,0.4C65.1,130.7,64.2,131,63.6,130.8z"/>
	<path class="st0" d="M38.1,58.3c-0.2,0.1-0.4,0.3-0.5,0.5L38.1,58.3z"/>
	<path class="st0" d="M199.1,126.5c0.3,0.1,0.5,0.2,0.8,0.4c0.8,0.3,1.3,1,1,1c1.8,0.3,1.6,0.8,2.2,0.1c1.2,0.1,2,1.2,0.7,1
		c1.1,0.3,2.1,0.6,3.2,0.9l-1.7-1c0.8-0.5,2.7,1.7,3.7,1.1l-3.2-1.6l0.3-0.2c-1-0.2-1.9-0.7-2.6-1.2c0.1-0.1,0.2-0.3,0.8-0.1
		C200.3,125,202.5,127.7,199.1,126.5z"/>
	<path class="st0" d="M193.4,122.7c-0.2,0.3-2-0.1-0.9,0.7c0.4,0,0.7,0.1,1.1,0.3c-0.5,0.6-3.2-0.8-2.8,0.1c1.9,0.5,2.1,0.8,3.5,0.7
		c1.2,0.5,2.4,1.2,3.4,2c0.5,0.1,0.8-0.3,1.5-0.1l-0.4-0.2l0.4-1.1c-0.6-0.1-1.1-0.3-1.7-0.6l3.2,0c-0.4-1.4-3.4-2-4.3-2.8
		c1,1.5-1.2,0,1,1.8l-1.8,0.4C194.9,123.5,194.1,123.1,193.4,122.7z"/>
	<path class="st0" d="M70,32.8c0.3,0,0.7,0,1-0.1C70,32.6,69.9,32.7,70,32.8z"/>
	<path class="st0" d="M30,104.2c-0.1-0.1-0.2-0.2-0.3-0.4C29.8,103.9,29.9,104,30,104.2z"/>
	<path class="st0" d="M22.6,97.8c0,0.1,0,0.3,0,0.4C22.6,98.1,22.6,98,22.6,97.8z"/>
	<path class="st0" d="M36.1,111.5C36.1,111.5,36.1,111.5,36.1,111.5c-0.1-0.1-0.2-0.3-0.3-0.4L36.1,111.5z"/>
	<path class="st0" d="M34.8,117.6c0,0-0.1,0-0.1,0C34.7,117.6,34.7,117.6,34.8,117.6z"/>
	<path class="st0" d="M62.6,130.3l-0.4,0.1C62.5,130.4,62.6,130.4,62.6,130.3z"/>
	<path class="st0" d="M183.3,119l0.1,0C183.4,119,183.3,119,183.3,119z"/>
	<path class="st0" d="M104.8,131.5C104.8,131.5,104.7,131.5,104.8,131.5C104.8,131.5,104.8,131.5,104.8,131.5z"/>
	<path class="st0" d="M61.3,28c0.2,0,0.3,0,0.5,0C61.6,28,61.4,28,61.3,28z"/>
	<path class="st0" d="M37.7,113.2c-0.2-0.1-0.3-0.2-0.5-0.3C37.4,113,37.6,113.1,37.7,113.2z"/>
	<path class="st0" d="M185.9,127.9l0.1,0.1l1.4,0.2l-0.1-0.1L185.9,127.9z"/>
	<path class="st0" d="M46.6,45.2c1.2-0.8,2.4-1.6,3.7-2.3c-2.6,1.3-4.9,3-7,5C44.3,47,45.4,46,46.6,45.2z"/>
	<path class="st0" d="M123.5,134.9l0.8-0.7L123,135L123.5,134.9z"/>
	<path class="st0" d="M36.1,78.5l0.2,1.3C36.3,79.4,36.2,78.9,36.1,78.5z"/>
	<path class="st0" d="M42.6,47.3L42.6,47.3C42.7,47.3,42.7,47.3,42.6,47.3z"/>
	<path class="st0" d="M41.7,48.6l0-0.6l-0.5,2c0.6-0.7,1.2-1.4,1.9-2l-0.3-0.6C42.5,47.9,42.2,48.3,41.7,48.6z"/>
	<path class="st0" d="M40.7,49.1c-0.4-0.4-1.4,1-1.5,1.4l1.1,1.1c0.3-0.6,0.3-1.1,0.1-1.3c-0.2-0.2-0.6-0.3-0.9-0.1
		C40.2,49.1,40.7,50.4,40.7,49.1z"/>
	<path class="st0" d="M35.5,59.6l-0.2-0.5L34.9,60L35.5,59.6z"/>
	<path class="st0" d="M36.3,57.1L36.3,57.1c-0.2,0.3-0.4,0.7-0.6,1.2c-0.2,0-0.5,0-0.7,0l0.3,0.9l0.4-0.8c0.6,0.1,1.1,0.1,1.6-1.2
		L36.3,57.1l0.6-0.9c-0.2,0.3-0.5,0.6-0.7,0.9L36.3,57.1z"/>
	<path class="st0" d="M22,96.5c0.3-0.3-0.5-0.9-0.8-1.5C21.4,95.5,21.7,96.1,22,96.5z"/>
	<path class="st0" d="M38.9,53.3c0.1,0.1,0.3,0,0.4-0.2c0.1-0.2,0.2-0.4,0.3-0.6C39.4,52.7,39,52.9,38.9,53.3z"/>
	<path class="st0" d="M60.9,41.4c-0.2-0.2-0.4-0.2-0.7-0.2L60.9,41.4z"/>
	<path class="st0" d="M76.2,33.8l-0.1,0.1l1.3,0.3c-1.1-0.4-3.4-1.6-4.2-1.2C73.8,32.7,75.4,33.9,76.2,33.8z"/>
</g>
</svg>
