<svg xmlns="http://www.w3.org/2000/svg" width="244.086" height="41.736" viewBox="0 0 244.086 41.736"><g transform="translate(-2137.553 -990.088)"><path d="M2158.521,1015.408c1.817-2.422,9.145-20.166,8.96-22.716-.122-1.817-1.82-2.6-3.331-2.6a4.875,4.875,0,0,0-3.332,1.332c-.968.968-2.907,5.148-4.179,7.934-1.39,2.907-2.662,5.814-3.994,8.722l-.121.242c-.666-.9-2.241-3.083-3.875-5.506-2-2.907-4.058-6-4.543-6.722-.792-1.211-2.785-1.575-3.815-1.575s-2.907.423-2.725,2.119c.181,1.574,10.234,14.049,12.779,16.956-.061,1.756-1.152,7.934-.849,10.6a3.278,3.278,0,0,0,1.03,2.3,20.527,20.527,0,0,0,6.663,2.241,1.918,1.918,0,0,0,1.756-.908C2159.975,1026.188,2157.794,1016.379,2158.521,1015.408Z" transform="translate(0 0)" fill="#333"/><path d="M2185.675,995.081a3.116,3.116,0,0,0-2.807-1.244,11.058,11.058,0,0,0-4.921,1.244c-1.188.654-13.518,22.716-12.923,27.421.216,1.78,2.166,2.375,3.461,2.375,1.672,0,1.888-.592,2.375-1.835a42.89,42.89,0,0,1,2.267-5.677c1.784-.274,7.841-1.138,12.112-2.217.482,1.786,2.428,10.869,3.131,11.681a2.468,2.468,0,0,0,1.893.756,4.922,4.922,0,0,0,3.569-1.727,3.354,3.354,0,0,0,.17-2.115C2193.354,1018.441,2188.374,1000.218,2185.675,995.081Zm-7.606,11.38c.943-1.321,2.31-2.4,3.62-2.4a2,2,0,0,1,.774.141v.036a9.567,9.567,0,0,1-1.2,4.472,5.346,5.346,0,0,1-3.521,2.042c-.6,0-.775-.317-.845-.881a3.294,3.294,0,0,1,.109-1.237C2177.366,1007.893,2177.722,1007.163,2178.07,1006.46Z" transform="translate(2.184 0.297)" fill="#333"/><path d="M2227.963,1003.945a2.5,2.5,0,0,0-1.4-.379,8.669,8.669,0,0,0-5.138,2.325c-1.026,1.082-3.843,3.623-6.326,5.84a73.724,73.724,0,0,1-1.835-10.112c-.161-1.083-.377-2-.54-2.65a2.5,2.5,0,0,0-2.432-1.727,5.929,5.929,0,0,0-4.164,2.217c-.974,1.19-11.518,19.035-11.3,20.6.109,1.024,1.515,1.727,2.758,1.727.648,0,2-.161,2.483-.972,1.352-2.216,4.114-6.975,6.921-11.085.325,1.786,1.406,8.276,2.325,9.247a6.224,6.224,0,0,0,4.055,1.352,3.448,3.448,0,0,0,2.7-.972c1.244-1.461,5.192-6.056,7.084-7.733.486,2.163,2.055,8.922,5.244,8.922,1.244,0,3.731-.915,4.11-2.375a4.415,4.415,0,0,0,.057-1.2C2232.181,1013.894,2229.042,1004.648,2227.963,1003.945Z" transform="translate(4.556 0.569)" fill="#333"/><path d="M2254.944,995.081a3.115,3.115,0,0,0-2.807-1.244,11.055,11.055,0,0,0-4.92,1.244c-1.19.654-13.519,22.716-12.923,27.421.215,1.78,2.165,2.375,3.46,2.375,1.672,0,1.888-.592,2.375-1.835a42.889,42.889,0,0,1,2.267-5.677c1.784-.274,7.841-1.138,12.113-2.217.485,1.786,2.433,10.869,3.136,11.681a2.462,2.462,0,0,0,1.894.756,4.92,4.92,0,0,0,3.569-1.727,3.355,3.355,0,0,0,.166-2.115C2262.623,1018.441,2257.643,1000.218,2254.944,995.081Zm-4.276,8.982a2,2,0,0,1,.774.141v.036a9.567,9.567,0,0,1-1.2,4.472,5.346,5.346,0,0,1-3.521,2.042c-.6,0-.775-.317-.845-.881a2.54,2.54,0,0,1-.016-.349c.646-1.369,1.308-2.722,1.926-3.954A4.3,4.3,0,0,1,2250.668,1004.063Zm.115-3.73-.083-.035c.007,0,.02-.021.024-.021h0C2250.74,1000.273,2250.761,1000.3,2250.783,1000.333Z" transform="translate(7.694 0.297)" fill="#333"/><path d="M2286.068,1026.7c-.374-.273-1.3-.813-2.591-1.677-4.542-2.974-9.949-7.516-10.652-12.544-.974-7.138,8.436-14.226,13.194-16.062,1.028-.376,2.056-1.079,1.892-2.325-.27-2.162-3.418-3.559-4.921-3.513a2.605,2.605,0,0,0-.811.162c-9.2,3.3-18.1,11.766-17.077,21.121,1.028,8.653,10,15.863,17.4,19.594a3.2,3.2,0,0,0,1.511.324c.972,0,1.188-.324,1.835-.432a2.682,2.682,0,0,0,1.727-2.323A3.489,3.489,0,0,0,2286.068,1026.7Z" transform="translate(10.14 0.039)" fill="#333"/><path d="M2306.534,995.081a3.116,3.116,0,0,0-2.807-1.244,11.058,11.058,0,0,0-4.92,1.244c-1.189.654-13.519,22.716-12.924,27.421.216,1.78,2.165,2.375,3.46,2.375,1.671,0,1.888-.592,2.375-1.835a42.955,42.955,0,0,1,2.267-5.677c1.785-.274,7.841-1.138,12.112-2.217.487,1.786,2.435,10.869,3.137,11.681a2.464,2.464,0,0,0,1.893.756,4.922,4.922,0,0,0,3.569-1.727,3.355,3.355,0,0,0,.166-2.115C2314.213,1018.441,2309.233,1000.218,2306.534,995.081Zm-3.833,8.982a2,2,0,0,1,.637.1c.034.164.069.328.1.5a9.569,9.569,0,0,1-1.164,4.049,5.346,5.346,0,0,1-3.521,2.042c-.6,0-.775-.317-.845-.881C2297.627,1007.76,2300.271,1004.063,2302.7,1004.063Z" transform="translate(11.798 0.297)" fill="#333"/><path d="M2334.021,994.939c-2.866,0-8.922,1.19-13.789,2.541-.813.216-2.054,14.551-1.893,17.574.108,2.6.216,4.651.432,6.219.432,3.627,1.354,5.354,2.433,5.786a3.5,3.5,0,0,0,1.028.216,3.252,3.252,0,0,0,2.865-2.051c.433-1.19.433-5.14.487-6.651,3.137-.865,6.544-1.19,9.788-1.784,1.13-.216,3.023-.381,2.807-2-.27-2.216-4.11-3.352-5.57-3.352-2.542,0-4.763.918-7.138,1.4a46.261,46.261,0,0,1,1.028-10.437c3.3-.972,7.192-1.187,10.707-1.619a12.389,12.389,0,0,0,1.943-.379,1.58,1.58,0,0,0,1.09-1.681,2.683,2.683,0,0,0-.812-1.46A7.014,7.014,0,0,0,2334.021,994.939Z" transform="translate(14.38 0.386)" fill="#333"/><path d="M2358.008,998.64c4.218-.865,7.462-2.433,7.4-3.037-.162-2.163-5.247-3.623-6.434-3.623a43.685,43.685,0,0,0-12.437,2.812,12.668,12.668,0,0,0-1.512-.162c-2.055,0-3.352,1.082-3.082,3.082a6.55,6.55,0,0,0,.324,1.3c-.053.378-.324,3.082-.54,6.705a76.906,76.906,0,0,0,.27,12.653c.383,3.245,1.247,6.438,2.866,8.274a5.45,5.45,0,0,0,4.218,1.677,12.9,12.9,0,0,0,3.785-.92c1.677-.487,8.6-2.378,8.328-4.6-.162-1.08-4.707-2.591-6.434-2.591a12.532,12.532,0,0,0-3.677.864c-.592.216-1.133.486-1.728.648a16.786,16.786,0,0,0-.054-2.865,7.927,7.927,0,0,1-.108-1.835c4.11-1.189,8.925-2.432,10.869-2.432h.487c1.514,0,3.894-1.3,3.948-2.758-.162-1.139-3.515-3.244-7.03-3.19a35.541,35.541,0,0,0-8.652,1.675c0-2.487-.054-7.358.054-9.733C2351.14,999.992,2354.818,999.344,2358.008,998.64Z" transform="translate(16.23 0.151)" fill="#333"/></g></svg>