<svg xmlns="http://www.w3.org/2000/svg" width="226.1" height="38.661" viewBox="0 0 226.1 38.661"><g transform="translate(-2137.553 -990.088)"><path d="M2156.976,1013.542c1.683-2.244,8.471-18.68,8.3-21.042-.113-1.683-1.686-2.412-3.086-2.412a4.515,4.515,0,0,0-3.086,1.234c-.9.9-2.693,4.769-3.871,7.349-1.288,2.693-2.466,5.386-3.7,8.079l-.112.224c-.617-.837-2.076-2.856-3.59-5.1-1.852-2.693-3.759-5.554-4.208-6.227-.734-1.122-2.58-1.459-3.534-1.459s-2.693.392-2.524,1.963c.168,1.458,9.48,13.014,11.837,15.707-.056,1.627-1.067,7.349-.786,9.818a3.037,3.037,0,0,0,.954,2.131,19.016,19.016,0,0,0,6.172,2.076,1.777,1.777,0,0,0,1.627-.841C2158.323,1023.528,2156.3,1014.442,2156.976,1013.542Z" fill="#fff"/><path d="M2184.152,994.988a2.886,2.886,0,0,0-2.6-1.152,10.244,10.244,0,0,0-4.558,1.152c-1.1.606-12.522,21.042-11.971,25.4.2,1.649,2.006,2.2,3.206,2.2,1.549,0,1.749-.548,2.2-1.7a39.747,39.747,0,0,1,2.1-5.259c1.653-.254,7.263-1.054,11.22-2.054.446,1.654,2.249,10.068,2.9,10.82a2.286,2.286,0,0,0,1.753.7,4.559,4.559,0,0,0,3.306-1.6,3.106,3.106,0,0,0,.158-1.959C2191.265,1016.627,2186.652,999.747,2184.152,994.988Zm-7.045,10.541a4.668,4.668,0,0,1,3.353-2.221,1.85,1.85,0,0,1,.717.131v.033a8.862,8.862,0,0,1-1.109,4.142,4.952,4.952,0,0,1-3.261,1.892c-.555,0-.718-.294-.783-.816a3.049,3.049,0,0,1,.1-1.146C2176.455,1006.856,2176.785,1006.18,2177.107,1005.529Z" fill="#fff"/><path d="M2225.521,1003.451a2.319,2.319,0,0,0-1.3-.351,8.03,8.03,0,0,0-4.759,2.154c-.951,1-3.56,3.356-5.86,5.41a68.256,68.256,0,0,1-1.7-9.367c-.149-1-.349-1.855-.5-2.455a2.317,2.317,0,0,0-2.253-1.6,5.493,5.493,0,0,0-3.857,2.054c-.9,1.1-10.669,17.632-10.469,19.084.1.949,1.4,1.6,2.555,1.6.6,0,1.849-.149,2.3-.9,1.252-2.053,3.811-6.461,6.411-10.268.3,1.654,1.3,7.666,2.154,8.566a5.765,5.765,0,0,0,3.756,1.252,3.194,3.194,0,0,0,2.5-.9c1.152-1.353,4.809-5.61,6.562-7.163.45,2,1.9,8.265,4.858,8.265,1.152,0,3.456-.848,3.807-2.2a4.091,4.091,0,0,0,.053-1.109C2229.428,1012.667,2226.521,1004.1,2225.521,1003.451Z" fill="#fff"/><path d="M2253.421,994.988a2.886,2.886,0,0,0-2.6-1.152,10.243,10.243,0,0,0-4.558,1.152c-1.1.606-12.523,21.042-11.971,25.4.2,1.649,2.005,2.2,3.205,2.2,1.549,0,1.749-.548,2.2-1.7a39.713,39.713,0,0,1,2.1-5.259c1.653-.254,7.263-1.054,11.22-2.054.45,1.654,2.254,10.068,2.905,10.82a2.28,2.28,0,0,0,1.754.7,4.558,4.558,0,0,0,3.306-1.6,3.106,3.106,0,0,0,.153-1.959C2260.534,1016.627,2255.921,999.747,2253.421,994.988Zm-3.961,8.32a1.85,1.85,0,0,1,.717.131v.033a8.862,8.862,0,0,1-1.109,4.142,4.952,4.952,0,0,1-3.261,1.892c-.555,0-.718-.294-.783-.816a2.288,2.288,0,0,1-.015-.323c.6-1.268,1.211-2.521,1.784-3.663A3.986,3.986,0,0,1,2249.46,1003.308Zm.107-3.455-.077-.032c.006,0,.018-.019.022-.019h0C2249.527,999.8,2249.546,999.823,2249.567,999.853Z" fill="#fff"/><path d="M2284.517,1024.041c-.346-.253-1.2-.753-2.4-1.553-4.207-2.755-9.216-6.962-9.867-11.62-.9-6.612,7.814-13.178,12.222-14.878.952-.348,1.9-1,1.752-2.154-.25-2-3.166-3.3-4.558-3.254a2.412,2.412,0,0,0-.751.15c-8.519,3.055-16.771,10.9-15.819,19.565.952,8.015,9.259,14.694,16.121,18.15a2.962,2.962,0,0,0,1.4.3c.9,0,1.1-.3,1.7-.4a2.484,2.484,0,0,0,1.6-2.152A3.232,3.232,0,0,0,2284.517,1024.041Z" fill="#fff"/><path d="M2305.011,994.988a2.886,2.886,0,0,0-2.6-1.152,10.242,10.242,0,0,0-4.558,1.152c-1.1.606-12.523,21.042-11.972,25.4.2,1.649,2,2.2,3.2,2.2,1.548,0,1.749-.548,2.2-1.7a39.78,39.78,0,0,1,2.1-5.259c1.653-.254,7.263-1.054,11.22-2.054.451,1.654,2.255,10.068,2.906,10.82a2.282,2.282,0,0,0,1.753.7,4.559,4.559,0,0,0,3.306-1.6,3.107,3.107,0,0,0,.154-1.959C2312.124,1016.627,2307.511,999.747,2305.011,994.988Zm-3.551,8.32a1.851,1.851,0,0,1,.59.1c.032.152.064.3.1.46a8.862,8.862,0,0,1-1.078,3.751,4.952,4.952,0,0,1-3.261,1.892c-.555,0-.718-.294-.783-.816C2296.76,1006.733,2299.21,1003.308,2301.46,1003.308Z" fill="#fff"/><path d="M2332.864,994.939c-2.655,0-8.265,1.1-12.773,2.354-.753.2-1.9,13.479-1.753,16.279.1,2.4.2,4.308.4,5.761.4,3.36,1.254,4.96,2.254,5.36a3.24,3.24,0,0,0,.952.2,3.012,3.012,0,0,0,2.654-1.9c.4-1.1.4-4.761.451-6.161,2.906-.8,6.062-1.1,9.067-1.653,1.047-.2,2.8-.353,2.6-1.853-.25-2.053-3.807-3.1-5.159-3.1-2.355,0-4.412.85-6.612,1.3a42.855,42.855,0,0,1,.952-9.668c3.055-.9,6.662-1.1,9.918-1.5a11.48,11.48,0,0,0,1.8-.351,1.463,1.463,0,0,0,1.01-1.557,2.484,2.484,0,0,0-.752-1.352A6.5,6.5,0,0,0,2332.864,994.939Z" fill="#fff"/><path d="M2356.8,998.149c3.907-.8,6.912-2.254,6.855-2.813-.15-2-4.86-3.356-5.96-3.356a40.466,40.466,0,0,0-11.521,2.605,11.743,11.743,0,0,0-1.4-.15c-1.9,0-3.1,1-2.855,2.855a6.056,6.056,0,0,0,.3,1.2c-.049.35-.3,2.855-.5,6.211a71.243,71.243,0,0,0,.25,11.721c.355,3.006,1.155,5.964,2.655,7.664a5.049,5.049,0,0,0,3.907,1.553,11.949,11.949,0,0,0,3.506-.852c1.553-.451,7.964-2.2,7.714-4.257-.15-1-4.36-2.4-5.96-2.4a11.612,11.612,0,0,0-3.406.8c-.548.2-1.049.45-1.6.6a15.568,15.568,0,0,0-.05-2.654,7.343,7.343,0,0,1-.1-1.7c3.807-1.1,8.268-2.253,10.068-2.253h.451c1.4,0,3.607-1.2,3.657-2.555-.15-1.055-3.256-3.005-6.512-2.955a32.923,32.923,0,0,0-8.014,1.552c0-2.3-.05-6.816.05-9.016C2350.436,999.4,2353.843,998.8,2356.8,998.149Z" fill="#fff"/></g></svg>